<svg width="374" height="308" viewBox="0 0 374 308" fill="none" xmlns="http://www.w3.org/2000/svg">
<path fill-rule="evenodd" clip-rule="evenodd" d="M0.512704 105.925L0.615245 105.873H0.717786L0.769056 105.771L0.922867 105.72L0.974138 105.514L1.07668 105.258L1.17922 105.156L1.28176 105.053V105.002H1.23049V104.797L1.33303 104.284V104.233V104.181V103.925L1.3843 103.874L1.33303 103.823L1.28176 103.566L1.23049 103.412L1.33303 103.361L1.23049 103.31L1.12795 103.259L1.07668 103.156V103.054V102.848H1.12795V102.643L1.07668 102.541L1.02541 102.387V102.284H0.974138L0.871597 102.131L0.820326 102.028H0.769056L0.615245 101.977L0.512704 101.874V101.772L0.563974 101.72L0.666515 101.669L0.769056 101.618L0.871597 101.515L0.974138 101.464L1.12795 101.413L1.17922 101.362L1.33303 101.259L1.48684 101.003L1.53811 100.951V100.798L1.64065 100.644L1.69192 100.593L1.74319 100.541L1.897 100.439H2.10209L2.20463 100.336L2.40971 100.131H2.46098L2.66606 100.029H2.81987L3.02495 99.4646L3.07622 99.2595L3.12749 99.1057V98.9519V98.593L3.07622 98.4904V98.3879L3.02495 98.1315L2.92241 97.7214L2.81987 97.5676L2.7686 97.4138L2.81987 97.3112V97.2087L2.7686 97.1574L2.81987 96.9523V96.7985V96.696L2.7686 96.3884L2.71733 96.0807L2.61479 95.9269V95.7731V95.6193L2.56352 95.4655L2.46098 95.1579L2.56352 94.9015L2.61479 94.799V94.7477L2.87114 94.6452H2.97368L3.28131 94.5939L3.33258 94.5426L3.43512 94.3375L3.48639 93.9786H3.53766L3.6402 93.7223V93.6198L3.79401 93.2609L3.84528 93.0045V92.7994V92.5431V92.4405L3.89655 92.338L3.84528 92.2867V92.1842V91.9791L6.76769 92.4918V91.4151L7.38294 91.1588L8.30581 91.5689L7.99818 91.005L8.30581 89.5181L8.92105 89.4156L8.6647 89.0054L8.97232 88.4927H9.94646L10.049 87.6724L11.1769 87.8775L11.6897 87.6724L14.407 88.3389L14.6633 89.877L15.1248 90.2872L14.5095 92.2355L15.2273 93.1071L15.9451 92.8507L16.2014 91.774L16.5091 92.0304L16.2014 93.2096L18.0985 95.3117L18.4061 95.2604L18.4573 93.7736L20.2005 94.0299L21.0721 94.7477L22.0463 94.4913L23.1229 95.0553L24.1484 95.9782L24.7636 95.568L24.7123 94.799L25.6352 93.8248L25.5327 92.6456H25.9941L26.4043 91.774L26.5068 92.338L27.4809 92.5431L27.8911 91.8253L29.019 91.1588L29.0703 89.2105L29.8394 88.544L31.7364 89.0054L32.4029 88.2364L32.2491 88.8516L32.6592 89.2618L32.7618 88.6465L33.1207 88.8003L33.6334 88.4927L33.9923 89.1592L35.2228 88.5953L34.7613 86.1343L34.9664 85.2114L35.5304 84.9551L35.0177 83.3144L34.9151 81.5712L34.505 80.1356L34.1974 80.0331L33.4796 80.5458L33.4283 79.7255L33.6334 79.3153L34.1974 79.4178L34.6075 78.7513L35.1715 78.5463L36.0944 76.034L37.2736 74.6497L37.1198 73.7268L38.4015 72.4451L37.5299 72.2913L37.735 71.3171L37.5299 70.343L36.6583 70.0866L35.9918 69.8303L35.3766 69.779L35.2228 69.6765L35.274 69.4714L35.069 68.8561L34.9151 68.5485L34.7613 68.3947L34.2486 68.2922L34.1974 68.1896L34.3512 68.0871L34.1974 67.8307L34.0435 67.6769L33.6334 67.5231L33.5821 67.1642L33.6847 67.0104L33.941 66.9079L34.1974 66.8566L34.2999 66.7541L34.4024 66.6515L34.9151 66.6003L35.1202 66.549L35.3253 66.4464L35.4791 65.985V65.7799L35.7867 65.6774L35.9406 65.5236L35.9918 65.421L36.0944 65.0621L35.6842 64.652L35.9406 64.2418L36.1969 64.0367L36.966 63.6778L38.2477 65.421L37.8376 65.9337L38.299 67.0104L39.1706 66.1901L39.5295 66.3439L40.0935 65.985L41.2214 67.2668H42.1955L43.9387 68.3434L44.4514 70.4455L45.887 71.3684H46.451L47.0662 70.7019L47.4764 70.5993L49.1683 70.8557L49.6297 71.1633L51.3729 69.4714L52.0907 69.2663L52.2445 69.5227L54.0903 68.446L54.039 66.3439L53.8339 65.9337L53.1161 65.985L52.9623 65.0109L53.8852 64.6007L54.8593 65.0109L55.8335 63.3189L56.6538 63.2164L57.4741 63.5753L58.7559 62.6524L58.6533 61.7808L58.7559 61.3194L58.6533 60.0889L59.0122 59.5249L58.7559 59.2173L58.8584 58.4483L58.5508 57.9356L57.8843 57.5254L57.7305 55.1157L56.4487 53.8339L56.0898 53.475L56.0386 53.1161V52.8085L56.1411 52.5009L56.3462 52.0907L56.7563 52.0395L56.9614 51.9369L56.9101 51.6806L56.7563 51.4242L56.5513 51.014L56.1924 51.0653L55.3208 50.8602L55.0131 50.6552L54.7055 50.5013L54.1415 50.245L53.9877 50.1425L53.7827 49.8861L52.6547 48.9632L51.8344 47.9891L52.3983 47.5789L52.5009 47.4764L52.6034 47.2713L52.5522 46.9637V46.0921L52.2445 46.3997L51.6293 46.9124L51.4242 46.9637L50.9115 46.7073L50.3988 46.9124L49.1683 46.2459H49.117L49.0145 46.0921L48.9632 45.6307L49.4247 44.9641L49.5785 44.6565L49.1683 44.9641L48.9632 45.2718L48.0916 44.9641L47.9378 44.4002L47.1688 45.2718L46.5023 44.9129L45.6307 44.9641L45.5281 44.2976L44.1951 44.3489L43.99 43.4773L44.1951 43.3235L43.5286 43.0671L43.426 42.7082H42.4006V42.0417L42.7595 41.7341L43.221 41.529L43.5286 41.6316L43.7849 42.5032L44.6052 42.7595L44.554 43.7337L46.6048 42.8108L48.0404 42.8621L48.1942 43.3235L49.117 43.4773L49.6297 42.8621L49.3221 42.093H50.4501L51.2191 42.1443L51.7831 41.3752L52.9623 41.8366L53.5776 40.7087H52.9111L52.8085 40.2985L52.8598 39.4269L53.6288 38.4015L53.4238 37.2223L54.603 37.0685L56.1411 37.4274L58.7046 35.7355L59.0635 33.4796L58.9097 30.6597L59.6275 31.1211L61.7296 29.8906L63.2164 29.7881L64.088 26.7631L64.4982 27.2759L64.5494 27.9424L65.9337 28.4038L66.6003 28.3013V27.7373L66.8566 27.686L68.1384 28.1987L69.4201 27.4809L71.0095 27.8911L71.3171 26.917L71.8298 26.9682L72.0862 27.5835L72.3938 27.686L72.9578 27.5322L73.1629 27.122L74.9573 26.8657L75.8802 26.0966L76.2391 23.9433L75.3162 23.7895L75.2137 23.0204L75.0086 22.6102L74.8035 22.9691L74.2395 23.0204L73.2141 24.1484H72.5989L71.8298 23.4306L71.3684 24.0458L70.343 24.456L69.3176 22.8666L67.6257 23.4306L67.1642 23.1229L64.1393 23.0204L63.1651 23.4818L62.191 23.328L61.6783 23.4818L61.063 23.9433L60.0889 23.892L59.9864 23.9945L60.0376 24.1996L60.2427 24.8661L60.1915 24.9174L60.0376 24.8661L59.6787 24.7636L59.4737 23.9945L59.0635 25.1225L58.2944 25.4301L58.0381 24.7636L56.9614 24.9174L56.6538 25.4814L55.8847 25.6865L55.7309 25.4301L55.4746 25.8403L54.7055 26.0966L54.039 24.8661L53.0136 21.0209L52.2958 20.9183L51.4755 19.9955L51.4242 19.7904L51.9882 19.3289L53.2699 19.0726L54.039 19.4315L54.7055 18.97L55.167 19.1239L55.8335 18.8162L56.3974 17.7396L56.3462 16.1502L56.0386 15.6375L54.0903 14.0994L53.3725 13.074L53.8339 12.8176L53.7314 12.0485L53.9877 11.7409L53.5776 11.5871L53.7314 11.2795L53.4238 10.7668H52.6034L52.4496 10.1515L53.8339 9.38248H55.5771L56.5 8.61343L57.4741 8.51089L58.7046 7.84437L63.1651 5.28085L67.6257 3.74274L68.446 3.99909L69.4714 4.97323L70.1379 5.12704L74.137 4.66561L74.8035 3.02495L76.8543 2.66606L77.931 1.69192L78.5975 0.512704L80.7509 0L81.0585 0.307622L81.161 0.717786L81.1098 1.17922L81.0072 1.69192L81.0585 2.92241L81.7763 3.17876L82.289 2.97368L83.2631 3.48639L83.2119 3.79401V4.10163L83.5195 4.5118L83.9809 4.66561L84.1347 5.22958L84.5962 5.8961L84.4936 6.87023L84.2373 10.2541L83.8271 10.9206L83.9296 12.1511L83.8784 13.1765L84.2373 15.0222L84.8012 15.2786L86.0317 15.2273L86.4419 16.0476L86.2368 16.9705L86.5957 17.1243L87.6724 17.3294L87.7749 17.8934L89.3643 18.2523L90.9024 18.6112L91.9278 18.765L92.1842 19.3802L92.7482 19.7391L96.132 20.2518L97.1061 20.7132L98.6442 20.5082L99.5671 20.1493L100.234 19.7904L100.695 19.8416H102.079L102.951 20.8158L106.078 21.431L107.104 22.3539L108.95 22.7128L110.488 24.7123L111.205 26.0454L111.923 27.8398L113.256 28.8652L113.82 29.019L114.128 29.2754L114.589 29.3779L115.717 29.9932L116.281 30.2495L117.358 30.0445L118.383 30.8648L118.794 30.8135L118.999 30.4033L119.563 30.0957L119.973 31.2749L120.434 30.9673L120.793 31.4288L122.075 30.9673H122.434L123.254 30.9161L123.767 31.3262L124.331 31.5826L124.997 31.7876L125.92 31.2749L127.458 31.2237L128.689 31.48L129.919 31.4288L130.381 31.8389L130.637 32.0953L131.816 32.1465L134.841 31.6851L136.841 31.7364L137.764 31.2749L139.763 31.0699L140.686 31.48L142.532 31.2749L144.019 31.5826L144.531 31.2749L145.403 31.3775L146.531 30.8135L147.813 31.2237L149.761 30.9673L151.248 31.9415L152.837 32.3004L153.965 33.0694L156.067 32.044L157.451 35.7355L158.169 36.1969L158.836 37.6325L158.169 38.6579L159.041 39.3244L159.143 40.7087L159.4 41.0676L159.143 41.8879L157.4 41.5803L156.785 42.1955L157.4 42.6057L157.964 43.3748L157.759 44.0925L159.246 45.0667V46.0408L163.501 45.5794L164.373 46.5535L168.936 46.3484L170.166 45.6307L170.269 44.9641L171.243 45.0154L172.115 44.6052L172.32 43.4773L172.679 43.426L173.243 42.657L173.704 40.6574L175.601 41.0163L176.934 40.196L179.549 40.5549L179.857 40.8625L180.215 40.196V39.068L180.728 38.1452H181.446L181.548 36.4533L179.908 33.8897L184.779 30.3521L185.291 28.6602L187.137 27.5322L187.445 26.4043L186.163 24.8149L186.983 24.456L187.24 24.3534L187.342 24.1484L186.983 23.1742V23.1229V22.8666L187.034 22.3539L187.445 21.8925L187.547 21.3798L187.701 21.2772L188.573 21.4823L189.188 21.6361L189.444 21.5336L189.649 21.3798L189.752 20.9183L189.803 20.7132L189.957 20.5594L190.111 20.4569L190.264 20.4056L190.931 20.5594L191.444 20.9183L192.008 21.1234L192.264 21.2259L192.52 21.0721L192.674 20.9183L192.777 20.662L192.982 20.4056L193.341 20.1493L193.597 19.8416L194.007 19.6366L194.366 19.3802L194.622 19.0726L194.879 18.9188L195.238 18.765L195.699 18.5599L195.853 18.2523L196.161 18.0472L196.468 17.8934L196.622 17.6883L196.981 17.3294L197.288 17.1243L197.596 17.0218L198.109 16.6116L198.57 16.4065L199.237 15.9451L199.698 15.7913L199.903 15.5349L200.211 15.176L200.672 15.2273L202.416 14.9197L204.056 15.4837L204.671 14.8171L205.441 15.0222L205.235 15.9451L206.312 16.4578L206.927 16.1502L207.081 15.2786L208.568 15.3811L209.029 14.7146L209.747 14.971L209.901 14.3557L209.491 13.7405L209.593 13.1765L215.079 13.4328L217.54 13.2278L218.463 13.3303L219.386 13.7405L220.36 14.8684L220.617 15.0735L221.078 15.5349L221.437 16.0989L222.77 19.7391V22.8666L222.872 23.1229L223.641 22.8666L224.308 23.4306L224.411 23.8407L223.59 24.4047L222.616 24.456L219.745 23.2255L217.643 23.1229L217.13 23.6869L216.105 23.8407L215.797 24.3022L215.848 24.8661L216.771 25.6352V26.4043V27.2246L218.156 27.9936V28.9678L218.514 29.8394L218.822 31.5313L219.796 31.6851L220.463 31.1211L220.873 30.0957L221.693 30.5059L221.898 31.3775L221.95 31.9927L223.18 32.1465L223.949 32.3004L224.205 32.1978L224.154 31.8902L223.795 31.0186L224.154 31.0699L225.436 30.9161L225.744 30.8648H226.205L226.513 30.9673L226.718 31.2237L226.872 31.9415L227.128 32.044L227.282 31.8902L227.641 30.8648L227.999 30.8135L228.153 31.7364L228.256 31.9415L228.563 32.0953L228.82 32.4542L229.23 32.5054L230.204 32.1465L230.358 31.7364L230.717 31.2237H231.588L232.511 31.0699L233.127 30.147H234.306L235.126 30.6597L236.715 31.0699L236.921 31.48L237.177 31.1724L237.792 31.3262L238.202 30.9161L239.074 30.5059L239.792 30.0957L241.381 30.0445L242.099 29.7368L242.817 29.3779L244.919 28.6089L249.841 25.9941L250.251 25.1738L250.148 24.6098L250.046 23.2768L250.405 23.0204L251.943 23.2768L252.507 23.1229L252.712 22.8153L253.019 22.7128L254.404 22.5077L254.506 22.4052L254.558 22.2514L254.147 21.7899L254.199 21.5848L254.404 21.3798L255.788 21.7387L256.557 22.2001L256.813 22.1488L257.736 21.6361L257.941 22.0463L258.557 22.0975L259.274 21.2259L259.018 20.3031L259.377 20.098L261.325 20.9183L260.915 22.0975L261.325 22.8153L261.223 23.5331L261.787 24.9174L261.684 25.8403L262.658 25.9941L262.863 25.6865L263.94 25.5839L265.222 24.5073L267.888 25.1225L267.785 25.5839L268.708 26.5581L269.631 26.4555L270.349 26.9682L271.067 26.6606L272.041 26.917L273.169 26.7631L275.014 27.6347L275.681 27.2246L275.989 26.1992L276.399 26.2504L276.655 26.4043L277.168 27.4809L277.732 26.4043H280.449L280.757 26.0966L282.038 26.6093L282.756 25.8403L284.397 26.5068L284.807 25.225L284.038 24.7123V23.9945L283.166 23.2255L283.525 22.8153L284.243 22.9691L283.474 22.4564L283.577 21.3798L284.807 21.3285L286.345 20.1493L287.217 20.098L287.935 20.9696L290.908 20.662L291.472 21.0721L292.19 20.5594L291.985 20.098L293.267 19.6366L293.882 19.1239L294.19 18.0985L297.42 18.5599L297.83 17.5345L297.368 17.073L297.522 16.304L298.137 15.4324L297.83 15.0735L299.47 15.4324L300.393 16.4578L303.264 16.9192L303.316 17.1756L305.366 17.3807L306.341 16.5603L307.469 17.0218L308.238 16.7654L309.622 17.4319L310.237 19.3289L310.647 19.4828L310.032 20.4569L310.442 20.9183L310.391 21.4823L311.827 22.559L311.775 23.7382L312.852 23.5844L313.57 23.7895L315.057 23.1742L316.8 23.1229L317.518 21.995H318.492L318.902 21.4823L319.825 21.431L320.645 20.9183L321.209 21.1234L323.362 21.9437L324.849 23.6357L326.285 24.4047L327.618 24.456L327.874 24.7636L328.951 24.7123L329.207 23.6357L329.874 23.1229H331.258L332.489 24.1996L333.975 23.1229L335.052 23.2768L335.821 23.1229L337.052 21.6874L337.769 21.3285L338.128 20.5594L339.461 20.7132L341.307 19.3802H342.076L342.384 19.8416L344.588 20.0467L345.255 21.0721L345.819 21.431L346.024 22.0975L347.254 22.3026L347.716 23.2255L347.46 23.5331L349.51 24.7636L349.767 26.3017L350.279 27.1733L350.946 27.5835L351.407 28.9165L350.382 30.1983L350.177 30.8135L350.331 31.3775L351.1 31.9415L352.74 32.0953L353.407 30.9673H353.92H354.125L354.33 31.0186L355.099 31.0699L355.509 31.2237L356.073 31.6338L358.021 32.0953L358.226 32.9669L358.79 33.1719V33.941L359.2 34.0948L359.611 34.4024L360.892 34.2999H362.02L362.277 34.2486L363.251 35.069V35.7355L362.43 36.1456L361.559 38.0426L358.021 40.2985L357.303 40.5036L356.381 40.2985L355.765 41.3239H355.253L354.278 41.8879L353.509 41.7854L352.638 44.2976L353.151 44.7591H352.689L352.381 45.4768L352.792 46.2972L353.048 48.3993L351.971 49.7323L352.638 50.5526L353.099 52.8598L353.868 53.7314L357.303 53.4238L357.15 53.7827L357.662 55.5771L357.765 58.9097L357.406 60.294L357.509 61.5758L357.919 62.4473L357.97 63.6266L358.944 65.0109V65.7799L355.765 66.9079L354.74 67.882L354.586 68.7536L355.458 70.1892L355.97 70.2917L357.765 69.6252L358.483 68.9587L359.303 68.9074L360.944 69.3689L360.533 70.0354L360.841 71.1633L360.38 71.676L360.585 72.3938L360.328 76.034L359.713 77.0081L360.123 77.6234L359.303 79.4691L359.508 79.9818L360.072 80.392L360.687 82.8017L357.355 83.7758L355.919 85.519L355.15 85.2627L353.868 85.4678L350.126 86.9033L350.792 88.2876L351.459 88.8003L351.51 89.3643L350.638 89.7745L350.279 90.6973L350.638 91.6202L352.689 92.338L353.202 91.5689L354.637 91.8766L355.048 91.7227L357.252 93.2609L356.996 94.4401L357.509 95.3629L356.893 98.3879L357.509 99.157L356.329 101.874L355.509 102.182L354.535 102.028L354.073 101.72L353.817 101.157H353.304L352.843 100.849L352.023 101.567L351.202 101.823L350.997 102.9L351.254 103.105L352.894 103.669L353.663 103.207L354.637 103.412L355.048 103.823L355.304 104.899L354.278 105.412L353.612 106.848L352.33 107.668L350.792 107.411L350.69 108.437L353.253 108.539L354.432 109.514L354.535 108.386L353.612 107.668L354.33 106.848L356.227 106.796L357.355 107.258L357.252 109.411L357.714 109.924L358.636 110.385L359.149 111.154L361.456 112.128L363.302 112.949L362.533 117.204L365.455 117.409L367.404 118.537L367.506 119.306L368.327 119.716L370.275 119.614L371.044 121.203L372.326 121.562L372.89 122.177L373.197 124.279L372.479 125.1L370.582 125.356L368.48 126.125L369.711 128.432L370.941 129.048L371.044 129.304L370.224 129.919L368.993 130.996L368.019 131.355L366.686 132.842L364.225 133.047L364.122 133.098L363.969 132.893V132.637L364.02 132.431V132.175L364.071 131.919L364.174 131.662L364.122 131.406L364.02 131.15L363.917 130.945L363.763 130.842L363.507 130.74H363.353L363.046 130.842L362.841 130.945L362.584 130.996L362.43 131.098L362.225 131.303L361.815 131.509L361.61 131.662L361.456 131.765L361.149 131.919H360.944L360.687 131.816L360.482 131.714L360.277 131.56L360.226 131.457L360.123 131.15L360.072 130.791L359.969 130.586V130.278L359.918 130.073L359.816 129.919L359.713 129.612V129.201L359.508 128.894L359.559 128.74L359.713 128.586L359.816 128.381L359.508 127.766L359.406 127.561L359.2 127.407L358.944 127.304L358.739 127.253H358.483L358.175 127.356L357.97 127.561L357.816 127.766L357.662 127.868L357.201 128.073L357.047 128.279L356.893 128.74L356.791 129.612L356.586 130.073L356.175 130.278L355.663 130.381L355.099 130.329L354.535 130.534L354.125 131.252L353.817 131.765L353.561 132.38L353.509 132.688L353.458 132.842L353.407 133.303L353.048 133.918L352.484 134.277L351.51 134.636L350.587 134.79L350.382 135.251L350.228 135.764L350.126 136.123L350.382 136.687L350.587 136.995L350.638 137.2V137.456L350.536 137.815L349.715 138.276L348.844 138.84L348.331 139.455L347.716 140.019V140.891L347.972 141.353L348.023 141.814L347.665 142.173L347.716 142.532V143.096L347.408 143.557L346.28 144.172L346.178 144.326L346.485 145.044V145.557L345.973 146.069L345.306 146.838L345.152 147.402L345.204 148.018L345.05 148.633L344.999 149.248L345.204 149.812L345.665 150.376L346.485 151.094L347.101 151.965L347.46 152.324L347.767 152.478L347.87 152.683L347.972 152.991L348.229 153.401L348.69 153.965L348.793 154.426V154.939V155.144L348.69 155.401L348.382 155.503L348.075 155.759L347.767 155.965L347.408 156.221L346.947 156.272L346.332 156.375L346.126 156.58L346.024 156.939L345.87 157.298L345.665 157.605L345.255 157.759L344.793 157.708L344.588 157.656L344.127 157.759L343.922 157.964L343.819 158.22L344.024 158.426L344.435 158.631L344.64 158.887L344.793 159.297L345.255 159.861L344.896 160.066L343.973 160.887L341.922 161.092L341.205 160.835L340.589 161.194L339.205 161.297L337.769 161.707L337.462 161.399L337.257 161.245L337.103 161.092L337.052 160.938L336.898 160.784L336.795 160.63L336.641 160.579L336.539 160.63L336.385 160.579L336.283 160.476H336.18L336.077 160.374L336.026 160.22L335.924 160.015L335.77 159.912L335.667 159.861H335.462H335.257L335.155 159.759L335.206 159.707L335.103 159.553L335.052 159.451L334.898 159.246L334.847 159.092L334.796 159.041L334.744 158.887L334.693 158.579L334.642 158.477L334.591 158.426L334.488 158.374H334.334H334.232H334.078H334.027L333.924 158.272V158.067L333.873 157.964L333.77 157.862V157.656H333.668L333.514 157.605L333.463 157.554L333.258 157.503L333.001 157.4L332.745 157.349H332.694L332.591 157.554V157.708L332.335 157.656L332.232 157.605H331.925H331.617L331.463 157.554L331.258 157.503H331.156L331.002 157.349L330.797 157.093L330.54 156.785L330.489 156.734L330.079 156.477L329.976 156.375L329.822 156.272L329.566 156.067L329.31 155.862L329.259 155.759L329.156 155.606L328.951 155.093L328.9 154.99H328.848L328.746 154.939V154.837L328.797 154.683L328.9 154.632L329.259 154.478L329.771 154.273L330.13 154.119L330.284 154.016L330.438 153.914L330.643 153.709L330.848 153.504L330.95 153.401L331.002 153.299L331.053 153.145V152.888L331.002 152.683L330.95 152.478L330.899 152.324L330.848 151.863L330.797 151.658L330.848 151.555L330.899 151.453V151.35L330.848 151.248L330.899 151.043V150.53V150.222L330.848 150.017L330.745 149.812V149.761L330.694 149.351L330.745 149.248V149.197V149.043L330.694 148.838V148.53V148.377L330.643 148.12V148.018L330.489 147.915L330.438 147.761V147.71L330.233 147.556L330.181 147.402L330.028 147.249V147.146L329.976 146.992V146.838L329.925 146.274L329.976 146.121V146.018L330.079 145.71L330.13 145.454V145.249V144.993L330.079 144.839L330.028 144.634L329.925 144.583L329.874 144.531L329.669 144.429V144.377V144.326V144.172L329.566 144.07L329.515 144.019L329.412 144.07L329.361 144.121L329.156 144.172L328.951 144.275H328.797H328.643L328.387 144.326L328.284 144.377L328.233 144.429L328.131 144.634L328.028 144.685L327.925 144.736H327.669L327.567 144.839L327.362 144.788L327.259 144.736L327.054 144.634L326.9 144.377L326.798 144.224L326.695 143.916V143.762L326.746 143.403L326.695 143.096V143.044L326.592 142.942L326.49 142.634L326.439 142.48L326.387 142.275L326.336 142.122L326.285 142.019L326.387 141.865L326.49 141.66L326.592 141.25L326.746 141.096V140.942L326.849 140.737L327.105 140.532L327.156 140.43L327.31 140.327L327.464 140.225L327.823 140.122L327.977 140.019L328.182 139.968L328.438 139.866L328.746 139.763L328.9 139.712L329.156 139.609L329.31 139.507L329.566 139.302L329.874 138.994L329.976 138.84H330.028L330.233 138.738L330.284 138.686V138.533L330.233 138.379V138.02V137.866L330.181 137.712L329.976 137.61L329.874 137.456L329.771 137.353L329.669 137.148L329.566 137.097L329.464 136.892L329.412 136.738L329.361 136.687L329.31 136.584L329.207 136.277L329.259 136.225L329.31 136.174L329.412 136.02V135.918L329.464 135.61L329.515 135.303L329.566 134.944L329.515 134.841V134.739L329.566 134.636L329.822 134.226L329.976 133.867L330.13 133.611L330.181 133.457L330.438 132.893L330.54 132.637L330.745 132.431L330.797 132.38L330.95 132.329L331.053 132.278L331.207 132.175L331.258 132.021L331.309 131.816L331.258 131.56L331.156 131.201L331.002 130.791V130.637L331.053 130.432L331.104 130.176L331.309 129.714L331.412 129.509L331.514 128.996L331.668 128.33L331.719 128.022L331.822 127.971L331.873 127.92L331.822 127.817L331.719 127.663V127.612L331.771 127.509V127.356L331.668 127.253L331.617 127.202V126.843L331.566 126.689L331.463 126.587L331.309 126.33L331.156 126.125L330.95 125.818L330.848 125.715L330.694 125.459L330.592 125.305L330.54 125.151L330.438 124.997L330.489 124.843V124.587L330.438 124.382V124.279L330.386 124.177L330.335 124.074L330.233 124.023L330.028 123.921L329.72 123.767L329.617 123.613L329.515 123.459L329.361 123.305L329.105 123.049L329.053 122.946L328.951 122.844L328.797 122.793L328.695 122.69L328.489 122.588H328.387L328.131 122.536H327.925H327.823L327.515 122.485L327.362 122.434L327.259 122.382L327.003 122.229L326.9 122.177H326.798L326.644 122.126L326.541 122.024L326.285 121.665L326.182 121.562L326.08 121.357L325.926 121.101L325.772 120.844L325.516 120.537L325.362 120.332L325.157 120.229L325.054 120.024L324.901 119.716L324.695 119.511L324.644 119.46L324.593 119.357L324.49 119.204V119.101L324.388 118.999L324.234 118.947L323.978 118.794L323.875 118.742L323.721 118.691L323.619 118.64L323.516 118.537L323.26 118.281L323.106 118.127L323.004 118.024L322.85 117.871L322.696 117.768L322.337 117.614H322.183L321.978 117.512L321.722 117.46L321.619 117.409H321.363H321.209H321.107L320.953 117.46L320.799 117.563L320.645 117.666L320.389 117.922L320.184 118.127L319.979 118.332L319.773 118.486L319.568 118.537L319.466 118.588H319.261H319.056H318.799H318.646L318.543 118.64L318.235 118.742H318.03H317.979H317.723H317.364L316.902 118.845H316.646L316.185 118.947L315.979 119.05L315.774 119.204L315.569 119.409L315.313 119.665L315.262 119.819L315.21 119.973V120.28L315.159 120.434L315.057 120.588L314.903 120.998V121.152V121.357V121.408L314.8 121.87L314.698 122.126L314.493 122.229H314.339H314.236L313.877 122.126L313.672 121.972L313.467 121.818L313.211 121.665L312.801 121.511L312.698 121.46L312.544 121.408L312.442 121.306L312.339 121.152L312.288 120.998L312.237 120.588V120.485L312.185 120.178L312.134 120.075L312.032 119.973L311.929 119.921L311.775 119.973L311.673 120.024L311.416 120.127L310.955 120.485L311.006 120.588L311.058 120.742V120.896V121.049L311.006 121.408V121.511L310.955 121.613L310.852 121.665L310.647 121.767L310.596 121.818L310.186 122.075L310.032 122.229L309.878 122.331L309.776 122.28L309.366 122.331L308.853 122.536L308.699 122.126L308.238 121.767L308.186 121.665L308.033 121.613L307.828 121.408L307.674 121.306L307.52 121.255L307.417 121.101L307.11 120.793H306.802H306.597L306.648 121.101L306.546 121.152L306.084 120.947L305.879 120.896L305.725 120.793L305.674 120.742L305.623 120.588H305.674L305.572 120.485L305.52 120.434L305.418 120.28L305.264 120.024H305.11L305.059 119.973L304.956 119.768H304.751H304.597L304.392 119.665L304.341 119.614L304.29 119.46V119.306L304.187 119.101H304.136L304.033 118.896H303.828H303.726L303.675 118.845L303.47 118.896L303.418 118.947H302.957H302.854L302.649 118.999L302.342 118.896L302.239 118.845L301.88 118.896V119.357L301.675 119.409L301.521 119.204V119.05V118.845L301.47 118.64L301.367 117.922L301.009 117.973L300.393 118.024L300.188 117.973L299.829 117.819L299.778 117.768V117.717L299.727 117.563L299.778 117.409L299.727 117.307L299.573 117.153L299.47 116.948V116.897L299.419 116.743L299.214 116.691L298.958 116.538L298.804 116.435L298.24 117.05V117.512V117.717L298.291 117.871L298.342 117.973L298.445 118.024L298.496 118.127L298.342 118.691V118.794L298.445 118.742L298.804 118.588L298.906 118.537L298.855 118.845V118.896L298.753 119.05V119.357L298.599 119.511L298.548 119.563L298.496 119.665L298.291 119.87V119.921V120.178L298.394 120.28L298.342 120.485L298.394 120.793L297.984 121.408L297.163 122.382L297.112 122.434V122.536L297.215 122.588L297.266 122.741L297.215 122.793L297.163 122.998L297.112 123.049L297.061 123.1V123.254V123.305L297.009 123.408V123.459L297.061 123.51H297.215L297.471 123.869L297.573 123.972V124.023V124.177H297.471L297.266 124.228V124.279H296.907L296.651 124.331L296.497 124.433H296.292L296.189 124.485H295.984L295.625 124.433L295.471 124.331V124.279L295.215 123.972L294.959 123.767L294.805 123.203L294.754 123.1L293.933 122.588L293.677 122.536L293.574 122.28L293.318 122.126L292.908 122.024L292.549 121.562L292.19 121.46L292.036 121.101L291.78 120.998L291.267 120.947L290.754 120.896L290.498 120.844L290.396 120.639L289.524 120.229L289.216 120.28L288.396 120.537L287.986 120.485L287.371 120.588V120.229L286.602 119.665L286.55 119.768L286.396 119.819L286.294 120.178L285.115 120.229L284.756 120.075L284.807 120.024V119.87L284.653 119.511L284.756 119.563H284.91L285.063 119.614L285.371 119.409H285.422L285.679 119.204L285.884 119.101L285.935 119.05L286.089 118.947L286.191 118.794L286.243 118.691L286.191 118.383L285.986 118.178L285.73 118.076L285.679 118.024L285.525 117.922L285.422 117.973L285.217 117.409L285.422 117.358V117.153V116.948L285.474 116.845L285.525 116.794V116.691L285.679 116.435L285.73 116.179L285.781 115.974L285.73 115.82L285.627 115.666L285.474 115.153L285.371 115.102L285.115 115L285.012 114.897L284.961 115H284.756L284.499 114.948H284.397L284.243 114.897H284.038V114.794H283.884V114.641L283.833 114.589H283.679L283.525 114.487L283.166 114.436H283.013L282.961 114.538L282.859 114.641L282.654 114.692L282.602 114.641L282.295 114.794L282.346 115V115.153L282.038 115.051L281.833 115L281.731 114.948H281.475H281.321L281.269 115H281.218H280.808V114.794L280.859 114.692L280.911 114.384L280.962 114.282V114.128L281.013 113.974L280.962 113.923V113.769L280.911 113.666L281.013 113.461L281.167 113.513L281.116 113.256L281.064 113.103L281.013 113L280.962 112.795L280.911 112.692L280.859 112.59V112.436L280.757 112.18L280.705 111.975V111.821L280.808 111.616L280.757 111.513L280.705 111.257H280.603L280.5 110.949L280.449 110.642L280.398 110.539L280.347 110.436L280.295 110.283L280.244 110.129L280.295 110.078V110.026H280.244L279.936 110.078L279.731 110.231L279.68 110.283L279.475 110.231L279.424 110.129L279.372 110.078L279.27 110.026H279.167H279.065L278.86 110.18L278.655 110.283L278.552 110.231L278.45 110.283L278.296 110.18L278.142 110.078V109.719L278.039 109.667V109.514L277.937 109.411L277.834 109.257L277.629 109.155L277.373 109.103L277.168 109.155L277.014 109.206L276.706 109.462H276.655L276.45 109.514L276.296 109.462L276.245 109.411L276.142 109.206L276.04 109.155L275.886 109.052L275.732 109.001H275.578L275.476 109.052L275.271 109.103L275.117 109.308L275.168 109.36L275.014 109.667L274.861 109.77H274.707L274.399 109.616L274.194 109.514L274.143 109.462L274.092 109.155L273.938 108.847L273.835 108.745L273.066 108.488L272.297 108.232L271.836 108.129L271.682 108.078L271.477 107.924L271.426 107.873H271.22L271.015 107.822H270.554L270.246 107.719L269.939 107.514L269.682 107.411L269.426 107.309L269.067 107.36L268.657 107.309H268.503L268.349 107.36L268.247 107.411H268.144L268.093 107.36L267.785 107.258L267.529 107.155L267.17 107.053L267.016 107.001L266.811 107.053L266.606 107.155L266.298 107.258L266.196 107.309H265.888H265.581H265.529L265.427 107.411L265.273 107.565V107.617V107.822V108.181L265.068 108.437L264.812 108.488L264.504 108.539L264.35 108.488H264.248L264.145 108.334L264.094 108.232V107.975L264.043 107.873L263.889 107.668L263.735 107.463L263.684 107.411L263.53 107.309H263.427L263.273 107.36L262.812 107.514L262.761 107.565L262.351 107.514L262.094 107.565L261.838 107.463L261.582 107.411L261.428 107.36L261.325 107.309L260.915 106.95L260.813 106.899L260.607 106.745L260.454 106.642L260.3 106.489L260.197 106.386L259.838 106.027L259.736 105.976L259.685 105.925L259.531 105.412V105.104L259.479 104.899L259.531 104.797L259.582 104.643L259.531 104.54L259.479 104.387L259.377 104.284H259.326H259.121L258.916 104.335L258.762 104.284L258.557 104.181H258.403H257.993H257.531L257.326 104.079L257.172 104.028L257.019 103.874L256.916 103.72V103.617V103.515L256.967 103.412L257.07 103.31L257.224 103.207L257.326 103.105V103.002L257.275 102.9L257.172 102.695L257.07 102.592L256.967 102.541H256.762H256.506L256.044 102.695V102.797V102.9L255.993 103.105L255.891 103.515V103.669L255.839 104.13L255.737 104.284V104.592L255.583 104.951L255.429 105.156L255.275 105.361H255.173L255.122 105.463V105.566L255.173 105.873L255.275 105.925L255.788 106.181L255.942 106.232L256.249 106.181L256.403 106.13H256.66L256.916 106.181L257.275 106.284L257.377 106.335H257.48L257.429 106.54V106.745L257.377 107.155L257.326 107.36V107.463H257.531L257.839 107.514L258.095 107.719V107.77L258.198 107.873L258.403 107.924L258.454 108.078L258.505 108.283V108.488L258.608 108.642L258.659 108.898L258.762 109.206H258.71L258.454 109.872L258.403 109.924L258.352 110.385L258.146 110.949L258.095 111.154L257.839 111.103L257.736 111.154L257.634 111.205V111.308L257.685 111.513V111.616L257.531 111.718V111.769L257.582 111.923L257.685 112.128L257.736 112.333L257.634 112.487L257.48 112.539L257.377 112.487H257.224L257.019 112.59H256.813L256.66 112.692L256.557 112.744L256.455 112.846L256.403 113.256V113.359L256.352 113.41H256.096H255.993L255.891 113.513L255.48 113.615L255.275 113.513L255.019 113.41L254.814 113.359L254.66 113.666L254.506 114.128L254.25 114.333L254.147 114.641H254.199L254.404 114.692L254.558 114.794V114.948H254.66L254.865 115L254.968 115.358L255.122 115.41L255.224 115.563L255.327 115.615L255.429 115.769L255.48 116.127V116.435V116.538L255.532 116.691L255.583 116.845L255.686 117.05L255.993 117.409L256.096 117.512L256.044 117.768V117.973V118.281L255.993 118.435V118.486L255.942 118.537L255.891 118.742L255.942 118.999V119.255L255.634 119.306V119.46L255.48 119.716L254.814 119.563H254.66L254.609 119.921V120.075L255.019 120.537H255.429L255.48 120.896L255.378 121.152L255.327 121.255L255.378 121.408L255.532 121.665L255.583 121.767V121.921L255.634 122.28L255.686 122.485L255.788 122.588L255.942 123.203L256.044 123.51L256.301 123.818L256.147 124.741L255.634 125.151L255.07 124.895L254.66 124.741L254.404 124.792L253.994 124.946L254.096 125.305L254.199 125.407L254.096 125.51L253.994 125.561L254.096 125.715L254.25 125.818V125.869L253.891 125.818L253.173 126.279L253.071 126.125L252.558 126.023L251.789 125.818L250.969 125.664L250.866 126.279L250.712 126.946L249.841 129.406L249.379 129.304L249.636 129.765L249.789 130.124H249.841L249.994 130.483L250.097 130.74L250.815 130.842L250.969 131.303V131.406L250.866 131.765L250.764 132.021L250.661 132.38L250.558 132.688L250.456 132.995L250.405 133.047H250.302V133.149L250.251 133.201L250.302 133.508V133.611H250.251V133.764L250.2 134.021L250.302 134.175L250.251 134.277V134.38V134.431L250.353 134.482L250.405 134.585V134.636L250.456 134.687V134.739L250.353 134.79H250.251L250.2 134.892L250.251 134.944L250.148 135.2L249.738 135.303H249.636L249.482 135.251L249.43 135.2L249.174 135.303L248.918 135.559H248.508L248.046 135.2L247.892 135.098L247.585 134.79L247.328 134.687L246.97 134.636L246.611 134.841L246.457 134.892L246.2 135.098L246.149 135.046L245.944 134.944V134.892V134.739V134.636L245.842 134.534L245.79 134.38L245.483 134.585L245.124 134.687L244.97 134.892L244.765 135.2L244.509 135.098L244.252 134.995L244.098 134.841L243.791 134.585L243.842 134.431L243.945 134.226L244.098 133.918V133.611H244.047L243.842 133.559L243.739 133.457L243.483 133.406L243.227 133.303L243.124 133.252L242.868 133.201V133.098L242.817 132.995V132.893L242.919 132.79L242.868 132.534L242.817 132.483L242.612 132.38L242.458 132.278H242.406L242.304 132.329L242.048 132.175V132.073L241.637 131.919L241.586 131.816L241.432 131.56L241.279 131.355L241.227 131.201L241.176 131.15L240.715 130.945L240.407 130.534L239.945 130.381H239.74L239.689 130.432V130.534H239.587L239.484 130.586L239.382 130.637L239.279 130.586L239.023 130.637L238.715 130.842L238.51 130.893L238.048 131.047L237.279 131.355L237.228 131.457L237.177 131.611L237.126 131.714H236.972L236.715 131.765L236.613 131.867L236.408 131.97H236.254L235.998 132.021V132.124L236.049 132.278L236.151 132.534L236.1 132.585V132.739V132.842V132.944L236.203 132.995L236.408 133.047H236.51L236.767 133.149L237.074 133.201H237.177L237.433 133.149L237.587 133.201L237.69 133.252H237.843L237.895 133.457L237.946 133.611L237.997 133.662V133.764L237.946 133.867L237.895 133.97L237.792 134.277H237.638L237.433 134.226L237.382 134.175L237.228 134.123V134.072L237.177 134.021H236.972L236.921 134.123L236.51 134.431L236.305 134.636V134.739V134.892L236.254 134.944V135.046H236.203L236.151 135.149L236.203 135.303V135.354L236.1 135.508L236.151 135.713L236.049 135.815L235.946 135.969L235.895 136.123L235.793 136.225V136.328L235.741 136.379V136.482L235.69 136.584L235.639 136.687L235.69 136.789L235.536 136.995L235.434 137.046V137.148L235.382 137.302L235.28 137.251L235.331 137.302L235.229 137.456V137.507L235.434 137.558H235.485L235.587 137.61L235.793 137.815L235.844 137.917V137.969L235.793 138.02H235.69L235.639 138.122V138.225L235.69 138.328V138.379L235.587 138.43V138.481L235.536 138.635L235.485 138.892L235.536 139.097L235.485 139.199L235.434 139.353L235.331 139.404V139.507L235.229 139.609L235.177 139.712L235.024 139.866L234.972 139.917L234.818 140.019L234.767 139.968L234.665 140.173L234.767 140.122L234.818 140.173L234.87 140.378L234.818 140.43L234.87 140.532L235.024 140.84V140.942H235.485V140.994V141.301H235.331L235.28 141.404L235.229 141.506V141.711L235.331 141.814V141.916L235.434 142.122V142.224L235.331 142.378H235.177L234.972 142.327H234.767L234.665 142.429H234.562H234.46V142.275L234.408 142.224L234.357 142.07L234.306 141.916H234.203L234.152 141.763L233.896 141.558H233.69H233.639L233.383 141.711L233.28 141.916L233.332 142.019V142.173L233.28 142.378V142.583V142.686L233.229 142.839L233.178 142.993L232.973 143.044V143.147V143.249L233.127 143.403L233.075 143.557V143.711L233.127 143.916V144.172L232.87 144.121L232.716 144.019L232.46 143.967L232.306 143.916L232.152 143.967L231.999 143.916L231.845 143.711H231.742L231.588 143.557L231.537 143.711L231.588 143.916L231.486 144.326L231.537 144.48L231.486 144.634L231.435 144.839H231.383V144.941V144.993L231.332 145.044H231.435L231.486 145.198L231.588 145.3V145.403L231.691 145.505L231.742 145.557V145.71L231.793 146.069V146.172V146.326V146.428L231.896 146.531L231.947 146.633L231.896 147.044V147.095L231.845 147.3V147.402V147.556L232.05 147.659L232.255 147.761L232.511 147.864L232.614 147.813L232.665 147.71L232.716 147.351L232.921 147.402H233.28L233.383 147.454L233.639 147.505H233.793L234.049 147.556V147.659L233.998 147.813V147.966L233.947 148.274L233.896 148.428L233.844 148.582L233.998 148.735V148.838L233.844 149.094H233.947L233.998 149.146L234.203 149.197L234.408 149.299L234.562 149.351L234.716 149.094L234.921 148.992L235.024 148.941H235.075L235.331 148.992L235.536 148.941L235.639 148.992H235.741L235.69 149.197L235.587 149.556L235.485 149.812L235.434 150.068L235.28 150.017L235.075 150.786V150.889L235.331 151.043L235.485 151.145L235.844 151.196H235.998L236.203 151.094L236.408 151.145L236.51 150.94L236.715 150.991L236.972 151.094V151.196L236.921 151.35L237.023 151.401V151.555L237.074 151.658L237.177 151.76V151.965L237.279 152.171L237.792 152.222V152.581V152.735V152.94L237.946 152.991H238.254L238.202 153.145L238.766 153.196L238.971 153.299V153.555L239.33 153.606L239.228 153.811V153.965H239.484V154.016H239.792L239.843 154.426V154.632V154.734L239.792 154.785L239.638 154.888L239.484 154.939L239.176 155.042H238.92L238.766 154.99L238.407 154.888L238.151 154.837L237.843 154.888L236.459 155.349L236.151 155.554L235.998 155.657L235.844 155.759L235.741 155.811L235.793 156.016L235.69 156.17L235.639 156.323L235.536 156.426L235.587 156.272L235.177 156.375L234.972 156.426L234.921 156.477L234.511 156.323V156.58L234.203 156.887L234.306 157.503L233.69 158.887L232.921 160.169L232.716 160.425L232.665 160.784L233.024 160.835V161.143L232.87 161.245L232.665 161.399V161.502V161.553L232.563 161.758L232.101 161.656L232.05 161.604L231.947 161.502H231.896V161.399L231.999 160.887L231.896 160.784L231.793 160.733L231.537 160.681V160.63L230.819 160.887L230.614 161.143L230.46 161.348L230.153 162.066L229.896 162.63L229.845 163.399H229.794L229.845 163.553L229.948 163.758L230.102 164.168L230.255 164.475L230.307 164.527L230.46 164.681L230.563 164.834L230.614 164.886L230.666 165.091L230.717 165.296L230.666 165.501L230.512 165.86L230.666 165.962L230.563 166.014L230.512 166.116V166.27L230.46 166.372L230.512 166.578L230.563 166.783V166.834L230.46 166.885L230.409 167.244L230.307 167.398V167.552L230.358 167.808H230.255L230.05 167.859L229.845 167.962H229.589L229.384 167.911L229.23 167.808L229.127 167.757L229.23 167.552L229.179 167.449L229.025 167.398H228.974H228.871L228.769 167.552L228.615 167.705L228.512 167.808L228.307 167.859L228.256 167.808L228.205 167.911V168.013L228.307 168.116L228.051 168.321H227.948L227.794 168.269H227.692L227.589 168.372L227.333 168.577L227.077 168.731L226.974 168.833L226.923 168.936H226.82H226.718L226.564 168.987L226.461 168.936L226.359 168.833L226.308 168.731L226.359 168.68V168.526H226.308V168.475L226.41 168.167V168.064L226.256 167.962V167.859H225.949L225.897 167.911H225.846L225.795 168.064L225.692 168.269L225.641 168.372V168.475L225.538 168.423L225.487 168.321L225.436 168.269L225.385 168.064V168.013H225.333L225.026 168.064H224.718L224.616 168.116H224.462H224.205L223.898 168.167V168.321V168.577V168.628V168.782L223.744 168.885V168.987L223.693 169.09L223.59 169.039L223.539 169.244L223.693 169.295V169.244H223.795L223.847 169.141H223.949L224.052 169.192L224.103 169.449L224.052 169.551L224 169.654L223.949 169.808L223.847 169.756L223.744 169.859H223.641H223.539V170.013L223.488 170.064L223.436 170.32L223.59 170.423L223.641 170.474V170.525L223.847 170.577V170.73L223.949 170.679H224.257L224.205 170.782V170.884V171.038H224.308L224.257 171.346L224.205 171.499V171.653L224.103 171.602L223.898 171.653L223.847 171.602L223.744 171.346V171.243H223.59L223.436 171.192H223.334H223.231L223.078 171.141H223.026L222.975 171.346L222.924 171.551L222.872 171.807V171.961L222.821 172.012L222.77 171.961H222.514L222.308 171.91V172.012H222.206L222.155 172.063L221.796 172.012L221.744 172.063V172.115H221.796L221.847 172.32V172.371H222.001H222.103H222.155H222.257H222.462V172.422H222.565V172.474H222.77L222.975 172.525L223.283 172.627L223.385 172.679L223.334 172.935H223.436H223.641H224L223.949 172.986L223.847 173.191L223.795 173.294L223.539 173.243L223.436 173.191H223.283H223.129L222.975 173.294L222.667 173.243V173.345L222.514 173.499L222.36 173.55L222.257 173.499L222.052 173.396L221.95 173.345L221.847 173.294L221.796 173.243H221.642L221.488 173.14L221.181 173.191L221.078 173.243L221.027 173.191L220.975 173.294L220.873 173.243L220.77 173.396L220.822 173.448L220.924 173.499L220.873 173.653L220.822 173.96L221.181 174.012L221.283 174.063L221.232 174.166L221.437 174.217L221.591 174.268H221.796L221.95 174.319L222.103 174.371V174.473L222.052 174.524V174.627H222.103L221.95 175.037V175.191V175.242L221.898 175.447V175.652H221.847L221.693 175.806L221.539 175.857L221.488 175.909L221.437 175.857L221.283 176.011L221.232 176.114L221.129 176.268H221.027L220.975 176.37L220.873 176.473L220.719 176.575V176.627L220.668 176.832V176.985L220.617 177.088L220.463 177.293H220.411L220.463 177.447V177.549V177.652L220.514 177.806L220.77 177.96H220.873L221.027 178.165V178.421L221.386 178.37L221.539 178.216L221.898 178.524H222.257L222.308 178.575L222.36 178.626L222.411 178.882L222.514 179.088L222.719 179.293V179.344L222.821 179.446H222.872L222.821 179.805L222.872 179.857V179.908H222.77H222.616H222.514L222.308 179.857L222.155 179.805L222.052 180.01L222.001 180.113L221.898 180.164L221.847 180.318H221.796V180.472L221.539 180.369L221.334 180.318L221.129 180.164L221.027 180.113L220.77 179.805L220.668 179.703L220.565 179.651L220.463 179.6H220.258H220.104L220.053 179.651L219.95 179.805L220.053 180.113L220.104 180.215L220.155 180.574L220.104 180.933L219.847 181.19H219.591L219.284 181.6L218.976 181.548L218.771 181.395L218.566 181.702H218.412L218.104 181.805L217.899 181.856L217.54 181.651L217.233 181.497L217.13 181.241L217.181 180.933H216.874L216.823 180.626L216.72 180.421V180.164L216.771 179.805L216.823 179.651L216.361 179.498L216.207 179.651H216.259L215.848 179.805L215.643 179.959L215.438 180.01L215.079 179.908L214.772 179.857L214.464 179.703L213.9 179.651H213.541L213.285 179.446L213.182 179.241L213.131 179.088L213.592 178.985L213.746 178.831L214.003 178.575H214.208L214.259 178.062H214.874V177.857H215.079V177.498L215.028 177.191L214.823 176.78L215.489 176.421L215.643 175.755V175.601L215.079 175.191L214.772 175.242L214.72 175.294L214.362 175.345L214.259 175.242L213.849 175.294L213.644 174.832L213.695 174.473H213.592L213.541 174.319L213.49 173.96H213.439L213.387 173.858V173.653H213.336V173.55L213.387 173.345L213.439 173.243L213.49 173.038L213.541 172.935L212.977 172.986L212.875 173.243L212.772 173.345L212.721 173.653L212.567 173.704L212.413 173.858L212.362 174.012L212.157 174.166L212.106 174.268L211.901 174.217L211.695 174.319L211.644 174.217H211.439L211.285 174.166L211.132 173.909L211.08 173.55L211.285 173.294L211.183 173.243L210.67 173.448L210.516 173.653H210.209L210.004 173.858L209.645 173.96L209.183 174.268L209.029 174.217L208.773 174.678L208.363 174.627L208.004 174.678L207.645 175.396V175.704L207.594 175.857L207.901 176.319L208.26 176.421L208.209 176.678L207.543 176.729L207.389 176.832L207.286 176.883L207.184 176.985L207.132 177.396L206.979 177.754H207.389L206.979 178.37L206.825 178.831L206.568 179.088L206.517 179.344L206.21 179.139H206.004L205.851 179.293L205.953 179.446V179.651L206.158 180.113L206.312 180.421L206.363 180.779L206.312 180.985L206.107 181.087H205.902L205.748 181.036L205.543 180.933L205.082 180.882H204.774L204.723 180.985L204.62 181.343V181.754L204.518 181.959L204.313 182.01L204.159 182.215L204.005 182.318L203.851 182.882L203.697 182.933L203.646 183.189L203.697 183.343V183.497V183.856L203.8 183.958L203.697 184.009H203.39L203.287 184.42H203.133L202.928 184.573L202.723 184.42L202.569 184.471L202.416 184.573H202.313H202.057L201.8 184.727L201.493 184.881L201.339 184.984V185.086L201.749 185.65L202.057 186.009L202.159 186.214L202.21 186.317L202.159 186.47L202.057 186.624V186.829L201.903 186.932L201.749 186.983L201.595 186.829H201.441H201.288L201.031 186.932L200.98 186.983L200.929 187.086L200.826 187.137H200.672H200.16H200.057L199.852 187.188L199.801 187.137L199.647 187.034L199.596 186.881L199.391 186.778L199.339 186.727V186.163L199.134 186.009L198.468 185.753L198.416 185.804L198.314 186.009H198.109H197.955L198.006 186.214L198.109 186.727L198.058 186.829L197.801 186.778L197.032 186.727L196.776 186.368L196.673 186.009V185.804L196.571 185.599V185.342L196.263 185.291L196.007 185.189L195.904 185.394L195.392 185.291L194.776 185.342L194.674 186.214L194.622 186.419L194.469 186.522L194.417 186.829L194.264 186.932L193.956 186.778H193.905L193.853 186.727L193.7 186.983L193.648 187.137L193.546 187.24L193.494 187.342V187.445V187.598L193.648 187.752L193.751 187.855L193.802 187.957L193.751 188.06H193.7L193.392 188.265L193.289 188.367L193.238 188.47V188.573L193.289 188.624L193.341 188.726L193.853 188.983H193.905L194.058 188.88H194.161L194.469 188.983L194.674 189.085H194.776L194.93 189.137L194.981 189.29L195.033 189.342L195.34 189.598L195.392 189.649L195.34 189.906L195.289 190.008L195.186 190.111L194.981 190.162L194.725 190.264L194.571 190.316L194.469 190.367L194.417 190.418L194.52 190.828L194.725 191.29L194.674 191.598L194.622 191.649L194.52 191.803L194.366 192.008V192.11V192.213L194.879 192.469L194.11 192.623H193.7L193.136 192.674L192.982 193.597L192.725 193.905V194.571H193.084L192.982 195.699L193.341 197.186V198.314L193.187 198.416L192.469 198.365L192.264 199.083L191.751 199.237V199.391H191.546L191.187 199.186L190.264 199.134H190.008L189.393 199.442L189.342 199.852L188.367 199.801L188.265 200.57L186.778 200.211L186.727 199.647L186.47 199.134L186.214 199.186H185.189L185.137 201.236L185.804 201.185L186.368 201.493H186.522L186.778 201.8V202.005L187.086 202.262L187.342 202.364L187.445 202.723L187.342 202.826L187.086 203.082V203.543L186.881 203.954H186.47L186.368 204.313L186.163 204.518H185.753L185.701 204.62L185.291 204.671L185.342 204.877H185.086L184.317 204.466L184.009 204.825L183.958 205.235L184.317 205.338L184.215 206.21L184.471 206.261L184.573 206.876L183.343 207.337L183.548 207.543L183.343 208.26L182.984 208.363L183.035 208.876L182.882 209.286V209.542L181.651 209.235L181.292 207.85L180.164 207.235L180.062 205.953L179.805 205.748L179.651 205.441L179.549 205.287L179.395 205.235L179.293 205.287L179.139 205.697L178.985 205.953L178.472 207.799L177.549 208.517L177.191 206.056V205.543L175.242 205.902L175.14 207.748L174.268 207.799L173.653 208.004L173.448 209.696L173.653 210.465L173.243 210.619H172.166L171.602 211.029L171.141 211.08L171.038 211.234L170.423 213.182L168.475 213.08L167.552 213.439L166.578 213.541L167.039 216.105L167.962 216.412L168.167 217.079L168.218 217.335L167.295 217.592L167.142 218.412H168.577L168.475 218.822L167.449 219.437L166.578 219.642L166.731 221.334L167.5 221.232L168.423 221.283L168.013 224.052L170.115 224.359L169.91 225.385L169.397 225.897L168.885 227.077L167.552 227.128L167.039 225.436L165.808 225.59L165.962 226.205H164.117L163.86 224.975L162.937 224.872L162.681 224.103L162.066 224.308L162.014 224.616L159.912 224.975L159.4 225.333L159.656 226.564L159.912 227.128L159.553 227.794L159.041 227.641V225.538L157.964 225.077L157.041 224.308L156.221 224.616L155.708 225.231L155.862 225.385L155.554 226.051L154.939 226.102L154.888 225.949L154.785 225.795L154.478 225.18L154.426 225.026L154.273 224.975H154.119H153.914L153.452 225.18L153.145 225.231H152.735L152.376 225.128L152.273 225.077L152.119 225.128L152.017 225.18L151.76 225.538L151.607 225.692L151.401 225.846L150.94 225.897H150.684H150.325L150.068 225.949L149.453 226.154L148.735 226.513L148.53 226.564L148.325 226.513L148.171 226.41L147.556 225.487L147.402 225.385L147.095 225.333L146.89 225.231L146.685 224.975L146.633 224.667L146.89 224.052L146.838 223.078V222.77L146.736 222.565L146.377 222.001H146.223H146.121L146.018 222.103L145.916 222.257L145.967 222.924L145.916 223.026L145.505 223.488L145.352 223.539L145.249 223.59L145.147 223.488L144.993 222.565L144.839 222.36L144.736 222.257L144.172 221.95L143.916 221.847H143.762H143.608L143.455 221.95L143.403 222.103V222.616L143.198 223.026V223.385L143.249 224L143.096 224.257L142.993 224.359L142.891 224.411L142.378 224.359L141.916 224.205L141.66 224L141.199 223.283L141.096 222.719L141.045 222.616L140.942 222.565L140.378 222.514L140.225 222.462L139.814 222.103L139.661 222.001L139.507 221.898H139.404L139.25 221.95L138.943 222.308L138.789 222.411L138.686 222.514H138.379H138.02L137.661 222.462L137.405 222.308L137.251 222.052L136.995 221.283L137.046 220.514L136.995 220.309L136.892 220.155L136.636 220.104H136.584L136.431 220.155H136.225L136.072 220.053L135.918 219.847L135.815 219.694L135.508 219.437L135.046 219.232L133.97 221.95L134.226 223.283L133.764 223.18L132.534 223.693L132.79 225.282L134.072 225.59L134.226 226.256L133.764 227.487L134.636 227.897L134.944 228.974L136.072 229.025L136.225 229.486L136.328 231.999L135.354 232.614L135.405 232.921L134.79 232.87L134.687 234.152L135.405 234.818L135.661 235.639V236.408L136.841 236.459L137.046 238.869L136.328 238.92L135.456 240.099L135.918 240.407L136.738 240.151L136.636 242.919L137.046 243.586L135.508 244.15L135.149 243.483L133.97 243.278L133.918 241.689L132.38 241.484L132.124 241.535L132.175 243.586L130.432 243.432L129.458 244.355L128.637 244.56L128.484 243.483L127.509 242.56L126.433 242.817L125.818 243.586L124.177 242.97L121.87 243.893L119.152 243.945L118.947 245.073L119.204 246.047L119.46 246.457L119.204 247.533L118.435 248.354L117.153 248.149L116.691 249.328H116.025L114.538 249.225L114.897 247.841L114.025 248.149L113.308 248.046L112.436 247.79L112.333 246.764L111.872 246.457L111.667 245.995L110.744 245.944V245.431L110.436 244.201L108.437 244.662L107.719 245.278L107.617 244.56L106.591 243.996L104.797 244.303L104.951 245.226L104.181 245.073L103.823 244.662L103.464 244.56L102.951 244.765L102.797 245.175L103.72 245.944L104.643 246.2V247.533L103.515 247.636L103.412 247.944L101.926 248.354L102.233 249.943L102.336 251.379V251.891L102.797 252.661H99.5671L99.3108 253.173L97.2599 253.532L96.0807 253.686L94.3375 255.224L92.2355 255.327L92.2867 256.608L91.9278 256.967L92.338 257.121L91.21 257.685L90.4923 259.121L90.9537 259.326L92.0816 259.838L92.1842 260.351L91.5689 260.454L90.9024 260.659L90.0821 260.249L89.6719 260.659L89.6207 261.787L89.108 261.582L88.7491 262.248L87.6724 262.453L87.6211 262.812L87.0571 262.71L87.0059 262.812L87.0571 262.863L87.0059 262.966L86.7495 262.915V262.863L86.6982 262.761L86.5444 262.658L86.3906 262.504H86.1855V262.094L86.647 261.633L86.3906 261.12H85.6216L85.6728 259.172L83.2631 259.377L82.5966 258.608L82.3403 258.557L81.7763 258.454L81.6738 258.71L81.5712 258.916L81.6225 259.274L81.9301 259.736L82.2377 260.505L80.5971 260.813L80.0844 261.428L79.059 261.582L78.7001 262.043V262.71L78.3924 264.248L77.2645 263.632L77.367 262.915L77.2132 262.761L76.8031 262.915L76.3929 263.222H76.3416H76.2391H76.1878L76.1365 263.12L75.8289 262.863L75.6751 262.812L75.5726 262.863L75.3675 262.915L75.4188 263.273L75.3675 265.427H74.9573L74.701 264.094L74.137 263.991V264.248L73.9319 264.401L73.8807 263.632L73.4192 263.273L73.009 263.632L73.3167 264.555L73.573 264.658L73.6243 265.376L72.2913 265.683L73.009 266.606L73.5218 266.298L73.7781 265.376L74.2908 265.324L74.1883 266.555L74.2395 267.426L74.5984 267.324L75.4188 267.837L75.9827 267.632L76.1878 267.683L76.2391 268.093L76.0853 268.503L76.2391 268.862L75.9315 269.323L76.3416 270.144L77.5721 270.092L77.4183 270.605L77.1107 271.169L77.2132 271.836L76.7518 271.784L76.3416 270.605L75.9827 270.708L75.8802 271.323L75.5726 271.169L75.8802 272.246L75.47 272.348L75.9827 273.015H75.47L75.7264 273.374L75.47 273.733L75.6238 273.938L75.9827 273.887L76.1365 274.092L75.7264 274.143L75.7777 274.399L76.1878 274.348L76.598 275.322L75.7777 275.527L75.8289 276.399L76.2391 276.45L77.1107 275.835L76.7518 275.271L77.4183 275.425L77.931 275.22L78.495 275.425L78.5463 276.091L79.6742 275.784L79.8793 275.886V276.911L80.8022 277.014L80.9047 277.27L81.6225 277.322L81.725 277.629L82.289 277.783L82.6479 277.424L83.5195 278.142L83.8784 278.603L83.5195 278.962L83.7758 279.424L83.9809 279.577V280.193L83.2631 280.5L83.1606 281.731L82.8017 282.244L83.0581 282.91L83.2631 283.73V284.243L83.0581 284.397L82.9042 284.91L82.4941 284.858L81.7763 284.294L80.392 283.833L79.8793 284.192L79.6742 284.294L79.5204 284.705L78.7513 284.961V285.32L77.8797 285.474V285.935L77.4183 286.55L77.5208 286.602L78.0335 286.499L78.1361 286.704L77.8285 287.319L78.3412 287.473L79.2128 287.012L79.3666 286.704L80.4945 286.294L81.1098 286.653L81.4174 286.55L81.6738 286.807H81.8788L81.9814 286.858L82.0839 287.114L81.725 287.935L81.1098 289.268L80.5971 291.267L78.5463 293.677L78.9564 293.933L79.0077 294.805L78.8539 294.907L79.4691 295.574V295.933L79.1102 296.138L78.7001 295.984L78.4437 295.676L78.1874 294.754L77.5721 294.138L77.4183 295.061L76.3929 295.984L76.7005 296.189L78.3412 296.24L78.4437 296.702L77.6234 297.266L77.5721 297.42V297.83L77.7772 298.086L77.8797 298.445L77.7259 299.163L76.8031 300.086L76.4442 300.188L75.7264 299.829L75.5726 300.547L73.3167 300.701L72.6502 301.162L71.9324 301.111L71.5222 300.701L71.7273 299.214H71.2146L70.4968 299.419L70.0354 300.65L68.3434 300.803L68.0358 301.521L66.7028 302.29L67.1642 303.111L66.8566 304.136L66.0875 304.495H65.1134L65.5236 305.059L66.3439 305.469L66.2926 305.623H66.1901L66.1388 305.725L66.0363 305.674L65.7799 305.777L65.6774 305.879L65.4723 305.982L65.3185 305.93L65.1647 306.033L64.9596 306.136L64.8058 306.238V306.289L64.7032 306.341L64.6007 306.443H64.5494H64.4982L64.2418 306.546L64.1905 306.494H64.088L63.9342 306.597H63.8316L63.7291 306.648L63.3189 306.751H62.9088L62.755 306.802L62.4986 306.853H62.4473L62.3448 307.058L62.2935 307.11L62.2423 307.417L62.1397 307.469L62.0372 307.622H61.9859L61.4219 307.417L61.1656 307.366L61.063 307.417H60.9092L60.6016 307.366V307.264L60.4991 307.11L60.3965 307.007L60.1402 306.751L60.0889 306.597L60.0376 306.648L59.8326 306.597H59.73L59.6787 306.546L59.5762 306.494L59.5249 306.392L59.5762 306.289V306.238L59.2686 305.93V305.674L59.3199 305.469L59.5249 305.161L59.5762 305.059L59.4737 304.751V304.649L59.4224 304.546H59.3711V304.085L59.4224 303.828V303.623L59.3711 303.521L59.2173 303.418V303.316V303.213L59.1148 303.264V303.162L59.0122 303.213H58.9097L58.8584 303.316L58.6533 303.264H58.5508H58.4995L58.6021 303.162L58.7046 303.111V303.059L58.7559 302.803L58.6533 302.752L58.7559 302.7L58.8584 302.547V302.444L58.8071 302.393L58.7046 302.29L58.6021 302.239L58.4995 302.034L58.4483 301.983V301.88L58.397 301.829V301.675L58.3457 301.624V301.367L58.2944 301.265L58.2432 301.162L58.0894 301.111H57.833H57.4741L57.3203 301.06L57.2178 301.111L57.0127 301.009L56.9101 300.906H56.8076V300.957L56.7563 301.009L56.5 301.06H56.4487L56.3462 301.009V300.957H56.2436L56.1924 300.906H56.1411L55.8847 300.855H55.7309L55.5771 300.906L55.4746 300.855L55.372 300.803L55.3208 300.752L55.2695 300.598V300.445V300.342L55.4233 300.188V300.086L55.372 300.034L55.4746 299.983L55.5771 299.778V299.727L55.4746 299.676L55.3208 299.573L55.167 299.368L55.1157 299.265L55.0131 299.214H54.9619L54.9106 298.906L55.0131 298.65L54.8593 298.548H54.7055L54.603 298.496H54.5004L54.3466 298.599L54.2441 299.009V299.06L54.0903 299.112V299.163L54.2954 299.317V299.419L54.2441 299.47L54.0903 299.419L53.9365 299.368L53.8852 299.419L53.7827 299.727L53.6801 300.034L53.6288 300.086L53.3725 300.137H53.3212V300.239L53.3725 300.393V300.547V300.701L53.3212 300.803L53.1674 301.009L53.1161 301.214L52.9623 301.316L52.8085 301.367H52.7572L52.5009 301.214H52.4496H52.3983L52.2958 301.367L52.2445 301.419L52.0907 301.521L51.8856 301.573L51.7831 301.521H51.7318H51.578L51.4755 301.624V301.778L51.4242 301.931L51.3217 301.983L50.245 301.624L49.4247 301.521L49.0145 301.675L48.7069 302.136L48.0916 302.034H47.7327L47.4251 302.136L46.8611 301.983L46.6561 302.188H46.5535H46.5023L46.6048 302.034L46.5023 301.983H46.3484V301.931L46.0921 301.726H46.0408H45.9895L45.9383 301.573L45.8357 301.419L45.7332 301.367L45.6819 301.419V301.367L45.5794 301.316L45.5281 301.265H45.4768L45.4256 301.214L45.323 301.162V301.009L45.3743 300.957L45.5281 301.009L45.6819 300.803L45.7845 300.598V300.342L45.7332 300.137L45.5794 299.676L45.5281 299.419L45.3743 299.009L45.323 298.906L45.3743 298.804L45.2718 298.701L45.1692 298.445V298.342L45.118 298.291L44.9641 298.24L44.9129 298.189V298.035V297.984H44.7591L44.7078 297.881L44.6052 297.83V297.778L44.554 297.727L44.6052 297.676H44.7078V297.573L44.6052 297.368L44.4514 296.856L44.2464 296.394L44.1951 296.292L44.0925 296.138L44.0413 296.035L43.8875 295.881L43.7849 295.779L43.7337 295.83L43.6311 295.984L43.5286 295.933L43.4773 295.779L43.426 295.728V295.574L43.3748 295.42L43.2722 295.164L43.0671 294.702L42.9646 294.446H42.8621V294.395V294.343V294.241L42.7595 294.19V294.087V293.984L42.6057 293.831L42.5032 293.728V293.626L42.4006 293.421L42.2981 293.318H42.1955H42.093H41.9905L41.8879 293.215H41.8366H41.7341H41.5803L41.529 293.164L41.4265 293.01V292.908L41.1189 292.754L41.0676 292.651L40.9138 292.6L40.8112 292.549L40.6574 292.498L40.5036 292.395L40.196 292.087L40.0935 292.036L39.8884 291.985L39.9396 292.036L39.8884 292.19L39.7346 292.241L39.5807 292.139V292.087L39.3244 291.934H39.2731V291.882L39.1706 291.934V291.985L39.0168 291.934L38.9142 292.036H38.863L38.8117 291.882L38.6579 291.626L38.6066 291.472L38.5553 291.37L38.4528 291.165H38.5553L38.6066 291.011V290.908L38.6579 290.754V290.549L38.5041 290.601L38.4015 290.498L38.2477 290.242L37.9914 289.934L37.8888 289.678V289.524V289.165L37.9401 288.652V288.499L37.8888 288.345L37.7863 287.986L37.6837 287.729L37.6325 287.422L37.5812 287.319L37.4787 287.165L37.3761 287.063L37.171 286.96L37.0172 286.909L36.9147 286.858L36.966 286.807L36.9147 286.602L36.8634 286.499L36.6071 286.448H36.5045V286.55V286.602L36.4533 286.55H36.402L36.4533 286.499V286.396L36.402 286.294V286.191H36.3507V286.14L36.402 286.089L36.5045 286.14H36.5558L36.6071 286.089L36.7096 286.038L36.7609 285.884V285.832L36.7096 285.781L36.8121 285.679V285.474L36.7609 285.371H36.6583V285.32L36.5558 285.269L36.4533 285.32V285.217L36.5045 285.166V285.063L36.4533 285.012L36.6071 285.063L36.6583 285.012V284.91L36.6071 284.858V284.705L36.5558 284.499L36.5045 284.346L36.4533 284.141V284.038V283.782V283.628V283.423L36.3507 283.166L36.2482 282.91L36.1969 282.551V282.346L36.0944 282.038L36.0431 281.731L35.9918 281.577L35.8893 281.218V281.116V281.013L35.7867 280.859L35.7355 280.705V280.552L35.6842 280.295L35.6329 280.141L35.5817 279.885L35.4791 279.731L35.4278 279.68L35.3253 279.629L35.274 279.68H35.2228L35.1202 279.629L35.069 279.526V279.372L35.1202 279.219L35.069 279.116V278.962L34.9664 278.757V278.655L34.9151 278.347L34.8126 277.937L34.7101 277.527L34.6588 277.475L34.6075 277.373V277.27L34.5563 277.065L34.505 276.911L34.4537 276.758L34.4024 276.399L34.3512 276.245V276.142L34.2999 276.04L34.2486 275.784L34.1974 275.425L34.0435 275.066L33.9923 274.963H33.8897L33.8385 274.861L33.7359 274.502L33.6847 274.399L33.5821 274.297V274.143L33.6334 274.092V273.938L33.5308 273.476L33.4796 273.374L33.2745 273.271L33.2232 273.22L33.2745 273.117L33.3258 272.861L33.377 272.759V272.707L33.2745 272.4L33.2232 272.246L33.0694 272.143L33.0181 272.092L32.9669 272.041L32.8131 271.989L32.7105 272.092H32.6592L32.5567 272.041L32.4029 271.938V271.887L32.5567 271.631V271.579V271.477L32.5054 271.374H32.4029L32.3516 271.272V271.22L32.4029 271.169H32.4542V271.067L32.5054 270.964V270.862V270.81L32.5567 270.759V270.708L32.4542 270.4L32.3004 270.298L32.4029 270.195V270.144L32.3004 270.092L32.2491 269.939L32.3004 269.836L32.1978 269.426L32.1465 269.375L32.0953 269.118L31.9927 269.067H31.9415V268.965L31.9927 268.913V268.811L31.8902 268.195L31.7876 268.093H31.6851H31.6338L31.5313 267.939V267.888L31.48 267.734V267.58L31.3775 267.324L31.2237 267.068L31.2749 266.965L31.2237 266.862V266.709L31.1724 266.555L31.1211 266.452H31.0699L31.0186 266.401L30.9673 266.298L30.8648 266.196L30.7622 265.94V265.837L30.711 265.734L30.6597 265.632V265.581L30.6084 265.376V265.273L30.5059 265.068L30.4546 264.863L30.3521 264.76H30.3008H30.2495H30.147L30.0445 264.863L30.0957 264.709L30.147 264.607L30.0957 264.401L30.0445 264.35L30.0957 264.248L30.0445 264.196V263.94L29.8906 263.837L29.9419 263.735V263.684V263.632L29.8394 263.581V263.53L29.8906 263.581L29.9932 263.53L30.0445 263.427V263.325L30.147 263.222L30.1983 263.068L30.147 262.863V262.812L30.2495 262.863V262.915L30.3008 262.966V263.017V263.068L30.4546 263.017V262.915L30.5059 262.863V262.812L30.5572 262.761L30.6084 262.812L30.6597 262.863H30.7622L30.8648 262.71L30.8135 262.658L30.7622 262.607V262.556H30.8135L31.0699 262.453L31.2237 262.299L31.2749 262.248L31.3775 262.094L31.3262 261.94V261.889L31.2237 261.735L31.1211 261.684H31.0186L30.8648 261.787L30.9161 261.838H30.8648H30.711L30.5572 261.684L30.4033 261.633L30.3521 261.53V261.376V261.274L30.3008 261.171L30.1983 261.12V261.018L30.147 260.966L30.1983 260.915V260.864V260.813L30.147 260.761L30.0957 260.71L30.1983 260.607L30.2495 260.454H30.3008H30.3521L30.4033 260.505H30.4546L30.5059 260.402H30.6084H30.711L30.8648 260.454L30.9161 260.505H31.0699L31.1211 260.607V260.659L31.0699 260.71H31.1724V260.761H31.2749L31.3262 260.813H31.3775L31.4288 260.864V260.915V261.018L31.5313 260.966L31.6338 261.018L31.6851 261.069V260.915H31.6338L31.5826 260.864V260.659L31.48 260.556V260.71H31.4288L31.3262 260.556L31.1724 260.505V260.454L31.2749 260.402V260.351L31.3775 260.3L31.4288 260.197H31.5313L31.5826 260.249L31.6338 260.146L31.6851 259.992L31.6338 259.736V259.582L31.48 259.736L31.3262 259.787L31.1724 259.736L31.0699 259.633H31.0186L30.9161 259.685V259.787L30.8648 259.838L30.711 259.787L30.8648 259.531L31.0699 259.479L31.1724 259.531L31.2237 259.377L31.1211 259.223L31.1724 259.172L31.0699 259.069L30.9673 258.916L30.8648 258.864L30.7622 258.813H30.6084V258.916L30.6597 258.967L30.5059 259.018L30.4033 259.069V258.967L30.3521 258.916L30.3008 258.659L30.4033 258.608V258.557L30.4546 258.505H30.5059L30.6084 258.608L30.711 258.505L30.7622 258.403L30.8135 258.249V258.095L30.711 257.582L30.6597 257.07L30.6084 256.608L30.5572 256.506H30.4546L30.4033 256.455L30.2495 256.249L30.1983 256.198L30.147 256.096L30.0957 255.993L30.1983 255.891V255.737L30.0957 255.634V255.48L30.0445 255.429L29.9419 255.378L29.8394 255.327V255.122L29.8906 255.07V254.968L29.8394 255.019L29.7881 254.916V254.865L29.7368 254.763H29.6343L29.583 254.66L29.6343 254.455L29.583 254.352V254.199V254.147V253.994V253.891L29.6343 253.788V253.737L29.583 253.635V253.532L29.5317 253.43L29.583 253.327V253.122L29.5317 253.071V252.917L29.583 252.814L29.6343 252.661L29.6856 252.609L29.6343 252.507L29.6856 252.404V252.199L29.7368 252.148V252.045L29.8394 251.891L29.8906 251.84L29.9932 251.686L30.0957 251.584L30.0445 251.481V251.379V251.225V251.122V251.071L30.0957 251.02L30.0445 250.969L29.9932 251.02L29.8906 250.969H29.8394L29.7368 250.917L29.4805 250.866L29.3267 250.764L29.2754 250.712V250.661L29.1729 250.61L29.1216 250.558V250.456V250.302L29.1729 250.251L29.1216 249.994L29.0703 249.841V249.738L29.019 249.636V249.584V249.482V249.379L28.9165 249.277H28.814L28.7627 249.225L28.814 249.174L28.9678 249.072L29.019 248.969L28.9678 248.867H28.9165V248.815H28.9678L29.019 248.713L28.9678 248.661L28.814 248.61V248.559L28.8652 248.508L29.019 248.456L29.0703 248.251L29.019 248.097L28.9678 247.944H28.8652V247.892L28.814 247.841H28.7114V247.739L28.7627 247.687L28.7114 247.482L28.7627 247.431L28.8652 247.38L29.019 247.277L29.0703 247.226L29.1729 247.072H29.3267V246.97V246.918L29.2241 246.816L29.1729 246.764L29.019 246.662H28.9165V246.713L28.7627 246.764V246.816V246.918H28.6089L28.5063 246.97L28.4551 246.918L28.3013 246.97V246.867L28.4551 246.662H28.4038V246.508H28.4551L28.4038 246.406L28.4551 246.354L28.6089 246.2L28.6602 246.047L28.7114 245.995L28.6602 245.893L28.7114 245.79V245.636L28.6089 245.534V245.431H28.5576V245.329L28.5063 245.226L28.5576 245.124L28.7114 245.073V245.021L28.7627 244.919L28.7114 244.816V244.714L28.6089 244.56V244.509V244.457L28.5576 244.406V244.355L28.5063 244.303V244.201L28.6089 244.047L28.7114 244.15L28.814 244.098L28.8652 243.996L28.9165 243.945L28.9678 243.842V243.688V243.586L29.019 243.534L29.0703 243.432L29.019 243.176V243.022V242.714L29.0703 242.56L29.019 242.458L28.9165 242.355H28.814H28.6089L28.4038 242.201H28.3013L28.1475 242.355V242.509H28.0449V242.458L27.9424 242.304H27.8911V242.201L27.9424 242.099L27.8911 242.048L27.9424 241.945H28.0449L28.0962 241.996L28.1475 241.945H28.25L28.3013 241.842V241.791L28.4038 241.894H28.4551V241.842L28.4038 241.791L28.5063 241.689L28.6089 241.535V241.432L28.5576 241.279L28.3525 240.92L28.25 240.766L28.1987 240.715H28.0962L28.0449 240.766L27.9936 240.715L27.8398 240.663L27.7886 240.715L27.7373 240.817L27.686 240.868L27.5835 240.817L27.4809 240.92H27.4297L27.3784 240.817L27.3271 240.663L27.2759 240.612V240.509L27.3784 240.407V240.356L27.4297 240.304V240.151L27.3784 239.997L27.3271 239.792V239.689V239.587L27.4297 239.535L27.5835 239.587L27.6347 239.535L27.686 239.587L27.8911 239.74L27.9424 239.843V239.894H27.8911L27.9424 239.945V239.997H28.0449H28.0962L28.1475 240.048L28.1987 240.099L28.3013 240.202L28.3525 240.048V239.894L28.5063 239.74L28.6089 239.587L28.7114 239.33L28.7627 239.176V239.023L28.814 238.254L28.8652 238.151H28.814L28.6089 238.1L28.5576 238.048L28.6602 237.895V237.587L28.6089 237.433V237.331V237.177L28.5576 237.074L28.4038 236.664L28.3013 236.51L28.25 236.459L27.9424 236.51L27.8911 236.562L27.7886 236.51L27.9424 236.305L28.0449 236.203V236.151L27.9936 235.998L27.9424 235.741L27.8911 235.587L27.8398 235.382L27.7886 235.126L27.7373 234.818L27.686 234.562L27.5835 234.357L27.5322 234.101L27.4297 233.742L27.3784 233.588L27.2246 233.127L27.1733 232.921L27.0708 232.768L26.9682 232.716L26.8657 232.819L26.7119 232.768L26.6606 232.665L26.5581 232.614L26.4043 232.665V232.614L26.2504 232.511L26.1992 232.409V232.357L26.3017 232.306L26.5068 232.357H26.6093V232.409L26.6606 232.46L26.7631 232.409V232.357L26.8144 232.204L26.8657 232.05V231.845L26.8144 231.588L26.7631 231.281L26.7119 231.178L26.6093 231.024L26.4043 231.076L26.353 231.024L26.3017 230.922L26.2504 230.819V230.717L26.3017 230.666V230.512L26.2504 230.409L26.1992 230.255L26.1479 230.153H26.0454H25.9428L25.8403 230.102L25.8916 230.05L25.9941 229.999L26.0454 229.948V229.845L25.9428 229.691L25.8403 229.743H25.789V229.64L25.7377 229.538V229.486L25.789 229.384V229.281L25.7377 229.179L25.6865 229.076L25.5839 229.025L25.5327 228.974L25.4814 228.871H25.3788L25.3276 228.82L25.225 229.025L25.0712 229.076H25.02L24.9174 228.974V228.769L24.8661 228.563L24.8149 228.461L24.8661 228.358H24.9174V228.307L24.8661 228.205L24.7636 228.153L24.6611 228.051L24.7123 227.999L24.5585 227.897L24.5073 227.794H24.456L24.3022 227.743V227.641L24.456 227.589L24.4047 227.487V227.436L24.5073 227.384H24.6098L24.5585 227.333L24.6098 227.282L24.7123 227.384L24.7636 227.333L24.8661 227.384L25.1225 227.538L25.225 227.384L25.2763 227.333L25.3788 227.436L25.3276 227.487L25.5327 227.538L25.5839 227.487L25.6865 227.538L25.789 227.487L25.8916 227.589V227.692L25.789 227.897L25.8403 227.999L25.8916 228.051V228.256V228.307V228.41L25.9428 228.461L26.1992 228.307L26.3017 228.256H26.353V227.999H26.3017V227.948L26.4555 227.743L26.6093 227.538L26.5581 227.436L26.6606 227.282L26.7119 227.025L26.6606 226.974L26.7119 226.872L26.6606 226.769L26.5581 226.82L26.5068 226.718H26.353H26.3017H26.1992H26.1479L26.0454 226.615L25.9941 226.513L25.8916 226.461L25.7377 226.359L25.6865 226.256L25.6352 226.205L25.6865 226.102L25.7377 226.051H25.9428V226L25.8916 225.846L25.8403 225.795L25.7377 225.744L25.6352 225.59L25.5327 225.538L25.4814 225.487L25.4301 225.436L25.4814 225.333V225.282L25.6865 225.128V225.026V224.923L25.5327 224.872V224.821L25.4814 224.718L25.4301 224.616L25.4814 224.462L25.5327 224.359V224.257H25.3788H25.225H25.1738L25.225 224.154V223.949L25.1225 223.693L25.0712 223.59H24.9687H24.8661L24.8149 223.488H24.7123L24.6611 223.539H24.6098L24.5073 223.436H24.456L24.3534 223.488V223.59L24.2509 223.539L24.0971 223.59L23.9433 223.488L23.7382 223.436L23.6869 223.385L23.6357 223.334V223.18L23.5844 223.078L23.4818 222.975V222.924L23.3793 222.77L23.328 222.667V222.616L23.3793 222.514H23.4306L23.5331 222.565H23.5844L23.6357 222.514L23.6869 222.565L23.7895 222.514L23.8407 222.411L23.9433 222.36L23.9945 222.308H24.0458L24.0971 222.257L24.1996 222.206V222.155L24.1484 222.103V222.001L24.1996 221.95L24.1484 221.744L24.1996 221.796V221.539L24.2509 221.437L24.3534 221.386L24.456 221.334L24.5073 221.232L24.6611 221.129L24.6098 221.027L24.5585 220.873H24.456L24.4047 220.924H24.3022L24.1996 220.873L24.1484 220.822L24.1996 220.719L24.1484 220.565L24.1996 220.411L24.0971 220.36V220.258L24.1484 220.155L24.4047 219.95L24.456 219.899V219.694V219.591L24.4047 219.54L24.3534 219.335L24.3022 219.284L24.2509 219.027L24.1996 218.873L24.0971 218.668V218.566L24.0458 218.412L23.9433 218.104L23.8407 217.797L23.7382 217.489V217.387L23.6357 217.284L23.5844 217.233H23.4818L23.4306 217.181L23.328 217.079V216.976L23.2255 216.874L23.0717 216.771V216.72L23.0204 216.669L22.9691 216.771H22.8153L22.7128 216.72L22.6615 216.464V216.361L22.6102 216.31L22.4564 216.259L22.2001 215.951V215.9L22.1488 215.797L22.0463 215.695V215.541L21.995 215.438V215.387V215.284L22.0975 215.131V215.028L22.1488 214.977H22.0975V214.926L22.2001 214.874L22.2514 214.772H22.3539L22.559 214.669L22.6615 214.618L22.7128 214.669L22.8153 214.874L22.7641 214.926H22.8666H22.9691L23.0717 214.874L23.1229 214.823L23.0717 214.72V214.567L23.1229 214.515L23.2255 214.464H23.328L23.3793 214.362V214.208L23.328 214.156L23.2255 213.9H23.1229L23.0717 213.798L22.9691 213.746H22.8153L22.7128 213.695V213.644H22.6615H22.6102L22.6615 213.49L22.6102 213.439L22.559 213.49L22.4564 213.439L22.4052 213.387L22.3026 213.336L22.2514 213.234L22.1488 213.08L21.995 212.875L21.8925 212.67L21.8412 212.413V212.311L21.7899 212.054L21.6874 211.901V211.798L21.6361 211.695L21.5336 211.644L21.4823 211.593L21.5336 211.439L21.6361 211.337L21.7387 211.285H21.8412V211.234L21.7899 211.029L21.7387 210.875L21.6874 210.721L21.5848 210.619L21.4823 210.568V210.465L21.431 210.414L21.3798 210.311L21.2772 210.26L21.2259 210.157V210.106L21.1747 210.004L21.1234 209.901L21.0721 209.645L20.9696 209.593L20.9183 209.337V209.235V209.132V208.978V208.876L21.0721 208.722L21.1747 208.671L21.2772 208.619H21.3798V208.568L21.4823 208.517L21.5336 208.465L21.5848 208.363L21.6874 208.312L21.7387 208.363L21.7899 208.312L21.8412 208.209V208.107L21.7899 207.901V207.799L21.7387 207.543L21.6874 207.235L21.5848 207.184L21.5336 207.081V206.927L21.4823 206.774L21.3285 206.466L21.2772 206.056L21.1234 205.799L21.0721 205.646L21.0209 205.441L20.7645 204.877L20.5594 204.364V204.261L20.4056 204.005L20.3543 203.902L20.2518 203.646L20.2005 203.543L20.0467 203.492L20.098 203.441L20.0467 203.338H19.9442H19.7904V203.287H19.8416V203.236L19.7904 203.133L19.8929 203.082L19.9442 202.98L19.9955 202.826V202.723V202.621L19.9442 202.467L19.8929 202.313L19.7904 202.262V202.159H19.7391L19.6878 202.057L19.7391 202.005L19.7904 201.903H19.8929V201.852L19.7904 201.698L19.5853 201.39L19.534 201.185V201.083L19.4315 201.031L19.3802 200.929L19.4315 200.775L19.3289 200.519L19.2264 200.416L19.1239 200.262L19.1751 200.16L19.0726 199.955L19.0213 199.749L18.97 199.647L18.9188 199.544V199.493L18.8162 199.544H18.6624H18.6112L18.5086 199.442L18.3548 199.237L18.2523 199.186L18.201 199.083V198.98L18.1497 198.929L18.0472 198.775H18.0985L18.201 198.622V198.416V198.263L18.1497 198.058L18.0985 197.904V197.801V197.75V197.596H17.9446L17.8421 197.545L17.7908 197.494L17.637 197.545H17.5857L17.4319 197.442V197.391L17.3807 197.288L17.3294 197.237L17.2269 197.186H17.1756V197.135L17.1243 197.032L17.073 196.981V196.878V196.776V196.571V196.519L17.0218 196.212L17.073 195.955L17.2269 195.75L17.4832 195.597L17.5345 195.392L16.9705 194.828L16.9192 194.879L16.7654 194.828H16.6116V194.776H16.5603V194.725L16.7141 194.674L16.6116 194.417L16.5603 194.264L16.4578 194.007L16.3553 193.905L16.2527 193.802L16.1502 193.853L16.0476 193.7L15.9964 193.546H15.9451V193.443L15.8938 193.392H15.8426V193.341H15.9964H16.0989L16.1502 193.238H16.2014L16.5091 193.136H16.5603V192.982L16.4578 192.879L16.3553 192.777L16.304 192.623L16.0989 192.11L16.0476 192.008L15.9451 191.854L15.7913 191.803H15.74L15.6887 191.956L15.5862 192.008L15.4837 191.956V191.905L15.3811 191.854L15.2786 191.7V191.649L15.3299 191.444L15.4324 191.341L15.4837 191.187L15.5349 191.136H15.6375L15.6887 191.034V190.828L15.74 190.88V190.777H15.6887L15.5862 190.572L15.4324 190.059L15.3811 189.854L15.2786 189.649L15.176 189.495L15.0222 189.444L14.971 189.342L14.8684 189.29L14.8171 189.188V188.983L14.7659 188.88H14.7146V188.778L14.6633 188.573L14.6121 188.47L14.5095 188.419L14.4583 188.265L14.5095 188.214L14.4583 188.111L14.407 188.06L14.4583 188.009L14.5095 188.06L14.5608 187.957H14.6121L14.6633 187.906H14.7659L14.8171 187.855L14.9197 187.803V187.701V187.65L14.971 187.598L15.0222 187.547V187.393L15.0735 187.342V187.291L15.1248 187.24V187.188V187.086L15.0735 187.034L15.1248 186.881L15.2273 186.829V186.778L15.176 186.727L15.0222 186.06L14.8171 185.445L14.7659 185.189V185.086H14.8171L14.8684 185.035L14.8171 184.984L14.7659 184.881L14.6633 184.779H14.5608L14.5095 184.727L14.407 184.625V184.573H14.3044L14.2532 184.471L14.2019 184.317L14.1506 184.266L13.9968 184.215V184.163L13.8943 184.009L13.7917 183.907L13.6379 183.856L13.5867 183.907L13.4328 183.804L13.279 183.702H13.2278L13.1252 183.804V183.856H13.074L12.9201 183.958L12.9714 184.009H12.9201H12.8689L12.7151 183.958L12.6638 183.856V183.804L12.6125 183.702L12.7663 183.651L12.7151 183.599L12.7663 183.548V183.497L12.8689 183.394H12.9201V183.292H13.0227L13.074 183.189L13.1252 183.035L13.0227 182.933V182.779L13.074 182.676L13.1765 182.625L13.1252 182.471V182.369V182.318L13.074 182.215L13.0227 182.01L12.9714 181.959L13.0227 181.907V181.754L12.9201 181.651L12.9714 181.548L12.8689 181.446L12.8176 181.395V181.343L12.9201 181.292V181.19H12.8689V181.087L12.8176 181.036L12.8689 180.933L12.9201 180.831H12.9714H13.0227L13.074 180.779H13.1252H13.2278V180.831L13.3303 180.779L13.5867 180.831L13.6892 180.882H13.7917L13.9455 180.933L13.9968 180.985H14.0994L14.2019 181.036L14.3044 181.087L14.4583 181.343L14.407 181.395V181.497L14.3557 181.548V181.6H14.407L14.3557 181.754L14.5095 181.805H14.5608V181.856L14.407 181.959V182.061V182.112V182.164L14.4583 182.369L14.5095 182.523V182.676L14.5608 182.728L14.7146 182.676L14.7659 182.728L14.8684 182.83H14.9197L15.0222 182.779H15.176L15.2786 182.728H15.3811V182.625L15.4324 182.676H15.4837L15.5862 182.728H15.6375V182.574L15.6887 182.523L15.7913 182.574L15.8426 182.625L15.8938 182.728L16.1502 182.676L16.2527 182.728V182.83H16.3553V182.728H16.4578L16.5091 182.676V182.523L16.5603 182.574L16.5091 182.779L16.5603 182.83L16.6116 182.882H16.6629L16.7654 182.933H16.9192H17.0218L17.1243 183.035V183.087L17.2269 183.035L17.3294 183.087L17.3807 183.189H17.3294L17.2781 183.24L17.5345 183.189L17.7396 183.24L17.9446 183.292L17.9959 183.343H18.0472L18.3035 183.394L18.6112 183.548L18.7137 183.651L19.3802 183.445V183.394V183.24H19.2777V183.087L19.2264 182.984L19.1239 182.933H19.0726L19.0213 182.83H18.8675L18.8162 182.728V182.676H18.765V182.625L18.5599 182.42L18.5086 182.266L18.5599 182.215V182.112V182.061L18.7137 181.856L18.8162 181.702H18.8675L18.9188 181.651L18.765 181.343L18.1497 181.395L18.0985 181.497L18.0472 181.548L17.8934 181.6H17.6883V181.651L17.5857 181.754L17.4832 181.702L17.3807 181.754H17.3294L17.1756 181.6L17.1243 181.651V181.702L17.0218 181.754L16.9705 181.6L16.868 181.497L16.8167 181.548L16.7141 181.497L16.6629 181.446L16.7141 181.395H16.7654L16.8167 181.343V181.138L16.7654 180.985L16.6629 180.933H16.6116L16.4578 180.831L16.2527 180.779H15.9451L15.74 180.831L15.6375 180.882V180.985L15.5349 181.19L15.4837 181.292L15.4324 181.343H15.3811V181.036L15.3299 180.933L15.1248 181.087L14.971 180.831L15.176 180.677L15.0735 180.574L15.0222 180.523V180.472L14.9197 180.113L14.8171 180.01L14.7146 180.113L14.6121 180.062L14.5608 180.01H14.4583L14.407 180.062L14.3044 179.959V179.754V179.651V179.6L14.1506 179.395H14.0994L13.8943 179.498H13.843L13.7917 179.395L13.7405 179.293V179.241L13.843 179.19L13.8943 179.036L13.7917 178.934L13.6892 178.78L13.5867 178.524L13.6379 178.421L13.4328 178.216H13.3303L13.279 178.165V178.062L13.074 177.96H13.0227H12.9714H12.8689L12.7663 178.011V177.96V177.908L12.8176 177.857L12.8689 177.703L12.7663 177.652L12.6638 177.601L12.6125 177.703L12.5612 177.652L12.4074 177.703L12.3049 177.652V177.703H12.2024V177.806H12.0998L11.9973 177.754V177.652L11.946 177.549V177.498L11.8435 177.447L11.8947 177.344V177.242L11.7922 177.139L11.7409 176.985V176.934V176.832L11.8435 176.678H11.946L11.9973 176.627H12.0485L12.0998 176.678L12.2536 176.575L12.3049 176.473L12.4074 176.216V176.165V175.96L12.3562 175.857L12.3049 175.704L12.1511 175.601H12.0998H11.9973H11.946L11.8947 175.55L11.7922 175.601L11.7409 175.499L11.7922 175.447L11.7409 175.396L11.6897 175.294L11.5871 175.345V175.242L11.6384 175.191L11.5871 175.14L11.5358 175.191V175.088H11.5871V175.037L11.5358 174.986V174.935L11.5871 174.883V174.781H11.4846L11.5358 174.678L11.5871 174.576L11.5358 174.524L11.4846 174.473L11.5871 174.422V174.217V174.166L11.5358 174.063L11.4846 174.012L11.4333 173.909V173.807H11.4846L11.5358 173.704L11.4846 173.55V173.448L11.4333 173.396V173.294L11.3308 172.986L11.2282 172.781L11.1769 172.627L11.1257 172.576L11.0231 172.525L10.9719 172.576V172.525V172.422V172.269L11.0231 172.115V172.063V172.012V171.91V171.858L11.0744 171.807L11.1257 171.858L11.2282 171.756L11.2795 171.653L11.3308 171.448L11.2795 171.346V171.243V171.141H11.2282V171.038L11.2795 170.987V170.833H11.3308L11.382 170.73V170.577V170.474L11.4333 170.372L11.5358 170.32H11.6384L11.6897 170.269L11.7409 170.115L11.6897 169.91V169.756L11.7409 169.602L11.6897 169.397V169.295L11.6384 169.09L11.5358 168.885L11.4846 168.782L11.4333 168.731V168.628L11.4846 168.577L11.5358 168.526L11.5871 168.68L11.6384 168.782L11.6897 168.885L11.6384 169.039L11.7409 169.09H11.8435L11.946 169.141L12.0998 169.039H12.2024L12.3562 168.936L12.4074 168.885L12.4587 168.782H12.5612L12.51 168.526H12.4074L12.3562 168.423L12.3049 168.269L12.2536 168.116L12.2024 167.859L12.0998 167.757L11.9973 167.5L11.8947 167.295L11.7409 166.988L11.6897 166.885V166.783L11.5871 166.68L11.4333 166.321L11.382 166.116L11.3308 165.962L10.9719 165.193L10.9206 165.142L10.7668 164.937L10.613 164.681L10.5617 164.578L10.4592 164.27V164.014L10.3566 163.963L10.049 163.911L9.89519 163.86L9.84392 163.655L9.69011 163.45L9.63883 163.296L9.53629 162.835V162.63V162.527L9.58757 162.476L9.53629 162.373V162.22L9.43375 162.066L9.38248 161.656V161.502V161.399L9.22867 161.194L9.1774 161.092V160.938L9.22867 160.887H9.27994L9.38248 160.681L9.43375 160.528L9.48502 160.374L9.53629 160.117L9.58757 159.912V159.553V159.297L9.53629 159.041V158.836L9.63883 158.528V158.22L9.69011 158.169L9.63883 158.067L9.58757 157.862V157.605L9.53629 157.451V157.4L9.58757 157.041L9.53629 156.939L9.58757 156.58V156.529V156.375L9.63883 156.323L9.74138 156.272V156.118L9.79265 156.016L9.89519 155.965V156.067H9.99773H10.2028L10.4079 155.862V155.965L10.4592 156.016H10.5617H10.6642L10.613 156.17V156.221H10.8181L11.0231 156.17L11.0744 156.118L11.1769 156.067V155.965L11.2795 156.067L11.382 156.118L11.4333 156.17V156.426L11.6384 156.58H11.6897H11.8947L12.0485 156.477L12.2024 156.272L12.3049 156.17L12.4074 156.067L12.51 155.862L12.6638 155.452L12.7151 155.401L12.7663 155.349L12.8689 155.042L12.9201 154.99L12.9714 154.888L13.074 154.785L13.1765 154.837V154.939L13.3303 155.196L13.3816 155.247L13.4841 155.401L13.6379 155.811L13.7405 155.965L13.8943 156.221L14.0481 156.426L14.2532 156.58L14.4583 156.375L14.6633 156.118L14.6121 156.016L14.6633 155.913H14.7146L14.8171 155.811L14.8684 155.606L14.8171 155.401V155.196V155.093L14.9197 154.837L14.971 154.785L14.9197 154.734V154.683L14.971 154.58L14.9197 154.478L14.8171 154.375V154.221V153.811V153.709L14.8684 153.657L15.0222 153.504L15.1248 153.35L15.176 153.093L15.2273 153.042L15.1248 152.991L15.0735 153.042L14.9197 153.145H14.7659L14.6633 153.196L14.3044 153.452V153.401L14.2532 153.452V153.504L14.1506 153.555L14.0481 153.606L13.9455 153.657L13.8943 153.709L13.7405 153.76L13.6892 153.811H13.6379L13.4841 153.862V153.965L13.4328 153.914L13.279 153.965H13.1765H13.1252L13.074 153.914L12.9714 153.811H12.9201H12.8176H12.7151L12.5612 153.709H12.51H12.4587H12.3562V153.657L12.2536 153.504L12.3049 153.299L12.2536 153.093L12.1511 152.888L11.9973 152.683L11.946 152.581L11.8435 152.376L11.7409 152.222L11.6384 152.171V152.119L11.5358 152.068L11.5871 151.914L11.5358 151.76L11.5871 151.504H11.5358V151.35L11.5871 151.299L11.6897 151.196L11.8435 151.248L11.946 151.196L11.9973 151.043L11.946 150.889L12.0485 150.94L12.2024 150.786L12.3562 150.889V150.838L12.51 150.889L12.5612 150.94L12.6125 151.043L12.7151 151.145L12.9201 151.35L13.0227 151.453H13.1252L13.1765 151.35L13.1252 151.248V151.196V151.094V150.991H13.1765L13.279 150.889H13.3303H13.4328L13.5354 150.94H13.6892L13.7405 150.991L13.7917 150.94L13.7405 150.889H13.7917L13.843 150.735L13.8943 150.581L13.9455 150.53L13.8943 150.479H13.9455L13.843 150.376L13.8943 150.274L13.6379 150.12L13.5354 150.017L13.3816 149.812L13.1765 149.607L13.074 149.658L12.8689 149.863L12.8176 149.812H12.7663L12.7151 149.761L12.8689 149.556L13.0227 149.453L13.074 149.402L13.279 149.607V149.505L13.1765 149.351L13.074 149.299H13.1252L13.279 149.094L13.3303 148.889L13.3816 148.941V148.838L13.5354 148.479V148.325H13.6379L13.7405 148.274V148.12L13.6379 148.018L13.6892 147.915L13.7917 147.864L13.8943 147.915V147.864L13.9968 148.018L14.0481 148.12L14.1506 148.171H14.3044L14.407 148.223L14.5095 148.325H14.7146L14.8171 148.274L15.0222 148.12L15.0735 148.069V147.966L15.1248 148.069L15.2786 148.12H15.4837L15.74 148.018L15.8426 147.915L15.8938 147.813L15.9964 147.71H16.2014L16.304 147.659L16.4578 147.505L16.5091 147.402V147.249H16.5603L16.6629 147.146L16.7141 147.044H16.8167L16.9192 147.146H17.0218L17.073 147.095V146.992L17.1756 146.89V146.787V146.582L17.073 146.428L17.0218 146.531L16.9192 146.48H16.8167L16.6116 146.531V146.633L16.4578 146.685L16.1502 146.633L15.9964 146.531L15.8426 146.582V146.377L15.7913 146.274V145.967L15.74 145.762L15.7913 145.71L15.8426 145.659V145.608L15.8938 145.557L15.8426 145.403L15.8938 145.249L15.74 144.685L15.6887 144.429L15.6375 144.326L15.4837 144.019L15.3811 143.813L15.3299 143.762L15.176 143.66L15.1248 143.608L14.971 143.557L14.7659 143.608L14.7146 143.557L14.7659 143.506V143.403L14.8684 143.352L14.9197 143.249V143.096H14.971L15.0222 142.839L15.1248 142.788V142.634L15.0735 142.48L15.0222 142.275V142.122L14.971 141.916L14.8171 141.763L14.7659 141.711V141.558V141.147V140.891L14.8171 140.737L14.3557 140.583V140.635V140.686L14.3044 140.84L14.2532 141.045L14.2019 141.147H14.1506V141.25L14.0481 141.506L13.9968 141.609L13.9455 141.865L13.8943 141.916L13.7917 142.327V142.634V142.891V142.942V142.993L13.8943 143.301H13.843L13.8943 143.455L13.9455 143.506L13.9968 143.608V143.865H13.9455L13.9968 144.07V144.326V144.634L13.9455 144.788L13.8943 144.89L13.7917 144.993V145.044L13.7405 145.095L13.7917 145.147L13.7405 145.198L13.6892 145.3H13.6379L13.5867 145.403L13.4841 145.505L13.1765 145.71L13.074 145.813L13.0227 145.864L12.9201 145.916L12.6125 146.172L12.4074 146.274L12.2536 146.428L12.2024 146.48L12.0998 146.582L11.8435 146.685L11.7922 146.633L11.5871 146.685L11.5358 146.633V146.685H11.4333V146.787L11.382 146.838L11.4333 146.941H11.382V146.89V146.736L11.3308 146.685L10.8181 146.787V146.633H10.9719V146.531H10.9206V146.582H10.8181L10.7668 146.633H10.5617V146.531L10.4592 146.428L10.5104 146.172H10.4592L10.4079 146.223L10.2541 146.274V146.326H9.99773L9.94646 146.274L9.89519 146.377L9.84392 146.326L9.74138 146.428L9.63883 146.377V146.48L9.53629 146.531L9.43375 146.48L9.38248 146.685L9.43375 146.787L9.38248 146.838H9.27994V146.89H9.22867L9.27994 146.992L9.43375 147.454L9.27994 147.659H9.1774L9.22867 147.761L9.12613 147.864V147.915H9.02359L8.92105 147.864V147.966L8.97232 148.018V148.069H9.02359V148.12L8.97232 148.171H9.07486V148.223H8.97232L8.92105 148.377L8.86978 148.428V148.633H8.92105L8.97232 148.582V148.633H8.92105H8.86978L8.76724 148.941L8.81851 149.094L8.6647 149.71L8.61343 149.658L8.6647 150.017H8.61343V149.812H8.56216H8.45962L8.51089 149.915L8.30581 150.017L8.40835 150.068V150.12L8.51089 150.376L8.6647 150.171L8.51089 150.427L8.40835 150.376L8.25453 150.274V150.325H8.20326L8.10072 150.581L8.04945 150.632L8.10072 150.684L7.99818 150.786L7.89564 150.838L7.84437 151.043L7.69056 150.889L7.58802 150.94V150.991L7.53675 151.043H7.48548V151.094V151.145V151.248V151.35L7.33167 151.504V151.555L7.22913 151.658H7.17786L7.02404 151.76L7.07532 151.658L6.9215 151.504L6.87023 151.401L6.81896 151.248V151.043L6.87023 150.94L6.97277 150.786L7.33167 150.376L7.07532 150.684V150.735L7.22913 150.838H7.2804L7.33167 150.735L7.43421 150.684L7.38294 150.581L7.43421 150.53H7.48548H7.58802L7.69056 150.581L7.7931 150.479L7.84437 150.427L7.7931 150.376V150.325H7.74183L7.69056 150.274H7.63929L7.48548 150.171L7.63929 150.017L7.74183 149.812V149.658V149.402L7.69056 149.248L7.63929 149.146L7.48548 148.941L7.38294 148.889L7.2804 148.787L7.07532 148.735L6.97277 148.838L6.9215 148.889L6.87023 148.941L6.76769 149.043L6.66515 149.094L6.56261 149.146V149.197L6.46007 149.299L6.4088 149.505H6.30626L6.35753 149.299L6.30626 149.197V148.992L6.35753 148.889L6.46007 148.787L6.51134 148.684L6.61388 148.582H6.66515V148.428L6.81896 148.274V148.12L6.76769 148.069V147.915H6.81896L6.9215 147.813L6.97277 147.71L6.9215 147.659H7.02404L7.07532 147.607H7.17786L7.33167 147.454V147.351L7.2804 147.197H7.22913H7.17786L7.22913 147.044V146.941V146.89V146.736L7.17786 146.685V146.531L7.22913 146.428L7.2804 146.377L7.33167 146.223L7.38294 146.018L7.43421 145.916L7.38294 145.71V145.505L7.33167 145.403V145.3L7.53675 145.557V145.659L7.58802 145.71L7.69056 145.762L7.7931 145.71L8.04945 145.557L8.10072 145.505L8.25453 145.3L8.35707 145.095L8.40835 144.941V144.736V144.583V144.531L8.30581 144.326V144.224H8.20326L8.15199 144.275L8.04945 144.377L7.99818 144.429L7.84437 144.531L7.74183 144.583L7.69056 144.634L7.63929 144.531L7.48548 144.583V144.531V144.429L7.58802 144.224L7.69056 144.019L7.74183 143.967V143.865L7.58802 143.762L7.63929 143.66L7.69056 143.455V143.352V143.249L7.63929 143.198V143.044V142.993V142.891L7.74183 142.788L7.7931 142.686V142.634L7.74183 142.583L7.7931 142.532L7.84437 142.429L7.89564 142.173L7.84437 141.968L7.7931 141.66L7.69056 141.301V141.147L7.58802 140.942L7.53675 140.789L7.43421 140.686L7.33167 140.481L7.12659 140.122L6.87023 139.917L6.76769 139.866L6.87023 139.609H6.81896L6.76769 139.661L6.66515 139.763H6.71642L6.66515 139.866H6.56261L6.51134 139.814L6.4088 139.866L6.46007 139.917L6.51134 140.071V140.225H6.46007L6.4088 140.327H6.35753H6.20372L6.15245 140.378H6.10118L6.15245 140.327L6.10118 140.276L6.04991 140.225H6.10118L6.15245 139.917V139.814L6.10118 139.763L6.15245 139.712V139.661L6.20372 139.558L6.15245 139.455L6.10118 139.353L5.94737 139.199V139.045H5.84483V138.994L5.94737 138.943V138.892L5.8961 138.789L5.84483 138.738L5.79356 138.686L5.84483 138.584V138.533L5.94737 138.584L5.99864 138.635L6.10118 138.584L6.15245 138.481L6.20372 138.43L6.25499 138.379H6.30626L6.4088 138.328L6.51134 137.917V137.764V137.712L6.46007 137.456L6.51134 137.302V137.148H6.4088L6.30626 137.302L6.20372 137.353L6.10118 137.302L5.99864 137.353L5.8961 137.302L5.84483 137.251V137.097L5.8961 136.995L5.99864 136.943L6.04991 136.892L5.99864 136.789L5.94737 136.738H5.8961H5.79356L5.74228 136.687V136.584H5.79356L5.84483 136.379V136.277L5.79356 136.174H5.74228L5.63974 135.969H5.58847V135.815L5.63974 135.764L5.69101 135.713L5.79356 135.508L5.69101 135.2L5.79356 135.149V135.046V134.995L5.84483 134.79L5.8961 134.636V134.482V134.328L5.84483 134.123H5.8961L5.94737 133.97V133.918L5.99864 133.867L5.94737 133.816L5.8961 133.713L5.79356 133.611V133.354L5.74228 133.303V133.201H5.84483L5.8961 133.252L5.94737 133.098V132.842L5.99864 132.637L5.94737 132.124L5.99864 132.021H6.04991V131.919L6.15245 131.816L6.35753 131.714L6.4088 131.765V131.816L6.46007 131.919H6.51134L6.81896 132.021H7.02404L7.07532 132.073L7.17786 132.124V132.073H7.22913H7.38294L7.48548 131.97L7.58802 131.919L7.74183 131.816L7.89564 131.662L7.99818 131.611L8.30581 131.457L8.51089 131.355L8.61343 131.303H8.71597H8.92105H9.07486L9.1774 131.355L9.38248 131.406L9.58757 131.509L9.89519 131.714L9.94646 131.765L10.3054 132.021L10.5617 132.226L10.6642 132.278L10.7155 132.38L10.7668 132.483L10.9719 132.637L11.1257 132.739L11.2795 132.79H11.3308L11.4846 132.842L11.6897 132.79H11.7922H11.8947H12.0998L12.3562 132.739H12.4587L12.51 132.79L12.6638 132.842L12.7151 132.893L12.7663 132.842L12.8176 132.893L13.0227 132.79L13.279 132.637L13.3303 132.483H13.4328H13.4841H13.6379L13.8943 132.431H13.9968L14.2532 132.534L14.4583 132.637L14.8171 132.893L15.0735 133.149L15.176 133.252L15.2273 133.457V133.508V133.713V133.918L15.2786 134.021L15.3811 134.175L15.4324 134.277L15.4837 134.38L15.5862 134.636L15.6375 134.79V134.841L15.74 135.098L15.6887 135.251L15.74 135.456L15.7913 135.61L15.8426 135.764L15.9451 135.918V136.02L16.0476 136.123L16.1502 136.174L16.2014 136.225L16.2527 136.277L16.3553 136.379L16.5091 136.482L16.5603 136.533L16.6629 136.789V136.841L16.868 137.097L17.0218 137.2H17.1756H17.3294H17.4832L17.8934 137.046L18.0472 136.995H18.3035H18.4573H18.5599L18.5086 136.943L18.6112 136.841L18.7137 136.738V136.789L18.8675 136.738H18.765L18.7137 136.687L18.8162 136.584V136.431L18.8675 136.123V135.969L18.8162 135.764V135.61V135.508L18.97 135.405L19.1751 135.2L19.0726 135.098L18.97 135.149L18.8675 135.251L18.7137 135.405V135.508L18.6624 135.661L18.7137 135.713V136.123V136.225L18.6624 136.431L18.6112 136.584L18.5599 136.738L18.4573 136.789H18.3548L18.0472 136.841L17.9446 136.892H17.7396L17.5345 136.943L17.4832 136.892H17.4319L17.3807 136.943H17.2781L17.1756 136.841L16.9705 136.687L16.868 136.584L16.8167 136.431L16.6629 136.277L16.5603 136.174L16.6116 136.072L16.5091 136.123L16.5603 136.174L16.4578 136.123V136.02L16.304 135.969V135.867V135.815H16.2527H16.1502L16.0476 135.661H15.9964L15.9451 135.559L15.8938 135.303L15.9451 135.251L15.9964 135.303L15.9451 135.2V134.944L15.8938 134.739L15.8426 134.636V134.431V134.277L15.7913 134.175L15.74 133.97L15.6375 133.918L15.4837 133.867L15.4324 133.816V133.662V133.508L15.3811 133.354V133.303V133.149L15.176 132.79L15.0735 132.637L14.8171 132.483H14.7146L14.5608 132.431L14.407 132.175L14.2532 132.073L13.9968 131.97H13.8943H13.7405L13.6892 132.021L13.4328 132.073L13.1765 132.226L13.1252 132.278L12.9714 132.483L12.8689 132.739L12.8176 132.688L12.7151 132.739L12.6125 132.688L12.4074 132.585L12.2024 132.637H12.0485L11.946 132.688H11.5871L11.4846 132.637L11.3308 132.585L11.1769 132.483L11.1257 132.329L10.8181 131.97L10.6642 131.816L10.5104 131.406L10.3054 131.098L10.1003 130.842L9.99773 130.74L9.79265 130.534L9.48502 130.381L9.33121 130.278H9.1774L8.97232 130.227L8.6647 130.176L8.35707 130.227L8.25453 130.278L7.94691 130.432L7.84437 130.534L7.69056 130.688L7.48548 130.893L7.43421 130.945L7.33167 130.996H7.22913H7.07532L6.97277 130.945L6.87023 130.842V130.893H6.71642L6.66515 130.842L6.51134 130.688L6.46007 130.534L6.35753 130.381L6.15245 130.278L5.99864 130.073L5.8961 130.022V129.97L5.79356 129.919L5.74228 129.817L5.69101 129.765L5.58847 129.714L5.5372 129.612L5.48593 129.458L5.43466 129.406L5.28085 129.15L5.12704 128.996L4.97323 128.791L4.76815 128.586V128.432L4.81942 128.227V128.125L4.92196 127.868L4.97323 127.817L5.17831 127.766L5.28085 127.715L5.22958 127.663L5.17831 127.715L5.12704 127.766L5.0245 127.715L4.97323 127.663L4.92196 127.561V127.356V127.202L4.87069 126.894V126.689L4.76815 126.33L4.61434 125.818L4.56307 125.715L4.46053 125.356L4.35798 125.049L4.25544 124.843L4.1529 124.638V124.536L4.20417 124.331L4.30671 124.177L4.40925 124.126L4.5118 124.023L4.66561 123.767L4.76815 123.664L4.87069 123.613L4.81942 123.664H5.0245H5.12704L5.17831 123.613L5.12704 122.741V122.382L5.07577 122.434L4.92196 122.331L4.66561 122.229L4.56307 122.177L4.10163 121.87L3.99909 121.767L3.89655 121.665L3.84528 121.408V121.357V121.255H3.79401L3.69147 121.306L3.58893 121.357L3.48639 121.203L3.43512 121.049L3.38385 120.947H3.33258L3.38385 120.896V120.844L3.28131 120.793L3.17876 120.691L3.12749 120.742H3.02495V120.691L3.12749 120.639L3.17876 120.485V120.434H3.12749V120.383L3.17876 120.332L3.12749 119.973V119.87L3.02495 119.768L3.07622 119.511L3.02495 119.46L2.92241 119.204L2.87114 119.05L2.92241 118.742V118.64L2.87114 118.383V118.23V118.178H2.97368L3.07622 118.127L3.17876 118.23L3.48639 118.127L3.53766 118.076L3.58893 117.973L3.53766 117.768V117.614V117.512V117.358L3.48639 117.153L3.43512 116.948L3.28131 116.794L3.23004 116.64L3.12749 116.435L2.81987 115.82L2.71733 115.615L2.66606 115.307V115.205V114.794L2.56352 114.641L2.66606 114.589L2.56352 114.333L2.46098 114.23L2.40971 113.872L2.46098 113.666L2.61479 113.41V113.359V113.205V113V112.846L2.56352 112.692L2.51225 112.539L2.40971 112.333L2.2559 112.077L1.897 111.718V111.667L1.94828 111.564V111.359L1.897 111.205H1.84573L1.74319 111.052L1.64065 110.795L1.58938 110.693V110.59L1.53811 110.488L1.48684 110.129L1.53811 110.026L1.58938 109.821V109.616L1.64065 109.462L1.58938 109.257V109.052V108.898L1.64065 108.642V108.488L1.53811 108.437L1.43557 108.129L1.3843 107.924L1.33303 107.822L1.17922 107.617L1.07668 107.514L1.02541 107.463L0.974138 107.36L0.871597 107.309L0.769056 107.258L0.615245 107.206L0.512704 107.155V107.104V107.001H0.410163L0.358893 107.053L0.256352 106.95L0.205082 106.899L0.153811 106.95L0.102541 106.899L0.153811 106.745L0.102541 106.694L0 106.642V106.591L0.0512704 106.54L0 106.489L0.0512704 106.386H0.153811L0.102541 106.232L0.205082 106.027V105.925L0.256352 105.873H0.410163L0.512704 105.925ZM73.0603 297.215L73.3167 297.778L73.2654 298.137V298.753L74.2395 299.163L74.4446 298.753L74.8035 299.112L75.265 298.958L75.2137 298.548L74.3421 297.061L73.0603 297.215ZM209.081 172.679V172.73L209.235 172.833H209.593L209.747 172.679L210.004 172.73L210.362 172.525L210.311 172.371L210.414 172.269H210.568L210.516 171.653H210.055L209.901 171.756L209.44 171.602L209.235 171.807V172.269L209.081 172.525V172.679Z" fill="url(#paint0_linear_32_744)" fill-opacity="0.5"/>
<defs>
<linearGradient id="paint0_linear_32_744" x1="59.1787" y1="16.2277" x2="160.715" y2="332.016" gradientUnits="userSpaceOnUse">
<stop stop-color="#4A4A4A"/>
<stop offset="1" stop-color="#111111" stop-opacity="0"/>
</linearGradient>
</defs>
</svg>
