<svg width="466" height="337" viewBox="0 0 466 337" fill="none" xmlns="http://www.w3.org/2000/svg">
<path fill-rule="evenodd" clip-rule="evenodd" d="M15.27 222.888L16.8773 222.084L17.2792 221.281L18.8865 220.075L21.0297 220.343L21.6994 221.147L22.905 221.549L25.316 221.415V220.879L26.9234 220.343L27.0573 218.87L30.406 218.2L32.817 215.923L33.6207 214.851L36.2997 215.119L37.6391 214.181L37.907 213.244H37.3712L36.5676 213.78L34.9602 213.646V213.244L36.4336 212.44L35.362 211.369V210.833L33.7547 210.565L32.4152 211.502L31.6115 211.235L31.0757 210.297L29.2005 210.029L28.3968 209.091L27.4592 210.163L26.5215 208.556L26.3876 207.886H25.5839V207.484L26.9234 206.948L27.0573 205.475H27.861L28.3968 204.671L28.5307 202.126L29.8702 201.724L30.6739 199.849L32.817 199.715L33.6207 198.51L34.4244 198.376L35.2281 197.438L36.9694 197.572L37.5052 196.5L38.5768 196.233L39.2465 195.027L40.1841 194.759L40.7199 195.697L42.997 194.491L44.4704 193.018L45.1402 191.41L46.2118 190.473H47.0154L47.9531 190.071V189.267L47.5512 188.999L47.1494 187.794L46.2118 186.99L47.1494 186.186V184.847L47.9531 184.043L47.5512 182.704L47.9531 182.168L47.2833 180.293L46.3457 180.159L46.7475 177.614L46.2118 176.944V175.873L46.6136 173.729L47.1494 172.926L47.0154 172.39L48.087 170.917L49.5604 169.845L49.6944 168.372L50.4981 167.836L50.766 166.898L50.0962 166.228V164.487L49.2925 163.817L49.0246 162.21L47.8191 161.406V160.603L47.1494 159.933L47.2833 159.531L45.4081 159.129L44.8723 158.727L45.9439 156.316L45.676 155.914V155.379L45.1402 154.977L44.2026 154.575L42.7291 154.709L40.586 154.441L39.1126 154.173L38.041 153.503L39.1126 152.432L39.6483 151.494L39.5144 150.958L39.6483 150.021L39.3805 149.619V148.949L40.0502 148.413L40.452 147.878L40.7199 147.744L40.9878 146.672L40.8539 146.404L41.6576 146.538L41.9254 145.333L42.1933 144.931L42.7291 144.663L42.997 144.395V144.127L43.3989 143.189V142.654L42.8631 142.922L42.4612 142.788L42.0594 143.189H41.2557L41.6576 141.984L40.9878 141.448L39.7823 141.046L39.3805 141.716L38.7107 141.314L37.7731 141.18H37.2373L37.7731 139.975L39.2465 139.573L39.6483 137.832L39.2465 136.224L41.6576 135.554L41.2557 133.947L42.5952 132.206L42.8631 131.268L42.0594 131.134L41.3897 131.804L40.8539 131.268L40.9878 129.661L41.3897 129.527L41.2557 128.723V128.053L40.8539 126.848L41.6576 126.58V124.169L42.1933 124.035L43.131 127.92L43.3989 128.053L44.4704 129.661L45.1402 130.464L45.4081 130.866L45.9439 131.402H46.7475L48.221 131.536L49.2925 130.464L49.9623 129.125L51.0339 128.991L51.1678 127.116L52.3733 125.375V125.107L51.7036 123.231L50.4981 123.901L49.0246 123.499L47.6852 123.231L46.7475 123.097L45.9439 122.83L44.8723 122.16L44.2026 123.231L43.9347 123.365L43.5328 123.231L43.3989 122.026L43.9347 121.758L44.3365 120.552L44.6044 119.883L43.2649 116.668L43.131 115.195L41.9254 113.051L42.3273 112.248L43.3989 111.846L43.8007 112.248L44.0686 113.989L45.0062 113.185L46.4797 114.525L46.2118 115.73L46.8815 116.668L47.4173 116.936L47.5512 116.534L48.4889 116.4L48.221 117.472L50.8999 118.543L53.9807 119.615L55.0523 117.873L56.5257 117.472L57.9991 117.07V115.596V113.453L58.6688 112.114L60.4102 110.506L59.7404 108.765L60.2762 107.693L60.9459 107.827L61.7496 108.229L68.9828 107.693L69.9204 108.095L69.7864 108.899L68.5809 109.301L68.0451 109.971L68.313 111.31L69.1167 112.516L67.7772 116.132L67.2415 113.587L66.5717 113.185L66.3038 111.712H65.768L65.2322 112.516L65.902 113.319L65.768 113.855L66.3038 113.989L66.7057 114.793H66.1699L65.902 115.328L65.6341 115.061L65.3662 115.328L64.9644 115.864V116.802L66.4378 117.338L66.8396 117.873L67.6433 118.007L68.447 116.936L70.858 117.472L73.6709 116.534L73.2691 118.275L68.7149 120.151L68.1791 120.954L67.3754 121.222L65.902 118.945L63.223 118.543L64.2946 117.204L64.4286 116.4L63.8928 115.998L62.9551 116.802L62.8212 115.73L62.1515 115.596L61.8836 117.07L63.223 119.213L64.1607 119.481L64.5625 120.151L64.2946 120.686L62.6873 120.82L62.1515 121.356L61.8836 122.696H61.3478L61.0799 124.303L61.6157 124.571L62.6873 126.58L63.0891 125.776L64.4286 126.178L65.3662 125.91L75.1443 128.187L76.7517 127.92L77.9572 127.25L79.5646 126.714L80.2343 126.982L81.9756 126.58L83.4491 128.455L84.7885 128.321L86.128 127.786L87.1996 126.178L89.8785 124.571L92.8254 124.035L95.6382 126.044L95.7722 126.848L95.1025 129.527L95.9061 129.661L96.174 130.598L96.0401 131.804L95.1025 132.876L95.6382 133.143L95.5043 133.813L96.4419 132.876L97.5135 133.277L97.6475 134.215L98.0493 134.751L99.6567 135.153L99.2548 136.492L100.192 137.162V137.564L99.3888 138.635L98.4511 138.233V138.903L99.2548 139.171L99.5227 140.377L99.3888 142.118L98.853 142.922L96.174 144.261L95.1025 143.993L94.1648 142.922L94.4327 141.582L93.0932 140.912L92.6914 142.386L92.2896 142.252L91.8877 142.52L90.8162 143.189V143.725L90.9501 144.261L89.7446 145.065V145.601L90.0125 146.002L90.2804 148.413L91.7538 150.557L93.4951 150.289L94.1648 150.958L94.4327 151.762L94.1648 152.834L94.5667 152.968L94.2988 153.637L94.9685 154.307L94.0309 154.575L93.8969 155.245L93.2272 155.647L92.1556 155.781L91.8877 157.388L90.5483 160.469L92.4235 160.603L93.0932 162.21L93.763 161.808L94.2988 162.612L95.5043 162.21L95.3703 164.219L92.5575 165.023V166.496L92.0217 167.97L91.4859 167.836L91.6198 168.773L90.2804 168.907L90.1464 169.711L88.2712 170.381L88.1372 169.175L87.4675 169.041L87.6014 167.568L87.0656 167.434L86.6638 166.63L85.1904 167.568L84.7885 168.639H82.9133L82.1096 169.041L81.7077 168.639H81.4398V167.568L81.172 167.3L79.9664 167.166L78.7609 166.094L77.1535 168.639L75.8141 169.711L75.4122 173.194L76.4838 173.595L77.9572 174.935L79.6985 175.739L81.7077 177.748L81.5738 178.15H80.9041L80.6362 178.685L81.038 179.221L82.1096 179.355V180.159L83.583 179.891L84.3867 180.159H85.7262L86.128 180.829L86.9317 181.097L87.4675 182.57L88.2712 180.695L87.6014 179.087H89.2088L89.4767 178.685L89.0748 177.614L89.8785 176.81L89.7446 176.542L88.673 176.274L88.1372 175.739L88.4051 174.131L90.0125 174.399L90.9501 175.069L91.4859 175.471L91.6198 176.944L92.4235 177.078L93.3611 175.873L93.763 176.14L95.2364 175.337L95.6382 175.471L96.4419 174.801L96.9777 174.667L97.7814 175.337L100.058 174.131L100.594 174.265L101.532 173.194L102.871 172.658L103.139 171.988V171.318V170.113L102.068 168.773V167.166L104.345 166.63L105.684 165.693L106.756 164.219L108.765 163.817L109.971 163.014L111.31 163.148L111.042 161.674L111.444 161.004L111.042 158.459L110.64 158.192V157.254L112.382 154.441L111.846 152.03L113.185 151.36L113.319 150.289L114.257 149.351L115.195 150.557L114.525 152.03L114.927 152.566L115.195 155.111L115.596 156.048L117.338 155.379L119.213 156.048L119.615 154.843L121.624 153.905L122.963 154.173L125.508 155.647L126.178 156.584L126.714 156.182L126.446 155.513L126.714 155.379L128.321 156.048L129.125 155.111L129.661 156.048L131 156.718L131.402 158.593L131.938 159.129H132.474L135.019 158.058L134.215 156.986L134.617 156.182L135.956 155.245L135.421 154.173L136.76 154.575L136.894 153.369H138.233L138.501 152.7L139.707 153.102L141.314 152.03L141.046 152.7L141.448 154.173L140.644 155.111L139.975 157.388L141.448 158.593L142.52 159.263L142.922 158.727L144.261 158.593L145.065 158.995L146.136 161.272L146.672 161.674L149.619 160.603L150.824 160.737L152.03 161.004L152.834 157.656L153.771 157.79L154.307 156.852L153.236 156.048L152.834 155.111L150.423 152.566L149.753 150.423L148.815 148.949L148.681 147.61L149.485 146.806L149.217 145.601L148.547 144.395L149.217 143.859L149.351 143.189L148.815 142.788L148.681 142.252H149.083L149.351 141.314L149.217 140.243L148.547 139.841L147.476 137.698L148.681 136.76L150.155 136.626L150.824 137.966H151.36L152.03 136.76L152.7 137.028L152.968 137.832L152.7 140.243L153.637 141.314L155.111 141.85L155.914 141.582L156.182 141.046L157.388 140.778L157.656 139.841L158.593 139.439L158.995 137.832L159.933 137.564L160.737 135.421L160.335 133.947L160.469 131.268L158.727 127.25L156.852 126.848L155.781 126.044L155.379 124.303L154.709 124.035L152.432 125.107L151.226 124.705L149.217 124.973V123.767L146.806 120.82V120.418L148.413 119.615L151.762 119.749L153.369 119.079V118.409L153.503 117.873L153.102 117.338L152.7 116.936V116.266L153.236 115.596L153.102 115.195L152.432 114.793L151.494 115.061L151.628 114.123L150.289 112.382V110.238L149.619 109.703L150.691 109.569L151.092 108.363L152.432 108.229L155.647 107.024L156.45 105.818L157.656 105.684L161.406 106.89L162.076 106.354L163.415 106.22L164.755 104.613V105.015L165.693 105.148L165.96 104.479V103.809L166.228 103.675L167.702 103.541L169.041 103.809L171.184 103.273L171.854 103.809L173.328 105.416L176.274 104.345L177.748 103.139L178.418 103.675L177.882 102.47L178.016 99.2548L179.489 98.9869L178.819 97.1117L178.016 96.7098L177.212 95.7722L176.542 95.6382L175.873 94.4327L176.944 93.3611L177.212 92.4235L176.542 90.8162H176.007L175.873 91.3519L175.203 91.218L176.14 88.673L175.605 87.6014L176.408 86.128L176.14 85.4583L175.471 85.5922L173.462 84.6546L172.256 85.4583L171.05 86.9317L168.907 88.4051L168.639 91.3519H168.505V90.6822L167.836 90.9501L168.104 92.0217L165.425 91.8877L163.415 90.6822L161.272 90.4143L160.335 91.4859L159.397 91.218L158.593 92.6914L155.111 92.8254L154.709 94.0309L153.771 94.1648L153.503 93.8969V92.8254L151.628 91.3519L148.949 90.9501L145.065 92.0217L144.529 91.3519L144.931 90.5483L143.457 89.8785L142.118 90.2804L141.582 89.8785L140.377 90.0125L138.367 88.2712L137.966 88.0033L137.43 88.2712L135.956 87.3335V86.2619L135.554 85.4583L135.153 84.6546L134.349 84.3867L133.679 83.583V82.1096L131.804 79.1627L131.938 77.9572L131.268 76.2159L131.536 73.1351L130.732 72.1975L131.268 70.858L129.527 69.5186L129.795 68.1791L132.34 67.2415L131.938 65.2322L132.34 63.4909L134.349 60.9459L135.688 58.9367L137.43 59.2046L137.698 58.9367L137.966 57.5973L138.501 56.9275L139.975 56.6596L142.52 57.4633L143.725 56.6596L144.395 56.1238V55.856L144.127 55.722L143.859 55.5881V55.3202L143.993 55.0523H144.127H144.663L145.333 55.1862L145.868 55.0523L146.27 54.6504L146.538 54.2486L147.074 53.5788V53.177L146.94 52.9091V52.3733L147.208 51.8375L148.146 51.0339L148.949 50.0962L151.092 48.7568L152.164 46.2118L154.039 45.2741L156.584 43.6668L157.522 42.0594L159.129 40.7199L162.21 40.1841L163.148 38.1749L164.353 37.7731H166.094H166.764L168.104 37.907L169.979 36.2997L171.452 35.496L172.926 34.4244L173.997 33.2189L174.399 31.6115L175.203 30.8078L176.274 30.406L176.81 29.8702H177.212L178.016 30.406L178.953 30.0042H179.757L180.829 30.2721L181.097 29.7363L180.293 28.1289L180.695 27.5931H181.9L183.106 27.1913L184.981 27.3252L185.919 27.1913L186.856 25.8518L187.526 25.7178L188.464 25.1821L190.071 24.5123L190.875 23.1729L192.482 22.3692L193.018 21.6994L193.688 21.8334L194.893 22.1013L195.965 21.6994L196.902 19.5563L198.242 19.1544L198.778 18.8865H199.581L200.385 19.2884L201.189 18.8865L201.59 17.4131L201.189 16.2076L201.858 15.5379L202.126 15.4039L204.001 15.27L204.805 15.0021L204.939 14.0644V12.725L205.475 12.4571H206.011H206.546L207.082 12.591H207.484L208.154 12.3231L208.958 12.0552L209.225 11.7873L209.493 11.6534L209.627 11.3855L209.895 10.9837L210.029 10.7158L210.297 10.4479H210.431H210.833L211.369 10.5818L211.636 10.7158L212.574 11.1176L213.244 11.3855L213.914 11.7873L214.315 11.9213L214.717 11.7873L215.119 11.5195L215.387 11.2516L215.521 10.8497L215.387 10.18L215.253 9.64419V9.24235L215.119 8.84051V8.43867L215.253 8.03683L215.521 7.90288L216.057 7.76893L216.459 7.63499L216.726 7.36709L216.86 7.0992L216.726 6.96525L216.592 6.69736L216.057 6.42946L215.923 6.16157L215.789 5.89367V5.22394L215.923 4.95604L216.191 4.5542L216.592 4.28631H216.86L217.262 4.42025L217.932 4.68815L218.334 4.95604L218.736 5.08999H219.271H219.807L220.209 4.8221V4.42025L219.941 3.88447L219.539 3.61657L219.271 3.34868V2.94684L219.405 2.81289L219.673 2.545H220.075L220.611 2.67894L221.147 2.81289L222.084 2.2771H222.218L223.022 2.545L223.424 2.81289L223.692 3.08078L224.094 3.21473L224.495 3.34868L224.763 3.21473L224.897 2.81289V2.2771V2.00921V1.60737L225.031 1.33947L225.299 0.93763L225.701 0.669736L226.237 0.535788L226.772 0.401841H227.576H227.978L228.782 0.133947L229.184 0H229.719L230.121 0.267894L230.255 0.803683L230.389 1.33947L230.523 1.74131L230.791 1.87526L231.059 2.67894L231.327 2.94684L231.595 3.08078H231.862L232.398 2.94684L232.934 2.67894L233.336 2.545L233.47 2.67894L233.872 3.21473L234.006 3.61657L234.274 4.01841L234.541 4.42025V4.68815L234.809 4.8221H235.077H235.479L235.747 4.95604L236.149 5.08999L236.685 5.22394H237.086H237.488H237.89L238.292 5.49183L238.694 5.75973L238.828 6.02762L239.096 6.16157L239.23 6.29551H239.497H239.765L240.301 6.42946L240.435 6.56341L240.569 6.8313V6.96525L240.703 7.0992L240.971 7.23314H241.105L241.373 7.0992L241.507 6.96525H241.641H241.909L242.176 7.0992H242.31H242.578H242.712L242.98 6.96525L243.114 6.69736V6.56341V6.29551L243.248 6.16157V6.02762L243.382 5.89367L243.65 5.75973H243.784L244.186 5.89367H244.453L244.721 6.02762H244.855L245.123 5.89367L245.257 6.02762L245.525 5.89367H245.793L246.061 5.75973L246.195 5.35788L246.463 5.08999L246.597 4.8221L246.865 4.68815L247.4 4.5542H248.07L248.472 4.42025L248.874 4.28631L249.008 4.42025V4.68815L248.874 4.95604V5.35788L249.008 5.49183L249.142 5.62578H249.543L249.677 5.35788L249.811 5.08999L249.945 4.95604L250.213 4.8221L250.347 4.95604H250.615L250.749 5.22394L250.883 5.49183L251.017 6.29551L251.285 6.56341H251.553H251.955L253.16 6.29551H253.428L253.83 6.42946L253.964 6.56341L254.098 6.8313L254.232 7.0992V7.36709L254.5 7.76893L254.633 7.90288L254.901 8.57262L255.303 9.1084L255.839 9.77814L256.509 10.046L257.178 10.18H257.714L258.116 10.046L258.518 9.77814L258.786 9.64419L260.393 10.4479L261.063 10.5818L261.331 10.7158L261.197 11.1176L260.929 11.5195L260.259 12.4571L260.527 12.591H260.795L261.063 12.4571L261.465 12.1892L262.135 11.6534L262.804 11.5195L263.608 11.6534L263.876 11.9213L263.742 12.0552L263.072 13.6626L263.608 14.4663L263.876 15.27V16.0737L263.072 16.4755V16.6094L263.206 16.8773V17.4131L263.474 17.9489L263.742 18.4847L263.876 18.6186L263.608 18.8865V19.1544L263.876 19.2884H264.144L264.412 19.4223L264.68 19.2884H264.813L264.947 19.8242L265.215 20.226L265.349 20.8958L265.483 21.0297L266.153 21.8334L266.689 22.2352L266.957 22.6371L267.091 23.1729L266.153 24.3784L266.689 25.0481L267.76 25.316L267.894 24.9142H268.43L270.171 25.1821L270.305 25.7178L269.636 26.7894L269.502 27.0573L269.1 27.3252L268.698 27.1913L268.43 27.3252L268.296 27.5931V27.861V28.9326V29.4684L267.76 29.7363V30.1381L268.028 30.2721L268.564 30.406L268.832 30.6739L269.1 30.5399L270.037 31.2097L270.171 31.4776L270.305 31.6115L270.439 31.8794L270.171 32.1473H269.903V32.4152L270.171 32.6831L270.037 32.951L269.368 33.4868L268.832 33.7547L268.43 34.4244L268.028 34.9602V35.362H267.894L267.76 35.2281L267.626 34.9602L266.823 35.0941L266.287 34.9602L266.019 35.7639L265.751 36.1657L266.019 36.7015L266.689 36.9694L266.823 37.2373L266.421 37.7731L265.885 37.907L265.215 38.041L264.546 37.1034L263.876 36.8355L263.072 37.1034L262.67 37.6391L262.804 38.041L264.144 38.3089L264.546 39.1126L264.412 39.5144L264.144 39.7823L264.01 40.0502L263.876 40.1841L263.474 40.0502L263.072 39.9162L262.804 39.7823L262.268 40.3181V40.452L262.402 40.8539L262.67 40.9878L263.072 41.2557L263.34 41.5236V41.6576L263.206 41.7915V42.1933L262.804 42.7291L262.67 42.8631H261.867L261.465 42.7291H261.063L260.929 42.8631V43.131L260.795 43.3989H260.393L260.527 43.5328L261.063 44.0686L261.867 44.7383V45.0062V45.2741L262.135 45.4081L262.938 45.9439L263.474 46.0778L263.34 46.6136L263.072 47.1494L262.67 47.4173L262.135 47.9531L261.867 48.087L261.599 48.7568L260.393 49.2925L259.857 49.9623L259.991 50.3641L260.795 51.5696L260.393 52.1054L259.991 52.2394L259.723 52.6412L259.59 52.9091L259.723 53.4449L259.59 54.1146L259.456 54.2486L259.59 54.3825L259.723 54.6504V54.7844L259.59 54.6504L259.456 54.5165L259.188 54.3825L258.92 54.7844L257.982 55.4541V55.5881L257.848 55.856L257.446 56.1238L256.911 56.3917L256.777 56.6596L256.911 56.7936L257.178 57.3294L257.312 57.4633L257.045 58.1331L257.312 58.4009L257.178 58.8028L256.911 59.0707L256.643 58.8028L256.375 58.5349L255.973 58.8028L255.705 58.9367L255.571 59.2046L255.437 59.3386L255.303 59.4725L255.169 59.6065L255.035 60.1423V60.5441V61.2138V61.7496V62.0175V62.4194L254.767 62.2854V62.0175L254.633 61.7496L254.232 61.6157L253.696 61.3478H253.294L252.892 62.0175H252.758L252.624 62.2854L253.026 62.5533L253.294 62.2854L253.562 62.0175L253.964 62.2854L254.098 62.4194L253.964 62.9551L253.83 63.357L253.294 63.0891L252.758 62.9551L252.624 63.357L252.356 63.6249L251.687 64.8304L251.553 65.2322L251.419 65.5001H250.883V65.768L250.749 66.0359L250.213 65.6341L249.811 65.902V66.3038L249.945 66.7057V67.1075L250.481 67.7772L250.883 67.9112L251.285 68.313L251.687 68.447L252.356 68.5809V68.8488L252.088 68.9828L252.222 69.2507H252.49L252.758 69.6525V69.9204L253.294 70.3222L253.428 70.7241L253.16 71.1259L253.428 71.6617V72.0636V72.3314L253.294 72.7333L253.026 72.8672V73.1351L253.16 73.537L252.892 73.6709L252.49 73.8049L251.955 74.0728H251.419L250.883 74.2067H250.615L249.811 74.6085L249.677 74.8764H249.41L249.142 75.0104L248.606 74.4746H248.472V74.7425H248.204V74.4746H247.936V74.8764H247.4L247.132 75.0104L246.998 75.2783L246.731 75.4122H246.329L245.927 75.6801L245.659 76.082L245.257 76.3499L245.123 76.6178L244.855 77.1535H244.186L243.784 76.8857L243.114 76.7517L242.98 76.6178L243.248 76.082V75.948L242.578 75.6801L242.31 75.948V76.3499L242.176 76.6178L241.507 76.4838L241.373 76.7517L241.105 77.1535L240.971 77.2875L240.703 77.0196L240.167 76.8857H239.899L239.631 77.1535H239.23L238.962 77.0196H238.56V76.8857L238.292 76.6178L238.024 76.3499L237.89 76.6178L236.149 76.082V76.082L235.881 75.8141L235.345 76.3499L235.077 76.7517L234.675 76.8857L234.541 77.1535V77.4214L234.407 77.8233L234.006 77.6893L233.604 77.5554L233.47 77.1535V76.7517L233.068 76.8857L232.398 77.5554V77.9572L231.996 78.0912V78.3591V79.0288V79.4306L232.398 79.6985L232.532 79.9664H232.398H231.996L231.862 80.3683L231.996 80.6362L232.398 81.172L232.532 81.8417L232.666 81.9756L232.532 82.2435H232.264L232.13 81.9756H231.862V82.2435L231.327 82.3775L231.059 82.6454L230.925 82.7793L230.791 83.3151L230.657 83.717L230.389 83.9848L229.853 84.1188L229.317 84.2527L229.05 83.717L228.916 83.583V83.4491L228.648 83.3151H228.514L228.246 83.717L227.978 84.3867L227.71 84.5206V84.7885L227.978 85.1904L227.844 85.4583V86.128L227.71 86.5298L227.174 86.9317L226.906 87.0656L226.505 87.6014H226.103H225.969L225.701 88.673L225.969 88.8069L226.505 89.0748H227.174V89.3427L227.576 90.0125L227.978 90.5483L227.844 90.8162L226.906 91.3519L226.371 91.7538V92.1556L226.639 92.2896L227.174 92.5575L227.576 92.6914H228.514L228.38 93.3611V93.629L229.05 93.8969L229.585 94.5667L229.317 95.1025L228.916 95.6382L229.184 95.9061H229.317L229.585 96.0401L229.719 95.9061H229.853V96.174V96.5759L229.987 96.8438L230.523 96.9777L231.059 97.1117L231.595 97.3796L231.461 97.5135L230.925 97.7814V98.0493H230.657L230.523 98.3172H230.791V98.853L230.925 98.9869L231.729 99.1209H231.996V99.6567L232.398 100.058L232.934 100.192H233.47L233.604 100.058H234.006L234.14 100.192V100.46L233.872 100.594L233.604 100.996L233.068 100.862H232.532V101.264L233.202 102.068L233.604 102.47L233.738 102.871L232.934 103.005L231.327 102.603L230.255 103.943L227.71 105.148L227.576 106.086L228.246 108.765L227.71 110.372L221.682 115.195L220.879 116.4L219.137 117.204V119.213L220.611 119.481L220.879 119.749L221.147 120.552L221.415 120.954L221.549 121.088L222.218 122.16L222.754 123.499L222.888 124.035L222.084 125.107L223.692 127.518L224.495 129.661L223.96 130.866L224.629 132.742L224.361 136.09L223.96 136.492L223.156 136.894L222.62 137.43L222.352 137.698V137.966V138.367L222.62 138.635L222.888 138.769H223.156L223.424 138.903L223.558 139.171V139.439L223.29 140.109L223.424 140.377L223.692 140.511L224.361 140.644L224.763 140.778L224.897 141.046V141.18V141.448L224.629 141.716L224.361 142.118L229.451 146.136L229.585 146.672L227.71 148.949L227.576 149.485L228.648 150.958L229.585 151.36L230.657 152.7H231.327L231.996 152.566L232.13 151.896L233.47 151.36L233.336 150.423L233.738 149.619L235.211 148.815L235.613 147.208L236.283 146.136L236.819 145.868L237.086 145.734L239.631 147.61L240.971 147.878L242.31 150.155L243.382 150.557L243.114 151.36L243.382 151.896L244.052 151.762L245.123 152.7L245.793 154.441L247.4 154.977L248.472 154.709L249.142 153.905L249.543 154.575L249.945 154.709L250.749 153.637L251.017 154.039L250.749 154.977L251.955 157.79L252.892 158.058L253.562 156.45L254.098 156.852L254.901 156.182H255.303H256.107L257.045 155.647V153.905L258.786 152.566L258.518 151.092L261.599 148.012L262.001 145.467L262.67 143.993L262.402 142.52L260.393 142.788L259.723 141.85L258.518 141.448L258.116 140.243L258.786 139.439L259.456 139.573L259.322 140.243L259.723 140.377H260.661L261.599 139.707L260.393 138.903L260.259 137.564L260.393 136.224L258.786 134.751L258.384 133.411L256.643 131L256.107 131.268L255.571 132.474L255.169 131.938L254.767 132.206L254.366 133.277H252.892L252.49 133.813L251.553 134.081L250.079 133.411L249.677 130.197L251.285 127.652L250.883 122.294L251.687 121.624V121.088L250.883 118.409L245.793 115.998L244.989 113.587L244.32 113.855L244.453 113.051L243.382 112.382L244.587 108.229L244.453 106.756L243.65 105.55L243.248 104.881L242.042 104.613L241.909 101.13L240.033 96.7098V95.9061L240.301 95.6382L240.569 95.1025L239.899 94.5667H239.631L239.096 94.2988L238.694 94.4327L238.292 94.2988L238.024 93.3611L237.086 93.763L236.952 93.629L236.685 93.0932L236.283 93.2272L235.613 93.629L233.872 94.4327L233.738 94.5667L233.47 94.4327L233.068 93.8969L232.934 93.2272L233.202 92.8254L233.336 92.4235L233.604 92.2896H234.006L234.274 92.4235L234.541 92.8254L235.077 93.0932L235.211 92.5575L236.149 91.3519L236.283 91.218H236.551V92.2896L236.819 92.4235L236.952 92.5575L237.488 92.4235H238.024L238.158 92.2896L238.292 91.7538L239.096 91.3519V91.218L238.694 90.9501L238.56 90.6822L238.292 90.0125L238.56 89.8785L238.694 89.6106H238.292L238.024 89.2088L238.158 89.0748L238.292 88.8069L239.23 89.0748L239.497 89.7446L239.899 90.0125L240.435 89.8785L240.971 89.6106V89.3427L241.105 89.2088V88.673V88.0033L240.569 87.7354V87.6014L240.167 87.7354L239.899 88.0033L239.631 87.7354L239.899 87.4675L240.033 87.0656L240.435 86.9317L240.703 87.1996L241.239 87.3335L241.373 87.1996L241.641 86.9317V86.6638L241.775 86.3959V85.994L242.042 85.8601L242.31 85.5922L242.98 85.7262V86.128L243.114 86.3959L243.248 86.5298H243.65L244.186 85.7262L243.918 84.6546L244.052 84.5206L244.32 84.3867H244.587L244.989 84.1188L245.525 84.2527L246.195 84.6546L246.463 83.9848H246.731L246.998 84.1188L247.132 84.5206L247.668 85.0564L247.534 85.3243L245.793 86.6638L245.123 85.7262L244.989 86.128L244.855 86.2619L245.123 86.5298L244.989 86.6638L245.257 86.9317L244.855 87.4675L245.123 87.6014L245.525 87.7354H245.927L246.195 87.8693L246.731 88.1372L246.865 88.0033V87.8693L246.998 87.6014L247.132 87.7354V87.8693L247.4 88.1372L247.668 88.2712L247.802 88.1372L247.936 88.2712L247.802 88.539L247.534 88.8069V89.2088L247.668 89.4767L247.802 89.6106L247.936 89.7446L248.472 89.8785H248.606L248.74 89.7446L249.142 89.6106L249.276 89.7446L249.41 89.8785L249.945 89.7446L250.079 89.4767H250.481H250.749H251.017L251.151 89.2088L251.017 89.0748L250.883 88.673H250.749V88.4051L250.883 88.1372L251.017 88.0033L250.883 87.8693L250.481 87.7354H250.213V87.6014L250.347 87.4675L250.481 87.3335L250.615 87.0656L250.749 86.6638V86.5298H250.615L250.347 86.7977L249.945 86.9317L249.677 87.0656L249.543 86.9317V86.3959H249.677V85.994L250.079 85.7262H250.749L251.017 85.4583H251.419L251.553 85.7262L251.821 85.4583L252.222 85.5922H252.356V85.3243H252.892L253.026 85.4583H253.562V85.3243L253.026 84.9225L252.892 84.6546L252.758 84.5206H252.088L251.419 84.6546V84.9225H251.151L251.017 85.1904L250.749 85.3243L250.615 85.1904L250.347 84.9225L250.213 84.6546V84.2527L249.945 83.9848L249.811 83.717H249.142V83.4491L249.008 83.1812H248.74V81.9756L248.874 81.4398L249.008 81.172L249.41 80.7701H249.543L249.677 81.5738L250.079 81.8417L250.347 82.2435L250.481 82.3775L250.749 82.5114L250.883 82.3775L251.151 81.9756H251.687L251.955 81.7077L252.356 81.8417L252.892 82.3775L253.428 82.5114L253.294 82.7793L253.026 83.0472L252.892 83.3151L252.758 83.4491H252.892L253.294 83.3151V83.0472L253.696 82.6454L254.098 83.0472H254.633L254.366 83.4491L254.633 83.583L255.035 83.717L255.169 83.8509L255.035 83.9848L254.767 84.1188V84.1188H254.633H253.83L253.562 84.2527V84.5206L253.696 84.6546V84.7885L253.964 85.0564L254.232 84.9225H254.5L254.633 85.0564L255.035 84.9225V84.7885L255.169 84.3867L255.571 83.9848H255.705L255.839 83.717L255.973 83.3151V82.9133L255.839 82.6454L255.705 82.5114L255.571 81.8417L255.437 81.4398L255.169 81.172L254.633 81.3059V80.7701H254.232L254.366 80.3683L254.633 79.9664H254.767H255.973H256.241L256.509 79.8325H256.911L257.178 79.2967L257.045 78.8949L256.375 78.493L256.509 78.0912L256.643 77.8233L256.911 77.5554H257.58L257.848 77.6893H258.25L258.384 77.4214V77.6893H258.652L258.786 77.9572L258.652 78.0912L258.92 78.627H259.054L259.322 78.0912L259.59 77.5554L259.723 77.4214L260.125 77.5554L260.393 77.8233L260.661 77.9572L260.393 78.493H260.527L260.661 78.7609L260.259 79.1627L259.991 79.5646L259.723 79.6985L259.456 79.4306L259.322 79.2967L259.188 79.5646L258.786 79.9664L259.322 80.3683L259.723 80.5022L259.59 80.7701L259.723 81.038L260.125 81.3059L259.991 81.4398L259.322 81.3059L259.188 81.4398L259.59 81.5738L260.125 81.8417L259.857 83.0472L259.188 83.1812L259.054 83.583L258.786 83.9848L258.25 84.1188L258.92 84.7885L259.456 84.9225L259.59 85.1904L259.857 85.3243L260.259 84.9225L260.527 84.3867L261.331 84.5206L261.599 84.9225V85.3243H261.733L262.001 85.5922L261.733 85.994L261.599 86.5298L261.733 86.6638L261.867 87.0656L261.599 87.1996V87.3335L261.733 87.4675L262.402 87.7354L262.536 88.0033L262.67 88.2712L261.867 88.673L261.465 88.539H261.197L261.063 88.4051L260.795 88.8069L260.259 89.6106L260.125 89.7446L259.857 89.8785L259.59 89.6106H259.322L259.054 89.2088H258.786L258.25 89.0748L257.982 88.9409L257.848 88.539L257.714 88.2712V88.1372L257.848 88.0033L258.518 88.1372L258.652 87.8693H259.322L259.723 88.1372H259.857L260.125 87.7354L260.259 87.6014L260.661 87.3335L260.929 87.1996V86.9317L260.661 86.7977L260.125 86.6638L259.857 86.9317H259.723V86.7977H259.456L259.322 87.0656L258.786 86.9317L258.518 87.6014H256.777V87.8693H256.241L256.107 88.2712L255.839 88.539L254.767 89.6106L254.633 90.0125L255.169 90.5483L254.767 90.6822L254.5 90.8162L254.366 91.218L253.696 91.6198L253.562 91.8877L253.294 92.1556L253.026 92.0217L252.49 91.7538L252.356 91.8877L251.955 92.5575L252.088 92.8254L252.356 93.0932L252.49 93.2272L253.026 92.6914L253.294 92.2896L253.696 92.1556H253.83L253.964 92.4235V92.4235H253.696L253.562 92.5575V92.6914L253.428 92.9593V93.4951L253.16 93.8969V94.4327L253.428 94.5667L253.83 95.2364H254.098L254.366 95.3703V95.7722L254.901 96.8438L255.303 96.7098L255.437 96.174L255.571 95.9061V94.9685H255.839L256.107 94.4327V93.763H256.509L256.777 93.4951L256.375 92.5575L256.509 92.0217H255.973L255.839 91.7538L255.973 91.6198L256.241 91.084H256.777V90.6822L256.911 90.1464V90.0125H257.178L257.58 90.2804H257.848L258.25 90.5483L258.384 90.6822L258.786 90.5483V90.4143L259.054 90.0125L259.456 90.2804L259.723 90.5483L259.59 90.8162L259.322 90.9501V91.218L259.857 90.9501L260.393 90.5483L260.527 90.1464L260.661 90.2804L260.795 90.0125L261.063 89.8785L261.197 90.0125L261.063 90.8162L260.929 91.6198L261.197 92.1556L261.063 92.5575L261.733 93.0932L262.001 93.4951L262.268 93.8969L262.001 94.0309L261.599 93.8969L260.929 93.629L260.527 94.1648L260.795 94.4327V94.9685L260.259 94.8346V94.9685H259.991L259.59 94.8346L259.456 94.2988L259.054 94.1648H258.92L258.518 94.4327L258.384 95.2364L258.116 95.3703V95.7722L257.848 95.9061L257.714 96.0401L257.312 95.6382V95.5043L257.178 95.2364H256.911L256.777 95.3703V95.7722L256.375 96.0401L256.241 96.5759V96.7098L256.375 96.8438L256.777 97.1117L257.446 97.6475L257.178 98.0493L257.045 98.5851L256.509 99.1209V99.9246L256.643 100.058L256.777 100.192L256.911 100.728V100.996L257.446 100.728L257.714 100.46L258.116 100.192V99.9246L258.384 99.7906L258.518 99.5227L259.054 98.719L259.188 98.4511L259.59 98.0493L259.723 97.7814H259.991H260.259H260.661L260.795 97.6475V97.3796H260.929L261.063 97.5135L261.197 97.7814V97.9153H261.331V97.7814L261.465 97.5135H261.733L262.001 97.7814L262.268 97.9153V98.1832L262.402 98.3172L262.938 98.719H263.206L263.608 98.853V97.7814L263.34 97.3796V96.5759H262.938L262.402 96.4419L262.536 96.174H262.268L262.135 96.308H262.001V95.9061L262.135 95.3703L262.402 95.1025L262.67 94.7006L263.072 94.5667L262.938 94.4327V94.2988H264.01L264.546 94.4327L264.412 94.8346L264.68 94.9685L264.546 95.2364L264.278 95.6382L264.412 95.9061L264.546 96.174L264.947 96.0401H265.349V96.174L265.215 96.5759L266.421 97.1117L266.689 97.2456V97.9153L266.555 98.0493L266.689 98.4511V98.853L266.555 99.1209L266.421 99.2548H266.153L266.019 99.1209V98.853V98.5851L266.153 98.3172V98.1832H266.019L265.617 98.5851V98.719L265.349 98.853L265.215 99.1209L264.947 99.3888V99.6567L265.081 99.7906L265.215 100.192H265.349V100.46L265.081 100.728L265.215 100.862L265.081 100.996V101.398L264.947 101.934V102.068L265.349 102.336L266.019 102.47L266.287 102.202L266.689 101.666L266.957 101.532L267.091 101.13V100.326L267.358 100.058L267.492 99.7906L267.76 99.6567L268.028 99.5227V99.3888L268.162 99.1209L268.43 99.6567V100.058L268.832 100.192L269.368 100.594L269.769 100.862H270.037V101.13L269.903 101.532L269.636 101.8V102.202L270.037 102.603L270.439 102.871L270.171 103.273L270.037 103.541V103.809L270.305 103.943H270.841L270.975 103.675L271.377 103.809H271.779V104.077H272.716L272.85 103.541L273.252 103.675V103.407L273.386 103.005H273.252L272.716 102.871V102.603L272.85 102.202L273.118 102.068L273.52 101.934H273.654L273.922 102.068L274.324 102.202L274.19 102.336L274.324 103.139L274.458 103.273H274.859L274.726 103.675L274.859 103.943H274.993L275.127 103.809L275.395 103.541L275.529 103.273H275.663L275.931 103.541L276.199 103.675H276.601L276.735 103.541L276.333 103.273V103.273L276.467 102.603L276.735 102.336L277.003 102.068L277.271 101.8V101.532H277.672V102.068L277.538 102.202L277.806 102.336L277.538 102.603V103.005H277.404V103.139L277.672 103.273L277.94 103.407H278.208L278.342 103.541H278.476L278.61 103.407L278.744 103.005V102.737H279.146H279.414L279.949 102.871V102.603L280.217 102.47V102.068V101.8L280.619 101.666L279.949 100.594V100.192L279.682 99.9246L279.548 99.7906L279.28 99.6567L278.878 99.3888L278.476 99.1209L278.342 98.5851V97.9153L278.61 96.9777L278.476 96.7098V96.4419L278.342 96.174L278.074 95.7722V95.6382L278.208 95.3703L278.074 95.1025L277.94 94.9685L277.672 94.8346L277.404 94.5667V94.1648L277.538 93.629V93.0932L277.672 92.2896L277.806 92.0217L278.074 91.6198L278.208 91.084L278.342 91.218L278.476 91.3519H278.61H278.744H279.146L279.28 91.084V90.9501V90.8162V90.6822L279.414 90.5483V90.5483H279.682L279.816 90.6822H279.949H280.083H280.351H280.619H280.753L281.021 90.8162L281.155 90.9501H281.423H281.557L281.825 90.8162H281.959L282.093 90.9501L281.959 91.218L281.825 91.3519L281.557 91.4859V91.6198L281.423 92.0217V92.1556L281.557 92.2896L281.691 92.4235V92.4235L281.557 92.6914L281.423 92.9593L281.289 93.0932V93.3611V93.4951H281.423L281.825 93.629H282.093H282.361V93.763V94.0309V94.1648V94.4327L282.227 94.5667V94.7006L282.494 94.8346L282.628 94.9685L283.03 95.1025V94.9685V94.8346L283.164 94.7006V94.5667V94.2988V94.1648V94.1648L282.896 93.763V93.629L283.03 93.2272V93.2272H283.432L283.566 93.3611L283.7 93.4951H283.834H283.968V93.629L283.834 93.763L283.968 93.8969H284.102L284.37 93.763H284.504L284.638 93.8969L284.906 94.0309L285.039 94.1648V94.7006V95.1025V95.1025V95.2364L285.307 95.3703H285.709H285.977H286.379H286.513L286.647 95.2364L286.781 95.1025L287.049 94.9685L287.317 94.8346L287.584 94.5667V94.5667L287.852 94.4327V94.4327V94.2988L287.718 94.0309L287.852 93.8969V93.763H287.986L288.12 93.8969L288.254 93.763L288.522 93.8969H288.79V94.0309V94.1648L288.924 94.2988L289.058 94.5667H289.192L289.326 94.7006H289.594V94.8346V94.8346L289.46 94.9685L289.192 94.8346H288.924H288.656V94.9685H288.522V94.9685L287.852 94.8346V94.9685V95.1025V95.3703L287.718 95.6382V95.7722H287.451V95.9061L286.915 96.174L286.513 97.1117L286.379 97.3796L286.513 97.5135V97.6475H286.647H287.049H287.183V98.0493H287.049L286.915 98.4511L286.647 98.719H286.245L285.575 98.5851H285.441L285.307 98.719H285.173V98.853V98.9869V98.9869L285.307 99.1209V99.3888V99.5227L285.173 99.6567L285.039 99.7906H284.906L284.772 99.9246L284.504 100.058L284.236 100.192H284.102V100.326L284.236 100.46L284.102 100.594V100.862L283.968 101.13V101.398L283.834 101.666L283.7 101.934L283.834 102.068H283.968H284.102V102.202V102.336L283.968 102.603V102.737V102.737H284.236H284.37V102.871V103.005L284.236 103.139V103.407V103.541L284.504 103.675L284.772 103.943L284.906 104.077V104.077H285.039L285.173 103.943L285.575 103.809V103.675L285.843 103.541V103.407H285.977H286.111L286.379 103.809H286.513V103.943L286.647 104.211V104.211L286.781 104.345H286.915L287.317 104.077L287.584 103.809V103.675L287.718 103.407L287.986 103.139L288.12 103.005H288.254L288.388 102.871H288.522H288.656V102.871V103.005L288.522 103.273L288.254 104.077V104.345V104.881L288.12 105.015V105.148V105.282H288.388H288.522L288.656 105.55H288.79L289.192 105.684H289.46L289.594 105.55L289.728 105.416H289.862L289.996 105.148L290.129 105.015V104.881L290.263 104.747V104.747L290.531 104.613L290.665 104.747H290.933L291.201 104.613L291.335 104.479V104.077L291.067 103.675L290.933 103.541V103.407V103.139V102.871H291.067L291.201 102.737L291.469 102.603H291.603V102.336L291.737 102.202V102.068H292.005L292.139 101.934V101.934L292.541 101.398V101.264L292.674 100.996L292.942 100.728L293.21 100.326H293.478H293.746H293.88L294.014 100.46V100.728V100.862L294.148 101.13V101.264V101.398L294.55 101.532L294.818 101.666L294.952 101.8L295.086 101.934V101.934H295.219L295.353 101.8V101.666V101.666L295.621 101.398V101.532V101.666L295.487 101.8L295.219 102.202V102.603V102.737L295.353 102.871H295.487H295.755V102.737L296.023 102.603L296.425 102.336V102.202V102.202H296.559L296.693 102.47H296.827L296.961 102.603L297.229 102.871H297.497V102.871L297.764 102.737H297.898H298.032V102.871L298.3 103.005L298.702 103.139H299.104H299.238V103.139L299.372 102.737V102.47H299.506H299.64H299.774L299.908 102.603H300.042L300.176 102.47L300.711 102.603L300.979 102.737H301.113H301.381H301.917L302.453 102.603L302.72 102.336L302.854 102.202H302.988H303.122L303.658 102.47L303.926 102.603L304.328 102.871L304.73 103.139L305.265 103.407L306.069 103.675L306.203 103.809L306.337 103.943H306.471H306.873H307.007H307.141L307.275 104.077V104.211L307.409 104.479L307.81 104.613L307.944 104.747H308.212L308.346 104.881L308.48 104.747H308.748L308.882 104.613H309.016H309.15L309.016 104.479L308.882 104.345H308.614V104.211V103.943H308.48L308.346 103.809V103.675V103.541L308.48 103.273L308.614 103.139V103.005V102.871L308.748 102.737L308.882 102.47L309.016 102.336L309.15 102.202L309.418 102.068H309.552L309.686 101.934H309.82H310.088V101.8H309.954L309.82 101.666H309.686L309.552 101.532H309.418V101.264V101.13L309.284 100.862L309.418 100.46L309.552 100.326V100.192L309.284 99.9246V99.7906V99.7906V99.3888V99.1209L309.016 98.9869H308.882V98.853L309.016 98.5851V98.4511L309.15 98.1832V98.0493L309.284 97.7814L309.418 97.6475V97.5135V97.3796H309.15L309.016 97.2456L308.748 97.1117H308.614V96.4419H308.748L308.882 96.5759H309.016L309.15 96.4419L309.418 96.308L309.686 96.0401L309.82 95.9061L309.954 95.7722V95.6382V95.6382H310.088L310.222 95.7722V95.7722L310.489 95.9061V95.9061L310.757 96.0401V96.0401L311.159 96.174V96.174H311.293L311.427 96.0401V95.7722L311.561 95.6382V95.6382L311.695 95.7722H311.963V95.9061L312.097 96.0401V96.5759V96.7098V96.8438H312.231V96.7098L312.365 96.5759V96.308V96.0401L312.499 95.7722L312.633 95.6382H312.767L313.034 95.7722L313.168 95.6382V95.5043L313.034 95.3703L313.168 94.9685L313.57 94.8346L313.704 94.5667H313.838L313.972 94.7006L314.106 94.8346H314.374H314.508L314.642 94.7006H314.776H314.91H315.044L315.312 94.8346H315.579L315.713 94.7006H315.847L315.981 94.5667L316.249 94.7006H316.383H316.651L316.785 94.5667V94.2988L316.651 94.1648L316.517 94.0309L316.383 93.763V93.629L316.517 93.3611L316.919 93.2272L317.321 92.9593L317.455 92.8254L317.589 92.6914L317.723 92.4235V92.2896V92.1556V92.0217L317.589 91.8877V91.7538L317.455 91.4859V91.3519L317.589 91.084H317.723L317.857 90.9501V90.6822L317.99 90.4143H318.124L318.258 90.2804H318.392V90.2804L318.66 90.4143H319.062H319.196L319.464 90.2804H319.732L320.134 90.4143H320.402L320.535 90.2804L320.669 90.1464L320.937 89.8785L321.071 89.7446L321.205 89.4767V89.3427L321.473 89.4767H321.607L321.741 89.6106H321.875H322.009L323.214 90.2804L323.75 89.4767L324.956 88.8069V88.1372L326.429 87.8693L326.697 85.8601L327.635 86.6638L328.706 86.2619L329.51 86.5298L330.046 85.1904L330.983 85.3243L331.921 85.994L332.189 86.3959L332.725 86.7977L332.993 87.1996L333.126 87.4675L333.26 88.1372L333.394 88.539V88.8069L333.126 89.0748L332.859 89.4767V89.8785L333.126 90.1464L333.528 90.6822L333.394 92.2896L333.126 92.6914L332.859 93.2272L332.993 93.4951L333.394 93.763L333.796 94.0309H334.6H335.002L335.27 94.2988L335.538 94.9685L335.671 95.5043L336.609 96.174L336.743 96.308L337.011 96.4419L337.145 96.308L337.279 96.0401L337.413 95.9061H337.681L337.815 96.0401L337.949 96.308L338.216 96.8438L338.35 97.6475V98.1832L338.752 98.719L339.154 99.5227L339.288 100.058L339.154 100.326L338.886 100.594L338.35 100.862L337.413 100.996L337.011 101.13L336.743 101.532L336.475 101.666L335.538 101.934L335.27 102.202V102.336L335.136 103.005H335.27L335.671 103.139L336.073 103.809L335.805 104.345L335.136 105.015L334.868 105.818V106.354L334.332 107.024L333.394 107.426L332.457 107.292L331.385 106.622L331.251 107.693L330.582 108.497L333.126 110.105H333.796L334.332 109.033L335.002 109.301L335.538 108.765H335.939L336.207 109.837L336.743 109.703L337.145 109.435L336.207 108.363L336.609 107.827L335.805 107.56L335.939 106.89L336.609 107.024L337.413 106.086L337.949 106.756L338.216 105.818L339.02 106.086L339.824 105.55L340.092 106.488L340.628 105.952L340.895 106.22L341.431 107.693H342.637L342.771 108.497H342.369L341.699 108.363L341.029 108.229L340.36 107.961L339.69 108.363L339.288 108.899L339.556 109.033H339.958L340.226 109.167V109.569L340.494 109.837L340.895 109.971L341.163 110.238V110.506L340.895 110.908V111.31L341.029 111.444H341.297L341.431 111.31L341.565 111.042L341.699 110.908L341.833 110.774H342.101L342.369 110.64L342.503 110.105V109.971L342.637 109.703L343.173 109.837L343.306 109.971L343.574 109.837L343.708 109.569H343.842L343.976 109.703L344.11 109.971H344.646L345.182 109.837H345.316L345.048 109.569L344.914 109.301V109.033L345.048 108.765L345.182 108.497V108.229L344.914 108.095L344.646 107.961L344.244 107.693L343.976 107.56L343.574 107.426H343.039H342.771L342.637 107.158L343.039 106.354L342.503 105.684L343.039 105.015L341.699 104.345V103.943L342.503 103.675L343.173 103.943L343.44 104.345L343.976 105.55L345.316 106.354L346.119 105.952L346.253 104.881L346.655 105.282H347.593L348.664 106.086L347.593 103.943L348.396 103.139L347.861 102.603L347.995 101.264L348.664 101.532L348.798 102.47L349.602 102.202L349.87 102.47L350.004 103.139L349.334 103.273L349.066 104.077L348.396 104.211L349.334 105.015L350.138 104.613L350.941 105.148L351.343 105.952L351.879 105.282L352.549 105.55L352.147 106.354V107.158L354.424 106.354L355.094 106.086L355.362 106.622L357.103 106.756H357.639L357.907 106.22L357.639 105.416L356.299 105.015L356.031 104.479L354.692 104.345V103.407L354.96 103.139L354.558 102.737H353.62V102.336L354.826 101.532L355.63 102.47L357.505 101.666L357.907 102.336L358.844 101.666L359.38 102.068V102.603H359.916L360.318 103.809L360.854 102.871L360.586 102.068L361.121 100.326L360.854 98.9869L362.327 99.2548L362.997 98.853L363.532 99.9246L364.47 100.862L363.532 102.068L362.863 101.8L362.327 103.005L362.729 104.345L362.595 106.086L362.997 105.952L363.131 106.086V106.22L362.997 106.354L363.131 106.488L362.595 106.89L362.327 107.158L361.925 107.56L361.657 107.693H361.389L361.255 108.229L361.121 108.363L360.72 108.497L361.523 110.105V110.372L360.854 111.176H360.184L359.916 111.846L358.71 112.248L359.112 112.783L360.05 113.185L360.987 112.917L361.121 113.989L361.389 114.391L361.657 114.257L362.059 114.391L362.997 114.257L363.131 113.989L363.666 113.721L364.068 113.855H364.202L364.604 114.123L364.47 113.855L364.068 113.721L363.8 113.185L364.068 112.783L366.211 111.98L366.613 112.114L367.283 115.061L367.417 114.927L367.551 114.525L367.685 114.391L368.087 114.123H368.221H368.355L368.622 114.257L368.756 114.391L368.622 114.525L368.756 114.793L368.89 114.659L369.158 114.525L369.426 114.257V114.123L369.694 113.989H369.962L370.096 114.257L370.23 114.525L370.364 114.391L370.766 114.525V114.257L370.9 114.123L370.632 113.989L370.23 113.319L370.364 113.051L370.766 113.587L370.9 113.319H371.034L371.435 113.051H373.579L374.248 114.659L375.722 115.998L376.659 116.534L376.927 115.195H377.597L378.669 112.917L378.936 113.185L379.07 113.319L379.472 113.453L379.874 113.721L380.142 114.123L380.276 114.257L380.544 114.391H380.276H380.008V114.659H379.874V114.793H380.008L380.276 114.659L380.544 114.927L380.812 114.793L381.214 114.659V114.123H381.08V114.257H380.946V113.855L380.812 113.051L380.544 112.516L380.678 112.114H380.812L381.08 111.846L381.214 111.712V111.578L381.08 111.31L380.812 111.042L380.544 110.774V110.774L380.812 110.64V110.238L381.214 110.372L381.347 110.238L381.481 109.837L381.749 109.301L383.357 106.354L382.955 105.684L383.223 105.148L382.553 104.077L383.223 103.407L383.357 101.8L384.16 101.264L383.759 100.46H385.634L385.902 102.871L386.303 103.541L386.705 103.407L386.036 101.532L386.17 100.728L386.973 100.192L387.375 100.594L388.045 100.46L388.848 102.202L390.054 102.47L390.322 103.139L391.126 103.005L390.724 102.47H392.331L392.733 103.809L390.724 103.943L393.805 104.881V105.282L394.608 105.684H395.144L395.412 105.55L395.546 105.416V105.148L395.814 104.345L395.278 104.077L395.144 103.407L394.742 102.603L395.546 102.47L395.814 101.398L397.421 101.934L397.019 101.398L397.689 100.728L396.483 99.9246V99.3888L397.823 99.2548L398.627 99.3888L399.564 98.853L400.636 99.3888L400.368 100.46L401.707 100.594L401.841 100.192L402.377 100.996L402.109 101.8L401.841 101.666L400.904 102.336V103.139L401.44 103.407V104.479L402.243 103.139L402.645 103.273L402.511 103.809L403.047 104.211L401.038 105.684L401.841 106.488L401.573 106.756L402.511 107.024L404.52 105.684L404.654 106.488H405.324L405.726 107.024V107.693L406.931 108.095L407.333 107.961L407.601 107.158L408.405 107.426L409.476 108.229L409.744 108.765L410.95 109.167L411.352 109.703L413.495 109.167L414.432 109.837L416.308 110.372L416.576 110.774L416.977 110.372L416.843 109.569L417.245 109.837L416.977 111.042L417.379 111.31L417.513 113.721L417.915 114.391L417.111 116.534L418.719 117.74V118.409L419.121 118.945L420.46 120.151L420.862 119.481L422.871 119.079L423.809 119.347L424.612 120.151L426.889 120.686L427.961 121.356L428.497 122.428L429.301 122.294L429.568 121.758L431.042 122.428L431.712 121.892L431.176 121.758L432.917 120.552L432.113 121.758L432.515 122.16H433.721L433.453 122.83L433.721 123.097H432.649L432.917 124.169L432.783 124.705L431.712 125.508H433.319L433.989 126.178L433.855 125.241L433.185 124.839L433.721 124.303L434.391 124.839L434.257 123.901L435.194 124.705L435.462 123.365L435.864 124.571L435.462 125.642V127.786L434.658 128.321L434.792 129.661L435.06 129.795V129.259H435.73L435.998 129.795L436.802 129.125L436.266 128.857L436.534 128.589L437.337 128.991L437.739 129.661H438.275L438.007 129.929L438.409 130.331L438.141 132.876H438.945L440.016 132.34L440.954 132.608L441.758 133.545L444.303 133.813L444.57 133.277L444.169 132.608L444.035 131.536L444.437 130.331L443.901 128.723L444.838 127.518H445.508L446.312 128.455L446.178 128.991L447.919 128.857L448.455 129.259V129.259H450.33V129.527L450.464 129.929L450.732 130.598L450.866 130.866H451H451.134L451.536 130.732L452.205 130.598L452.875 130.331L453.277 130.197L453.545 130.063L453.679 129.929L453.813 129.795L454.081 129.661L454.215 129.527L455.286 129.125L455.822 128.991H456.09L456.492 128.723L456.76 128.589L456.894 128.455L457.162 128.321L457.697 128.053L458.099 127.92L458.367 128.321L458.769 128.455L459.305 128.857L459.573 129.125L459.707 129.259L459.84 129.527L459.707 129.929V130.464V130.866V131.268L459.84 131.402L460.108 131.536L460.376 131.402H460.644V131.536L460.778 131.67L460.912 131.402L461.046 131.536H461.314V131.402V131.268L461.582 131.134L462.118 131.268V131.268L462.519 131.402H462.653L462.921 131.268V131.268H463.189H463.591V131.268V131.536V131.804V132.072V132.34L463.725 132.474V132.608L463.859 132.742V133.009L463.725 133.143L463.457 133.411L463.189 133.813V133.947H463.323H463.725H464.127L464.529 133.813H464.797H465.198V134.349L465.064 134.751L463.993 135.421L463.457 135.688L463.055 135.822L462.385 135.956V136.224L462.252 136.626V136.626L461.984 136.492V136.492V136.76V136.76H461.85H461.716L461.448 136.492H461.18L460.912 136.358H460.778V136.492V136.492V136.626L460.912 136.894V136.894L461.046 137.028V137.162H461.18L461.314 137.296V137.43V137.564V137.698L461.046 137.832H460.912V137.832V137.966V138.501L460.778 138.769L460.912 138.903L461.046 139.037H461.314L461.448 139.171L461.582 139.439L461.984 139.573V139.841V139.841V139.975L461.85 140.109V140.243V140.377V140.511L461.716 140.644L461.448 140.778L461.582 140.912L461.314 141.046V141.18V141.18H461.448H461.582V141.582L461.716 141.85L461.582 141.984V141.984L461.448 142.118V142.252L461.314 142.386H461.448V142.52L461.582 142.654L461.448 142.788V142.922V143.056L461.314 143.189H461.448V143.323L461.582 143.189V143.323H461.448V143.591H461.582V143.457V143.457L461.716 143.591L461.85 143.457V143.591L461.716 143.725V143.859L461.448 143.993L461.18 144.127L461.046 144.261L460.912 144.529V144.663V144.931L460.778 145.199L460.644 145.734L460.51 146.002L460.376 146.27V146.538H460.51H460.778V146.672V146.806V146.94L460.912 147.074L461.046 147.208H461.18H461.448H461.716H461.85H461.984V147.208V147.074H462.118H462.252H462.385H462.519V147.074H462.653H462.787H462.653V146.94V146.806H462.787L462.921 146.94V146.94V146.806V146.806V146.672V146.672L463.189 146.806V146.806V146.94H463.055L463.189 147.074V147.074H463.323H463.457V147.208H463.323V147.342V147.342H463.189V147.342V147.476V147.61H463.323L463.189 147.744L463.323 147.878H463.189V148.012V148.146H463.323V148.279V148.279L463.457 148.413V148.413V148.547H463.591V148.681V148.681V148.681H463.457V148.681L463.323 148.815H463.457L463.323 148.949V149.083L463.457 149.217L463.323 149.351V149.485H463.457H463.591V149.619L463.457 149.753H463.323L463.457 149.887L463.323 150.155V150.155V150.289H463.189L463.323 150.423L463.457 150.557V150.691H463.591V150.824V150.958L463.457 151.092V151.494L463.323 151.762L463.055 152.566V152.834L462.787 153.102L462.653 153.236V153.503V153.771L462.787 154.173V154.575V154.843V154.977L462.653 155.111L462.385 155.379L462.252 155.513L461.85 155.647H461.582V155.914V156.048V156.316L461.85 157.388L461.984 158.192L462.118 158.995L461.716 159.665L461.314 160.067L461.18 160.737H460.242L459.707 160.469L459.439 160.335L459.305 159.933L458.769 159.665H458.501L458.233 160.067V160.067V160.335L458.099 160.603L457.965 160.737V160.87V161.004L457.831 161.138V161.406L458.099 161.54L458.501 161.674L458.769 162.21L459.84 163.014L460.242 163.951L461.18 163.817L461.984 164.219L462.252 163.951L462.653 164.353L463.189 164.085L462.653 166.094L461.85 166.764L461.984 167.3L462.519 168.104L464.93 168.372L465.332 169.175L465.198 169.979L465.466 170.783L464.797 170.917L463.725 172.122L462.653 172.39L462.252 173.06L459.84 172.926L459.305 173.328L458.501 173.863L457.429 173.997L456.894 175.069L457.563 176.14L457.162 176.944L456.626 176.81L455.956 178.016L454.75 178.15L453.679 178.953L450.598 178.819L451.268 179.623L451.536 180.561L449.928 181.097H448.723L446.982 179.623L443.231 180.159L442.159 179.623L440.016 180.025L436.132 178.953L434.658 179.757L433.185 178.418L433.587 177.882L433.855 177.212L431.846 178.016L431.176 179.087L425.014 178.953L424.344 178.552V177.614L423.273 177.212L422.603 176.542L419.924 177.212L418.183 176.007L416.977 177.614L415.236 178.15L414.834 178.819L413.629 178.953L412.557 179.623L411.084 179.489L407.735 177.882L407.869 176.81L406.797 176.542L406.53 175.203L405.726 175.069L405.592 173.997L404.654 172.926L402.913 173.997H401.975L401.172 175.069H401.44L401.573 175.203V175.471L401.975 175.739L402.377 175.873L402.511 176.007V176.14L402.243 176.408V176.542L402.109 176.676H401.975L401.707 176.542L401.573 176.676V177.078L401.707 177.48L401.975 177.614V177.614V177.748V177.882V178.15L402.243 178.284V178.284L402.645 178.15H403.047H403.181L403.315 178.284V178.552L403.449 178.685V178.819L403.583 179.087V179.221V179.355V179.489H403.717H403.851L403.985 180.025L404.118 180.159V180.427L403.985 180.829V181.23L403.717 181.632V181.766V182.034L403.985 182.168L404.52 182.302L404.922 182.57H405.056L405.458 182.704L405.592 182.838L405.86 183.24H405.994L405.86 183.374L405.458 183.642L405.592 183.775L405.726 183.909L405.86 184.043L405.994 184.177L406.128 184.579L405.994 184.847L405.19 186.454L403.985 186.99L403.717 188.33H402.109L401.573 191.812L400.368 191.946L399.698 192.482L400.1 194.357L401.707 194.625V197.17L402.109 197.438L402.913 198.108L403.851 197.438L404.252 195.831L406.262 196.233L407.735 194.357L408.539 193.688L409.208 193.821L409.61 194.625L412.289 195.027L412.691 196.634L413.361 196.902L415.638 196.768L417.781 195.563L419.924 197.84L419.79 199.179L421.13 200.653L421.264 201.59L420.996 201.992L421.264 202.662L421.933 202.26L422.603 202.662L423.407 201.992L423.809 202.796L423.541 202.93L423.407 204.135H424.211L425.014 204.671L425.55 203.734L427.827 203.466L428.363 205.743L428.899 206.011L429.97 205.609L430.908 207.216L432.381 207.752L432.649 208.556L432.515 210.431L431.578 210.833L430.104 213.378L430.372 214.449L429.836 215.655L430.104 216.459L429.836 216.994L430.774 217.396L430.64 218.334L429.568 218.87L429.434 220.075L428.765 220.477L426.086 219.673L423.809 221.816L422.737 221.95L421.666 221.549L420.996 221.95L419.79 222.486L418.317 224.094L419.254 225.969L419.388 228.916L418.049 229.451L415.906 231.461L415.102 231.327L415.236 232.532L414.968 232.8L410.414 233.738V235.077L409.878 236.015L411.084 239.899L410.012 241.105V241.775L409.208 241.909V242.176L410.146 245.525L409.208 246.865L408.807 246.731L408.673 245.525L407.869 245.123L407.065 246.597L405.592 246.731L404.386 247.668L403.583 249.008L403.449 250.213L403.985 251.285L403.315 251.687L402.645 251.553L402.511 252.758L402.243 253.026L401.306 253.16L399.43 252.356L399.028 252.49L399.43 253.294L399.028 253.428L398.225 253.562L397.019 252.892L396.751 253.964L396.216 253.696L395.68 254.098L395.01 255.571H392.733L393.135 255.973L392.867 256.375L393.001 256.911L393.403 256.777L393.269 257.178L392.599 257.045L392.465 256.375H392.063L391.661 256.777L391.795 257.848L390.59 258.652L390.054 258.116L389.652 254.901L388.982 254.366L388.045 254.5L386.705 253.83L386.17 254.366L386.303 255.839L385.634 256.241L384.16 255.303L383.357 255.571L383.089 256.777L381.883 257.848L381.08 257.982L379.874 257.446L379.472 255.839L378.535 255.973L377.329 257.714L375.32 258.652L375.052 259.054L374.918 262.001L375.722 264.144L375.32 265.081L375.588 267.091L374.65 268.028L373.98 269.769L371.301 269.903L370.498 270.841L370.364 271.243L370.9 272.582V273.118L370.096 273.386L370.498 274.458L370.364 276.333L368.89 276.467L368.087 277.003V277.538H368.89L369.694 278.342L369.426 279.28L369.694 279.949L369.426 280.351L368.89 281.155L367.551 280.619L367.685 279.28L366.881 277.404L366.345 277.137H364.738L364.068 278.074L363.8 280.083L362.997 280.619L362.595 283.298L361.389 286.111L359.916 286.379L360.184 286.915H360.72L360.854 287.584L360.184 289.728L360.318 290.397L360.987 291.067L361.121 292.407L360.586 292.674L360.854 293.478L360.586 295.086L359.514 297.631V298.3L358.041 298.836L356.835 297.764H355.898L354.558 300.309L354.96 301.113L354.022 303.122L354.29 304.194L354.692 304.462L354.826 305.533L354.156 306.471V307.543L354.692 308.346L354.29 309.284L355.228 310.222L354.826 312.767L355.228 314.106L354.692 315.312L353.486 316.651L353.219 318.794L352.013 321.205L351.075 322.277H350.808H349.334L347.861 322.411L347.459 322.143L346.923 321.875V321.071L346.253 320.803L345.985 319.732L343.708 319.196L343.039 318.794L342.637 318.526H341.699L341.565 318.392H341.163H340.628L339.824 319.732L337.949 319.598L337.011 318.928L336.877 318.258L337.145 317.589L338.35 315.981L337.815 314.508L337.011 313.972L336.341 313.034L336.073 311.159L333.662 309.686L333.93 309.418L333.394 308.346L331.921 308.078L331.787 307.275L331.117 306.873L330.314 305.667L327.769 305.399L327.367 304.864H326.429L324.286 306.471L322.813 306.203L322.277 307.141L321.473 307.543L320 309.284L319.062 309.418L317.857 309.284L316.115 310.489L314.642 309.15L313.034 309.284L312.231 309.82L311.963 311.025L310.757 311.159L310.355 310.757H308.882L307.141 309.82L305.399 307.81L302.988 306.873L302.319 306.605L301.247 307.275H300.176L299.774 307.944H298.568L297.764 309.15L295.755 309.284L294.014 309.954L293.076 309.686L291.871 309.954V308.48L290.263 307.275V306.605L289.862 306.069L290.531 304.998L290.129 304.864L289.326 302.587L287.718 301.783L286.781 302.051L285.441 301.515L284.37 302.453L281.959 302.319L281.825 301.917L278.476 301.381L277.404 300.176L275.529 299.774L275.931 300.176L275.127 301.247L274.993 302.185L275.529 302.72L274.993 303.926L271.243 303.39L270.841 304.462L270.171 305.132L268.698 305.667L268.966 306.203L268.028 306.873L267.492 306.337L263.876 306.739L263.072 305.667L262.001 305.801L260.259 307.141H258.786L258.652 308.48L259.59 309.016L258.786 308.882L258.384 309.418L259.456 310.222L259.322 311.159L260.259 311.695L259.857 313.168L257.848 312.499L257.045 313.302L255.571 312.767L255.169 313.034H251.955L251.285 314.374L250.749 313.034L250.347 312.9L249.945 312.767L249.543 313.972L248.74 314.508L246.597 313.57L245.257 313.704L244.186 313.436L243.248 313.704L242.444 313.168H241.373L240.301 312.097L240.435 311.561L237.354 310.891L235.881 312.097L234.541 312.231L234.274 312.633L233.202 312.365V311.293L232.666 309.686L232.8 308.882L232.264 308.078L232.8 306.605L230.523 305.667L230.121 305.935L230.389 307.007L229.451 308.078L228.782 307.944L228.514 307.543L227.442 308.078H227.174L226.237 307.677L224.629 307.141L224.361 307.409V307.677L224.763 308.212V308.346L224.629 308.48L223.022 308.748L222.754 308.882L222.486 309.284L221.816 309.418L219.941 309.15L219.539 309.418L219.673 311.025L219.807 311.695L219.271 312.633L213.512 315.713L211.101 316.517L210.163 316.919L209.359 317.321L207.484 317.455L206.68 317.857L205.609 318.392L205.207 318.928L204.537 318.66L204.135 319.062L203.868 318.526L201.992 317.99L201.055 317.455H199.715L199.045 318.526L197.974 318.794L196.902 318.66L196.5 319.33L196.233 319.732L195.161 320.268L194.625 320.134L194.357 319.732L194.089 319.598L193.821 319.33L193.688 318.258H193.286L192.884 319.464L192.616 319.732L192.348 319.598L192.214 318.66L191.946 318.392L191.678 318.258H191.009L190.741 318.392L189.133 318.526H188.731L189.267 319.464V319.866L188.999 320L188.062 319.866L186.588 319.598V318.928L186.32 317.857L185.383 317.455L184.847 318.526L184.177 319.196L182.972 319.062L182.57 317.053L182.168 316.115V314.91L180.561 313.972V313.034V312.231L179.489 311.293L179.355 310.623L179.757 310.088L180.963 309.82L181.498 309.284L184.043 309.418L187.392 310.757H188.598L189.535 310.088L189.401 309.552L188.598 309.016L187.794 309.15L187.526 308.882V305.265L186.053 300.979L185.517 300.309L184.981 299.774L184.713 299.506L183.642 298.3L182.57 297.764L181.498 297.631L178.552 297.898L172.122 297.631L171.988 298.3L172.524 298.97L172.256 299.64L171.452 299.372L170.917 300.176L169.175 300.042L169.041 301.113L168.238 301.381L167.032 300.845L167.3 299.774L166.362 299.506L165.693 300.309L163.683 299.64L161.674 300.042L161.138 299.908L160.737 300.309L160.603 300.577L159.933 300.845L159.263 301.381L158.727 301.649L158.058 302.051L157.79 302.185L157.388 302.453L156.986 302.854L156.852 303.122L156.45 303.256L156.048 303.524L155.914 303.792L155.379 304.06L154.843 304.328L154.575 304.462L154.307 304.864L153.905 305.132L153.369 305.399L153.102 305.667L152.7 306.069L152.432 306.337L152.298 306.605L152.164 306.873L151.896 307.007L151.628 306.873L150.958 306.605L150.289 306.203L149.485 306.069H149.351L149.083 306.203L148.949 306.471L148.815 306.605V307.141L148.547 307.409H148.279L147.476 307.275L146.538 307.007L146.27 307.141L146.136 307.81L145.734 308.346L145.601 308.882L145.734 309.15L145.601 309.284L146.136 310.489L146.002 310.623L145.601 310.757L144.663 311.159L146.27 313.034L145.868 314.374L143.725 315.713L143.056 317.723L137.296 321.875L139.305 324.822L139.171 326.831H138.367L137.698 327.903V329.242L137.296 330.046L136.894 329.644L133.947 329.242L132.34 330.18L130.063 329.778L129.527 332.055L128.857 332.993L128.455 333.126L128.187 334.466L127.25 334.868H126.044L125.91 335.538L124.571 336.475L119.213 336.609L118.141 335.538L113.185 336.073V335.002L111.444 333.796L111.712 332.993L111.042 332.055L110.238 331.519L111.042 330.849L113.051 331.251L113.319 330.18L113.051 329.778L112.917 328.17L111.846 327.367L112.65 326.161L111.846 324.554L111.042 324.018L109.435 319.598L107.024 320.937L105.684 320L103.809 319.598L102.068 318.392L99.7906 318.794L98.3172 318.258L96.9777 318.928L95.9061 318.794L95.3703 319.062L93.4951 318.794L91.4859 319.062L90.2804 318.526L88.0033 318.794L86.9317 319.33L84.5206 319.196L81.038 319.732H79.6985L79.4306 319.464L78.7609 318.928L77.2875 319.062L75.948 318.66L74.0728 318.794L73.0012 319.33L72.3314 319.196L71.5278 318.794L70.992 318.392H70.0543H69.6525L68.1791 318.928L67.7772 318.392L67.2415 318.794L66.7057 317.455L66.0359 317.723L65.768 318.258H65.2322L64.0267 317.321L62.8212 317.589L62.1515 317.321L60.812 316.517H60.2762L60.0083 316.115L59.2046 315.981L57.7312 314.776L56.9275 312.633L55.9899 311.159L54.2486 308.748L52.1054 308.346L50.8999 307.275L47.2833 306.471L46.2118 305.399H44.6044L44.0686 305.265L43.2649 305.801L42.1933 306.203L40.3181 306.471L39.2465 305.935L35.2281 305.265L34.5584 304.864L34.2905 304.194L33.0849 303.926L31.3436 303.524L29.4684 303.122L29.3344 302.453L27.9949 302.185L27.5931 302.051L27.861 300.979L27.3252 300.042H25.9857L25.316 299.774L24.9142 297.631V296.291L24.7802 294.952L25.316 294.148L25.5839 290.263L25.7178 289.058L25.1821 288.254L25.0481 287.584L24.3784 287.451L24.1105 286.915V286.513V286.245L23.0389 285.575L22.3692 285.843L21.5655 285.575L21.4315 284.102L21.6994 283.566V283.03L21.5655 282.494L21.1636 282.093L18.7526 282.762L17.9489 284.102L16.6094 285.307L14.1984 285.709L13.5287 287.584L8.70656 288.12L8.03683 287.986L6.8313 286.781L5.89367 286.513L5.75973 285.575L6.16157 285.307L6.29551 284.638L3.61657 283.968L3.21473 283.03L5.75973 281.423L5.35788 280.887L6.69736 280.485L6.96525 279.146L7.63499 279.012L7.0992 278.074L6.29551 277.94L4.95604 278.342L4.8221 276.333L5.22394 274.592L4.68815 274.056L4.5542 271.779L3.75052 271.243H2.14315L2.00921 270.439L2.94684 269.903L2.41105 269.636L2.2771 268.564L1.20552 267.492V266.421H1.60737L1.74131 264.947L2.14315 264.412L1.87526 263.34L3.21473 263.206L3.34868 262.536L4.01841 262.67L4.28631 263.474L4.95604 263.742L5.22394 264.813L8.17077 265.483L8.43867 265.215V263.876L8.84051 264.278L9.1084 262.804L9.64419 263.34H10.18L10.046 262.268H11.1176V262.001L11.6534 261.733L11.7873 261.063L12.591 261.331H13.6626L12.4571 260.661L12.0552 259.59L11.5195 259.054L9.64419 258.518L9.51025 259.054L8.97446 258.786V257.178L8.17077 256.509L7.76893 257.312L8.03683 258.518H7.23314L7.0992 259.054L6.56341 258.92L6.42946 257.714H5.75973L5.08999 258.92L4.95604 259.723L4.01841 259.322L3.48263 258.384L3.61657 257.045L2.2771 257.178L2.41105 256.107L2.94684 256.241L2.67894 254.767L1.20552 254.633L0.535788 255.705H0V254.767L0.401841 254.232L0.267894 252.892L0.535788 252.758L0.93763 252.624L1.47342 252.356H2.14315L2.41105 252.49L2.81289 252.758L3.75052 253.026L4.42025 252.892L5.22394 254.098L6.29551 254.232L6.56341 253.294L8.43867 251.955L8.17077 251.419H9.3763L10.7158 248.74L11.7873 248.07L11.6534 247.4L12.1892 246.998L12.591 247.132L12.8589 246.731L14.8681 247.4L15.5379 246.998L17.4131 247.4H18.2168L18.4847 245.525L19.1544 244.186L19.5563 242.042L21.4315 238.828V237.488L22.771 237.086L23.5747 234.675L22.6371 231.461L22.1013 230.925L21.2976 231.193L21.0297 230.925L20.36 231.193L19.2884 232.264L18.3508 231.595L17.2792 230.389L16.2076 228.514L17.815 227.576L17.0113 226.237L16.6094 224.763L15.5379 223.96L15.27 222.888Z" fill="url(#paint0_linear_32_172)"/>
<defs>
<linearGradient id="paint0_linear_32_172" x1="211.574" y1="26.1698" x2="232.733" y2="336.609" gradientUnits="userSpaceOnUse">
<stop stop-color="#313030"/>
<stop offset="1" stop-color="#333333" stop-opacity="0"/>
</linearGradient>
</defs>
</svg>
