<svg width="289" height="328" viewBox="0 0 289 328" fill="none" xmlns="http://www.w3.org/2000/svg">
<path fill-rule="evenodd" clip-rule="evenodd" d="M136.851 19.3454L137.328 18.8677L141.866 20.5395L145.21 21.0172L150.703 19.3454L150.225 21.7337L152.375 22.689V25.0773L152.852 26.5103H153.33L154.763 24.122L157.151 19.1065L160.973 15.5241L167.182 14.3299L169.57 13.1357L170.765 12.4192L173.392 10.5086L175.302 5.97079H177.691L179.363 5.2543L181.751 3.34364L183.184 1.43299L183.9 0L184.856 0.238832H185.095H185.333L185.572 0.477663L185.811 0.716495L186.05 1.43299V1.67182V1.91065L186.289 2.38832L186.528 2.62715V2.86598L187.005 3.34364L187.483 3.82131L188.438 4.5378L188.916 4.77663L189.155 5.01546L189.632 5.73196L190.11 6.44846L191.065 6.68729L191.543 8.35911L192.498 9.31444L192.976 9.55327L192.737 10.5086V11.2251L193.692 12.4192L194.648 12.8969L194.409 13.1357V13.3746V13.6134H194.17L193.931 13.3746V13.1357L193.454 13.6134V13.6134L193.215 13.3746L193.454 13.1357L193.215 12.8969L192.737 13.1357H192.498L192.021 13.3746L191.782 13.1357L191.304 13.3746H190.349L189.632 13.1357H188.916L188.199 13.8522L186.528 14.5687V15.0464L186.289 15.5241L186.05 16.4794V17.4347L185.572 17.6735L184.856 17.4347L184.617 17.9124L184.139 18.1512L183.184 18.39L182.229 19.1065L182.467 19.3454L182.945 19.823V20.3007L182.229 20.5395L181.751 20.7784L180.796 21.256L180.318 21.7337L180.079 22.4502L178.885 24.8385L177.691 25.555L175.541 26.5103L174.586 26.7491L172.914 26.988L170.765 27.9433L170.287 28.1821L169.809 28.6598L168.854 28.8986L168.376 29.1375L167.899 28.8986H166.227L165.749 29.854L165.033 30.3316H164.794L164.316 30.8093L165.272 31.2869H166.227V32.0034V32.7199L165.749 33.1976H165.033V33.9141L165.272 34.1529L165.033 35.8247L165.749 36.3024H166.227V35.5859L167.66 35.1083L168.615 35.8247L168.137 36.3024L168.376 37.4966H168.854L169.093 38.6907L168.615 38.9296L169.57 39.4072L168.854 40.8402L168.376 42.0344V42.0344L166.943 42.9897L165.749 43.945L165.272 44.6615L165.51 45.6168L165.033 46.0945L163.6 46.811L162.167 47.5275L161.45 48.244L162.167 48.7217V49.4382H162.644L163.122 49.9158L164.555 49.1993L165.749 48.9605L165.988 49.1993L166.943 48.9605H167.182L168.137 48.4828L168.854 48.9605L169.809 49.1993V49.9158L170.287 50.1546L171.242 50.3935L171.72 50.6323L172.675 51.3488L172.914 52.3041L173.392 52.7818L174.586 53.4983L176.258 52.7818L177.213 53.2595L178.168 54.6924L179.84 56.8419L181.751 57.7973L183.184 58.5138L185.095 58.9914H186.289L187.244 60.1856L189.394 60.9021L190.588 61.3797L191.782 62.8127L192.259 63.5292L192.737 64.9622L194.17 67.3505L194.887 69.5L196.081 71.6495L197.036 73.0825L197.753 75.9485L197.991 76.4261H198.23L198.469 76.9038L199.186 77.3815L199.424 78.098L199.186 78.3368V78.098H198.708L198.469 77.8591V77.6203V77.6203H198.23H197.991V76.9038H197.514L197.275 77.1426L197.036 77.3815V77.3815L196.797 77.6203H196.558V77.8591H196.32H196.081L195.603 78.098L195.364 78.3368L194.887 78.098L194.648 77.8591L194.887 78.5756L195.603 79.5309L195.842 80.2474L196.32 80.9639L196.081 81.4416L196.797 81.6804L197.275 82.8746V83.3523L197.753 84.0687V84.5464L198.23 85.5017L197.991 85.7406V86.2182L198.23 86.9347L198.469 87.1736L198.708 87.6512L198.947 88.6065L199.424 89.323V89.8007L199.663 90.5172L199.902 90.9949V91.4725L200.38 91.7114L200.619 92.189L201.096 93.3832V94.5773V94.8162L201.335 95.5327L201.574 96.0103L202.052 96.2492H202.29V96.488V96.488V96.7268V97.2045H202.529V97.4433V97.6822L202.29 98.1598L202.768 98.8763L203.246 99.354V99.5928L203.485 99.8316L204.201 100.787H204.44L204.679 101.026L204.918 101.265L205.156 101.503L205.395 101.265L205.873 101.026L206.112 101.265V101.742L205.873 102.22V102.459L205.634 102.698V102.698V102.936L205.873 103.175L206.112 103.653L206.351 103.892L206.589 104.131L206.828 104.369L207.067 105.086H207.306L207.545 105.325V106.041L208.261 106.997L208.739 107.474H208.978L209.217 107.952L209.455 108.43L209.933 108.907V109.385L210.411 110.101L210.172 110.579L210.65 111.296L211.366 112.967L212.083 113.206V113.684V114.4L211.844 114.878L212.083 115.356L212.799 115.833L213.038 116.789V117.028L213.516 117.266L213.277 118.222V118.461L213.754 118.699L213.993 119.655H214.232L214.471 120.132L215.187 120.371L215.665 120.849L215.904 121.804L215.665 122.282L216.381 122.521V122.759L216.62 122.998L216.381 123.237V123.715L216.62 124.192L216.143 125.148L215.187 125.864L214.71 126.103L214.471 127.058L214.71 128.491L214.948 129.208L215.187 129.686L215.665 130.163V130.402H216.381L217.098 130.641H217.576L217.814 131.357V132.313V133.746V134.462L218.292 134.701V134.94H218.531L218.77 135.179H219.009H219.725H219.964H220.442H220.68H220.919L221.397 134.94L221.875 134.701L222.83 134.223H223.308H223.785H224.263L224.741 133.985H225.218L226.174 133.746V134.94L226.412 134.701L226.651 134.94L227.368 134.701L227.845 134.223L228.084 134.462V133.985L228.562 133.746H229.04V133.507H229.517L229.995 133.029V132.79H230.473H230.95L230.234 131.835L229.756 130.402L230.95 130.163L231.906 129.924V129.686H232.383V129.924V130.402L232.622 130.641H233.1L233.339 130.163V129.924H233.816V130.163H234.055V129.686V129.686H233.339V128.969H233.1V128.014H232.861V126.342H231.667L231.906 125.148V123.954H232.861L233.1 123.715H233.339V124.192H234.055L234.294 123.954L234.533 123.715L235.01 123.476H235.488L235.727 123.237V122.521V121.804V121.326V120.849V120.371L235.966 119.893H236.205L236.682 120.61L236.443 120.849L236.682 121.088L237.876 123.237H238.115V123.476L238.354 123.715V123.954L238.593 124.192L238.832 124.431V124.67V124.909H238.593H238.354L238.115 125.148H237.876V125.148H237.638L238.115 125.625L238.354 125.864V126.342L238.832 126.581L239.309 127.775L239.787 128.73L240.265 129.686H240.742L240.981 130.402V130.641L241.698 131.835V132.313H241.936L242.175 132.79L242.414 133.029L242.653 133.268H242.892L243.369 133.507L243.847 134.223L244.086 134.462L244.564 134.94V135.179L244.086 135.656L242.892 136.373H242.653L242.414 136.612V136.851V137.089L242.175 137.328L242.653 137.567L242.892 137.328L243.369 137.089L243.847 136.851L244.086 136.612V136.373L244.325 135.895L244.802 135.656L245.519 134.94L245.758 134.462L245.997 134.223L246.474 134.462L246.713 134.701L246.952 135.418L247.191 135.656V135.895L246.952 136.373V136.373H247.191V136.373V136.612L247.43 137.567L247.668 138.284L247.907 138.522L248.146 138.761H248.624L248.863 138.522L249.34 138.284L249.818 137.567L250.057 137.328V137.328L250.296 137.567V137.806L250.534 138.522L250.296 139.478V139.717V139.717L250.773 139.955L251.49 139.478V139.478L251.729 139.239V139.239V138.761V138.522V138.284V138.045L251.967 137.089L252.445 137.328L252.923 137.567L252.684 137.806L252.445 138.761H252.684L252.445 139.239L251.967 139.955L252.684 140.433L252.923 140.194L253.4 140.433L253.639 140.194L254.117 139.478V139.239H254.356L254.833 139V139L255.072 138.522L255.311 138.284L255.789 137.806L256.266 138.045L256.744 138.761V139L257.461 139.717L257.938 140.194L258.416 140.433V140.672V141.388L258.177 141.627H257.938H257.699L257.461 141.866L256.983 142.344V142.583L256.744 143.538L256.266 143.777L256.744 144.971L257.222 144.732H257.461L257.938 144.254H258.655L258.894 144.015H259.132V143.777H259.371L259.61 143.538L260.088 143.299L260.327 143.538L261.043 143.777V144.015H260.804L261.043 144.254H260.804V144.254H260.565L261.521 145.21L258.655 145.926L256.505 148.076V150.942L257.222 151.658L256.744 152.852L256.028 153.808L256.266 154.285L257.222 154.524L257.699 155.241H259.371L259.61 155.718V156.435L258.416 157.629L258.177 158.107L257.938 159.301H257.461V160.017L257.699 160.495L257.938 161.689L257.222 162.406L256.744 162.883L257.461 164.555L258.416 165.272L258.177 168.137L258.894 168.376L259.371 169.093L261.043 169.809L263.431 171.481L266.297 171.242L266.536 171.959L266.775 172.436H267.491L267.969 172.914L268.447 173.869L269.163 174.586L269.402 175.064V175.302L270.119 176.019L271.074 176.258V176.735L271.79 176.974V177.213L272.268 177.93V178.407L272.746 178.646V180.079L273.462 181.99L276.567 185.572L278.955 186.766L279.433 189.871L280.866 191.065L280.15 194.648L278.717 194.409L277.761 194.887L277.045 194.409L276.806 194.17V194.17L277.284 193.931L278.239 193.454V193.215V193.215L278 192.976H277.761V192.737V192.498H277.522L277.284 192.737H277.045L276.567 192.976V192.976L276.328 193.454H276.089V193.454H275.851L275.373 193.692V193.454H275.134L274.656 193.692V193.454V193.215L274.418 192.737H275.134L274.895 192.498V192.021V191.543H274.418H274.179V191.543H273.94L273.701 191.304V190.827L273.462 191.065H273.223H272.985L272.507 191.304L272.268 191.782H271.79V191.782V192.259L271.552 192.737H271.074V193.215L270.835 193.454L270.357 193.931L269.88 194.17H269.641H269.402H268.924V194.409H268.447L267.969 194.648L267.73 194.887H267.491L267.253 195.125L267.491 195.364L267.73 195.603V195.842L267.491 196.081V196.32V196.558L267.73 196.797V196.797H267.969V196.797H268.208V197.036V197.036L268.447 197.514V197.514L268.686 197.991L268.924 198.23H269.163V198.23L269.402 198.469V198.708H269.641V198.947H269.88V199.424L269.641 199.663L269.88 199.902H269.641V200.141V200.38V200.38V200.619H270.119L270.357 200.857H270.596L270.357 201.096L270.596 201.335L270.357 201.574V201.813V202.052V202.29V202.29L270.596 202.052V202.29L271.074 202.052H271.313V202.29V202.529L271.552 202.768L271.79 203.007H272.029H272.268L272.746 202.768L272.985 203.007L273.223 203.485L273.701 204.201L273.94 204.44H274.179V204.679V204.44H274.418V204.201V203.962V203.962L275.851 204.679L276.089 204.918H276.328L276.567 205.156H276.806H277.045V204.918L277.522 204.44H277.761L278.239 204.201L278.478 203.723L278.955 203.246V203.485H279.194V203.246V203.246V204.679L279.433 206.112H279.911L280.866 204.918L281.821 205.634V207.784L283.254 208.022L285.643 210.172L285.881 211.366L286.837 211.605L287.076 212.321L285.643 213.516L286.12 214.471L285.643 216.381L286.359 216.859L284.449 219.009L287.792 220.68L287.076 224.024L284.687 224.979L285.643 226.89L284.687 229.756L286.12 231.667L286.359 233.816L288.747 234.533L285.881 238.115L285.165 237.876L284.926 237.638V237.16L285.643 236.205V235.966V235.727L282.538 234.772V233.339L280.15 231.906L279.433 230.711L277.045 233.1L273.462 232.383L272.985 231.667L273.223 230.473L272.268 229.995L271.552 231.428L269.163 232.144L269.402 233.816L266.775 235.01L267.253 236.443L268.447 236.921L267.969 238.115L269.641 237.876L270.596 238.832L268.208 240.981V241.698L264.864 242.892L264.387 242.414V243.847L263.192 245.28H262.237L260.565 246.474H259.849L258.416 248.385L252.445 249.101L252.206 251.49L251.012 253.162L255.789 250.057L258.416 252.923L257.699 254.595L261.043 255.55L261.282 257.461L259.61 259.371L260.088 261.043L259.849 262.237V262.715L257.461 265.103L255.311 267.014L253.878 268.208L252.206 269.641L250.773 269.88L248.146 269.641L247.191 267.491L243.369 267.014L242.653 264.625L242.892 263.192H241.936L240.981 261.998L240.503 260.327L241.22 258.416L240.265 256.505L239.548 256.028L236.682 258.177L238.593 260.804L236.921 262.237L237.638 264.148H235.01L233.1 261.282L231.428 261.759L233.577 264.148L231.189 266.297L228.323 265.103L227.129 265.581L224.502 264.864L224.263 264.387L220.203 261.282L219.247 261.521L219.964 262.237L220.68 263.431L220.919 263.67L220.203 264.148L219.247 263.192L218.77 263.431L218.053 264.387L222.352 266.058L224.741 266.536L224.979 267.491L224.741 267.969L223.785 268.447L222.83 269.641L220.919 272.029L220.68 273.223L219.964 274.895L221.158 275.612L221.636 276.089L221.158 276.806L219.964 277.045L219.486 277.522V281.105V281.583L219.725 281.821L220.442 282.777V283.254L220.68 283.971L219.964 284.21L217.576 283.971L216.381 285.881L217.814 286.598L218.053 290.18L221.875 290.658L223.308 291.613L223.546 292.33L222.83 293.285L220.68 294.241V295.196L219.009 294.957L218.292 296.629L216.381 297.823L213.754 298.062L211.605 300.211L210.411 299.017L209.217 298.778L208.022 299.256L207.784 301.883L206.112 302.839L204.44 305.466L202.29 304.749L197.991 307.376L194.887 307.138L192.498 306.66L190.827 304.749L189.155 305.705L187.722 305.227L184.856 300.928L184.378 298.54L183.662 298.301L181.273 299.256L179.124 297.107L176.735 298.54H174.825L172.914 299.017L171.959 304.749L171.003 305.227L170.048 303.316L168.137 302.6L165.272 302.839L165.033 304.988L164.077 305.705L162.167 305.466L160.256 305.705L159.778 305.227L158.584 303.555L157.629 303.794L156.196 302.839L154.524 304.272L153.808 302.839L148.076 299.017L147.12 299.973L148.076 301.406L144.732 302.6L143.538 304.033L141.866 309.526L140.194 309.287L137.806 311.436L139.239 315.258L137.328 313.825L136.134 314.064L135.179 318.124L132.552 320.512V321.229L134.94 322.9L133.507 325.766L127.058 327.438L127.536 326.244L126.103 323.617L127.058 321.945V320.99L124.909 319.318H123.476L122.521 318.363V316.452L120.849 314.78L121.088 314.064L124.431 312.153L124.67 311.198L123.715 309.526L124.431 308.093L125.625 306.899L127.058 307.138L127.775 305.227L126.103 301.406L124.67 300.45L125.148 296.629L122.998 295.912L120.849 297.823L120.132 300.45L121.088 301.644L119.416 302.361L118.461 301.644L117.744 299.256H114.639L114.878 297.823L116.072 297.107L115.833 295.674L113.684 294.479L115.833 291.852V289.464L113.923 287.314L113.445 287.553L112.251 291.375L110.818 291.852L109.624 290.897L107.474 292.808L106.519 292.569L105.086 293.763L103.175 291.136V290.18L100.548 288.747L98.1598 283.732L95.055 284.687L96.0103 283.254L94.8162 281.583L93.8608 282.538H91.7114L89.0842 281.105L88.6065 279.672L87.1736 278.955L84.7852 280.866L80.0086 282.299L77.3815 281.344L75.9485 282.299V283.732L71.8883 286.598L72.6048 288.509L66.8729 287.314L65.6787 286.12L63.7681 285.881L61.1409 283.254L60.4244 284.21L53.2595 283.971L46.5722 283.493L40.1237 283.254L27.9433 282.299L17.9124 281.583L1.19416 281.344L0.955327 280.627L0.238832 278.478V276.806L1.91065 272.268L3.58247 270.596L7.40378 265.103L8.35911 264.864L7.64261 262.476L8.83677 256.505L8.59794 254.833V254.356L8.35911 253.878V253.4V252.923V252.445L8.12028 251.49V251.012V250.057L7.88144 249.34L7.64261 249.101V248.624L7.40378 247.907L7.16495 247.668L6.92612 247.43L6.20962 246.235L5.97079 245.758L5.73196 245.28V244.802L5.49313 244.564L5.2543 243.847L4.77663 243.131V242.892L4.29897 242.653L4.06014 242.175L3.34364 241.459V241.22H3.10481L2.86598 240.742L2.14948 239.787L1.43299 239.309L0.955327 239.07H0.716495L0.238832 238.832H0L0.477663 237.876V237.876L0.955327 237.638H1.19416V237.638L1.91065 237.399L2.14948 237.16V237.16L2.38832 236.921L3.34364 236.205L3.58247 235.966L3.82131 235.01V234.772L4.06014 234.533L4.29897 234.294H5.01546L5.2543 234.055L5.73196 233.816L5.97079 233.1L6.20962 232.861L6.44846 232.622L6.68729 232.383L6.92612 232.144L7.64261 231.906L8.12028 231.667V231.667V230.711H8.35911L8.83677 229.517V229.517V229.517L8.59794 229.756L8.35911 229.995L7.64261 229.756L6.68729 230.234H6.44846H5.49313L4.5378 229.995L5.49313 229.278V229.04V228.562L5.01546 227.607L4.5378 227.129L5.01546 226.89L4.77663 225.935L5.01546 224.979L5.2543 224.502L5.97079 224.979L6.44846 225.218V226.412L6.20962 226.89H6.44846V227.368V227.368L6.68729 227.607V227.607L7.16495 227.845V228.084H8.12028V227.845V227.607L8.35911 226.89V226.412L8.59794 226.174V225.696L7.88144 224.979L9.0756 224.024L9.7921 222.83L10.7474 221.875H13.3746L12.4192 220.919L12.6581 219.725L13.6134 220.442H14.3299L15.0464 219.964V218.77L16.0017 219.009L16.2406 219.247V219.486V219.725V220.442L16.4794 220.68L16.957 221.397V221.397L17.4347 221.158H17.6735L18.1512 220.68V220.919L18.8677 219.964V219.964L19.1065 219.486L19.5842 218.531L20.0619 217.814H19.823L18.8677 218.053V218.053L18.39 217.337L19.5842 216.143L21.0172 214.71L20.7784 213.993L20.5395 213.754L20.7784 213.277L20.5395 212.321L21.0172 212.083V211.605V211.127H20.5395L21.256 210.172L22.689 211.366L22.9278 209.933L23.4055 209.694L23.6443 208.739L23.4055 208.5L24.3608 209.217H24.5997L25.555 208.978L25.7938 208.5L26.0327 208.022L26.2715 207.784H26.5103V207.784L26.7491 207.306V207.067H27.2268H27.4656L27.7045 206.589L28.1821 206.351L28.421 205.873L28.6598 205.634L29.3763 205.156H29.6151L30.0928 204.679V204.679L30.3316 204.44L30.5705 204.201L30.8093 203.962L31.2869 203.485V203.246L31.5258 202.768L31.7646 202.29H32.0034L32.2423 202.052V201.813V201.574L32.4811 201.096V200.619V200.38L32.7199 199.902H32.9588V199.424V199.186V199.186L33.1976 198.947V198.947L33.4364 198.708L34.6306 198.947V198.708L34.3918 198.469H34.6306H34.8694L35.3471 198.708H36.0636V198.708H36.5412L36.7801 198.469V198.23V197.991V197.514V197.514L37.0189 197.753L37.2577 197.514H37.4966V197.275V197.514L37.9742 197.991L38.4519 197.514L37.9742 197.036L37.4966 196.558H37.2577L37.4966 196.32L37.2577 196.081V195.364V195.364L37.0189 195.125L36.7801 194.887L36.5412 194.17L36.0636 193.692V193.454V193.215L36.5412 192.976H36.7801V192.976L37.2577 193.215H37.7354H37.9742H38.2131L38.4519 192.976H38.9296H39.4072H39.6461L39.8849 192.498V192.498L40.3626 191.782V191.543H39.8849L39.6461 191.065H39.4072V190.588V190.349L39.6461 189.871H39.8849V189.632L40.1237 189.394L40.3626 189.155L40.6014 188.438L40.8402 188.199L41.079 187.961L41.5567 187.722V187.244V187.005V186.766L41.7955 186.289V186.05V186.05V185.811V185.095L42.512 184.856L42.9897 184.617V184.617L43.4674 184.856H43.7062L43.4674 184.617V184.617L43.7062 184.378H44.4227L44.9004 184.617V185.095H45.1392H45.378H45.6168H45.8557L46.0945 184.856L46.3333 184.617L46.0945 184.378L45.8557 184.139H46.3333L46.5722 183.9L46.811 183.662L47.0498 183.9V183.9H47.2887L47.5275 183.662L47.2887 183.423L46.811 183.184L46.5722 182.945L46.0945 182.706L45.6168 182.229V181.751V181.751L45.8557 181.512L46.0945 180.796V180.318V180.079V179.84H46.3333H46.811H47.5275H47.7663V179.601L48.0052 179.363L48.244 179.124L48.4828 178.885L48.7217 178.646L48.9605 178.407L49.677 178.168H50.1546L50.6323 178.407H51.3488L51.5876 178.168V177.93H51.3488L51.5876 177.452V177.452L51.11 177.213V177.213H50.8711H50.3935L50.1546 176.735L50.6323 176.974H51.5876V176.735V176.497L51.8265 176.258L52.0653 175.78L51.5876 176.019H50.6323L50.8711 175.064V174.825H51.11H51.5876L52.0653 174.586H52.3041H53.0206V174.347H53.2595V173.631H54.4536L54.2148 173.153H54.4536H55.6478V172.914L54.6924 172.198V172.198L54.9313 171.959H55.4089L55.6478 171.72V171.72L56.1254 171.481L56.8419 171.242L57.0808 171.481L57.3196 171.242H57.7973L58.0361 171.003L58.5138 172.198V172.198H58.9914L59.2303 171.959H59.4691L60.1856 170.526L60.6632 170.287L60.9021 170.048H61.1409L61.6186 169.809H61.8574L63.0516 169.093V168.854H62.8127V168.615V168.615L62.5739 168.137V167.66V167.421L62.8127 166.466L63.0516 165.272L63.2904 164.794L64.2457 164.077V164.077L64.4845 163.6V163.361V162.883L64.7234 162.644L64.9622 162.406L65.201 162.167L65.4399 162.406L65.6787 162.167V161.928L65.9175 162.167L67.3505 162.883L67.5894 163.361L67.8282 163.6V163.839V164.077L69.0223 163.361H69.5H69.9777H70.4553L71.1718 163.122L72.6048 162.883H72.8437L73.5602 162.644H74.5155L74.9931 162.406L75.4708 161.689L76.4261 160.734L77.3815 160.017L76.665 159.301V159.301L77.1426 159.062H77.3815L77.8591 158.107V157.629L77.6203 157.39V157.151V157.151L77.3815 156.912V156.912V156.435L77.6203 156.196L77.3815 155.957L76.9038 155.241H76.665V154.524V154.046L75.9485 154.285L74.9931 154.524H74.5155L74.2766 154.285L73.799 153.569H73.5602L73.0825 154.046V154.046H72.8437L72.6048 154.285L72.366 154.524L72.1272 154.763V155.002L71.8883 155.241H71.6495L71.4107 155.002L71.1718 154.763V154.524V154.285V154.046V154.046V153.808V153.569L70.933 153.808H70.6942L70.2165 153.569L69.9777 153.808H69.7388H69.5L69.2612 153.569H69.0223H68.5447V153.569L68.3059 153.808V154.046H68.067H67.8282V154.046V154.285L68.067 154.763L68.5447 155.241L68.7835 155.718H69.0223V155.957V156.196L69.2612 156.912L69.0223 157.151L69.2612 157.39L69.0223 157.629L68.7835 157.868V157.868H68.5447V158.107H68.067L68.3059 158.345V158.584H68.067L67.8282 158.345V158.584L67.5894 158.345L67.3505 158.584V158.345V158.107H67.1117H66.8729L67.1117 158.584L66.8729 158.823H66.634V158.584H66.3952L66.1564 158.823V158.823H65.9175H65.6787L65.4399 159.301H65.201H64.7234L64.4845 159.062V159.062H64.2457L64.0069 158.823H63.7681H63.5292V158.345V157.868V157.629L63.2904 157.151V157.151L63.5292 156.912V156.196V155.718H63.2904V155.241V155.002V154.763H63.0516L62.8127 155.002L62.3351 154.763V154.763L61.6186 154.285L61.3797 154.046H61.1409H60.6632L59.9467 153.808V153.808H59.7079V153.33L59.9467 153.091V152.852V152.613V151.897L60.1856 151.419H59.9467V151.18L59.7079 150.942V150.703L59.9467 150.464V150.225V149.986V149.986L59.7079 149.747V149.509V149.27V149.27V149.031V148.792V148.314V148.076H60.1856H60.4244V148.076L60.6632 147.837V147.598V147.12V146.881V146.643V146.404V146.165V145.926L61.1409 145.687V145.687V145.448L60.9021 145.21H61.1409V144.971V144.493L60.9021 144.254L61.1409 144.015L60.9021 143.777V143.538L60.6632 143.299H60.4244V143.06L60.6632 142.583H60.4244L60.6632 142.344L60.9021 142.105H61.1409L61.3797 141.866L61.6186 141.388V141.15L61.8574 140.911V140.672V140.433L61.3797 139.955V139.717L60.9021 139.478V139.239V138.761L60.6632 138.522V138.284L60.9021 138.045L61.1409 137.806L61.3797 137.567V137.089L61.6186 136.851L61.8574 136.373V136.373V136.134L62.0962 135.895V135.656L62.3351 135.179V134.94V134.94L62.5739 134.701V134.462V134.462L62.0962 134.701H61.8574L61.6186 134.223H61.3797L61.1409 133.746H61.3797V133.507L61.8574 133.746V133.507L62.0962 133.746V133.507L61.8574 133.268H62.0962H62.3351V132.79H61.8574V132.313H62.0962V132.313L62.3351 132.074L62.0962 131.835L62.5739 131.596L62.8127 131.119L63.0516 131.357H63.2904V131.119L63.0516 130.88V130.88V130.641H63.2904V130.163L63.5292 129.447V129.208L63.7681 128.969L63.5292 128.73V128.73V128.253V128.253V128.014L63.7681 127.775H64.2457V127.536L64.7234 127.297H64.9622V127.297L65.201 127.058H65.4399V127.297V127.058L65.6787 126.82H66.1564V126.82L66.3952 126.581L66.634 126.342V126.342V126.103L66.8729 125.625V125.387V124.67V124.67V124.192L67.3505 123.954V123.476L67.5894 123.237V122.759L67.8282 122.521V122.282H68.3059H68.5447V122.043L68.3059 121.804H68.5447V121.804H68.7835L69.0223 121.565V121.326L69.2612 121.565H69.5L69.9777 121.804V121.804L70.2165 121.326V120.61L70.6942 120.849L70.933 121.088V121.326H71.1718V121.326V121.565L71.4107 122.043H71.6495V122.043L71.8883 122.282V122.043L72.1272 122.282H72.366V122.043H72.6048L72.366 121.804L72.8437 121.326V121.326L73.0825 121.088L73.3213 121.326V121.088V121.088L72.8437 120.371H72.6048V120.371V120.132L72.1272 119.893V119.893V119.655L71.8883 119.416V119.177V118.938V118.699L72.366 118.461L72.6048 118.222H73.0825L73.3213 117.983V117.983L73.0825 117.505H72.8437L72.6048 116.789L72.366 116.55L71.8883 116.072V115.833L71.6495 115.595V115.356H71.1718V115.595H70.933V115.595H70.6942L70.933 115.356V115.117V114.878V114.878V114.639L71.1718 114.878V115.117L71.4107 114.878V114.639H71.6495H71.4107V114.639L71.1718 114.4V114.639L70.933 114.4V114.639H70.4553V114.639L70.6942 114.878V114.878H70.4553V114.878H70.2165V114.639H69.9777L69.7388 114.4L69.5 114.162V113.923V113.684V113.445L69.2612 113.206L69.0223 112.967H68.7835V113.206H68.5447V112.967H68.3059H68.067V112.729H67.5894V113.445L67.1117 113.206V113.445H66.8729L66.634 113.206H66.1564V113.206L65.9175 112.967V112.729L66.3952 112.967V112.967V113.206V112.967H66.634V112.967L66.8729 112.729V112.49V112.49L66.3952 112.251V112.251V112.012V112.012L66.634 112.251V111.773H66.3952V111.534L66.634 111.296V111.057V110.579H66.8729H67.1117V110.579L67.5894 110.34L67.8282 110.101L68.3059 110.34H68.5447H68.7835L69.0223 110.101L69.5 109.863L69.2612 109.624L69.5 109.146V109.146V108.668V108.191V108.191V107.952V107.952V107.713V107.235H69.7388H69.9777V106.997H69.7388V106.758V106.519H69.5H69.2612V106.28L68.7835 106.041V105.802H69.0223V105.564H69.2612V105.564H69.5L69.7388 105.325V105.325H69.5H69.2612V105.564L69.0223 105.325V105.325L68.5447 105.086L68.3059 104.847H68.067H67.8282H67.3505V104.369L67.1117 104.131L66.8729 103.892V103.653L66.3952 103.175V103.175V102.936V102.698V102.698V102.459H65.9175V101.981V101.981V101.981H66.1564V101.981L65.9175 101.742V101.503H65.6787V101.265H65.201V101.026H64.4845V101.026H64.0069V100.548V100.309V100.309L63.5292 99.8316V99.5928V99.1151V98.8763L63.2904 98.3986L63.0516 98.1598H63.2904L63.0516 97.6822H63.2904V97.2045V97.2045L63.0516 96.7268V96.488L62.5739 96.7268V96.488H62.3351V96.0103V95.7715V95.5327L62.5739 95.2938V95.2938L62.3351 95.055L61.8574 94.8162L61.6186 94.5773H61.3797V94.0997L61.8574 93.8608L62.0962 93.622H61.8574L62.0962 93.1443V93.1443H61.8574V92.9055L61.3797 92.6667V92.6667L60.9021 92.189V92.189L60.4244 91.9502L59.9467 91.7114H59.7079L59.4691 91.4725L58.9914 91.2337V90.9949V90.756V90.756V90.5172L58.7526 90.2784V90.0395V89.8007V89.8007L58.0361 89.323L57.5584 89.0842V88.3677H57.7973L58.0361 88.1289L58.2749 87.8901L58.5138 87.6512H58.7526H58.9914V87.1736V86.6959L59.2303 86.2182H58.9914L59.4691 85.9794L59.7079 86.2182H59.9467L61.3797 85.5017L61.8574 85.2629H62.3351H63.2904V85.0241L63.7681 84.7852L64.2457 84.3076V84.3076L64.4845 84.0687V83.8299L64.0069 83.3523V83.3523V83.1134V82.8746V82.8746V82.6358L63.7681 82.3969L63.5292 81.9193L63.7681 81.4416L64.0069 81.2028V81.2028V80.4863L64.2457 80.2474H64.4845L64.9622 80.0086V79.7698L64.4845 79.2921V79.2921L64.2457 79.0533L64.7234 78.5756H64.9622L65.201 78.3368L65.6787 77.8591L65.4399 77.3815V76.4261V75.4708V75.232H65.6787L65.9175 74.7543L66.1564 74.5155L66.634 73.799V74.0378L67.3505 74.2766V73.3213V73.0825L67.5894 72.8437L67.8282 72.366L68.067 72.1272V71.8883H68.7835V71.8883L69.0223 71.4107V70.933V70.933L68.7835 70.4553V69.5H69.2612H69.7388L70.2165 69.9777L70.6942 70.2165L70.933 70.4553L71.4107 70.2165H71.6495L71.8883 69.7388V69.5L72.1272 69.7388V69.2612L72.366 69.0223V69.0223L72.8437 68.5447L73.0825 68.3059L73.3213 68.5447L73.5602 68.3059V68.3059V68.067V67.8282L73.799 67.3505V67.3505V67.1117L74.0378 66.8729L74.2766 67.1117L74.5155 66.634V66.634L74.7543 66.3952L74.5155 66.1564V65.9175L75.232 66.1564L74.9931 66.3952H75.232V66.3952L75.4708 65.6787V65.4399H76.1873H76.9038V65.4399H77.3815L77.6203 65.6787V65.9175L78.3368 66.1564V65.9175H78.8144H79.5309L79.2921 65.4399L79.0533 64.9622V64.4845V64.4845L79.2921 64.2457V64.0069H79.5309V63.7681H79.7698H80.0086H80.2474L80.4863 64.0069L80.7251 63.5292H80.9639L81.6804 64.0069L81.9193 63.7681H82.3969H82.6358L82.8746 63.5292V63.5292V63.2904V62.8127V62.3351H83.1134H83.3523L83.5911 62.8127L84.0687 63.0516L84.7852 62.5739L85.2629 62.3351L85.9794 62.0962H86.4571L86.6959 61.8574L86.9347 62.0962H87.4124V61.8574V61.6186H87.6512V61.3797L87.8901 61.6186H88.1289V61.8574L88.6065 61.6186V61.8574H88.8454L89.0842 61.6186V61.3797V61.3797L89.323 60.9021L89.5619 60.6632L89.8007 59.9467L90.0395 59.4691V58.9914L89.8007 58.0361V57.5584V57.3196H90.0395L90.756 56.3643H91.4725L92.189 55.8866L91.7114 54.9313H92.4279H92.9055H93.1443L93.3832 54.6924H93.1443V53.976H93.3832L93.622 54.2148V54.9313L94.0997 54.4536L94.5773 53.7371L94.3385 53.4983V53.4983L93.8608 52.7818H93.622V52.543L93.8608 52.3041L94.0997 52.0653L94.3385 51.5876H94.5773V51.3488H94.8162H95.5327V51.11L96.0103 51.3488L96.2492 51.5876L96.9657 51.8265L97.4433 51.5876L97.6822 51.3488V51.11L98.1598 50.8711V50.8711V50.6323L98.3986 50.3935L98.8763 50.1546V49.9158H99.1151L99.8316 50.1546H100.309H100.787L101.026 50.3935V50.3935H101.265L101.026 50.6323L101.503 50.8711V50.6323L102.22 50.8711L103.653 51.3488L103.892 51.8265V51.8265V52.0653L103.414 52.543L104.369 52.7818L104.608 52.543L105.325 52.7818L105.802 52.543L106.041 52.7818L106.28 52.543V52.7818L106.519 53.0206V53.2595H107.235L107.713 52.543V52.543V52.543V52.543V52.0653L107.952 51.8265L108.191 52.0653L108.43 51.8265H108.907L109.146 51.5876V51.5876V51.8265L109.385 52.0653V52.0653L109.624 52.3041V52.543H109.863L110.101 52.3041L110.34 52.0653L110.818 51.5876V51.3488H111.057H111.534L111.773 51.11H112.012L112.251 50.8711V50.6323L112.49 50.3935L112.251 50.1546L112.012 49.9158H112.49V49.9158H112.729V49.9158L112.49 50.1546L112.729 50.6323H112.967H113.206H113.684H113.923L114.162 50.3935L114.639 49.9158V49.677V49.1993L115.117 49.677L115.356 49.9158V50.1546L115.595 50.6323L115.833 50.8711L116.072 50.6323L116.311 50.1546L116.072 49.4382H116.311L116.789 49.1993V49.1993V49.1993L117.028 48.9605H117.505V48.4828L117.744 48.244H118.938H119.416V48.4828L119.655 48.244H120.371H120.61H120.849L121.565 48.9605L121.804 49.1993V49.4382H122.043L122.282 49.677H122.521L122.759 49.4382V48.9605L122.998 48.7217L123.954 48.244L124.67 48.0052V48.0052V47.7663V47.7663V47.5275V47.0498V46.811V46.3333L125.148 46.5722H125.387V46.3333V45.8557V45.1392V44.9004L125.148 44.1839V43.945H125.864H126.103L126.342 43.7062L126.581 44.1839L126.82 45.1392V45.378L126.581 45.8557L127.297 46.3333V46.3333L127.058 45.8557H127.536V45.378L128.253 45.8557L127.775 46.811L128.014 47.0498H128.73L129.208 46.0945H129.686H129.924H130.402V45.8557L130.641 46.0945L131.119 45.378V45.1392L130.88 44.9004V44.9004H131.119V44.6615L131.357 44.9004L131.835 44.6615H132.074L132.313 44.4227L132.552 44.1839V43.7062L132.79 42.9897V42.512L132.552 42.2732L132.313 42.0344L132.552 41.3179L132.79 41.079V41.079V40.8402L133.029 40.3626H133.268V40.3626L133.746 40.1237H134.223H134.462V39.8849V39.8849L134.701 38.9296V38.9296L134.94 38.4519H135.179V38.4519L135.418 38.2131H135.656V38.2131L136.134 37.7354L136.612 37.2577L135.895 37.0189L136.134 36.3024L135.656 36.0636L135.418 35.5859V35.3471V35.1083L136.373 34.6306L135.895 34.1529H136.134L136.612 33.6753L136.851 33.4364L137.328 32.7199H137.567H137.806L138.284 33.1976L139 32.9588H139.239H139.717V32.9588L140.672 32.7199V32.4811V32.2423L140.911 32.0034L141.15 32.2423V32.0034L141.388 31.7646V31.5258L141.15 31.2869L141.388 31.0481V30.5705V30.3316H141.15V29.6151V28.421L141.388 27.7045V27.4656H141.627H141.866H142.105V27.2268H141.866V26.7491L141.388 26.2715V26.2715V26.0327H141.15L140.433 26.2715H140.194L139.478 26.0327H139.239L139 26.2715H138.522L138.761 25.7938V25.555L139 25.0773L139.239 24.8385L138.522 24.5997L137.567 24.3608H137.328H136.851L136.373 24.122L136.612 23.6443V23.6443L137.089 23.1667L137.328 22.9278V22.9278L137.567 22.4502L137.806 22.689V22.4502H137.328V22.2113L137.567 21.9725H137.806L138.045 21.7337V21.256L137.806 21.0172H137.567L137.328 20.7784H136.851V20.5395V20.0619V19.823V19.3454Z" fill="url(#paint0_linear_32_188)"/>
<defs>
<linearGradient id="paint0_linear_32_188" x1="144.374" y1="0" x2="144.374" y2="327.438" gradientUnits="userSpaceOnUse">
<stop stop-color="#313030"/>
<stop offset="1" stop-color="#111111"/>
</linearGradient>
</defs>
</svg>
