<svg width="374" height="340" viewBox="0 0 374 340" fill="none" xmlns="http://www.w3.org/2000/svg">
<path fill-rule="evenodd" clip-rule="evenodd" d="M29.6875 113.713L30.3306 113.177L30.6521 112.641L31.0808 111.998L31.5095 111.569L32.7956 110.819L34.5104 109.855L34.7248 109.64L35.0463 109.212L35.6894 108.569L36.5468 107.497L37.7257 106.211L39.119 105.996L40.0836 105.889L40.5123 105.782L42.6558 105.139L43.406 105.032L44.049 105.246L44.6921 105.353L45.4423 105.568L46.9428 106.318L47.2643 107.068L50.6939 110.498V112.32V112.963L50.9083 114.999L51.5513 115.856L51.98 116.607L52.3015 117.143L52.9446 118.321L53.0518 118.643L53.2661 119.179L53.802 119.608L54.1235 120.143L54.6594 120.251L55.7311 120.465L56.3742 120.572L58.9464 120.894L60.3397 120.679L61.1971 120.358L62.2688 119.822H62.8047L63.6621 119.179L65.1626 118.429L66.4487 117.893L66.9845 117.678L67.0917 117.571L68.1635 117.035L68.8065 116.714L69.4496 116.392L70.0926 116.071L70.7357 115.749L71.0572 115.642L71.7003 115.321L73.0935 114.678L73.7366 114.57L76.7375 113.82L77.9164 113.606L78.9882 113.284L80.2743 112.963L80.5958 112.856H81.346H82.0963H82.525H83.3824H84.0254H84.7756H85.4187L86.9191 112.748L89.8129 112.641H91.742H92.5994L93.8855 112.105L94.6358 111.784L96.5649 111.034L97.3151 110.712L98.7084 110.069L99.4587 109.855L100.745 109.319L101.602 108.89L101.817 108.783L102.46 108.676L102.674 107.282L102.888 105.782L102.995 105.353L103.103 104.71L103.531 102.352L103.746 100.959L104.282 100.102L104.925 99.1371L106.211 97.3151L106.425 97.1008L106.961 96.2434L108.033 95.386L108.997 94.5286L109.747 93.8855L109.962 93.7784L110.498 93.3497L110.926 92.921L111.784 92.2779L112.427 91.742L113.177 90.6703L113.713 90.0272L114.356 89.277L114.999 88.5268L115.321 88.0981L115.535 87.7765L115.749 87.0263L115.964 86.2761L116.285 85.2043L116.714 84.0254L117.035 82.7393L118 79.6312L118.107 79.3097L118.214 78.9882L118.429 78.3451L118.75 77.4877L118.857 76.7375L118.965 76.416L119.179 75.6657L119.5 74.4868L119.715 74.1653L119.929 73.9509L120.143 73.6294L120.358 73.3079L120.572 73.0935L120.787 72.772L121.43 71.9146L121.858 71.3787L122.18 71.0572L122.501 70.6285L122.93 70.1998L123.359 69.6639L123.68 69.2352L123.895 69.0209L124.323 68.8065L124.859 68.5922L125.824 68.1635L127.11 67.6276L130.111 65.8056L130.432 65.5913L130.754 65.3769L131.075 65.1626L133.433 63.7693L133.755 63.5549L135.255 62.5904L136.005 62.1617L137.292 61.4114V61.4114L137.613 61.1971L137.935 60.9827L139.542 60.3397L140.507 59.911L140.721 59.8038L141.364 59.5894L144.687 58.089L146.616 57.2316L146.937 57.1244L147.044 56.9101L148.223 54.0163L148.438 53.6948L148.545 53.3733L149.402 51.0154L150.153 50.2652L151.117 49.0863L152.618 47.2643L152.939 46.9428L156.047 40.7266L156.583 39.762L156.69 39.4405L156.905 39.119L157.012 38.7974L157.655 37.6185L157.762 37.4042L159.905 33.2243L160.013 33.01L161.192 30.6521L161.299 30.2234L161.406 29.9019L161.62 29.1517L161.835 28.6158V28.2943L162.263 26.901L162.371 26.4723L162.906 24.7575V24.436L163.014 24.0073L163.121 23.5786L163.335 23.0427L163.871 21.1135L164.3 19.3987L164.836 17.3624L165.157 15.8619L165.479 14.7902L165.8 13.2897L166.014 12.6467L166.122 12.3252L166.336 12.218L168.908 11.1462L170.301 10.6104L173.302 9.32425L174.267 8.89555L174.589 8.78837L174.91 8.6812L177.054 8.14532L178.125 7.82379L179.09 7.50227H179.411L179.733 7.39509L182.091 6.75204L183.484 6.32334L183.913 5.68029L184.02 5.57311L184.234 5.35876L184.449 5.14441V5.14441L185.092 4.60854L186.271 3.64396L186.485 3.42961L187.021 3.00091L187.342 2.78656L187.664 2.46503L188.307 1.92915L189.272 1.07175L189.915 0.535876L190.558 0L190.022 2.67938L190.343 3.75113L189.915 3.85831L188.2 6.32334L187.45 7.07357L186.699 9.1099V9.86012L187.021 10.8247L187.128 11.1462L194.63 11.2534L199.132 11.5749L204.598 12.0036L207.491 12.1108L210.492 12.3252L213.707 12.4323L213.172 14.1471L214.351 14.4687L215.208 16.2906L214.351 17.5767L212.529 18.2198L211.457 20.0418L211.778 22.1853L212.743 22.2925L214.029 22.3996L214.565 21.7566H215.958L216.28 21.1135L216.601 21.0064L217.459 21.7566L217.351 23.3642L216.28 26.5795L216.601 27.544L216.173 27.8656L215.744 31.0808L217.78 32.7956L217.673 33.5459L216.28 36.1181L214.779 35.7965H214.458L214.136 36.6539L214.243 37.8329L215.422 38.1544L215.958 38.6903L216.065 39.6548L217.03 40.8338V42.5486L218.959 42.3342L219.281 40.4051L220.995 40.7266L221.96 40.5123L222.817 41.2625L223.782 41.1553L224.639 40.941L226.033 39.119L227.426 38.7974L228.39 39.2261L228.712 39.762L229.462 39.6548L231.07 40.7266L231.391 42.0127L232.356 42.4414L232.249 42.5486L231.606 43.6203L232.142 44.7993H233.428L233.749 45.228L234.607 45.0136L234.821 44.6921L235.143 44.5849L235.678 44.4777L236.321 44.5849V45.4423L236.965 46.5141L236.857 46.8356L238.786 47.4786L239.001 46.6212L240.394 46.5141L241.037 46.1925L241.359 45.871L241.787 45.4423L242.43 46.6212L243.181 47.0499H243.609L244.145 46.1925L245.753 46.0854L245.967 45.228L247.146 45.1208L247.682 44.6921L247.789 44.3706L248.432 44.5849L247.896 46.1925L247.575 47.0499L248.861 47.4786L249.075 46.4069L249.397 46.0854L250.254 45.6567L251.004 45.7638L251.112 46.8356L250.576 47.693L251.004 48.1217L251.648 48.6576V48.6576L251.219 49.3006L250.683 50.158L249.826 50.2652L249.718 51.1226L249.504 51.5513L251.004 52.1944L250.361 53.0518V55.0881L252.398 55.3024L252.826 56.4814L252.612 57.6603L254.327 57.4459L255.613 57.7675L255.827 57.9818L256.149 59.6966L255.506 60.3397L255.291 61.3043L254.113 61.5186L254.005 62.0545L254.863 63.4478V65.2697L255.935 66.3415L255.291 68.8065L256.578 70.6285L257.113 75.4514L257.435 75.7729L257.757 77.1662L258.721 77.059L259.043 77.4877L260.436 77.7021L260.865 80.4886L262.365 80.9173V81.6675L262.687 81.8819L263.437 82.7393L265.473 83.2752L265.366 84.0254L267.509 85.0972V85.633L266.974 86.3833L266.866 87.1335L267.617 87.3478L268.26 86.812L268.796 86.9191L268.903 87.2407L269.331 87.1335L269.653 87.6694L271.689 88.2052L271.904 87.7765L272.225 87.9909V88.5268L273.297 89.0626L273.511 90.1344L273.726 90.4559L274.583 90.5631V90.6703L274.69 91.4205L275.226 91.2062L276.083 92.4923L277.37 93.2425L276.941 94.6358L277.048 95.1716L278.87 96.029L278.549 96.9936L279.406 97.208L279.835 98.4941L280.585 99.3515L280.371 99.8873L279.406 99.7802V98.7084L277.798 98.4941L276.405 99.5658L276.191 100.638H275.655L274.154 101.709L273.94 102.245L275.869 102.888L276.083 103.424L275.548 104.067L275.655 104.282L276.727 103.853L277.262 102.567L277.905 102.781L278.12 103.21L277.37 104.067L276.834 104.174L277.048 105.032L275.762 104.925L275.333 105.246L275.44 105.889L276.191 106.318L275.762 106.747H274.797L274.69 107.282L276.083 107.497L275.226 108.569L275.44 108.783L275.119 109.855L274.262 109.64L274.047 109.104L273.404 109.962L273.618 110.819L274.797 110.605L275.655 111.141L275.226 111.677L275.548 111.891V112.641L275.012 113.284L276.834 113.606L277.048 113.391L278.763 114.142L279.192 113.606L280.049 113.927L280.371 113.07L281.764 113.82L282.085 114.142V114.785L284.014 116.071L284.872 114.892L285.408 114.999L286.158 114.463L285.408 114.142L285.301 113.713L284.872 113.284L284.658 112.748L285.086 112.213V111.677L283.693 110.819L284.229 108.14L283.479 107.711L283.264 106.854L284.014 105.782H284.979L285.729 105.246V104.817L285.301 104.71L284.872 105.139L284.122 104.389V103.96L285.301 104.174V104.282L285.944 104.389L286.908 103.424L287.873 103.531L288.945 104.389V105.353L289.266 105.568L290.016 105.782L290.874 105.353L291.624 103.21L290.981 103.317L290.445 102.352L289.48 102.031L289.695 101.709L290.981 101.495L291.731 100.638L290.659 100.102L290.123 99.4587H289.373L289.159 99.2443L289.266 98.9228L288.409 98.7084L288.516 98.1725L289.695 97.9582L291.195 98.3869L291.624 98.8156L291.945 99.8873L292.588 100.102L293.339 99.9945L293.446 99.673L294.732 99.7802L295.161 99.4587L296.661 99.3515L296.554 100.102L297.411 100.316L297.304 100.852H297.733V101.709L296.232 101.388L295.697 102.352L296.125 102.674H296.554L297.733 103.638L297.197 103.96L296.018 103.853L295.911 104.389L296.232 104.603L297.519 104.496L298.054 105.139L298.912 104.603L299.448 104.925V106.532L299.126 107.818L299.448 108.247L300.734 107.604L302.02 106.318H303.628L304.699 105.889L304.163 103.531L304.271 102.138H305.557L305.985 101.281L306.307 101.173L306.736 100.423L308.022 100.53L308.665 99.673L310.272 99.2443L310.38 98.6012L310.165 97.4223L310.808 97.1008L310.701 96.5649L311.559 96.4577L311.987 95.9219H312.952H313.273L313.38 96.5649L314.667 96.7793L314.881 96.8864L314.131 97.5295L315.738 98.9228L316.596 99.3515V99.5658L317.453 99.8873L316.81 103.317L315.631 106.854L315.846 107.818L315.631 110.391L316.489 110.712V111.784L315.953 111.891V114.785H314.988L314.881 115.428L315.095 116.071L314.559 117.357L314.131 120.036L314.988 120.358L315.417 121.108L314.881 121.43L314.131 121.001L314.024 121.215L314.559 121.644L314.452 122.18L315.095 123.252L315.846 123.037L316.274 122.394L317.775 123.252L318.203 120.894L318.846 119.179L319.275 119.286L319.597 118.965L320.347 118.857L321.311 119.822L322.49 119.286L321.954 118.107L321.204 118.214L320.776 117.571L319.918 117.464L320.133 116.5L320.668 115.428L322.169 115.964L323.348 116.821L324.205 116.607L324.42 116.821V117.25L325.491 116.821V115.642H326.456L326.777 115.749H326.885L327.099 115.642L327.313 115.321L327.849 116.392L328.707 116.607L328.921 117.035L329.778 116.5L330.207 115.642L331.064 116.285V116.392L331.172 116.607H331.707L331.922 116.714L332.136 117.035L332.351 117.678L332.136 118L332.243 118.429V118.643L332.351 119.179L332.565 119.393V119.608L331.922 119.929V120.572V120.679L332.136 120.894L332.351 120.787H333.101L333.529 121.001V121.43V121.751L333.744 122.18L333.529 122.287L333.744 122.501V123.037L334.065 123.466L333.851 124.002L332.672 125.288L332.565 125.717L332.886 126.145L333.101 126.252L333.315 126.36L333.637 126.145L333.958 126.252L334.172 126.36V126.36L334.28 126.574L333.958 126.788L333.744 127.217L333.637 127.324H333.422V127.646V128.396L333.529 128.503H333.744L333.851 128.717L333.744 128.932L333.529 129.039V129.361L333.637 129.575L334.065 129.789L334.172 130.004H334.601L334.923 130.218L335.351 130.004L335.566 130.218L335.673 130.539L335.78 130.647L335.994 130.754L336.102 130.968L335.994 131.397V131.504V131.718L336.102 131.826L336.209 131.933L336.53 132.04H336.638H336.745L336.852 132.254L336.959 132.576V132.576L337.173 132.361L337.281 132.469L337.173 132.576H337.281V132.576L337.495 132.683L337.709 132.79L337.602 133.005L337.709 133.219L337.602 133.326H337.388L337.173 133.433L337.066 133.862V134.291V134.505L337.173 134.719L337.602 135.041L337.709 135.577V136.005L338.888 136.327H338.995L339.21 136.648L339.638 136.327L340.174 136.434L340.603 136.648L340.71 136.97H340.925V137.184L341.032 137.292L341.246 137.613L341.675 137.935L341.996 138.042L342.318 137.935V138.363V138.578L342.746 138.685L343.175 138.792L343.39 138.899L343.604 139.113L343.711 139.221H343.925L344.033 139.006L344.247 138.899L344.676 138.685L345.104 138.792V138.578H345.212L345.319 138.363L345.533 138.578L345.426 139.113V139.649L345.319 139.864L344.997 139.971L344.89 140.292H344.568L344.461 140.507L344.89 140.721H345.104L345.212 140.935V141.15L345.104 141.364L345.319 141.471L345.426 141.579V141.686L345.104 141.9V142.007L345.212 142.114L345.319 142.436H345.426H345.533L345.64 142.329L345.855 142.222L346.069 142.329V142.65L346.39 142.865V143.079V143.186V143.293V143.401L346.712 143.508V143.829L346.605 143.936L346.498 144.258V144.579L346.712 144.687H347.141H347.355L347.677 145.115L347.998 145.33L347.891 145.544L347.784 145.866L347.462 146.08L347.248 146.294L347.034 146.509H346.605L346.498 146.616L346.39 146.83H346.176L345.962 146.616L345.426 146.401H345.319V146.509L345.212 146.723L344.997 146.83V147.044L345.104 147.366L344.997 147.688L344.676 147.795H344.461V148.009L344.568 148.223L344.676 148.438V148.759L344.568 148.866L344.354 148.974H344.247H344.14L344.033 149.081L343.711 148.974L343.175 149.295L342.961 149.402L342.425 149.295L342.318 149.509L342.211 149.617L342.103 149.724L341.996 149.509L341.889 149.938L341.46 149.831L341.246 149.724L341.032 149.831L340.817 150.045H340.603L340.496 150.26L340.603 150.367H340.817L341.246 150.26L341.353 150.474L341.46 150.796L341.353 151.01L341.246 151.331L341.139 151.439L341.246 151.653H341.996L342.211 151.224L342.532 151.117L342.746 151.01V151.224L343.282 151.117L343.497 151.331L343.39 151.546V151.653L343.497 151.867L343.39 152.189L343.175 152.403L343.068 152.725L342.961 153.261L343.497 152.832H343.711L343.818 152.939L344.354 153.046V153.368L344.568 153.582H345.319L345.64 153.689L345.747 153.904L345.855 154.118L346.069 154.011L346.176 153.582L346.39 153.475L346.819 153.582L347.355 153.797L347.677 153.261L347.784 152.832L347.891 152.403H347.998L348.105 152.51L348.427 152.618L348.534 153.153L348.427 153.368L348.963 153.904L349.07 154.332V154.547L349.391 154.868L350.142 154.975L350.034 154.654L350.142 154.011L350.249 153.582L350.356 153.368L350.463 153.261L350.785 153.153L350.892 153.261L350.999 153.582L351.321 153.797L351.213 154.225L351.428 154.332V154.547L351.321 154.654L350.999 154.547V154.761H351.106H351.321L351.213 154.868L350.999 154.975L350.785 154.868V154.975V155.297L350.677 155.404H349.927L349.82 155.19L349.606 155.297L349.177 155.618L348.963 155.726L348.748 155.833L347.784 155.94V156.262L347.677 156.476L347.462 156.369H347.248V156.154L347.141 156.047H347.034L346.819 156.262L346.39 156.583L345.533 157.119L345.104 157.44L344.676 157.869L344.461 157.762V157.548H344.247L344.14 157.762H344.033L343.818 158.298H343.497L343.068 158.405H342.639L342.318 158.619L341.675 158.834L340.281 159.262L339.531 159.584L339.103 159.905L338.888 160.12H338.567L338.674 160.441V160.656L338.459 160.763V160.763L338.245 160.656L338.138 160.549L338.031 160.656V160.763L337.709 161.192H337.173V161.406L337.388 161.62V161.835L337.281 161.942L337.066 162.156L336.852 162.371L336.316 162.478L335.994 162.692L336.423 163.442L336.852 163.657L337.066 163.871V164.085L337.281 164.193V164.621L337.602 164.943L337.495 165.371V165.586V165.693L337.924 165.586L338.138 165.371L338.352 165.157L338.674 165.264L338.888 165.479L338.995 165.8L338.781 166.229V166.229H338.674V166.229V166.336L338.459 166.658L338.352 166.979H338.567L338.674 166.872L338.888 166.765H338.995H339.21H339.424L339.638 166.658L340.174 166.122L340.389 165.693L340.281 165.586L340.067 165.479L339.853 165.264V164.836H339.746V164.728L340.174 163.871L340.281 163.335L340.389 162.049H340.496H341.032V162.478L341.139 163.121H341.246L341.46 163.228L341.782 163.121H342.211L342.639 163.335L343.497 163.121L343.604 162.906L344.247 162.799L344.568 162.478L344.89 162.371V162.906L345.319 162.585L345.426 162.156H345.962L347.034 161.727L347.677 161.084L347.784 160.977L347.998 160.87L348.105 160.763L348.212 160.549L348.534 160.656L348.641 160.763V160.977H348.855L348.963 160.549H349.177L349.713 160.656L349.82 160.549L349.927 160.334V160.12V159.798L349.606 159.584V159.584V159.37L349.82 159.048L350.034 158.727L350.142 158.405H350.463L351.106 158.619V158.405L351.321 158.084V157.869H351.856L352.178 157.976L352.285 158.191L352.392 158.298L352.499 158.405L352.714 158.619H352.928L353.143 158.512L353.464 158.298L353.786 158.512H353.893H354.107L354.214 158.619L354.321 158.727H354.429L354.536 158.619H354.643L354.75 158.727L354.857 158.834H354.964H355.179L355.286 158.941L355.5 159.155H355.822V159.048L355.929 159.262L356.143 159.37L356.358 159.262L356.465 159.477L356.572 159.691L356.679 159.905H356.894H357.001V160.013V160.12L357.108 160.227H357.537V160.013L357.644 159.905L357.537 159.798L357.644 159.262V159.155L357.537 158.834L357.43 158.727L357.537 158.512L357.751 158.619L357.858 158.727V158.834V158.941V159.048H358.073L358.287 158.941H358.501V159.048H358.93L359.037 159.155V159.477L359.359 159.691L359.573 159.584H359.787L360.216 159.155H360.43L360.323 159.477L360.43 159.691L360.645 159.798L360.966 159.905L361.288 159.691L361.609 159.262H361.824H362.145L362.467 159.37V159.798L362.788 160.013L362.681 160.334L362.574 160.656H362.788L363.003 160.763V160.87L362.681 161.299L362.467 161.406V161.727L362.574 161.835L362.895 161.727L363.003 161.62L363.11 161.406L363.431 160.87V160.87L363.646 160.977H363.86V160.87L363.753 160.763L363.646 160.549V160.227L363.753 159.37L363.539 159.155V158.941H363.646L363.86 159.048H364.074H364.289L364.396 158.941L364.717 159.155L365.146 159.477L365.36 159.584L365.575 159.691H365.682L365.789 159.584L365.575 159.37V159.262L365.682 159.155H365.896L366.004 159.262V159.477L366.111 159.584H366.325V159.477V159.37L366.218 159.048L366.111 158.727L365.896 158.619V158.619L366.004 158.298V158.191H366.325L366.539 158.298L366.754 158.405V157.976V157.762H366.432L366.325 157.655V157.333L366.647 157.119H366.861H367.182L367.611 157.012L367.933 157.119L368.147 157.333H368.254L368.576 157.119H368.897L369.004 157.333L369.219 157.44L369.755 157.333L369.969 157.44L370.183 157.869H370.398H370.612L370.826 157.548L370.934 157.226H371.148L371.255 157.333V157.655H371.577L371.684 157.976V158.084L371.791 158.191L372.005 158.084H372.113L372.327 158.191L372.434 158.084L372.327 157.762H372.434L372.648 157.869L372.863 158.405H373.077V158.619L372.863 158.834L372.648 159.37L372.434 159.691L372.005 159.798L371.898 159.905L371.577 160.013L371.469 160.227V160.549V160.656H371.148L370.934 160.763H370.505L370.612 160.87H370.398V160.656L370.291 160.441L370.183 160.334L369.862 160.227L370.076 160.763L370.398 161.299V161.62L370.505 161.835L370.612 161.942L370.934 162.049L370.826 162.478L370.934 162.692L370.183 163.121L369.755 163.014L369.326 162.906H369.004L368.79 163.121L368.683 163.228V163.549L368.897 163.764L369.219 163.978L369.433 164.407V164.728L369.112 164.943H368.683H368.254L367.933 164.836L367.611 164.621L367.075 164.407L366.754 164.3H366.539L366.218 164.514L366.004 164.836L365.896 165.05V165.586L366.004 165.8L366.111 166.014L366.539 166.229L366.647 166.443L366.754 166.55L366.647 166.765L366.432 166.979L366.111 167.086L365.682 167.193L365.468 167.301L365.36 167.622V167.944L365.468 168.265V168.587L365.575 169.015L365.682 169.551L365.575 169.873L365.36 170.087L365.039 170.301L364.717 170.409L364.396 170.301L363.86 169.98L363.324 169.766L362.574 169.444L362.36 169.337L361.931 169.23H361.609H361.502L361.288 169.444L361.181 169.658L360.966 169.98L360.859 170.194L360.645 170.301L360.43 170.516L359.787 170.73L359.252 170.945H358.93L358.501 170.837H358.073H357.644L357.215 171.052V172.123L357.108 172.874L356.465 173.088L354.964 173.195L354.75 173.302L354.214 173.838L354.536 174.803L354.214 175.982L353.571 176.303L352.928 175.982H352.285L351.856 176.196L350.785 176.518L350.034 178.232L349.177 178.554L348.212 178.34L347.677 178.232L347.248 178.768L345.962 179.411L345.319 180.483L344.033 181.019L343.282 181.448L342.746 181.555L341.996 182.627L341.246 182.734L339.746 182.627L338.781 182.948H337.816L337.495 183.377L338.138 184.663L337.924 185.092L337.066 184.877H336.423L335.673 185.199L335.03 184.77H334.708L334.28 185.199L333.422 185.52L332.779 186.163L332.458 187.45L331.6 188.414L330.421 189.272L329.242 189.915L327.742 191.201L326.67 191.094H326.134H324.741L323.776 191.415L323.026 193.023L320.561 193.451L319.275 194.523L318.525 195.809L316.489 197.095L314.988 197.846L314.131 199.882L312.416 200.954L311.773 201.704L311.023 202.347L310.808 202.776V203.204L310.915 203.419V203.74L310.487 204.276L310.272 204.598L309.951 204.919L309.522 205.026L308.986 204.919H308.558H308.45L308.343 205.133V205.348L308.558 205.455L308.772 205.562V205.777L308.236 206.205L307.272 206.848L305.235 206.205L304.056 206.42L303.628 206.955L303.413 208.027L303.199 208.242L301.806 208.027L300.734 209.635L299.126 211.671L298.805 213.064L299.126 214.672L297.09 215.422L296.875 216.494L298.269 217.566L297.84 218.638L298.483 219.388L298.269 221.853L298.805 223.246L298.697 224.211L300.198 226.569V227.747L300.734 228.39L301.377 228.605L301.698 229.248L302.02 229.891V230.748L303.199 231.499L303.628 231.284L303.949 231.499L305.557 232.892L306.521 232.785L306.95 233.106L308.022 232.785L309.201 233.321L308.879 233.964L309.308 234.499L312.416 233.642L314.559 233.964L316.06 235.143V236L316.274 236.214L317.024 236.107L317.346 235.143L320.133 235.035L320.776 233.856L321.526 234.071L322.276 233.213L323.991 233.428L325.598 234.392L327.742 234.499L327.528 233.642L328.063 233.428V233.964H328.171L328.385 231.606L330.1 230.427L331.064 229.248L332.029 228.605L333.637 229.355L334.172 229.248L334.387 229.784L333.744 230.963L334.172 231.82L333.422 233.856L333.958 233.964L334.065 233.535H334.494L335.03 234.821L334.816 235.571L333.958 236.429L334.494 237.393L335.03 237.5L335.673 238.251L336.316 238.572L336.852 240.073L335.673 240.287L335.566 242.859L335.994 243.824L335.459 243.395L334.28 244.36L331.922 245.217L330.743 243.931L330.207 243.502L328.492 243.931L327.42 243.717L326.242 243.824L326.027 243.931V244.467L325.813 245.003L325.063 244.895V244.574L323.991 245.86L322.919 245.967L322.383 246.396L319.382 245.431L318.418 245.539L317.775 246.503L315.202 247.468L314.131 247.575L313.809 248.539L312.952 248.647L313.488 249.075V250.79L314.559 252.183L314.452 252.934L315.202 252.719L315.738 253.041L315.846 253.362L315.417 253.898V254.434L315.738 254.756L316.06 255.184L315.953 255.613V256.149L314.667 256.685L311.987 256.578L310.701 257.221V257.542L312.63 259.9V260.865L314.238 260.65L315.202 260.972L317.024 260.114L317.56 260.329L317.882 261.722L318.739 262.365L320.24 262.687L321.633 265.902L321.526 268.045L321.847 269.224L321.204 270.939L320.454 271.153L320.133 272.44L319.382 272.761L319.168 273.511L318.203 273.726L317.989 274.154L317.346 274.369L316.167 273.94L315.417 273.083L315.631 271.153L315.417 270.51L314.881 270.296L314.345 271.261H313.916L313.38 270.189L312.202 270.296L311.237 271.046L312.094 272.761L312.63 273.083L312.737 273.94L312.523 274.69H312.202L312.309 275.119L312.737 275.44L312.63 275.976L312.094 276.405L312.63 277.37L312.845 278.334L312.202 278.977L312.309 280.049L313.059 281.228L313.595 282.943L315.524 284.979L315.846 285.729L316.703 286.372L316.274 287.123L315.524 287.015L314.881 289.695L313.916 289.48L312.952 289.373L310.594 290.231L310.165 289.909L309.308 288.087L308.665 287.766L307.593 287.873L307.272 288.301L306.414 287.766L305.235 286.801L305.771 284.979L306.414 284.229L306.093 283.05L306.307 282.514L305.021 283.371L304.056 283.05L303.842 283.586H302.77L302.663 284.55L301.591 284.229L302.02 285.086L300.948 285.836L300.627 286.479L301.27 287.337L299.233 288.194H298.805L298.376 287.766L298.054 286.265L296.983 285.729L296.554 284.979L295.911 285.729L294.625 285.193L294.41 285.301L294.625 285.836L294.196 286.158L293.66 285.408L291.624 284.229L290.552 284.014L288.945 284.765L288.623 285.729L287.123 285.193L285.729 285.729L285.408 284.979L285.193 282.943L284.872 282.514L285.408 281.335L284.658 280.371L283.907 281.121L283.8 281.978L282.728 282.514L283.157 284.443L281.764 286.694V287.444L282.085 287.658L282.407 289.695L282.085 290.231L282.3 291.41L281.228 291.302L280.263 291.945L278.656 292.267L277.798 293.446L276.727 294.196L274.905 294.625V295.911L275.762 296.983V297.947V298.483L275.548 299.019L274.476 299.448L273.726 300.305L273.297 300.198L271.475 301.162L270.832 300.627L270.403 300.734L269.76 301.27L269.439 301.162L268.26 301.806L267.938 301.591L267.188 302.556L266.545 302.449L266.438 301.27L266.009 300.948L265.259 300.412L263.973 300.198L263.758 301.484L264.187 301.913L265.044 302.127L265.152 302.341L264.509 302.984L264.83 303.842L264.616 304.163H263.33L263.866 305.45L263.222 306.95L262.794 305.771L262.151 305.557L261.829 305.021H260.757L260.114 304.806L258.935 305.021V304.378L258.078 304.271L257.757 303.842L257.971 303.413H258.507L258.614 303.092L257.006 301.484L255.613 300.841L254.434 299.769L253.577 299.448L253.898 296.661L254.97 295.804L256.256 293.767L257.221 294.625L258.185 294.732L258.4 294.946V295.804H258.614L258.935 296.125L259.578 295.804H261.079L261.4 294.946L262.579 294.196L262.901 294.839L263.33 294.946L263.222 296.125L263.758 296.232L263.866 297.197L265.366 296.661L265.473 296.018L266.545 295.911L266.438 295.161L266.866 295.268L267.295 294.089V292.91L269.546 292.267L269.653 290.659L268.688 290.981L268.26 290.338L267.724 290.659L267.188 289.373L265.687 289.266L266.759 286.801L266.974 285.515L267.831 285.408L268.367 285.086L268.474 284.55L269.224 284.336L268.688 283.8L268.903 283.264L268.581 283.157L268.796 282.3L268.581 281.657L268.045 281.121L266.652 281.335L265.473 279.62L265.259 277.691L265.044 277.37V276.941L266.009 276.298L265.902 275.869V275.44L266.759 274.905L267.081 274.69L267.402 274.797L267.724 273.618L268.796 274.154L268.581 275.226L269.331 276.083L270.189 276.298L272.332 275.226L272.761 274.583L272.868 273.19L272.654 272.225L272.011 272.011V271.475L272.761 271.796L273.404 270.939V270.618L272.654 270.082L272.975 269.01L271.689 268.688L271.368 268.26L271.261 267.509L270.403 267.188L269.653 267.938L269.76 267.402L269.331 267.188L270.082 266.331L270.189 265.366L269.974 264.616L269.331 264.509L269.867 262.365L269.76 261.722L267.509 260.114L265.152 260.543L263.008 261.829L262.151 263.115L261.079 263.544L260.007 263.651L258.828 262.151L257.435 262.472L256.899 262.258L255.613 262.687L254.648 263.222L253.362 263.437L245.539 261.615L244.788 261.829L243.717 261.508L243.395 262.151L242.538 260.543L242.109 260.329L242.323 259.043H242.752L242.966 257.971L243.395 257.542L244.681 257.435L244.895 257.006L244.574 256.47L243.824 256.256L242.752 254.541L242.966 253.362L243.502 253.47L243.609 254.327L244.36 253.684L244.788 254.005L244.681 254.648L243.824 255.72L245.967 256.042L247.146 257.864L247.789 257.649L248.218 257.006L251.862 255.506L252.183 254.113L249.933 254.863L248.004 254.434L247.361 255.291L246.717 255.184L246.396 254.756L245.217 254.327V253.577L245.539 253.148L245.753 252.934L245.967 253.148L246.182 252.719H246.61L246.289 252.076L245.86 251.969L245.967 251.54L245.431 250.897L245.86 250.254H246.289L246.503 251.433L247.039 251.755L247.468 253.791L248.539 250.897L247.896 249.933L247.682 248.861L248.111 248.325L249.075 248.004L249.182 247.361L248.432 247.039L242.645 247.468L242.002 247.146L241.466 247.039L241.037 247.896L241.573 249.29L240.18 250.576L239.644 251.648V253.362V254.541L238.465 254.863L237.286 255.184L236.429 256.578L233.964 255.72L231.82 254.863L232.034 254.005L231.284 254.113L231.177 254.434L230.748 254.22L230.212 253.47L230.427 252.505L229.248 251.433L228.498 252.076L228.283 250.683L227.962 250.361L227.104 250.683L226.783 251.326L227.747 253.041L227.855 254.22L228.926 256.792L228.712 257.328L228.39 258.292L227.962 258.507L228.069 259.471L228.39 259.578L228.605 259.471L229.141 258.614L229.998 259.15L230.641 259.364L231.391 259.471L232.463 259.686L233.642 260.007L234.607 259.471L235.143 260.972V261.186L234.178 262.579L234.071 264.08L233.213 264.187L232.678 265.259L231.82 266.116L230.641 266.009H229.998L229.569 265.58L229.355 265.259L228.819 264.616L227.962 263.33L227.747 263.222L226.997 260.114L226.569 260.222V262.151L225.925 262.365L226.247 263.33V263.866L226.354 264.509L226.033 264.616L225.925 265.902L226.354 266.331L226.89 265.795L227.533 265.902L227.319 266.652L226.247 268.045L226.569 269.331L224.639 269.867L224.961 271.153L224.639 272.547L223.46 272.868L223.032 273.833H223.46L224.211 273.94L224.747 274.262L225.068 273.726L226.033 274.047L226.569 274.476L226.247 275.44H226.89L227.212 275.119L227.533 275.226L227.962 275.012V275.44L227.64 276.191V276.405L227.426 276.619L226.997 276.834L226.783 277.155L226.569 278.12L225.925 278.013L226.033 278.227L225.818 279.084L225.604 279.192L225.282 279.62L224.747 280.049V280.585L224.961 280.906L224.854 281.657L224.961 282.085L224.532 282.836L223.675 283.693L224.532 284.229L225.711 284.443L227.426 284.658L228.605 284.55L229.355 284.872L229.784 285.193V285.622L229.998 285.944L229.141 287.873L229.569 288.194L231.07 288.516L230.963 288.837L231.499 289.373V290.016L232.463 290.659L232.678 291.945L233.321 292.481V293.875L233.856 294.41L233.642 295.161L232.999 295.589L232.892 296.768L231.713 297.626L230.856 298.805L230.963 299.233L230.534 299.876L230.212 301.591V302.449L230.641 302.984L230.32 305.021L231.07 305.128L231.606 306.628L231.284 307.057L231.606 308.129L230.963 308.772V309.844L230.212 310.487L230.963 311.13L231.284 312.094L231.606 312.309V312.952L230.856 313.273H230.212L229.355 314.024L228.819 315.31L227.64 316.489L225.818 317.453L225.39 316.703L224.639 316.917L224.103 317.882L223.246 318.096L222.817 318.954L221.424 318.846L220.781 319.597L220.138 319.704L219.495 320.668L217.78 320.776L217.137 322.276L216.065 322.598L215.958 324.634L215.529 325.277H214.886L214.779 326.456L213.707 326.885V327.206H214.351L214.458 327.742L215.208 329.028L215.958 328.171L216.601 328.921L218.102 329.135L218.53 329.885L219.173 330.1L220.245 329.35L221.531 329.564V329.993L222.389 330.85L221.21 331.493V331.815L222.496 331.922L223.139 331.493H223.568L223.353 332.243L222.281 332.994L220.138 332.779L219.495 333.637L217.566 335.459L214.886 335.994L214.779 337.173L213.493 337.602V338.031L211.564 338.138L210.599 337.816L210.064 337.173L208.349 336.959L207.063 337.924L206.741 338.567L205.455 339.21L204.919 338.459L203.74 337.709L203.955 336.638L203.097 334.387L202.347 333.851L202.133 333.422L201.49 333.637L200.525 333.208L199.775 334.172V334.816L199.453 335.03L198.274 334.816L197.953 333.958L197.095 333.851L196.881 333.208L196.988 332.565L197.631 331.6L197.417 329.671L196.559 329.242L196.024 328.385H193.559L193.773 327.956V327.742L193.344 327.956L193.023 327.313L193.13 326.777L191.737 326.67L191.308 326.456L190.772 325.063L190.129 324.42L189.486 324.848L189.164 326.349L187.235 326.456V325.813L184.77 322.169L184.556 321.419L182.519 321.954L181.662 320.883L180.054 323.026L179.733 322.705L179.411 321.526L179.197 320.99L178.768 320.883L177.697 321.204L176.946 321.74L176.089 321.204L176.625 319.168L177.161 318.739V318.203L176.303 317.56V316.81V316.06L176.946 315.202L176.839 314.024L177.268 313.273L175.553 311.987L173.731 311.773L171.802 313.702L171.052 313.595L170.516 312.737L170.945 312.309L170.516 311.987L170.945 310.915L170.837 309.522L169.551 309.308V308.772L168.587 307.915L168.372 307.272L167.622 306.843L167.086 305.985L166.229 305.878L165.8 306.521L165.264 306.628L164.621 305.45L164.943 304.378L165.05 303.628L164.514 302.556L164.621 302.234L165.157 300.948L165.371 300.734L165.586 300.198L166.122 299.662H166.55L167.301 299.019L167.086 296.554L166.443 296.232L166.658 295.911L166.872 293.446L166.122 292.374L164.943 291.731V290.981L164.621 290.445H163.442L163.335 292.374L163.121 292.91L162.263 293.446L161.62 294.518H160.977L159.691 295.268L157.762 293.66V293.124L158.727 291.195L157.655 290.659L157.548 290.874L157.012 290.766L156.583 290.659L154.547 289.266L154.118 289.373L154.225 288.73L152.725 286.908L153.153 285.515L154.011 285.086L153.582 284.765L153.904 284.014L155.19 282.728L155.404 281.442L156.905 281.764L157.44 279.835L157.762 280.263H158.191L158.405 279.513L159.048 278.87L158.191 278.334L157.333 279.192L156.476 279.513L154.654 278.656L154.011 277.798H153.475L152.832 277.477L153.261 276.512L153.904 275.976L153.797 274.476L153.261 272.761L151.439 274.154H150.153L149.831 273.297L148.438 274.797L148.866 276.191L147.795 277.584L147.688 277.905L148.438 278.12L148.866 278.87L147.795 279.406L145.973 280.585L145.008 279.406L143.615 278.763H142.007L141.471 279.084L137.935 278.977L136.756 277.584L136.22 276.298L136.434 274.476L134.826 274.583L131.826 273.833L129.896 272.225L128.61 274.154L128.503 274.905L128.074 274.797L128.396 276.727L126.574 276.834L126.145 275.44L125.395 274.369V273.511L125.824 272.761L125.609 272.332L124.645 272.118L123.252 272.44L122.501 271.153L122.716 270.725L122.287 270.618L121.965 270.082L121.001 269.76L121.108 270.403L119.286 270.725L119.072 269.76L118.321 270.189L117.464 268.796L118.643 267.831H119.5L120.251 268.581L121.322 268.153L121.858 266.974L121.215 266.759L120.894 267.295L120.143 267.402L118.429 266.759L117.357 266.866L116.607 266.331L115.642 266.974L115.749 267.295L115.321 267.081L114.678 267.402L113.82 267.188L113.177 266.223L111.891 266.331L110.391 265.366L110.283 264.616L110.712 264.294L110.391 263.33L108.997 262.901L108.569 263.33L106.854 263.973L106.318 264.723L106.532 265.366L104.389 266.545H104.067L103.317 265.687L103.638 265.044L103.424 264.723H102.245L101.602 264.294L100.959 265.259L101.173 266.759L100.745 267.617L100.316 267.188L98.8156 266.866L98.9228 265.259L98.2797 264.509L96.4577 265.152L95.8147 265.366L94.7429 265.259L92.3851 266.223L91.9564 266.009L91.742 265.366L90.5631 264.509L89.7057 264.83L89.0626 264.294L87.7765 264.509L87.1335 264.187L85.0972 264.401L80.5958 266.866L79.9527 266.545L79.524 265.366H79.2025L78.0236 266.009L76.9518 267.509L72.772 265.795L69.4496 264.616L68.9137 264.08L68.5922 263.758L68.3778 263.651L68.1635 263.33L67.0917 262.365L66.663 261.079L66.3415 260.436L65.9128 259.364L65.6984 258.721L65.5913 258.4L65.4841 258.078L65.1626 257.542L64.7339 256.792L64.6267 256.685L64.4123 256.149L63.9836 255.399L63.6621 254.97L62.9119 253.898L62.4832 253.255L62.2688 252.934L61.9473 252.612L61.733 251.969L61.5186 251.326L61.3043 250.683L61.0899 250.04L60.9827 249.29L60.7684 248.647L60.4469 247.146L60.1253 245.539L60.0181 244.574L59.6966 242.859L59.5894 242.216L59.0536 241.68L58.6249 241.144L57.6603 240.18L57.1244 239.644L56.5885 239.108L56.267 238.679L55.624 238.036L54.7666 237.179L54.2307 236.536L53.802 236.107L53.5876 235.035L53.3733 234.178L53.1589 233.535L52.5159 232.999L51.5513 232.034L51.0154 231.499L50.5867 230.963L50.158 230.534L50.2652 230.105L50.3724 229.355L50.4795 228.283V227.64L50.3724 227.533L50.4795 226.997V226.676L50.5867 225.282L50.6939 224.425L50.2652 224.211V223.675V223.353V222.174V221.317L50.3724 220.46V219.388L50.4795 218.852V218.209V217.351L50.158 216.816L49.9437 216.173L49.7293 215.958L49.6221 215.851L49.515 215.744L49.4078 215.637L48.5504 215.529H47.9073H47.693L47.0499 215.744L45.6567 216.387L45.3351 216.601L45.0136 216.708L44.3706 217.03H43.7275L43.1916 216.923L42.4414 217.03H41.584L40.941 217.137H40.4051L40.0836 217.244L38.3687 217.459L37.6185 217.244L37.0826 217.137L36.3324 216.816L35.3678 216.494L35.1535 216.387L33.8674 215.851L33.3315 215.637L33.01 215.315L32.9028 214.672L32.5813 213.6L32.3669 213.279L31.9382 212.743L31.2952 211.885L30.545 211.135L30.2234 210.814L29.9019 210.492L29.5804 210.385L29.2588 210.171L28.8301 209.42L28.723 209.206L28.4014 208.777L28.0799 208.134L27.8656 207.813L27.544 207.277L27.2225 206.848L26.901 206.205L26.3651 205.348L26.1508 205.026L26.0436 204.705V204.49V204.383L25.9364 203.633V203.204L25.8292 202.24L25.7221 201.275L25.6149 200.525V199.882L25.5077 199.132L25.4005 198.167L25.9364 197.417L27.2225 195.595L27.8656 194.737L27.9727 194.63L28.8301 192.272L29.0445 191.737L29.2588 190.665L29.366 190.236L29.0445 188.95L28.8301 188.093L29.2588 186.592L29.4732 185.842L29.6875 185.092L29.7947 184.341L29.6875 183.591L29.4732 182.734L29.366 181.984L29.4732 181.341L29.5804 180.59L29.6875 179.84V179.304V179.197V178.768V178.554L29.5804 178.34L29.4732 178.125V177.375L29.366 176.839L29.2588 175.982L29.0445 175.875L28.5086 175.339L27.7584 175.017L27.3297 174.589L26.901 174.267L26.3651 174.16L24.8647 173.838L24.3288 173.624L22.3996 174.053L20.0418 174.374L19.0772 174.589L17.5767 174.696H17.0409L15.9691 174.481L14.3615 174.16L13.0754 173.731L12.0036 172.767L11.4678 172.231L10.1817 171.159H10.0745L9.43142 170.837L9.00272 170.623L8.78837 170.516L4.07266 168.265L1.50045 167.086L1.07175 166.872L0.750227 165.907L0.107175 164.3L0 163.978V163.442L0.214351 162.692L0.321526 162.263L0.428701 161.835L0.535876 160.977L0.643052 160.227L0.964577 157.44V157.012L1.07175 155.618L1.17893 155.083L1.2861 154.547L1.17893 154.225L2.35786 151.117L3.00091 149.617L3.53678 148.116L3.96548 146.83L4.39419 145.866L4.93006 145.437L5.57311 145.008L6.10899 144.579L6.85922 143.936L7.28792 143.401L7.71662 142.865L8.2525 142.222L8.78837 141.686L9.21707 141.15V141.043L9.75295 140.614L10.9319 139.864L11.6821 139.328L12.218 138.792L12.6467 138.363L13.0754 137.935L13.3969 137.72L14.04 137.184L14.5758 136.648L15.5404 135.898L16.0763 135.47L16.6122 134.826L17.2552 133.969L18.0054 132.79L18.327 132.254L18.5413 131.718L18.8628 131.183L19.0772 130.861L19.7202 130.325L20.4705 129.682L21.2207 129.146L21.7566 128.61L23.0427 127.753L24.2216 124.645L24.7575 123.359L24.9718 122.93L25.5077 121.322L25.8292 120.679L25.9364 120.251L26.2579 119.286L26.4723 118.857L26.6866 118.214L26.901 117.571L27.1153 116.928L27.544 116.071L28.0799 115.428L28.5086 114.999L29.6875 113.713Z" fill="url(#paint0_linear_32_338)"/>
<defs>
<linearGradient id="paint0_linear_32_338" x1="165.654" y1="32.0782" x2="271.647" y2="406.351" gradientUnits="userSpaceOnUse">
<stop stop-color="#313030"/>
<stop offset="1" stop-color="#111111" stop-opacity="0"/>
</linearGradient>
</defs>
</svg>
