<svg width="337" height="328" viewBox="0 0 337 328" fill="none" xmlns="http://www.w3.org/2000/svg">
<path fill-rule="evenodd" clip-rule="evenodd" d="M22.3764 1.46178L22.1516 0.787111L21.9267 0.449778L22.1516 0.337333L22.3764 0.112444L22.6013 0H22.8262L22.9387 0.112444V0.337333L23.1636 0.224889H23.8382L23.9507 0.112444H24.1756V0.337333L24.288 0.449778H24.6253L24.8502 0.224889L25.1876 0.112444L25.3 0.224889H25.5249V0.562222H25.6373V0.899556L26.312 0.787111L26.4244 1.012V1.57422H26.6493L26.8742 1.46178H26.9867L27.0991 1.57422V1.79911L27.5489 2.58622L27.9987 3.48578L28.336 3.93556L28.7858 4.048L29.4604 4.38533L30.2476 4.61022L31.372 5.39733L32.4964 5.95956L33.0587 6.40933L33.6209 6.85911L33.8458 6.63422L34.0707 6.74667L33.9582 6.97156H34.6329L34.8578 7.19644L35.42 7.53378L35.6449 7.19644L36.2071 7.30889L36.8818 7.75867L38.456 8.99556V9.108L38.3436 9.22044H38.2311L38.1187 9.44533V9.55778L38.0062 9.67022H37.8938V9.78267V9.89511H37.7813H37.6689V10.0076H37.5564H37.444L37.2191 10.12V10.12V10.2324V10.3449V10.3449L37.1067 10.4573H37.2191L37.1067 10.6822L36.9942 11.0196L37.1067 11.132L36.8818 11.3569L36.9942 11.4693L36.8818 11.5818L36.7693 11.8067L36.432 12.0316L36.2071 12.4813L35.7573 13.0436L35.5324 13.2684L35.3076 13.7182V13.9431L35.1951 14.168L34.9702 14.6178L34.8578 14.8427L34.408 15.2924L34.1831 15.5173L33.8458 15.6298L33.5084 15.7422L33.396 15.9671V16.192V16.3044L33.1711 16.4169L33.0587 16.5293H32.8338V16.3044L32.7213 16.4169L32.384 16.0796H32.1591L32.0467 15.9671H31.9342V16.192L31.8218 16.5293L31.7093 16.8667L31.372 17.204L31.1471 17.7662L30.9222 17.9911L30.8098 18.216L30.5849 18.4409V18.6658L30.8098 18.8907L31.1471 19.1156L31.0347 19.3404L31.2596 19.4529L31.1471 19.6778V19.9027L30.8098 20.0151V20.1276H30.6973L30.4724 20.3524H30.2476V20.4649L30.36 20.5773L30.2476 20.6898L30.1351 20.8022L29.9102 20.9147L30.1351 21.1396L29.9102 21.3644L29.7978 21.4769V21.5893H29.5729L29.348 21.8142L29.4604 21.9267L29.348 22.1516L29.2356 22.4889L29.0107 23.1636L29.5729 23.3884L29.4604 23.5009L29.5729 23.7258L29.348 23.9507H29.1231L28.8982 24.4004L29.1231 24.6253L29.348 24.7378L29.4604 25.1876L29.5729 25.4124V25.5249L29.348 25.6373L29.1231 25.7498V25.9747L29.0107 26.0871H28.7858H28.6733L28.8982 26.312V26.4244V26.5369H28.7858L28.5609 26.6493V26.8742L28.2236 26.6493L28.1111 26.9867L28.2236 27.2116L28.336 27.324L28.2236 27.4364L28.1111 27.6613L28.2236 27.7738V27.9987L28.4484 28.2236L28.6733 28.336L29.0107 28.4484L29.348 28.5609V28.7858V28.8982L29.4604 29.1231L29.2356 29.4604L29.5729 29.6853L29.9102 29.7978V29.9102V30.1351L30.0227 30.2476V30.4724L29.7978 30.5849L29.9102 30.6973V30.9222L30.2476 31.0347L30.36 31.2596V31.372L30.8098 31.5969V31.8218L30.6973 31.9342V32.0467V32.1591L30.8098 32.384H30.9222V32.4964L30.6973 32.8338L30.9222 32.9462L31.0347 33.0587L30.5849 33.7333V33.9582L31.1471 34.5204L30.9222 34.9702L30.6973 35.3076L30.5849 35.42L30.6973 35.7573L31.2596 35.8698H31.5969L32.0467 36.2071H32.384L32.2716 36.432L31.8218 36.8818L32.384 37.3316L32.8338 37.5564L32.9462 37.6689V37.7813L33.0587 37.8938H33.396L33.6209 37.7813L34.0707 37.444L34.1831 37.3316H34.408L34.5204 37.1067L34.7453 36.8818L34.8578 36.9942H35.0827H35.1951L35.42 36.7693V36.432V36.3196L35.5324 36.2071L35.7573 36.432H36.0947L36.2071 36.2071L36.432 36.3196L36.6569 36.432H36.7693L36.8818 36.6569L36.9942 36.432H37.1067V36.3196V36.2071V36.0947H37.2191L37.444 35.7573L37.5564 35.6449H37.6689L37.8938 35.7573L38.0062 35.6449H38.1187V35.7573L38.3436 35.6449L38.6809 35.9822V36.0947L38.5684 36.2071V36.3196L38.456 36.432L38.1187 36.5444L38.3436 36.7693V36.8818H38.456L38.5684 36.9942L38.456 37.1067V37.2191V37.2191L38.5684 37.3316V37.444H38.7933L38.9058 37.7813H39.0182H39.1307V37.8938L39.2431 38.0062H39.468V38.3436V38.5684L39.3556 38.7933V38.9058L39.468 39.0182L39.6929 39.1307L39.8053 39.2431L40.0302 39.1307V39.2431V39.3556L39.9178 39.468V39.5804L39.8053 39.9178V40.1427H39.6929V40.3676L39.8053 40.5924V40.8173H39.468L39.0182 40.9298L38.9058 40.8173L38.5684 40.7049L38.456 40.8173L38.1187 41.2671L37.7813 41.492L38.0062 41.7169L38.3436 41.9418L38.5684 42.0542L39.0182 42.2791L39.1307 42.504H39.3556L39.468 42.3916L39.5804 42.504V42.3916L39.6929 42.2791H40.0302L40.2551 42.1667L40.48 41.9418L40.5924 41.7169V41.7169L40.7049 41.9418L40.9298 42.1667L41.8293 42.504L41.7169 42.2791H41.6044L41.492 42.0542L41.6044 41.492L41.9418 41.3796L42.1667 41.0422L42.2791 40.9298L42.6164 40.8173L42.9538 40.7049H43.0662L43.1787 40.5924L43.2911 40.2551V40.0302L43.4036 39.9178H43.9658L44.1907 40.0302L44.528 40.2551L44.6404 40.1427L44.4156 39.6929L44.9778 39.3556H45.3151L45.54 39.2431L45.9898 38.9058H46.4396L46.6644 38.7933V38.456L47.1142 38.0062L47.4516 37.7813L47.9013 37.3316L48.3511 36.8818L48.8009 36.432L49.1382 36.7693H49.4756V36.432L49.7004 36.0947L49.8129 35.6449V35.0827V34.8578L49.7004 34.7453L49.9253 34.408L50.4876 34.2956H50.8249L50.9373 34.5204L51.3871 34.1831H51.4996L51.7244 34.6329L51.9493 34.5204L52.1742 34.408H52.3991V34.2956V34.1831H52.624L53.0738 33.6209L53.2987 33.396L53.5236 33.1711V33.1711L53.636 33.2836H53.8609H53.9733L54.1982 32.7213L54.3107 32.4964L54.5356 32.2716L54.8729 32.0467L55.2102 31.7093L55.5476 31.5969L55.66 31.4844V31.4844L56.1098 31.5969V31.7093L56.8969 32.0467L57.3467 32.384H57.4591L57.9089 32.6089L58.1338 32.8338L58.4711 32.9462L58.8084 33.0587L59.2582 33.1711L59.5956 33.0587H59.8204H59.9329L60.1578 33.2836L60.3827 33.5084L60.72 33.7333L61.0573 33.9582L61.6196 34.1831L61.9569 34.2956L62.4067 34.408H62.6316L63.0813 34.6329L63.4187 34.8578L63.6435 35.0827L63.8684 35.42V35.5324V35.8698L63.9809 35.9822V36.2071V36.432L64.0933 36.6569V36.8818V37.444V37.7813V38.456V38.7933L64.4307 39.3556L64.6556 39.6929L65.2178 40.3676L65.6676 41.0422L66.1173 41.6044L67.2418 42.6164L68.3662 43.6284L68.9284 43.9658L69.3782 44.1907L69.828 44.3031L70.2778 44.6404L71.852 46.1022L72.1893 46.3271L72.4142 46.552H72.6391L72.7515 46.6644H73.5387L73.6511 46.552L73.9884 46.6644H74.2133L74.6631 46.7769L74.888 47.2267L75.3378 47.6764L76.1249 48.2387L76.3498 48.3511H77.0244L77.5867 48.6884L78.0364 48.8009H78.3738L79.0484 49.1382L80.2853 49.4756L80.96 49.7004L81.8596 49.9253L82.0844 50.0378L82.5342 49.8129L82.6467 49.7004H82.8715L82.7591 49.8129V49.9253V49.9253H82.8715L82.3093 50.2627L82.0844 50.6L81.972 50.8249V51.0498L81.7471 51.2747L81.6347 51.4996L81.4098 51.7244L81.5222 51.9493L81.4098 52.1742L81.1849 52.2867L80.96 52.5116L80.7351 52.624L80.3978 53.0738L80.1729 52.9613H79.948L79.8355 53.0738V53.1862L80.0604 53.2987V53.5236L79.4982 53.7484L79.2733 53.8609H79.0484L78.8235 53.7484L78.7111 53.9733L78.8235 54.1982L78.936 54.3107V54.4231L78.7111 54.5356H78.5987H78.4862H78.3738L78.2613 54.4231L78.0364 54.1982L77.924 54.0858L77.8115 53.9733L77.6991 53.7484V53.636V53.5236V53.4111L77.8115 53.1862H77.6991V53.1862L77.5867 53.4111L77.3618 53.9733L77.2493 54.3107L76.912 54.8729L76.5747 54.9853L76.4622 55.0978L76.6871 55.2102V55.3227L76.5747 55.4351H76.4622L76.5747 55.5476L76.6871 55.8849H76.5747H76.4622H76.3498V56.1098L76.2373 56.2222L76.1249 55.9973V55.7724L76.2373 55.66V55.5476V55.4351L76.1249 55.3227L75.9 55.4351H75.7876L75.6751 55.5476L75.5627 55.4351L75.4502 55.3227L75.3378 55.2102V55.2102L75.2253 54.9853V54.8729L75.1129 54.9853L74.888 55.0978L74.7756 55.2102H74.5507H74.4382V55.3227V55.4351L74.3258 55.5476L74.2133 55.66L74.1009 55.7724L74.2133 55.8849V55.9973H73.9884H73.876V55.9973V55.8849L73.7635 55.7724H73.6511L73.5387 55.66V55.7724L73.6511 55.8849V55.8849H73.5387H73.4262V55.9973V56.1098L73.5387 56.4471V56.5596L73.4262 56.672V56.672L73.2013 56.5596L73.0889 56.672L72.864 56.4471L72.9764 56.672V56.7844L73.0889 56.8969H73.5387L73.6511 57.0093L74.1009 57.3467L74.3258 57.4591L74.5507 57.5716L75.0004 57.9089L75.3378 58.3587L75.1129 58.4711L75.2253 58.5836V58.5836L75.4502 58.9209L75.7876 59.2582H76.0124L76.1249 59.1458V59.2582V59.3707L76.0124 59.4831L76.1249 59.5956L76.3498 59.708H76.4622V59.708V59.8204L76.5747 59.9329L76.912 60.1578L77.3618 60.2702V60.2702L77.4742 60.1578L77.5867 60.0453L77.6991 60.1578L77.8115 60.0453H77.924L78.0364 59.9329L78.1489 59.8204H78.2613L78.1489 59.9329L78.3738 60.1578H78.4862V60.0453L78.7111 60.2702V60.1578L78.8235 59.9329L78.936 60.0453V59.9329L79.0484 59.8204L79.2733 59.9329V59.9329L79.1609 60.0453V60.1578V60.1578L79.0484 60.2702H79.2733V60.3827V60.3827V60.3827L79.4982 60.4951V60.4951H79.6107H79.7231V60.3827V60.3827L79.8355 60.4951L79.7231 60.6076H79.8355V60.6076V60.72H79.7231V60.72V60.8324V60.8324L79.8355 60.9449H79.948V60.9449L80.0604 61.0573H79.948V61.1698L80.0604 61.2822L80.1729 61.3947H80.0604L79.948 61.6196H79.8355V61.732L79.948 61.8444L80.1729 61.9569L80.2853 61.8444V61.732L80.5102 61.8444L80.6227 61.9569V62.0693H80.5102H80.3978L80.2853 62.1818L80.5102 62.2942L80.6227 62.4067H80.7351V62.4067V62.2942L80.8476 62.4067L80.96 62.6316V62.744H80.8476L80.7351 62.6316H80.6227L80.7351 62.744L81.0724 62.9689V63.0813L81.2973 62.9689V62.9689V63.0813V63.1938L81.1849 63.3062L81.0724 63.4187V63.5311L81.1849 63.6436L81.2973 63.8684V63.8684V63.9809V64.0933V64.2058L81.1849 64.3182V64.4307H81.2973L81.4098 64.3182H81.6347V64.3182V64.5431L81.5222 64.6556V64.768L81.6347 64.8804V64.9929V65.1053L81.7471 65.2178L81.6347 65.3302L81.5222 65.4427L81.1849 65.6676V65.78L81.2973 65.8924L81.6347 66.0049H81.8596L82.0844 66.1173L82.1969 66.0049L82.5342 65.5551L82.8715 65.6676V65.6676L83.0964 65.78L83.4338 66.0049L83.6587 65.6676L83.7711 65.4427L84.1084 65.6676H84.2209V65.5551L84.3333 65.4427L84.2209 65.3302V65.2178H84.3333H84.4458L84.3333 65.1053H84.4458L84.5582 64.8804H84.6707L85.008 64.9929V65.1053V65.3302V65.4427L85.1204 65.5551H85.2329L85.4578 65.6676H85.5702V65.78H85.4578V65.8924L85.5702 66.0049L85.6827 66.1173L85.7951 66.4547L86.02 66.2298H86.2449L86.3573 66.3422L86.5822 66.4547L86.8071 66.2298L87.032 66.1173L87.1444 65.6676L86.8071 65.5551L86.6947 65.3302L86.4698 65.4427L86.3573 65.5551L86.02 65.4427L86.1324 65.2178V64.9929L86.3573 64.768L86.2449 64.4307L86.1324 64.3182L86.2449 64.2058V64.2058H86.4698L86.5822 64.4307L86.8071 64.6556L86.9196 64.768H87.1444L87.032 64.4307L87.1444 64.3182V63.9809L86.9196 63.8684L86.8071 63.756L86.9196 63.5311H87.1444L87.3693 63.756L87.5942 64.0933L88.044 64.2058H88.2689L88.8311 64.4307L89.7307 65.1053L89.9555 65.3302L90.4053 65.6676L90.7427 65.78L90.9676 65.6676V65.3302L91.3049 65.5551L91.5298 65.6676L91.8671 65.8924L91.9796 66.1173L92.2044 66.5671V66.792V67.1293L92.092 67.4667L91.8671 67.6916L91.7547 68.0289V68.2538V68.4787L91.8671 68.816L91.9796 69.0409L92.2044 69.2658L92.5418 69.4907L92.7667 69.7156H93.2164L93.104 69.828H92.9915V70.1653L92.8791 70.3902L92.6542 70.7276L92.5418 70.9524L92.6542 71.0649L92.7667 71.2898H93.2164V71.4022L93.104 71.5147H93.4413L93.6662 71.2898H93.7787H93.8911L94.116 71.4022L94.0035 71.2898L93.8911 71.1773V71.0649V70.9524L94.0035 71.0649V71.1773H94.116L94.2284 71.0649L94.3409 71.1773H94.4533L94.5658 71.0649L94.7907 70.84L95.5778 71.4022L96.3649 71.7396L96.4773 72.0769L96.5898 72.3018L96.9271 72.4142V72.5267L97.6018 72.9764L98.164 73.3138L98.5013 73.5387L98.9511 73.6511L99.0635 73.876L99.2884 73.6511V73.5387V73.4262L99.4009 73.3138L99.5133 73.4262L99.6258 73.5387H100.188H100.525L100.863 73.6511L101.312 73.7636L101.65 73.876V73.6511L101.537 73.5387V73.4262V73.2013L101.65 72.9764L101.762 72.864V72.7516H101.987V72.9764L102.1 73.2013V73.3138L102.212 73.4262V73.5387L102.437 73.6511V74.1009L102.549 74.5507V74.6631L102.774 74.7756V74.7756H103.112L103.224 74.6631H103.449V74.6631H103.561H103.674L103.899 75.0004L104.011 75.1129V75.2253V75.4502V75.5627L103.899 75.7876L104.124 75.9L104.348 76.1249H104.461V76.2373L104.348 76.5747L104.236 76.6871V76.7996V77.0244L104.124 77.2493L104.348 77.4742L104.573 77.8116L104.348 78.3738V78.8236V78.936L104.798 79.0485L105.023 79.1609V79.0485H105.248V78.8236H105.36H105.473V78.7111V78.7111L105.923 78.8236H106.148L106.372 78.936L106.597 78.8236L106.822 78.5987H107.272H107.722L108.059 78.936L108.396 78.8236H108.846L109.071 78.7111L109.296 78.3738L109.521 77.924L109.858 77.6991L110.083 77.4742V77.2493L110.758 77.5867V77.8116H110.87L111.095 77.6991L111.208 77.8116V78.0364L111.432 78.2613L111.095 79.1609L110.87 79.4982L111.095 79.7231L111.32 79.8356L111.882 79.6107L112.22 79.3858L112.669 79.4982L113.007 79.0485L113.232 78.936H113.344V79.1609H113.569L113.681 78.8236L114.019 79.0485L114.356 78.936L114.693 78.8236L115.031 79.0485V79.2733L115.256 79.3858H115.593L115.818 79.6107V79.7231L116.155 79.8356L116.605 80.0604L116.83 80.1729L116.942 79.7231H117.167L117.504 79.8356L117.617 79.4982L117.729 79.1609L117.954 79.2733L118.179 79.3858L118.516 79.2733L118.629 79.1609L118.854 78.7111L119.191 78.5987L119.528 78.4862L120.091 78.5987H120.428H120.54L120.765 78.1489L120.99 77.8116L121.328 77.924H121.665L121.89 77.8116L122.34 77.924V78.3738L122.564 78.7111H122.677L122.902 78.3738L123.127 78.5987V79.0485L123.352 79.2733L123.014 79.6107L122.902 79.8356L122.677 79.6107L122.452 79.4982L122.34 79.6107L122.452 79.948L122.677 80.0604V80.3978H122.452V80.1729H122.227L122.115 80.3978L122.34 80.5102L122.452 80.7351L122.677 80.6227L122.452 81.0724L122.227 81.5222V81.7471L122.002 82.0844L121.89 81.8596L122.002 81.6347L121.777 81.5222L121.665 81.6347L121.44 81.8596L121.328 82.0844V82.3093L121.552 82.4218L121.665 82.1969L121.777 82.3093L122.002 82.5342L122.452 82.4218L122.677 82.3093L122.902 82.0844H123.127V82.3093L123.239 82.1969L123.352 81.972L123.127 81.7471L123.352 81.5222L123.127 81.4098V81.0724L123.352 80.96L123.576 80.8476L123.689 80.7351V80.6227L123.914 80.3978H124.139H124.364L124.701 80.5102L125.151 80.8476V81.0724L126.05 81.2973V81.5222V81.7471L126.163 82.0844L125.376 81.8596H125.151L124.813 81.6347H124.476L124.251 81.7471L124.139 81.8596V81.972L124.251 82.0844L124.364 82.1969L124.251 82.3093V82.4218L124.364 82.5342H124.701V82.5342L124.813 82.8716V82.8716H125.038L126.275 83.2089L126.388 83.0964L126.163 82.984L126.275 82.7591L127.287 82.984L126.5 83.6587L127.4 84.1085L127.287 84.5582L127.512 85.4578L127.4 85.6827L127.849 86.1324L128.412 86.02L129.086 85.7951L129.873 85.4578L130.66 85.2329L130.998 85.1204L131.335 84.8956L131.448 84.3333L131.897 83.7711L132.46 83.3213H132.909L132.46 80.6227L132.797 80.2853V80.3978L133.022 80.6227L133.134 80.8476L133.247 81.0724H133.359H133.472L134.146 80.96H134.708L135.158 80.8476H135.271L135.496 81.0724L135.833 81.4098L136.058 81.5222L136.283 81.7471L136.395 81.972L136.732 82.4218L136.957 82.5342L137.52 83.0964L137.857 83.4338L138.756 83.996L139.094 84.2209L139.319 84.4458L139.544 84.5582H139.656H139.881L140.443 84.4458V84.4458L140.78 84.5582L141.118 84.4458L141.343 84.6707L141.68 85.008L141.792 85.2329L141.68 85.4578L141.568 85.7951L141.343 85.9076L141.905 86.3573L142.242 86.8071V86.9196H142.467L143.029 86.8071L143.142 86.9196L143.254 87.032H143.367L143.704 87.1444L143.816 87.2569L144.041 87.3693L144.266 87.7067V88.044V88.1564V88.3813V88.3813L144.379 88.7187L144.491 88.8311V89.056L144.828 89.2809L145.278 89.6182L145.616 89.8431L145.728 89.9556L145.84 90.068L145.953 90.1804H146.065H145.953L145.84 90.4053V90.5178L145.953 90.6302V90.6302L146.065 90.7427H146.178V90.6302H146.29L146.403 90.7427H146.515V90.8551L146.403 90.9676H146.515V90.8551L146.628 90.9676H146.74H146.852L146.965 90.8551L147.077 90.9676L147.19 90.8551H147.415L147.977 90.7427L148.089 90.6302L148.427 90.5178H148.539H148.652H148.764L148.876 90.6302L148.989 90.5178H149.101L149.439 90.6302V90.7427L149.551 90.9676H149.664H149.776H150.001L150.338 91.3049H150.451L150.563 91.4173V91.5298H150.451V91.6422H150.563V91.6422V91.6422L150.451 91.7547L150.563 91.8671V92.092L150.788 92.7667L151.013 92.9916H150.9V93.2164V93.3289V93.3289H151.125H151.238L151.35 93.2164L151.575 93.4413L151.8 93.5538L152.025 93.6662L152.137 93.8911V94.0036H152.25V94.0036H152.362H152.475L152.587 94.116L153.037 95.0156L153.262 94.9031L153.374 94.5658L153.599 93.8911L153.487 93.7787H153.374L153.149 93.6662V93.4413V93.104L153.037 92.7667V92.3169L152.924 91.6422L152.812 91.4173L152.7 91.08V90.8551L152.587 90.4053L152.475 90.068V89.6182L152.362 89.1685L152.475 88.8311L152.7 88.7187L153.936 87.8191H154.499H154.611H154.724L155.061 87.9316L155.286 88.044L155.848 88.2689L156.073 88.3813H156.298L156.073 88.7187V88.8311L155.736 89.3933L156.073 89.5058L156.523 89.6182L156.185 90.068V90.068L156.523 89.9556L156.972 89.8431L157.085 90.1804L157.197 90.4053V90.5178H157.31H157.76H158.209L158.322 90.4053L158.547 90.2929V90.2929L158.884 90.7427H158.996L159.671 90.4053L159.784 90.6302V91.08L159.896 91.1924L160.233 91.4173L160.121 91.7547V92.2044L160.458 92.3169H160.908L160.796 92.6542L160.683 93.104L160.796 93.2164L161.358 93.5538L161.47 93.6662L161.808 94.116L162.257 93.7787H162.37L162.595 94.0036L162.82 94.2285V93.7787L163.382 93.8911L163.607 94.0036L164.169 94.2285V94.5658L164.281 95.0156L164.731 95.128L165.068 95.2404V95.4653V95.8027L164.956 95.9151V96.14V96.2524H165.068L165.181 96.3649H165.518L165.968 96.4773H166.305L166.868 96.9271L166.98 97.0396L167.092 97.152L167.317 97.2644L167.43 97.3769L167.655 97.7142H167.88H167.992L168.217 97.8267L168.442 98.0516L168.329 97.2644H168.554L168.779 97.0396H169.004H169.229L169.679 97.152H169.904L170.016 97.4893L170.353 97.6018H170.466L170.353 97.8267V98.0516L170.128 98.2764V98.3889V98.6138L170.241 98.9511V99.2885L170.578 99.5133L170.691 99.6258V99.176L170.916 99.4009V99.6258H171.028L171.253 99.7382H171.365L171.478 99.4009L171.703 99.2885L171.815 99.176H172.04V99.176L171.928 99.2885L171.815 99.4009L171.478 99.6258V99.6258L171.703 99.7382L171.928 99.8507H172.04H172.377V99.9631V100.188H172.49L172.827 100.076H172.94L173.052 99.7382L173.614 99.8507L173.277 100.076L173.052 100.188L172.94 100.3L173.052 100.413V100.75H173.164L173.502 100.863V100.525H173.952L174.064 100.413L174.289 100.076L174.514 99.8507L175.076 99.9631H175.301L175.188 100.188V100.413L175.076 100.638L175.301 100.975L175.751 100.638L175.863 100.75L175.976 100.975V101.2L175.526 101.537L175.413 101.65L175.301 101.762L175.413 102.1L175.526 102.212L175.638 102.324H175.751L175.976 102.662L176.088 102.212V101.875L176.2 101.987L176.538 102.1H176.65L176.763 102.324L176.875 102.437L176.988 102.549L177.325 102.774L177.437 102.887L177.662 102.999L178 103.224L178.112 103.449H178.449L179.686 103.786H179.911L180.136 103.899L180.698 104.011H181.148V104.011L181.71 104.124L182.16 104.236L182.61 104.348H182.835L183.06 104.461L183.622 104.573H183.847L183.959 104.686L184.296 105.473L184.409 105.698L184.971 106.372V107.047L184.859 107.834V108.172L185.196 108.621L185.421 108.959L185.646 109.296L186.32 110.196L186.658 110.645L187.22 111.32L187.445 111.545L187.782 111.77L188.007 111.882L188.569 112.557V112.557L188.794 112.894V113.007L188.682 113.344V113.569L188.907 114.019L188.794 114.244V114.244L188.682 114.356H188.457H188.232H188.12H188.007H187.895V114.468V114.581L188.007 114.693H188.12H188.232H188.344V114.806V114.918H188.457L188.794 114.693L189.132 115.368H188.907L188.682 115.48L188.569 115.818V115.93L188.682 116.043H188.794L189.356 115.705L189.694 115.818L190.256 115.705H190.593H190.931V115.705L191.156 115.48V115.256L191.268 114.918L191.156 114.806L190.931 114.693L190.818 114.581V114.468L190.931 114.244L191.156 114.019V113.906H191.38L191.83 114.019H192.055H192.28H192.505H192.73H192.842H193.067L193.292 114.131L193.517 114.244H193.629L194.416 114.693V114.806V115.031V115.143L194.529 115.256V115.705L195.316 116.38L195.541 116.492L195.991 116.83L195.878 117.28V117.617L195.766 118.179V118.629L196.216 118.966L197.003 119.416H197.115L198.24 119.978L198.914 120.316L199.027 120.428L199.139 120.54L199.476 120.765L199.814 121.103H200.039L200.151 121.215L200.264 121.328L200.488 121.552H200.601L200.826 121.665L200.938 121.777L201.5 122.002L201.613 122.115L201.95 122.34H202.063V122.452L202.175 122.677L202.288 122.789H202.4V122.789L202.737 122.902H202.85L202.962 123.014H203.075L203.187 123.127H203.524L205.324 123.352L205.548 123.464L206.898 124.588L207.572 125.151L208.472 125.938L208.809 126.275L209.034 126.5L209.484 126.837L210.384 127.624V127.737H210.496L210.721 127.624H210.833L211.058 127.737V127.737H211.171L211.283 127.849H211.508L211.62 127.962V128.074L211.845 128.299L211.958 128.412H212.183L212.295 128.524L212.632 128.861L212.857 128.974L213.082 129.086L213.307 129.311L213.532 129.536L213.644 129.761L213.869 129.986V129.986L214.207 130.098H214.544V130.211H214.656H214.769L215.106 130.098L215.331 129.986L215.668 129.873H215.781V129.648V129.311L215.668 129.086L215.893 128.749L216.231 128.524V128.187L216.68 127.737L216.793 127.4L217.243 127.062L217.355 126.725L217.58 126.388H218.03H218.592L220.166 126.612H221.066L221.853 126.725H222.19L222.64 127.4L223.09 127.849V128.187L223.202 128.299L223.54 128.524L224.102 128.974L224.439 129.536L224.776 129.761L225.451 129.873L225.676 129.986L225.901 129.536L227.025 130.098L227.925 130.548L228.262 130.66L228.375 130.773L228.937 131.448L229.274 131.897H229.387L229.836 132.122L230.286 132.347L230.736 132.797L231.973 133.809L232.535 134.259L233.097 134.596L233.997 135.158L235.459 135.833L235.796 136.395L236.021 136.957L236.471 137.407L236.92 137.744L237.483 137.969L237.708 138.194L238.045 138.532L238.495 138.644L239.057 138.981L240.069 139.094L240.519 138.756L240.631 138.869H240.856L240.968 138.756L241.306 138.644L242.093 138.419L242.43 138.532H242.543L242.655 138.644L242.992 138.532L243.105 138.644L243.217 138.532H243.555H243.78L244.117 138.307H244.229L244.792 138.082L245.129 137.969L245.466 138.082L245.579 137.969L245.804 137.744L246.028 137.632L246.478 137.744L246.591 137.857L246.816 137.632L246.928 137.52V137.407L247.49 137.52L248.165 137.295L248.615 136.845L248.727 137.182H248.952H249.402H249.739L249.964 137.07L250.189 136.845L250.301 137.07H250.414L250.526 136.845V136.732L250.639 136.845L250.526 137.07V137.182V137.295L250.414 137.52V137.632V137.744V137.744V137.857L250.526 137.969V138.082V138.194H250.639L250.751 138.307H250.864V138.307L250.976 138.419L250.864 138.532L250.976 138.644V138.644H251.088L250.976 138.756V138.869V138.981H251.088L250.976 139.094L250.864 138.981V139.094V139.094L250.751 139.206L250.864 139.319L250.751 139.431V139.544H250.864H250.976V139.544V139.656L250.864 139.768H250.751V139.768L250.864 139.881H251.088H251.201V139.881V139.993H251.088L250.976 140.106L251.088 140.218H251.201V140.106V140.106L251.313 139.993L251.426 140.106V140.106V140.218V140.331V140.443L251.538 140.331L251.651 140.218V140.331L251.538 140.443L251.651 140.668V140.668H251.538V140.78V140.78H251.651V140.668H251.763V140.668V140.78V140.893H251.876V141.005V141.118V141.118L251.763 141.23H251.651L251.538 141.343H251.651V141.455V141.343H251.876V141.343H251.988V141.455H251.876H251.763V141.455H251.651V141.568H251.763L251.876 141.68V141.68H251.988V141.68V141.792H251.876L251.763 142.017H251.651V142.017L251.763 142.13V142.13H251.876V142.242V142.242L251.763 142.355V142.58H251.876V142.692L251.988 142.804H252.1H252.325V142.917V143.029H252.213L252.1 143.142L252.213 143.254H252.325H252.438H252.55H252.663V143.367V143.479V143.479L252.775 143.592V143.704V143.816H252.663V143.816L252.55 143.929V144.154H252.438L252.325 144.266V144.379V144.491V144.604V144.716L252.213 144.828L252.1 144.941V144.941L252.213 145.053L252.325 145.166V145.166L252.1 145.391V145.278L251.988 145.391H251.876V145.503H251.988V145.503L251.876 145.616V145.616L251.988 145.728L252.1 145.616V145.728H251.988L252.1 145.84H251.988L252.1 145.953V145.953V145.953V146.065V146.178H251.988H252.1V146.178H252.213V146.29H252.1V146.403H252.213V146.403V146.515V146.515L252.325 146.403V146.515H252.213V146.515L252.325 146.628H252.213L252.325 146.74V146.628L252.438 146.74H252.325V146.852H252.438L252.325 146.965V146.965H252.213H252.1V146.965V147.077V147.077V147.19L251.988 147.077V147.077H251.876V147.077V147.19V147.19V147.302V147.302V147.415V147.527V147.527V147.64L251.763 147.527V147.864H251.876L252.663 147.977H252.775H253.337H254.012L254.687 148.202L255.361 148.089L256.148 147.864L256.823 147.977L257.61 148.089H258.172L258.96 147.977H259.747H260.421L260.871 148.427L261.096 149.101L261.546 149.664L262.108 149.776L262.783 149.888L263.12 150.001L264.02 150.226L264.357 150.338L265.144 150.563L265.819 150.451H266.606L267.056 150.338H267.28L268.967 150.226L270.766 150.113H270.879H270.991L271.328 150.226H271.441L271.891 150.338L272.34 150.676L272.453 151.013L272.79 151.463L273.015 151.8L273.24 152.137L273.352 152.25L273.577 152.475L274.252 152.7L274.477 152.812L275.489 153.712L275.714 153.824L275.376 154.724L275.714 155.398L275.939 155.511L276.613 156.185V156.298H276.726V156.298V156.298H276.951L277.176 156.41L277.288 156.298L277.4 156.41H277.625L277.738 156.523V156.523L277.625 156.41V156.298H277.738V156.185V156.185H277.85H277.963H278.075V156.298V156.298H278.188V156.298L278.3 156.41L278.525 156.298L278.637 156.41L278.75 156.298H278.862V156.185V156.185L278.975 156.073V156.073H279.087H279.2H279.312V155.96H279.2L279.424 155.848H279.537V155.848V155.848V155.623V155.511V155.511L279.649 155.398L279.762 155.286V155.286H279.874L279.987 155.173V155.173L280.099 155.061L280.212 155.173V155.173V155.061V154.948L280.099 154.836L280.212 154.611V154.499H280.436H280.549L280.774 154.386V154.274H280.886V154.161L280.774 154.049V153.936L280.886 153.824V153.824L280.774 153.712L280.661 153.487H280.774H280.886L280.999 153.262H281.224V153.149L281.336 153.037H281.448V152.924H281.561V152.812L281.673 152.7V152.7V152.587V152.475V152.362H281.786V152.362V152.25H281.673V152.137V152.025H281.448H281.336V152.025H281.448V151.912H281.224V151.912L281.111 151.8V151.8L280.999 151.575V151.463H280.886V151.35H280.774L280.661 151.238V151.125V151.125H280.774V151.013V151.013L280.661 150.9V150.9L280.774 150.788H280.999V150.676V150.676H281.224L281.336 150.563L281.448 150.338V150.113V150.113L281.336 150.001V149.776H281.448V149.664H281.336V149.776L281.224 149.664V149.551H281.111L280.999 149.439H280.886V149.439V149.326V149.326L280.999 149.214V149.214V149.101H280.886V148.989H281.561L281.673 149.101H282.123H283.248L283.81 149.214H284.035H285.384H285.834L287.183 149.326H287.52L289.432 149.439L290.556 149.551H290.894H291.119L291.568 149.888L291.906 150.001L293.03 150.563L293.705 150.9L294.492 151.35L295.279 151.8L296.066 152.137L297.078 152.7L297.978 153.149L298.428 153.374L298.877 153.599L299.102 153.712L300.002 154.161L300.227 154.386L300.564 154.499L300.676 154.611L301.014 154.836L301.126 155.061L301.688 155.511V155.623V155.96L300.789 156.86L301.126 156.972L301.688 157.422L301.801 157.535L302.251 157.647L302.476 157.535L304.05 156.635L304.387 156.748L304.837 157.085L304.949 157.422L305.062 157.872L304.949 158.434L304.387 158.996L303.937 159.221V159.446L303.825 159.559L303.937 159.784V160.121V160.346L304.05 160.458H304.162V160.683V160.683L304.5 160.796L304.724 160.908L305.062 161.02H305.287L305.399 161.133H305.736H305.849L306.074 161.245L306.299 161.358L306.411 161.47L306.524 161.583L306.411 161.695L306.636 161.808H306.748L306.861 161.92V162.032V162.145V162.257H306.748L306.636 162.37V162.482V162.595H306.861L306.973 162.82H307.086L307.198 162.932H307.311L307.423 163.044L307.536 163.157V163.157V163.269L307.648 163.607L307.76 163.832V163.944V164.056L307.873 164.281V164.394H307.648V164.506H307.536L307.311 164.731H307.198V164.956L306.973 165.293L306.861 165.406L306.748 165.631L306.636 165.743L306.524 165.968L306.411 166.08L306.299 166.193V166.305V166.305L306.411 166.643V166.755L306.299 166.868V166.98H306.186L305.961 167.092V167.205L305.736 167.43V167.542V167.767V167.992V168.104V168.329V168.442V168.442V168.667L305.849 168.779H306.074L306.186 168.892L306.524 168.779V168.779H306.636L306.748 168.667H306.861L307.198 168.554H307.311H307.536L307.648 168.442L307.873 168.329L307.985 168.217L308.098 167.992H308.21H308.323L308.548 168.104V168.104L308.772 167.88L308.885 167.767H309.11V167.88L309.222 167.992V167.992L309.335 168.104L309.447 168.217V168.329V168.329H309.222V168.442V168.554L309.335 168.667V168.779L309.222 169.004H308.997V169.116L308.885 169.341V169.454H308.772H308.66H308.323L308.098 169.566V169.679H308.21L308.323 170.016H308.435L308.548 170.128V170.128L308.772 170.241H308.885L309.11 170.353L309.335 170.578L309.447 170.691L309.56 170.803H309.672H310.009H310.122H310.234V170.803L310.347 170.916V171.028V171.028V171.253V171.365L310.234 171.478L310.122 171.815V171.928V172.152L310.009 172.265L309.897 172.49L309.784 172.602V172.602L309.897 172.715H310.009H310.122L310.234 172.94L310.347 173.052L310.459 173.164V173.277L310.572 173.502L310.684 173.614L310.572 173.727L310.459 173.839H310.234V173.839L310.122 173.952L310.234 174.064L310.459 174.176L310.572 174.289V174.401L310.459 174.626V174.739L310.572 175.076L310.459 175.301H310.347L310.122 175.413L310.009 175.638L309.672 175.751L309.56 175.863V176.088L309.672 176.2L309.784 176.088H309.897L310.009 175.976L310.234 176.088L310.122 176.313L310.009 176.425H310.122H310.234L310.459 176.538L310.572 176.65L310.684 176.875L310.796 177.1L310.684 177.325L310.459 177.55V177.662V177.775L310.796 178.112L310.909 178.337L310.796 178.562V178.674H310.909L311.134 178.562L311.246 178.674L311.471 178.899L311.584 179.012V179.124L311.696 179.236H311.921V179.012L312.033 178.899L312.146 179.012H312.371V179.012V179.236H312.483L312.708 179.012L312.82 178.787L312.933 178.449V178.224L313.045 178.112L313.27 178.224V178.449L313.383 178.674H313.495V178.449L313.945 178.337V178.449V178.787L314.057 178.899L314.282 178.787L314.507 178.674V178.787L314.732 178.899L314.62 179.012H314.507L314.62 179.349L314.395 179.574V180.024V180.248V180.586H314.62V180.698L314.844 180.923L315.069 181.148L315.519 181.373H315.969H316.081H316.194L316.306 181.148L316.419 180.923L316.306 180.811V180.698L316.419 180.361L316.644 180.136L316.756 180.024V180.024H316.981H317.206L317.543 179.799L317.768 179.574L317.88 179.461L318.218 179.574H318.443L318.668 179.686L319.455 180.248L319.567 180.586L319.792 180.811L319.68 181.373V181.598L319.455 181.71L319.23 182.048L319.567 182.16L319.455 182.385L319.68 182.722V182.947L319.567 183.509L319.455 183.959L319.23 184.409L319.005 184.746L318.555 185.196L318.443 185.308L318.555 185.533L318.78 185.871L318.892 186.096L319.005 186.208L319.23 186.545L319.455 186.658H319.567L319.792 186.32L319.904 186.096L320.129 185.983L320.467 185.871L320.692 185.758L320.916 185.533H321.029H321.254H321.479H321.704L322.266 186.208L322.491 186.995L322.603 187.332L322.828 188.12L322.94 188.794L324.177 189.132H324.964L326.089 189.469H326.426V190.368V190.706L326.651 191.268V191.38L326.876 191.718H326.539L326.426 191.83H326.314H325.976L325.527 191.943H325.302L324.964 192.28H324.627L324.402 192.168L324.065 192.055H323.952L323.39 192.168L323.165 192.28H323.053L322.94 192.392H322.603H322.266V192.28L321.816 192.168L321.704 192.28H321.591V192.392V192.505L321.479 192.617V192.73V192.842L321.254 192.73V192.842H321.141V192.842L320.804 192.73V193.067L320.354 192.955L320.242 193.067L320.017 192.73L319.455 192.617L319.005 192.505H318.892H318.78V192.392H318.33V192.168L317.88 192.055H317.543L317.431 191.83H317.206L317.093 191.718H316.868H316.644L316.531 191.83H316.306H315.856H315.632H315.294L315.069 191.718V191.605L315.182 191.38V191.268H314.62V191.268H314.17L313.945 191.38L313.158 191.268L313.045 191.38H312.708L312.483 191.156H312.371L312.146 191.043H312.033V191.156V191.268V191.38V191.493V191.718H311.921V191.83V191.943L312.033 192.055V192.168V192.28L311.921 192.392L312.033 192.505V192.505V192.617H312.146V192.842L311.921 193.18L311.808 193.404H311.696V193.517H311.584V193.517L311.471 193.629V193.742V193.854L311.359 193.967H311.246L311.021 194.192V194.304H311.134L311.021 194.416L310.796 194.529V194.641V194.754H310.684V194.866L310.796 194.979L310.572 195.091V195.204V195.428V195.541L310.009 195.991L308.098 196.778L306.973 196.44L306.411 197.565L305.736 197.452V197.115L305.174 196.778L303.712 197.115L303.937 198.015L303.712 200.488L307.311 201.276L307.648 200.601L308.21 200.826L308.66 200.601L309.447 202.288L310.572 202.85L311.359 203.749L312.258 203.412L315.744 204.312L315.519 205.998L316.194 207.123L315.632 208.247L315.744 209.484L315.069 210.046L315.182 210.721L314.62 209.821H313.158L313.045 210.833L312.258 210.946L312.146 211.171L311.696 211.283V211.845L310.347 211.62L308.997 210.833H308.548L308.323 211.171L308.548 211.733L309.222 211.958L308.997 212.408L309.222 212.857L308.548 212.97L308.21 213.42L308.548 214.207L309.335 214.769V215.219L308.885 215.668L310.009 216.343V217.243L310.459 217.805L311.246 217.692L311.921 217.805L312.258 217.917L313.383 219.042L314.282 220.391L315.519 221.516V223.202L315.856 222.865L316.644 223.315L317.093 222.752L321.254 225.451L323.728 224.776L326.314 226.238L326.988 228.15L328.225 228.262L328.9 228.6L329.687 228.262L330.699 229.162L331.711 228.824L332.161 229.612L331.261 229.724L331.599 229.949V231.073L332.386 231.186L332.498 230.736L332.948 230.848L335.759 232.985V234.109L335.309 233.884L334.86 234.672L335.872 235.346L336.209 236.246L334.635 235.684L332.836 235.908L332.948 237.595L332.723 238.495L331.824 238.045L331.936 236.358L331.711 236.471L331.486 238.495L331.149 238.832L330.699 238.495L329.912 238.72V238.157L328.9 238.382L328.675 238.157L328.788 237.708L328.113 236.92L326.988 237.033V237.932L325.976 237.708L325.639 236.246L325.077 236.021L325.414 235.459L325.077 235.234L324.515 235.571V235.908L323.952 235.459H322.828L322.603 236.021L322.266 239.057L320.804 238.832L321.141 239.169L320.804 239.619L317.768 239.394L317.206 239.169L316.756 237.483L314.732 236.133L314.507 236.583L314.17 236.808L313.72 236.696L314.17 236.471V236.133L313.608 236.471L312.371 236.696L311.246 237.932L311.696 239.956L311.471 240.744L308.772 241.868L305.624 244.229L304.949 244.679L304.724 244.792L304.5 245.016L304.162 245.579L304.05 245.804L303.937 246.141L303.712 246.366L303.6 246.478L303.263 246.591L302.813 246.703H302.588V246.816L302.476 246.928L302.588 247.153L302.7 247.378V247.49L302.588 247.603L302.476 247.828L302.363 247.94V248.052V248.165L302.138 248.277L302.026 248.39L301.913 248.615L301.801 248.952L301.688 249.064V249.177L301.239 249.289L301.014 249.402L300.789 249.514V249.627H300.564V249.514L300.452 249.289H300.339L300.227 249.177L300.114 249.289L300.002 249.402L299.889 249.627L299.777 249.964V250.076H299.889L300.002 249.964H300.114V249.964L300.227 250.189H300.339H300.452L300.901 250.076L301.126 250.189V250.189L301.239 250.301L301.351 250.526L301.239 250.751V250.751L300.789 250.864L300.676 250.976V250.864V250.751V250.639H300.452L300.339 250.751H300.114L300.002 250.864L299.777 250.976H299.664H299.327L299.215 251.088V251.088V251.201L299.552 251.313H299.777V251.313V251.426V251.538L299.664 251.651L299.552 251.876V251.988L299.44 252.1L299.215 252.213L298.99 252.438L298.877 252.55H298.765L298.652 252.663H298.54L298.315 252.55H298.203H298.09L297.865 252.663V252.775V253V253V253.112H297.753H297.528L297.303 253L297.191 252.888V252.888L297.078 252.775L297.191 252.663H297.303H297.528H297.64V252.438V252.438L297.191 252.213L297.078 252.325L296.853 252.438H296.741V252.438V252.213L296.628 251.988V251.988H296.516V251.988L296.291 252.213V252.213V252.438L296.179 252.55V252.663L296.066 252.55V252.55L295.954 252.438L295.616 252.55L295.504 252.663L295.392 252.775L295.279 252.888V253.112H295.167V253.112H295.054V253.112L294.942 253V252.888V252.775V252.663V252.663H294.829L294.717 252.775L294.604 252.888L294.492 253V253.112V253.225V253.337L294.38 253.225L294.155 253.337L294.042 253.45L293.93 253.562V253.562L294.042 253.675H294.155H294.267L294.38 253.787L294.492 253.9H294.38V254.012H294.267L293.93 254.124L293.817 254.237H293.592V254.124H293.48L293.368 254.012V253.9L293.255 253.787H293.143V253.9L293.255 254.012V254.237V254.349H293.143H293.03L292.918 254.124V254.124L292.805 254.012V254.237V254.349V254.462V254.574H292.693H292.468V254.687V254.799L292.58 255.024V255.024V255.136H292.468V255.249V255.474V255.474L292.356 255.361V255.361V255.249L292.243 255.361V255.474H292.131L292.018 255.361L291.906 255.249H291.793V255.361L291.906 255.586V255.699H291.793H291.681H291.568V255.924V255.924L291.456 256.036L291.344 255.924L291.231 255.811H291.006H290.781H290.669L290.556 256.036L290.332 255.924L290.219 256.036H290.107L289.882 256.261H289.769V256.373L289.657 256.598V256.711L289.544 256.598H289.432H289.32L289.207 256.711V256.823V256.936V257.048H288.982V257.048V256.936L289.095 256.823V256.711H288.982H288.757H288.532L288.42 256.823V256.823H288.308V256.711H288.195L287.858 256.598H287.633V256.598L287.52 256.823V256.936H287.633H287.745L287.858 256.823L287.97 256.711L288.083 256.823L288.195 256.936H288.308V257.048H287.97H287.745V257.048V257.16V257.273V257.273L287.633 257.16H287.52L287.408 257.273V257.385V257.498H287.296V257.498L287.183 257.273H287.071H286.958L286.846 257.385V257.498L286.958 257.61L287.071 257.723V257.723V257.723L286.846 257.835L286.733 257.948V258.06L286.621 258.172H286.508L286.396 258.06V257.948V257.948H286.171V258.172L286.059 258.285V258.397H285.946V258.285V258.172L286.059 258.06V257.948H285.946L285.834 258.06L285.721 258.172V258.285V258.285V258.397H285.609H285.496V258.397V258.285V258.172L285.609 258.06V257.948H285.496H285.384V258.06V258.172V258.172V258.172L285.272 258.285V258.397H285.159L284.934 258.622V258.622L284.822 258.847L284.934 258.96V259.072L284.822 259.184V259.297V259.409H284.597L284.484 259.522V259.634V259.747L284.26 259.859V259.859L284.147 259.747H284.035L283.81 259.634V259.522L283.697 259.409L283.585 259.297L283.472 259.409V259.522L283.36 259.634H283.248L283.36 259.522L283.248 259.409V259.409L283.135 259.522V259.522L283.248 259.634V259.747L283.023 259.859V260.084V260.196L282.91 260.084V259.972L282.798 259.859V259.747L282.685 259.634H282.573L282.46 259.747L282.573 259.859V259.972V260.084H282.348V259.972L282.236 259.859H282.123H282.011L281.898 259.972L281.786 260.084V260.309L281.898 260.421H282.011V260.534V260.646L281.898 260.534V260.421H281.786H281.673V260.534V260.646L281.786 260.871V260.871V260.984H281.561V261.096L281.448 261.208V261.321L281.561 261.546V261.771L281.448 261.883V261.883V261.658V261.658L281.336 261.546H281.224V261.658L281.111 261.771L281.224 261.883V261.996V261.996L281.111 262.108H280.999V262.108V261.996L280.886 261.883V261.771H280.661V261.883V262.108V262.22V262.22H280.436L280.212 262.333L280.099 262.445H279.987V262.558H279.874L279.762 262.445V262.445L279.537 262.333V262.445L279.424 262.558L279.312 262.783V262.895H279.2V263.008L279.312 263.232L279.424 263.345V263.457L279.312 263.907V264.132L279.2 264.244L279.312 264.357L279.537 264.469L279.762 264.582V264.694V264.807V264.919V265.369V265.594V265.706H279.874L279.987 265.819V265.931L279.874 266.044V266.268V266.381L279.762 266.718V266.718L279.424 266.606H279.2V266.718V266.943L279.087 267.168V267.28V267.505L278.975 267.843L278.862 267.955L278.75 268.068V268.18V268.405V268.742L278.637 269.08L278.525 269.192H278.75L278.862 269.304V269.642H278.637L278.525 269.754L278.188 270.092L278.075 270.204V270.316V270.654L277.963 270.879L277.85 270.991V271.216V271.328L277.963 271.441H278.188H278.3H278.637L278.975 271.666L279.087 271.778L279.312 272.003V272.228L279.2 272.453V272.678L279.087 272.79L278.975 272.903V273.352V273.802V273.915V273.915V274.027H279.2L279.312 274.252H279.537L279.649 274.364L279.762 274.477L279.649 274.927V275.039L279.874 275.264V275.264L279.762 275.376H279.649V275.489L279.762 275.714V275.826L279.649 276.051L279.762 276.276V276.388V276.501L279.649 276.613L279.537 276.726H279.424L279.312 276.838L279.424 276.951L279.537 277.063L279.649 277.176L279.762 277.288L279.874 277.4V277.513H279.762H279.649L279.537 277.625V277.738L279.649 277.85H279.762L279.987 278.075V278.188V278.188L279.649 278.412L279.537 278.525L279.987 278.862L280.099 278.975L280.324 279.087L280.549 279.312L280.436 279.537L280.661 279.874L280.774 280.099H280.886V279.987H280.999H281.111V280.099V280.212L281.224 280.436V280.436V280.661V280.774V280.774L281.336 280.886L281.448 281.111V281.224V281.336L281.336 281.561L281.111 281.673V281.786L281.224 281.898V282.011L281.336 282.123V282.236V282.236L280.999 282.46L281.111 282.798L282.236 283.472L283.81 285.272L284.934 285.047L285.384 285.609L285.047 286.621H285.496L286.396 287.745L285.834 288.42L285.721 289.207L286.958 289.657L286.733 290.332L287.745 290.556L286.621 291.681L286.958 292.805L286.621 294.267L285.496 294.604L285.834 295.392L284.372 295.841L281.561 296.516L281.336 296.966V296.966V297.191H281.224V297.303H281.336V297.416V297.528V297.64L281.224 297.753H281.111V297.865V297.978V298.09V298.203L280.999 298.54L280.886 298.652L280.774 298.765V298.877L280.886 298.99L280.774 299.102L280.886 299.327H280.999V299.44V299.664H281.111L281.224 299.889L281.561 299.777H281.673V300.002V300.339L281.561 300.564V300.789L281.673 301.014V301.351H281.786H282.011V301.351H282.123L282.236 301.239L282.46 301.351L282.685 301.464L282.91 301.576V301.576H283.023V301.576V301.688H282.91V301.801V301.913V301.913H283.023H283.135V302.138H283.248V302.251H283.36V302.363V302.476V302.476H283.472V302.588V302.7H283.585V302.925V303.038H283.697L283.81 303.15L284.035 303.375H283.81L283.472 303.488V303.6L283.36 303.712V303.937L283.248 304.05L283.135 304.162L283.023 304.275V304.387H282.91V304.612H282.798H282.46L282.236 304.5H282.011L281.786 304.724H281.673L281.448 304.949L281.336 305.062V305.062L281.224 305.174L281.111 305.287L280.999 305.399L280.886 305.624V305.624H280.774L280.661 305.736L280.549 305.849V305.961L280.661 306.074L280.774 306.299V306.524H280.886L280.999 306.636H281.111H281.448V306.861L281.561 306.973L281.673 307.086V307.198V307.198L281.786 307.311V307.536V307.648V307.985V308.098V308.21V308.323H281.673L281.561 308.435L281.336 308.66V308.772V308.885V308.997L281.224 309.222L281.111 309.335L280.774 309.447V309.447L280.661 309.672H280.549L280.436 309.897V310.009H280.549V310.122L280.661 310.234V310.347V310.459L280.549 310.572V310.572H280.661V310.684H280.549H280.436V310.796V310.909L280.549 311.021V311.134V311.134V311.246V311.246V311.359L280.661 311.471H280.549V311.584V311.921L280.324 312.033V312.258L280.212 312.371V312.596L279.987 312.933L279.649 313.608V313.945L279.312 314.957L279.2 315.182L279.087 315.407L278.975 315.632V315.744L278.637 315.856L278.525 315.969L278.412 316.081L278.188 316.194L277.963 315.969H277.85V316.081L277.738 316.306V316.531L277.625 316.644L277.4 316.981L277.288 317.093L277.176 317.206H277.063L276.951 317.318L276.838 317.431L276.726 317.656L276.613 317.768L276.501 317.993L276.388 318.218L276.276 318.555L276.164 318.668V318.78V319.005V319.117L276.276 319.23L276.164 319.792L276.051 320.242H275.826H275.714L275.489 320.467L275.376 320.579L275.264 320.692V320.692H275.152L275.039 320.467L274.814 320.354L274.702 320.467H274.477L274.364 320.579L274.252 320.692V320.804V320.916V321.029L274.364 321.254V321.254H274.027L273.915 321.366L273.802 321.479L273.915 321.591L273.802 321.704H273.69H273.577L273.465 321.816L273.577 321.928L273.69 322.153V322.153L273.577 322.266L273.352 322.378V322.491V322.491V322.603V322.716L273.465 322.828V323.053V323.165L273.352 323.39V323.503V323.615H273.24V323.728L273.128 323.84L273.24 324.065V324.177H273.015L272.903 324.515H272.79L272.678 324.627V324.74H272.79L272.903 324.852L272.79 324.964V324.964L272.678 325.077H272.565L272.453 325.302V325.302H272.34H272.228L272.116 325.189H272.003V325.189L271.891 325.302H271.778H271.666L271.553 325.414H271.441V325.414H271.216V325.639H271.104L270.991 325.527L270.879 325.639V325.527H270.766V325.639H270.654V325.752H270.429V325.864V325.864V326.201L270.204 326.314L270.092 326.539L269.867 326.651L268.855 326.876L267.505 327.326L266.943 327.438L266.831 327.326L266.268 327.213L265.931 326.988H265.144L263.682 327.101H263.57V327.326L262.67 327.213L261.996 327.326L261.321 327.438L260.871 327.213L260.309 326.426L260.084 326.314L259.184 325.976L258.285 325.527L256.823 323.728L255.586 322.828L255.024 322.94L254.799 322.266L254.912 321.591L254.574 320.916L252.55 320.692L252.1 320.017L251.988 319.567L252.663 319.005L253.112 317.318L252.663 317.543L252.325 317.206L252.1 317.431L251.426 317.093L250.639 317.206L250.301 316.419L249.402 315.744L249.177 315.294L248.84 315.182L248.615 315.069V314.844L248.727 314.732V314.62V314.507L248.84 314.395L248.952 314.17V313.945V313.945L249.177 313.608H249.402L249.852 313.832L249.964 314.17L250.189 314.282L250.639 314.507H251.426L251.538 313.945L251.876 313.608L252.213 313.045L252.1 312.371L251.988 311.696L251.763 310.796V310.572V310.459V310.234H251.988L252.325 310.122L252.438 310.009L252.663 309.784L252.775 309.672V309.56V309.335V308.997L252.663 308.66V308.435V308.21L252.775 308.098L253 307.873V307.648L253.225 306.973L253.337 306.748V306.411L253.45 306.299V306.186V306.074H253.337V305.961L253.225 305.849L253.112 305.736H253.225V305.624V305.624L253.337 305.399L253.225 305.287H253.337L253.45 305.174V305.062H253.337H253.225V304.949L253.337 304.837L253.225 304.724V304.612L253.337 304.5H253.225L253.337 304.387V304.387H253.45V304.387V304.387V304.275H253.337V304.162V304.162L253.225 304.05V304.05V303.937H253.112V303.825V303.712H253.225L253.112 303.6L253.225 303.488H253.112V303.375V303.263V303.263H253.225V303.263V303.15H253.337V303.038H253.225H253.112V303.038L253 302.925H253.112V302.813V302.813L252.888 302.7V302.7V302.813V302.813V302.925V302.925L252.775 302.813H252.663V302.925V303.038H252.775H252.663H252.55V303.038H252.438H252.325H252.213H252.1V303.15V303.15H251.988H251.876H251.651H251.426H251.313L251.201 303.038L251.088 302.925V302.813V302.7V302.588H250.864H250.751V302.363L250.864 302.138L250.976 301.913L251.088 301.464L251.201 301.239V301.014V300.901L251.313 300.676L251.426 300.564L251.651 300.452L251.876 300.339V300.227L251.988 300.114V300.002L251.876 300.114L251.763 300.002V300.002V300.114H251.651V299.889H251.763V299.777L251.651 299.889V299.777H251.538L251.651 299.664V299.552V299.44L251.763 299.327L251.651 299.215V299.102H251.538L251.651 298.99V298.877L251.763 298.765V298.765L251.876 298.652L251.763 298.428V298.09H251.651H251.538V298.09V297.978L251.763 297.865L251.651 297.753L251.876 297.64L251.988 297.528V297.416V297.303V297.191L252.1 297.078V296.966V296.966V296.741L251.763 296.628L251.651 296.404L251.538 296.291H251.313L251.201 296.179L251.088 296.066L251.201 295.841V295.392V295.279V295.279H251.313L251.538 295.167V295.054V294.942V294.829L251.426 294.717H251.313V294.604L251.201 294.492V294.492L251.088 294.267V294.155V294.155V294.042H251.201L251.426 294.155H251.651L251.876 294.38H251.988H252.1V294.38V294.155V294.155L252.325 294.267V294.267L252.438 293.93V293.705L253 293.592L253.337 293.48L253.787 293.255L254.687 292.693L254.799 292.356V291.906H254.462H254.237L253.9 292.018H253.562H253.225H253.112V291.906L253.337 291.568L253.562 291.344L253.675 291.231V291.006L253.562 290.894V290.781L253.45 290.669V290.444V290.219V289.994V289.769V289.769H253.112H252.888V289.769L252.663 289.882H252.55L252.213 289.769V289.769L251.763 289.657L251.538 289.769V289.882V289.994H251.313L251.201 289.882L251.088 290.107L250.976 289.994V289.882H250.751L250.526 289.994L250.301 289.882L250.189 289.769V289.432V289.095V288.645L250.301 288.308L250.189 288.083L250.076 287.97L249.852 287.745L249.402 287.408L249.064 287.296L248.84 286.958L248.502 287.071L248.052 287.296L247.828 287.408L247.715 287.52L247.49 287.633L247.153 287.858H246.928L246.478 287.97L245.579 288.308L245.466 288.42L245.241 288.532L245.129 288.645L245.016 288.757L244.792 288.87L244.454 288.982L243.892 289.207L243.33 289.32L242.992 289.432H242.88H242.768L242.655 289.207L242.43 288.645L242.318 288.308V288.083H240.744V288.083L240.294 287.745L238.832 287.858L238.944 287.408L238.27 286.621H237.708L236.92 287.633L237.37 288.982L237.033 289.994L237.145 290.894L237.483 291.456L237.258 291.906L235.121 291.681L234.447 290.894L233.66 290.669L232.76 291.119H232.085L232.31 288.982L231.973 288.645L232.198 288.42H231.748L231.411 287.858L230.736 287.52L230.511 287.745L230.961 287.97L230.286 288.532L230.061 288.083H229.499V288.532L229.274 288.42L229.162 287.296L229.836 286.846V285.047L230.174 284.147L229.836 283.135L229.612 284.26L228.824 283.585L228.937 284.372L228.375 283.922L227.925 284.372L228.487 284.709L228.6 285.496L228.037 284.934H226.688L227.588 284.26L227.7 283.81L227.475 282.91H228.375L228.15 282.685L228.375 282.123H227.363L227.025 281.786L227.7 280.774L226.238 281.786L226.688 281.898L226.126 282.348L224.889 281.786L224.664 282.236L223.989 282.348L223.54 281.448L222.64 280.886L220.728 280.436L220.054 279.762L219.267 279.537L217.58 279.874L217.243 280.436L216.118 279.424L215.781 278.975V278.412L214.432 277.4L215.106 275.601L214.769 275.039L214.656 273.015L214.319 272.79L214.544 271.778L214.207 271.553L214.319 272.228L213.982 272.565L213.757 272.228L212.183 271.778L211.396 271.216L209.596 271.666L209.259 271.216L208.247 270.879L208.022 270.429L207.123 269.754L206.448 269.529L206.223 270.204L205.886 270.316L204.874 269.979V269.417L204.536 268.967H203.974L203.862 268.292L202.175 269.417L201.388 269.192L201.613 268.967L200.938 268.292L202.625 267.056L202.175 266.718L202.288 266.268L201.95 266.156L201.276 267.28V266.381L200.826 266.156V265.481L201.613 264.919L201.838 265.032L202.063 264.357L201.613 263.682L201.5 264.02L200.376 263.907L200.601 263.008L199.701 262.558L198.914 263.008L198.24 262.895L197.115 263.008V263.457L198.127 264.132L197.565 264.694L197.902 265.144L196.553 264.694L196.328 265.594L195.653 265.706L195.991 266.381L196.103 266.943L196.553 267.168L196.328 267.843V268.068L196.216 268.18L195.991 268.292H195.541L194.866 267.955V267.618L192.28 266.831L193.967 266.718L193.629 265.594H192.28L192.617 266.044L191.943 266.156L191.718 265.594L190.706 265.369L190.031 263.907L189.469 264.02L189.132 263.682L188.457 264.132L188.344 264.807L188.907 266.381L188.569 266.493L188.232 265.931L188.007 263.907H186.433L186.77 264.582L186.096 265.032L185.983 266.381L185.421 266.943L185.983 267.843L185.758 268.292L186.096 268.855L184.746 271.328L184.521 271.778L184.409 272.116L184.296 272.228L183.959 272.116V272.453L183.734 272.565V272.565L183.959 272.79L184.184 273.015L184.296 273.24V273.352L184.184 273.465L183.959 273.69H183.847L183.734 274.027L183.959 274.477L184.072 275.152V275.489H184.184V275.376H184.296V275.826L183.959 275.939L183.734 276.051L183.509 275.826L183.284 275.939H183.172V275.826H183.284V275.601H183.509H183.734L183.509 275.489L183.397 275.376L183.172 275.039L182.835 274.814L182.497 274.702L182.385 274.589L182.16 274.364L181.26 276.276H180.698L180.473 277.4L179.686 276.951L178.449 275.826L177.887 274.477H176.088L175.751 274.702H175.638L175.526 274.927L175.188 274.477L175.076 274.702L175.413 275.264L175.638 275.376L175.526 275.489V275.714L175.188 275.601L175.076 275.714L174.964 275.489L174.851 275.264H174.626L174.401 275.376V275.489L174.176 275.714L173.952 275.826L173.839 275.939L173.727 275.714L173.839 275.601L173.727 275.489L173.502 275.376H173.389H173.277L172.94 275.601L172.827 275.714L172.715 276.051L172.602 276.164L172.04 273.69L171.703 273.577L169.904 274.252L169.679 274.589L169.904 275.039L170.241 275.152L170.353 275.376L170.016 275.152H169.904L169.566 275.039L169.116 275.264L169.004 275.489L168.217 275.601L167.88 275.489L167.655 275.601L167.43 275.264L167.317 274.364L166.53 274.589L165.743 274.252L165.406 273.802L166.418 273.465L166.643 272.903H167.205L167.767 272.228V272.003L167.092 270.654L167.43 270.541L167.542 270.429L167.655 269.979H167.88L168.104 269.867L168.442 269.529L168.667 269.304L169.116 268.967L169.004 268.855L169.116 268.742V268.63L169.004 268.517L168.667 268.63L168.779 267.168L168.442 266.044L168.892 265.032L169.454 265.256L170.241 264.244L169.454 263.457L169.004 262.558L168.442 262.895L167.205 262.67L167.43 263.795L166.98 265.256L167.205 265.931L166.755 266.718L166.418 265.706H165.968V265.256L165.518 264.919L164.731 265.481L164.394 264.919L162.82 265.594L162.145 264.807L161.133 265.481V265.819H161.92L162.257 266.156L162.032 266.381V267.168L163.157 267.28L163.382 267.73L164.506 268.068L164.731 268.742L164.506 269.192H164.056L162.595 269.08L162.37 268.63L161.808 268.855L159.896 269.529V268.855L160.233 268.18L159.671 267.955L159.221 268.517L158.884 267.843L158.209 267.393L157.535 267.73L156.748 267.056L157.31 266.943L157.535 266.268L158.097 266.156L157.984 265.594L157.76 265.369L157.085 265.594L156.972 264.807L156.41 264.582L156.298 265.706L156.748 266.156L156.073 266.831L156.972 268.63L156.073 267.955H155.286L154.948 267.618L154.836 268.517L154.161 268.855L153.037 268.18L152.587 267.168L152.362 266.831L151.8 266.606L151.125 266.831V267.168L152.25 267.73L151.8 268.292L152.25 268.855L151.912 269.529L152.025 269.754H152.25H152.7L153.037 269.867L153.262 269.979L153.599 270.204L153.824 270.316L154.049 270.429V270.654L153.936 270.879L153.824 271.104V271.328L153.936 271.553L154.161 271.778H154.049L153.599 271.891H153.149L153.037 271.666L152.924 271.553H152.812L152.7 271.778L152.475 271.891L152.362 271.778L151.912 271.666L151.8 271.891V272.003L151.688 272.453L151.463 272.565H151.238L151.125 272.678L151.013 272.79L150.9 273.015L150.788 273.128H150.563L150.451 273.015V272.678L150.676 272.34V272.116L150.451 271.891L150.113 271.778L149.888 271.553V271.216L149.664 271.104H149.326L149.101 270.991L149.439 270.541L150.001 270.204L150.563 270.429L151.125 270.541L151.688 270.654H152.025L151.912 269.979H150.9L150.451 268.742L150.226 268.517L149.776 268.967L149.551 268.18L148.876 268.63L148.202 268.405L147.977 269.192L147.527 268.63L146.852 269.417L146.29 269.304L146.178 269.867L146.852 270.092L146.515 270.541L147.302 271.441L146.965 271.666L146.515 271.778L146.29 270.879H145.953L145.503 271.328L144.941 271.104L144.491 272.003H143.929L141.792 270.654L142.355 269.979L142.467 269.08L143.367 269.642L144.154 269.754L144.941 269.417L145.391 268.855V268.405L145.616 267.73L146.178 267.168L146.403 266.718L146.065 266.156L145.728 266.044H145.616L145.728 265.481V265.369L145.953 265.144L146.74 264.919L146.965 264.807L147.19 264.469L147.527 264.357L148.314 264.244L148.764 264.02L148.989 263.795L149.101 263.57L148.989 263.12L148.652 262.445L148.314 261.996V261.546L148.202 260.871L147.977 260.421L147.864 260.196L147.752 260.084H147.527L147.415 260.196L147.302 260.421L147.19 260.534L146.965 260.421L146.852 260.309L146.065 259.747L145.953 259.297L145.728 258.735L145.503 258.51H145.166H144.491L144.154 258.285L143.816 258.06L143.704 257.835L143.929 257.385L144.154 257.048L144.266 255.699L143.929 255.249L143.704 255.024V254.687L143.929 254.349L144.154 254.124V253.9L144.041 253.562L143.929 253L143.816 252.775L143.592 252.438L143.142 252.1L142.917 251.763L142.13 251.201L141.343 251.088L140.893 252.213L140.218 251.988L139.319 252.325L138.532 251.651L138.307 253.337L137.07 253.562V254.124L136.058 254.687L135.608 255.361L134.596 254.799H134.484H134.371L134.259 254.687H134.146L133.921 254.574V254.687L133.809 254.912L133.696 255.024L133.472 255.249L133.359 255.361L133.247 255.474H133.022L132.684 255.361H132.46L132.235 255.474H132.122H131.785L131.56 255.361V255.361H131.448L131.335 255.474H131.223L131.11 255.699V255.924L130.998 256.036H130.885L130.773 256.261V256.373L130.885 256.598V256.711L130.998 256.823V256.936V257.048V257.16L130.885 257.385L130.773 257.498L130.66 257.61L130.323 257.835L129.986 257.948L129.873 258.172V258.285L129.986 258.51L130.098 258.622L130.211 258.735V258.96L130.098 259.072H129.873H129.761L129.536 258.96L129.424 259.072H129.311L129.199 259.184H128.974L128.749 259.072H128.636H128.524H128.412L128.299 259.184H128.187H127.962L127.849 259.072L127.737 258.96H127.624L127.512 259.184L127.175 259.297L127.062 259.634L127.175 259.747V259.859L127.062 259.972L126.837 259.859H126.725L126.612 259.972L126.5 260.196V260.421V260.646L126.388 260.759V260.871H126.275V260.759V260.646V260.196L126.163 260.084V259.972H125.938L125.825 259.859V259.859L125.713 259.972V260.196L125.6 260.309H125.488V260.309L125.151 260.196V260.196L124.926 260.084V260.084L124.701 259.972V259.972L124.588 259.859H124.476V259.859V259.972L124.364 260.084L124.251 260.196L124.026 260.421L123.801 260.534L123.689 260.646H123.576L123.464 260.534H123.352V261.096H123.464L123.689 261.208L123.801 261.321H124.026V261.433V261.546L123.914 261.658L123.801 261.883V261.996L123.689 262.22V262.333L123.576 262.558V262.67H123.689L123.914 262.783V263.008V263.345V263.345V263.457L124.139 263.682V263.795L124.026 263.907L123.914 264.244L124.026 264.469V264.582V264.807H124.139L124.251 264.919H124.364L124.476 265.032H124.588V265.144H124.364H124.251L124.139 265.256H124.026L123.801 265.369L123.689 265.481L123.576 265.594L123.464 265.819L123.352 265.931V266.044V266.156L123.239 266.268L123.127 266.493V266.606V266.718L123.239 266.831H123.352V267.056V267.168H123.576L123.689 267.28L123.801 267.393H123.689H123.576L123.464 267.505H123.239L123.127 267.618L123.014 267.505H122.789L122.677 267.393L122.34 267.28L122.227 267.056V266.943L122.115 266.831H122.002H121.89H121.552H121.44L121.328 266.718L121.215 266.606L120.54 266.381L120.091 266.156L119.753 265.931L119.416 265.706L119.191 265.594L118.741 265.369H118.629H118.516L118.404 265.481L118.179 265.706L117.729 265.819H117.28H117.055H116.942L116.717 265.706L116.268 265.594L116.155 265.706H116.043L115.93 265.594H115.818H115.705H115.593V265.819L115.48 266.156V266.156H115.368H115.031L114.693 266.044L114.468 265.931V265.819H114.356H114.244L114.019 265.931V265.931H113.794L113.569 265.706L113.456 265.594H113.344L113.232 265.369H113.119V265.369V265.481L112.782 265.706L112.557 265.819V265.931H112.332H112.22L112.107 265.819V265.706V265.369L112.332 265.032L112.444 264.919V264.807V264.694L112.22 264.919V264.919V265.032L112.107 265.144H111.995V265.144L111.882 265.032L111.77 264.919L111.545 264.807L111.208 264.694V264.582V264.469L111.095 264.244V264.132V263.907L110.983 263.795H110.87H110.645H110.42L110.196 264.132L109.971 264.357L109.858 264.582V264.694L109.521 265.144V265.144L109.408 265.256H109.184V265.369L109.071 265.481V265.706H108.959L108.734 265.819L108.621 265.931H108.509V266.156V266.381V266.493L108.621 266.606L108.846 266.943V267.28L108.734 267.393L108.509 267.505H108.284L108.172 267.393L107.947 267.505V267.505L107.834 267.618V267.73L107.722 267.843L107.609 268.068H107.497L107.384 268.18L107.272 268.292H107.047L106.71 268.18H106.597L106.485 267.955H106.372H106.148V267.843V267.73L106.26 267.618V267.168V266.943L106.485 266.268L106.597 266.044V265.931V265.931H106.485H106.372L106.26 266.044H106.148L106.035 266.156L105.81 266.381L105.698 266.606V266.718L105.473 266.943L105.136 267.168H105.023L104.911 267.056V267.056L104.798 266.831V266.718H104.686L104.461 266.381H104.348H104.236V266.493L104.011 266.606V266.718L103.674 266.831L103.561 266.943H103.449V266.943L103.336 266.831L103.112 266.606L102.887 266.493V266.381V266.156L102.999 266.044V265.931V265.819H102.887H102.662V265.819V265.706L102.774 265.481V265.369V265.256H102.662H102.549L102.437 265.144L102.549 264.919L102.662 264.694V264.469L102.774 264.244V264.02L102.887 263.907L102.774 263.795V263.682H102.887L103.112 263.57L103.336 263.457L103.449 263.345H103.561L103.674 263.232L103.786 263.12V263.008V262.783L103.674 262.67V262.67V262.558V262.445H103.786L103.899 262.333H104.011L104.573 262.445H104.911L105.136 262.22L105.248 261.883H105.36V261.546H105.248H104.911H104.798V261.433L104.686 261.321L104.798 261.096L105.136 260.309L105.585 260.084V259.972H105.81V259.859L105.923 259.634V259.409V259.297V259.184L106.485 259.297V259.297H106.597V259.184H106.822H107.047L107.272 259.297L107.384 259.184V259.184V259.072H107.16L107.047 258.96H106.935L106.822 258.735L106.71 258.622V258.51V258.397H106.485L106.26 258.285L106.148 258.397L106.035 258.285H105.923V258.397L105.81 258.51L105.923 258.735V258.847V258.847L105.698 258.96V258.96L105.473 259.184L105.248 259.297L105.023 259.409L104.911 259.522L104.798 259.634H104.686H104.348H104.124H103.786L103.561 259.522V259.409V259.409V259.072V258.622L103.449 258.51L103.224 258.397L103.112 258.285H102.999L102.774 258.397H102.662L102.549 258.285L102.662 258.172V258.06H102.549H102.437L102.324 257.948L102.212 257.835H101.875V257.835L101.762 258.172V258.285L101.987 258.622V258.622V258.735V258.96V259.072L101.875 259.184V259.297V259.409L101.537 259.297L101.425 259.184L101.2 259.072V258.96L101.312 258.847V258.622V258.51V258.285V258.172H101.088H100.863L100.525 258.06H100.413V257.948V257.723L100.525 257.61L100.638 257.385L100.75 257.16V257.16L100.638 257.048L100.525 256.936V256.823L100.638 256.486V256.373L100.863 256.261L100.975 256.148L101.088 255.924L100.975 255.811H100.863L100.638 255.924H100.525H100.3L100.188 255.811L99.9631 255.699H99.8507H99.6258H99.4009H99.2884H99.176L99.0635 255.586H98.8387V255.586L98.7262 255.699V255.811V255.924V256.036L98.6138 256.261H98.2764H98.164H98.0515L97.9391 256.148L97.8267 256.036L97.7142 256.486L97.4893 256.823L97.3769 257.048L97.2644 257.723V258.172L97.152 258.622V258.96L97.3769 259.184L97.6018 259.297L97.7142 259.409L97.8267 259.634L97.7142 259.859V259.972L97.9391 260.309L98.0515 260.534V260.759L98.164 260.984L97.9391 261.771V262.333L98.0515 262.783L98.3889 263.008L98.7262 263.232L98.9511 263.345L99.0635 263.457L99.2884 263.682V264.02L99.8507 264.919L99.5133 265.032V265.256V265.594L99.2884 265.706V265.931L98.8387 265.819H98.6138H98.2764V266.044L98.164 266.381L98.0515 266.493H97.9391L97.8267 266.381H97.6018L97.3769 266.268L97.152 266.156V266.044H97.2644V265.706L97.4893 265.481L97.2644 265.369L97.3769 265.256V264.807H97.0396V265.032L96.8147 265.256L96.5898 265.481L96.3649 265.706L96.2524 266.268V266.268L96.5898 266.493L96.4773 266.606H96.14L95.9151 266.493L95.6902 266.268H95.5778L95.4653 266.493L95.2404 266.718L95.128 266.831H95.0155L94.9031 266.606L95.0155 266.268H94.6782L94.5658 266.156L94.4533 265.481L94.5658 265.369L94.2284 265.256L94.0035 265.144H93.8911L93.5538 265.256L93.3289 265.369L93.2164 265.706V265.931L93.6662 266.044H93.7787L93.6662 266.381V266.606L93.3289 266.493L93.2164 266.943H92.4293V266.718H92.092L91.7547 266.606L91.6422 266.831H91.1924L90.9676 266.718V266.493L91.08 266.268L91.3049 265.931L90.9676 265.706L90.6302 265.369V265.032L90.8551 264.807L90.9676 264.469V264.244H90.7427L90.4053 264.02L89.9555 263.682L89.6182 263.57V263.232L89.3933 262.783L89.2809 263.008V263.12L89.056 263.232L88.8311 263.345L88.7187 263.57L88.4938 263.795V264.469L88.3813 264.807L88.1564 264.919L87.8191 265.369L87.5942 265.594L87.032 265.481L86.6947 265.256V265.144L86.8071 264.694V264.357L86.9196 264.244L86.8071 264.132L87.032 263.907V263.682H86.9196L86.8071 263.345L86.6947 263.232V263.008L86.9196 262.783L87.032 262.558L87.2569 262.445V262.333L87.5942 261.996H87.7067V262.108L87.5942 262.333V262.558V262.783L87.7067 262.895H87.9315L88.044 262.783L88.1564 262.558V262.22L88.044 261.883L88.1564 261.771V261.208L87.9315 261.096L86.9196 260.646L87.032 260.309V260.196H86.6947L86.3573 260.309L86.2449 260.084L86.1324 259.859L86.3573 259.522L86.4698 259.297L86.2449 259.184L86.3573 258.847L85.9076 258.735H85.008V258.847L85.1204 258.96L84.7831 259.072L84.5582 259.409L84.3333 259.634L84.2209 260.084V260.421H84.3333L84.4458 260.309H84.6707L84.5582 260.534L85.008 260.646H85.3453V261.321L85.5702 261.658V262.558L85.2329 262.445H85.008L84.5582 262.108L84.4458 261.996V261.771L84.2209 261.658L83.996 261.433H83.7711L83.6587 261.658V261.771H83.5462V261.658L83.4338 261.433L83.3213 261.321H83.2089V261.546L83.0964 261.658H82.7591H82.5342H82.3093L82.1969 261.883L81.8596 262.22L81.7471 262.445L81.2973 263.12L81.1849 263.345L80.96 263.457V263.682L80.6227 263.907L80.3978 264.132L79.948 264.357V264.132L79.8355 263.682L79.7231 263.57L79.6107 263.457V262.783L80.0604 262.333L80.1729 261.883L80.3978 261.546L79.8355 261.096L79.4982 260.871L79.3858 260.759V260.646L79.4982 260.196L79.8355 259.972V259.634L79.948 259.522H80.1729L80.2853 259.747V259.859L80.6227 260.196L80.7351 260.084L80.96 259.972V259.634L81.1849 259.522L81.2973 258.847L81.6347 258.622H81.7471L82.0844 258.735L82.1969 259.184L82.5342 259.297H82.7591V259.184L83.2089 259.297V258.847L82.984 258.622L83.3213 258.172L83.8835 258.397L84.2209 258.51L84.4458 258.397L84.2209 258.06L83.996 257.723L83.4338 257.273L83.5462 256.936L83.3213 256.486L83.4338 255.811L83.5462 255.136L83.4338 255.024L83.2089 255.136L83.0964 255.361L82.984 255.249L82.8715 255.586L82.4218 255.924L81.972 256.148V255.924L82.1969 255.811L82.3093 255.586L82.0844 255.361L81.7471 255.136L81.5222 255.474V255.586L81.1849 255.699L81.0724 255.586L80.7351 255.361H80.5102L80.1729 255.136H79.948V255.249L79.8355 255.699V256.036H79.3858L79.1609 256.486L79.0484 256.598L79.1609 256.823H79.6107L79.4982 257.273L79.8355 258.06L79.6107 258.285H79.2733V258.847L79.0484 259.297H78.8235V260.084L78.7111 260.309L78.5987 260.759L78.2613 260.871L77.8115 259.972V259.634L77.5867 259.522H77.3618L77.0244 258.96L76.7996 258.847V258.397L77.0244 258.06V257.61L77.1369 257.385V257.273L77.2493 257.16H77.4742V257.16L77.3618 256.936H77.2493L76.912 257.048L76.6871 257.385L76.2373 257.835L76.1249 257.723L75.9 257.498L75.7876 257.273L76.1249 256.711L76.2373 256.598L76.6871 256.823L76.912 256.936L77.1369 256.711L77.2493 256.486L77.8115 256.148L77.924 255.811L78.1489 255.699L78.4862 255.586L78.0364 255.136L78.1489 254.799L79.0484 253.9L79.2733 253.675L79.3858 253.337H79.8355V253.112H81.2973L81.5222 252.55L81.972 252.663L82.0844 252.438H82.3093V252.55H82.4218L82.6467 252.325L83.0964 252.438L83.3213 252.55V252.775L83.0964 252.888L82.7591 253.112L82.6467 253.225L82.4218 253.562H82.3093L81.972 253.337H81.4098L81.2973 253.562L80.7351 253.45L80.6227 253.562V253.675L80.7351 253.9L80.8476 254.237L81.0724 254.349L81.5222 254.462H81.7471L81.972 254.799H82.1969L82.4218 255.024L82.6467 254.912L82.7591 254.799L83.2089 254.124L83.4338 253.787L83.5462 253.9H83.7711L84.1084 254.012L84.7831 253.675L84.6707 253.45L84.5582 253.225L83.996 253L83.8835 252.888V252.775L84.1084 252.663L83.996 252.325L83.8835 252.213L83.996 251.763L84.2209 251.426L83.996 251.201H83.8835V250.864L83.6587 250.526L82.984 250.414L82.7591 250.864L82.4218 251.201L82.1969 251.088L82.0844 250.864L81.6347 250.751L81.0724 250.189L81.5222 250.076L81.7471 249.739L81.8596 249.402L82.4218 249.289L82.6467 248.277L82.1969 248.052L81.8596 247.94L81.972 247.828L82.5342 247.94L82.6467 247.828L82.3093 247.603L82.1969 247.378L82.3093 247.153L81.972 247.04L81.5222 246.703L81.8596 246.366L81.972 246.141L82.0844 246.253L82.3093 246.478L82.5342 246.366L82.7591 246.028L83.0964 245.691L82.984 245.466H82.8715L83.0964 245.016L82.8715 244.904L82.6467 244.679L82.3093 244.567L82.1969 244.679L81.972 245.129L81.7471 245.579H81.6347L81.4098 245.129L81.5222 245.016L81.4098 244.792H81.1849V244.567L81.0724 244.792H80.7351L80.5102 244.679H79.948L79.7231 244.904L79.6107 245.129L79.4982 245.466L80.0604 245.804L80.1729 246.141L79.948 246.591H79.6107L79.3858 246.703H79.1609H78.1489H78.0364L77.8115 247.04L77.6991 247.378H78.0364V247.828L78.4862 247.715L78.7111 247.94L78.8235 248.277L78.936 248.84L79.0484 248.952L79.1609 249.177V249.514L79.0484 249.852L78.936 250.076H78.8235L78.4862 250.414L78.3738 250.751V250.864L78.0364 250.976L77.924 250.864H77.6991L77.4742 250.976L77.2493 250.751V250.639L77.1369 250.526V250.301L77.3618 250.189H78.0364H78.1489V250.189L78.3738 250.076L78.4862 249.964L78.3738 249.852L78.0364 249.739L77.8115 249.627L78.0364 249.289H77.5867L77.2493 248.952L76.912 249.289V249.514L76.5747 249.627H76.4622L76.5747 249.514L76.6871 249.289L76.912 249.064L77.0244 248.84L76.5747 248.727L76.1249 248.277L75.7876 248.165L75.5627 248.39H75.1129L74.888 248.727L74.7756 248.84L74.5507 248.727L74.4382 248.615L74.2133 248.277L73.876 248.052L73.7635 247.378H73.6511L73.3138 247.715L73.2013 247.94L73.0889 248.39V249.402H73.3138L73.4262 249.627V249.852H73.9884L74.1009 250.076L74.3258 250.301V250.639L74.4382 250.864L74.6631 251.088L74.7756 251.201L75.0004 251.088L75.1129 250.864H75.3378V250.639L75.9 250.526H76.4622L76.5747 250.639L76.6871 250.864L77.1369 251.201V251.313H76.6871L76.5747 251.201H76.1249V251.426H76.0124L75.6751 251.313L75.4502 251.538L75.3378 251.313H75.0004L74.7756 251.538H74.2133L73.876 251.763V252.1H73.7635V252.55L73.876 252.663L74.1009 252.55L74.4382 252.438L74.6631 252.213H74.7756V252.325L74.6631 252.663L74.5507 252.888L74.4382 253L74.3258 253.112V253.225H74.5507L74.888 253.337L75.0004 253.45L74.888 253.562L74.7756 253.787V254.012H74.888L75.0004 254.349L75.1129 254.462L75.0004 254.687H74.7756H74.5507H74.2133L74.1009 254.912L73.6511 255.024L73.5387 254.912L73.4262 254.799L73.0889 254.912L72.9764 255.024H72.864L72.4142 254.912L72.3018 254.799L72.1893 254.687L72.0769 254.462V254.124L72.3018 253.9L72.4142 253.675L72.3018 253.562L72.1893 253.675L71.9644 253.562L71.7395 253.337V253.225L71.6271 253.112L71.5147 253.337V253.45L71.4022 253.562L70.9524 253.337L70.7276 253.225H70.3902L70.0529 253.112L69.828 253L70.1653 252.55L69.9404 252.325L70.0529 252.213L69.828 251.988L69.9404 251.876L70.0529 251.538L70.6151 252.325L72.0769 251.201L72.1893 250.976L71.7395 250.526L71.6271 250.189L71.4022 250.076H71.1773L70.9524 250.639L70.3902 250.301L69.9404 250.189L69.6031 250.414H69.3782L69.1533 250.526L69.0409 250.639L69.2658 251.538L68.816 252.213H68.4787L68.3662 252.1L68.2538 251.876V251.538L67.6916 251.426L67.4667 251.651L67.2418 251.763V252.1L67.1293 252.325V252.55L66.9044 252.775L66.792 252.888L66.3422 252.775L66.1173 252.55L65.78 252.663L65.6676 253L65.4427 253.225L65.6676 253.45L65.8924 253.225L66.2298 253.112V253.225L66.6796 253.45V254.012V254.462L66.5671 254.574V254.799L66.1173 255.024L65.6676 255.136L65.3302 254.912L65.1053 254.349L64.3182 254.124L64.2058 254.349L64.0933 254.462L64.3182 254.799H64.6556L64.5431 255.024L64.3182 255.136L64.5431 255.699L64.6556 255.924L64.9929 256.148V256.261L64.3182 256.598L64.2058 257.048L64.0933 257.16H63.6435L63.1938 257.273L63.0813 257.16L62.8564 257.048V256.148H62.6316L62.5191 256.261L61.732 257.273L61.6196 257.723L61.1698 257.498L60.9449 257.16L60.72 257.048H60.3827L60.1578 257.16L60.0453 257.498L59.8204 257.835L59.9329 258.397L60.2702 258.847L60.4951 258.96L60.6076 258.847L62.0693 258.172L62.6316 257.835L62.9689 257.723L63.1938 258.172L63.3062 258.285L64.0933 257.948L64.3182 258.735L64.6556 258.847L64.9929 258.735L65.4427 258.96H65.6676L66.2298 259.409L66.0049 259.859L65.78 260.084V260.759L67.3542 264.469L67.4667 267.393L68.4787 267.618L68.816 268.18L69.4907 269.192L69.6031 270.429L68.5911 273.915L69.4907 274.477L69.3782 275.152L69.9404 274.927L70.6151 276.951L74.888 278.975L75.5627 281.224V281.673L74.888 282.236L75.2253 286.733L73.876 288.87L74.2133 291.568L75.4502 292.131L76.2373 291.906L76.5747 291.456H77.8115L78.1489 290.556L78.4862 290.332L78.8235 290.781L79.2733 289.769L79.7231 289.544L81.1849 291.568L81.5222 292.693L82.8715 293.93L82.7591 295.054L82.8715 296.179L83.8835 296.853L83.0964 297.416H82.3093L81.972 297.303L82.0844 296.741L81.5222 296.628L80.96 297.303L81.2973 298.315L82.3093 298.652L82.8715 299.44L84.5582 299.215L84.7831 300.452L84.2209 301.688L83.8835 303.825L81.2973 306.411L81.5222 307.648L80.0604 308.772V310.234L79.2733 310.684H78.5987H78.2613L77.5867 311.246L77.1369 310.909L76.5747 312.258L75.7876 312.033L74.7756 309.672L75.0004 308.885L74.7756 308.548L74.1009 309.447L73.7635 309.335L73.4262 308.772L72.864 309.447L71.9644 309.672L70.6151 309.222L70.0529 307.76L69.1533 306.973L68.5911 307.086L68.3662 306.636L68.5911 305.961L67.6916 305.624L66.5671 303.712L65.4427 303.488L63.3062 301.913L63.0813 302.026L62.6316 302.251L62.0693 303.15L61.732 304.5L60.4951 305.174L60.1578 305.849L60.2702 306.636L59.1458 307.086L59.0333 307.648L58.4711 307.76H57.9089L57.0093 306.636L56.2222 306.299L55.3227 305.062L55.4351 304.612L57.0093 302.7L56.8969 302.251L52.624 298.877L52.8489 298.54L53.0738 298.315V298.09V297.978L52.9613 297.753L52.624 297.64L52.0618 297.528L51.8369 297.416L51.7244 297.191L51.9493 296.628V296.404L51.8369 296.179L51.612 296.066H51.3871L51.1622 295.954L50.9373 295.729V295.392V295.167L51.1622 294.942L51.612 294.492L52.2867 294.155L52.624 293.817L52.8489 291.006L52.2867 289.432L52.7364 288.42L52.0618 286.621L50.7124 284.597L51.3871 283.697L51.2747 283.248L50.8249 282.123L50.2627 281.224L50.1502 281.111L49.9253 280.774L49.7004 280.099L49.4756 279.874L48.2387 279.649V277.963L49.7004 277.288L50.3751 276.276L55.4351 272.228L55.8849 270.879L55.3227 268.63L55.4351 267.843L57.5716 266.831L58.4711 265.706L59.8204 266.044L60.4951 265.931L60.3827 265.594L60.0453 265.256L59.4831 264.582V264.244H59.9329L60.3827 264.357L60.6076 264.02L60.8324 263.907V263.682L60.72 263.57H60.3827L60.2702 263.682H59.8204L59.3707 263.57L59.0333 263.232V262.783H58.8084L58.1338 262.67L58.0213 262.558V262.108H57.7964L57.9089 261.883H58.1338V261.658L58.5835 261.433L58.696 261.321L58.2462 261.096L57.7964 260.984L57.3467 260.871L57.2342 260.646V260.309V260.084H57.1218L57.0093 260.196L56.7844 260.084H56.672L56.4471 259.859L56.7844 259.409L57.0093 258.96L56.5596 258.397L55.9973 258.172V257.948L56.1098 257.385H55.3227L54.9853 257.273L54.5356 257.048L54.3107 256.936V256.598L54.7604 256.261L55.5476 255.811L55.66 255.586L55.3227 255.136L54.9853 254.574V254.349H54.4231L53.9733 254.124L53.7484 254.012L53.9733 253.112H54.0858H54.4231L54.7604 252.663L54.9853 252.55L55.4351 252.213L55.5476 251.876V251.313L55.66 251.088L55.4351 250.751V250.526L55.66 250.414L55.8849 249.852L56.1098 249.514H56.2222L56.4471 249.627V249.739L56.5596 249.852L56.7844 250.301L57.2342 250.189L57.684 250.076L57.9089 249.852L58.0213 249.514L58.1338 249.064L58.2462 248.952L58.4711 248.727L58.9209 248.615V248.39H59.1458L59.2582 248.615H59.4831L59.5956 248.39L59.4831 248.277L59.3707 247.715L59.0333 247.265L58.9209 247.04L59.0333 246.703H59.3707H59.4831L59.3707 246.478L59.0333 246.253V245.916V245.354V245.129L59.3707 245.016V244.679L59.9329 244.117L60.2702 244.004V244.342L60.3827 244.679L60.72 244.792L61.0573 244.904L61.1698 244.567V244.342L61.2822 244.117L61.6196 244.004L61.8444 243.667L62.2942 243.217L62.5191 243.442V243.442L63.9809 243.892L64.0933 243.667L64.3182 243.892L64.5431 244.117V244.229H64.8804L65.1053 244.342H65.4427L65.6676 244.117H65.8924L66.3422 244.229L66.5671 244.454L66.6796 244.342L66.9044 244.004L67.0169 243.78L67.5791 243.892L67.6916 243.667V243.33L67.9164 243.105L68.4787 243.33V243.442L68.2538 243.892L68.3662 244.004L68.9284 244.117L69.2658 244.342H69.828L70.0529 243.892L70.1653 243.667L70.5027 243.442L70.7276 243.105L71.0649 242.88H71.4022L71.6271 242.768L71.7395 242.543L71.9644 242.43H72.4142V242.093H72.6391V242.318H72.864V242.093H72.9764L73.4262 242.543L73.6511 242.43H73.876L73.9884 242.205L74.6631 241.868H74.888L75.3378 241.756H75.7876L76.2373 241.531L76.5747 241.418L76.7996 241.306L76.6871 240.968V240.744L76.912 240.631L77.0244 240.294V240.069V239.732L76.7996 239.282L77.0244 238.944L76.912 238.607L76.4622 238.27V238.045L76.2373 237.708H76.0124L75.9 237.483L76.1249 237.37V237.145L75.5627 237.033L75.2253 236.92L74.888 236.583L74.5507 236.471L74.1009 235.908V235.571L73.9884 235.234V234.896L74.3258 234.672L74.7756 235.009L74.888 234.784V234.559H75.3378L75.4502 234.334L75.5627 233.997L76.1249 232.985L76.3498 232.76L76.4622 232.423L76.912 232.535L77.3618 232.76L77.4742 232.423L77.5867 231.973L77.4742 231.86L77.1369 231.636L76.912 231.86L76.6871 232.085L76.3498 231.86L76.4622 231.636H76.5747L76.912 231.073H77.2493L77.6991 231.298L78.0364 231.411L78.1489 231.636V231.86L78.3738 231.973V231.636V231.411V230.961V230.399V230.061L78.4862 229.612L78.5987 229.499L78.7111 229.387L78.8235 229.274L78.936 229.049L79.1609 228.937L79.4982 228.712L79.7231 228.937L79.948 229.162L80.1729 228.937L80.2853 228.6L80.0604 228.375L80.2853 227.812L80.1729 227.7L79.948 227.25L79.8355 227.138L79.948 226.913L80.3978 226.688L80.7351 226.463L80.8476 226.238V226.126L81.6347 225.564L81.8596 225.226L82.0844 225.339L82.1969 225.451L82.3093 225.564V225.451L82.1969 225.226L82.0844 225.114L82.1969 225.001L82.3093 224.439L82.1969 223.989L82.3093 223.764L82.5342 223.427L82.8715 223.315L83.2089 222.865L82.5342 221.853L82.4218 221.516L82.8715 220.953L83.8835 220.504L84.1084 219.941L84.3333 219.829L84.7831 219.379L85.1204 219.154L85.3453 218.704L85.4578 218.255L85.008 218.142L84.3333 217.692L84.1084 217.58V217.355V217.13L83.4338 216.568L82.984 216.118L82.8715 216.006H83.2089L83.3213 215.781V215.556L83.4338 215.444H83.7711L84.1084 215.556H84.7831L84.8955 215.444L85.2329 214.994V214.656L85.3453 214.544V214.432L85.1204 214.207L84.7831 213.982L84.5582 213.869L84.4458 213.532V213.42L84.8955 212.97L85.1204 213.082L85.4578 213.195L85.7951 213.307L85.9076 213.195L86.02 212.97L86.2449 212.745L86.3573 212.408L86.02 211.733L84.8955 211.508L84.7831 211.171L85.1204 210.721L85.7951 210.496L86.3573 210.721L86.9196 211.508L87.4818 211.396L87.9315 211.283L88.2689 210.833L88.1564 210.608L87.5942 210.384L87.3693 209.934L87.5942 209.596L87.8191 208.922L88.2689 209.034L88.9435 208.922L89.056 209.147L89.1684 209.259H89.2809V208.922L89.6182 208.472L89.9555 207.91L90.4053 207.685L90.9676 207.235L91.08 207.01L90.8551 206.785V206.56H91.08L91.3049 206.336L91.1924 206.111L91.08 205.998L90.9676 205.773L90.1804 205.211L89.9555 205.324L89.7307 205.099L89.2809 204.986L89.056 204.874V204.536L89.5058 204.312V203.862V202.962V202.737L89.6182 202.512L89.8431 202.4L90.1804 202.512L90.5178 202.288L90.6302 202.063L91.1924 201.163L91.08 200.713L89.6182 200.488H89.1684L89.056 200.826L88.1564 200.601L87.7067 200.039L88.4938 199.027L88.3813 198.577L88.1564 198.24L87.7067 197.902L87.1444 197.228L87.032 197.115L86.9196 196.553L86.6947 196.216L86.5822 195.766H86.4698L86.2449 195.878L86.02 195.766H85.7951L85.5702 195.653V195.428L85.7951 195.204L85.6827 195.091L85.4578 194.641L85.2329 194.192V193.742L85.1204 193.517V193.404L85.7951 193.067V192.392L85.5702 191.718L85.1204 191.043L85.6827 189.694L85.7951 189.581L85.5702 189.356L84.8955 189.244L84.3333 189.356L83.7711 189.806L83.4338 190.031L83.2089 190.144H82.984L82.7591 190.031L83.3213 189.244L83.5462 188.907L83.6587 188.569L83.4338 188.457L82.8715 188.344L81.5222 187.67L81.2973 187.782L80.96 188.007L80.6227 188.12H80.1729L79.6107 188.007L79.0484 187.782L78.5987 187.22L78.2613 186.77L78.0364 186.208L77.924 186.096L77.6991 185.758V185.533L77.5867 185.308L77.4742 185.084L77.3618 184.971L77.0244 184.859H76.7996L75.7876 185.084H75.4502H75.2253L75.0004 184.859L74.888 184.184L74.7756 183.959L74.6631 183.734H74.4382L74.3258 183.622L74.1009 183.734L73.9884 183.847L73.876 184.072L73.7635 184.296H73.4262L73.3138 184.184L73.2013 184.072V183.734L73.3138 183.509V183.284L73.2013 183.172L72.864 183.284L72.5267 183.397H71.9644L71.5147 183.509L71.2898 183.622L71.1773 183.847L70.9524 184.072L70.84 184.409L70.6151 184.521H70.3902L70.1653 184.634L70.0529 184.521L69.828 184.634H69.7156L69.4907 184.521H69.2658L68.9284 184.409H68.816L68.5911 184.521L68.4787 184.634V184.746L68.3662 184.859V185.084V185.196L68.2538 185.421L68.0289 185.533H67.9164H67.6916H67.5791L67.3542 185.421H67.1293H67.0169L66.9044 185.533L66.6796 185.646H66.5671L66.3422 185.533L66.2298 185.421V185.308L66.1173 185.084L66.0049 184.971L65.5551 184.859H65.3302H65.1053L64.9929 184.746L64.768 184.634L64.6556 184.409L64.3182 184.184L63.9809 183.959H63.6435H63.3062H62.9689L62.5191 183.847L62.1818 183.734L61.9569 183.622H61.6196H61.3947L61.1698 183.509V183.284L60.9449 182.947L60.72 182.61L60.6076 182.272L60.2702 181.823L60.1578 181.71L59.8204 181.823L59.3707 182.048L58.9209 182.16H58.696L58.4711 182.048L58.2462 181.823L58.0213 181.148L57.7964 181.036L57.684 180.698L57.5716 180.248L57.4591 179.799L57.1218 179.574H56.672L56.3347 179.686L55.66 179.911H55.3227H54.648L54.1982 180.024L53.7484 180.136L53.4111 180.361L53.1862 180.698L53.0738 180.923V181.26V181.485V181.935L52.9613 182.272L52.7364 182.385L52.3991 182.272L52.0618 182.16L51.8369 181.935L51.4996 181.71L50.8249 181.485H50.7124L50.6 181.26L50.7124 180.811L50.3751 180.698L50.2627 180.586L50.1502 180.361V180.024L49.8129 179.461L49.588 178.899L49.9253 179.012L50.0378 179.124L50.1502 179.349V179.574H50.3751L50.2627 179.461H50.7124L50.9373 179.349H51.2747V179.236V178.899L51.3871 178.674L51.7244 178.562L51.8369 178.449L52.2867 178.337L52.5116 178L52.7364 177.437L52.9613 177.212V176.988H52.7364L52.5116 176.425L52.2867 176.313H52.1742L52.2867 176.65L52.1742 176.763L51.9493 176.65H51.8369L51.612 176.763L51.4996 176.65V176.538L51.3871 176.2H51.0498V175.863L50.9373 175.751H50.7124L50.6 176.088L50.3751 176.425H50.1502H49.9253L49.7004 175.976L49.4756 175.863L48.9133 175.976L48.6884 175.863L48.576 175.638H48.2387L47.9013 175.863H47.7889L47.564 175.638L47.2267 175.526L46.7769 175.638H46.4396H46.2147L45.8773 175.863V176.2L45.9898 176.313H46.3271V176.538V176.988L46.1022 176.875L45.8773 176.763H45.54V176.875L45.4276 177.212V177.212L45.6524 177.325L45.7649 177.662L45.8773 178V178.112V178.224H45.6524L45.54 178.112V177.887L45.4276 177.775H45.2027L45.0902 177.887V178L45.3151 178.224L45.2027 178.337H45.0902L44.8653 178.224L44.6404 178.112L44.1907 177.775L43.8533 177.55L43.7409 177.662H43.516H43.2911L43.0662 177.55H42.9538V177.775L43.1787 178L43.0662 178.899V179.236L43.1787 179.461L43.2911 179.574V179.686H43.0662L42.8413 179.574V179.574L42.504 180.136L42.3916 180.361L42.2791 180.473L41.9418 180.586L41.8293 180.473V180.136L42.0542 180.024L42.3916 179.574V179.461L42.1667 179.349H41.9418L42.0542 179.012L42.1667 178.674L41.8293 178.449V178L41.492 177.887H41.1547H40.9298L40.5924 178.337L40.2551 178.562L39.9178 178.449L39.6929 178.337L39.5804 178.112L39.6929 177.775H39.468L39.0182 178.224H38.7933L38.5684 178.337L38.2311 178.112V177.775L38.1187 177.662H37.6689V177.55H37.444L37.2191 177.662H36.9942V177.55V177.437V177.325L36.8818 177.212L36.6569 177.1L36.5444 177.325L36.6569 177.437L36.7693 177.775V177.887L36.6569 178.449L36.7693 178.562L36.6569 178.674V178.899H36.2071L36.0947 178.787V178.674V178.562H35.9822H35.7573L35.6449 178.337L35.5324 178.112L35.42 177.887L35.1951 178L34.9702 177.887L34.8578 177.662V177.775H34.5204L34.2956 177.55L34.1831 177.437H33.9582H33.8458L33.7333 177.325L33.6209 177.212H33.5084L33.396 177.325H33.2836L33.1711 177.212L33.0587 177.1H32.8338H32.7213L32.384 176.875L32.0467 177.1L31.8218 177.212H31.5969L31.372 176.988L31.2596 176.875L31.1471 176.763L31.0347 176.538L30.6973 176.425H30.1351V176.65L29.9102 176.988V177.212L29.2356 176.988H28.8982L28.7858 177.325L28.5609 177.662L28.336 178V178.224V178.224L28.6733 178.449V178.787V179.012L28.5609 179.236L28.4484 179.349L27.8862 179.236H27.6613L27.5489 179.686H27.324V179.461L27.2116 179.349L26.8742 179.236L26.7618 179.461L26.6493 179.574L26.4244 179.686L26.312 179.799L25.6373 180.473L24.5129 180.923H23.9507L23.8382 181.373L23.3884 181.71V181.148L23.0511 181.26L22.7138 181.598L22.0391 181.71L21.9267 181.935L21.0271 182.16L20.5773 181.935H20.1276L19.7902 182.048L19.5653 181.935H19.4529L19.3404 181.26V180.811H18.7782H18.6658L18.5533 182.16L18.4409 182.722L17.9911 183.622V183.734H18.1036V184.184L18.3284 184.409L18.5533 184.521L18.6658 184.634L18.4409 185.084L17.8787 185.646L17.6538 185.758H17.4289H17.204H17.0916L16.8667 185.871L16.7542 185.983H16.5293L16.6418 185.646L16.8667 185.308V185.196V185.196H16.9791V185.196L17.204 184.746L17.0916 184.409L16.8667 184.184L16.5293 184.072L16.3044 184.296L16.0796 184.521L15.6298 184.634V184.521V184.296L15.7422 183.847L15.4049 183.509V183.06L15.18 182.947V182.722L14.9551 182.497L14.5053 182.272L14.0556 181.485L14.3929 181.26L14.9551 181.148L15.18 180.923L15.4049 180.698L15.5173 180.586V180.361L15.2924 180.136V179.911H15.8547L16.192 179.461V179.349L16.3044 179.236L16.4169 179.349L16.6418 179.461V179.461L16.8667 179.349V179.124L16.7542 178.787H17.0916L17.3164 178.562L17.7662 178.224L18.5533 177.887L20.0151 177.437L20.6898 177.212L21.0271 176.988H21.4769L21.9267 176.875H22.264L22.4889 176.313H22.6013L22.7138 176.088H22.9387V176.313L23.1636 176.425L23.6133 175.976L24.0631 175.638L24.9627 175.076L25.4124 174.739L25.6373 174.514H25.7498L25.8622 174.626V174.851H26.0871L26.312 174.964L26.4244 174.739V174.401L27.4364 174.289L27.6613 174.176L27.8862 174.064L28.336 173.727L28.5609 173.614L28.6733 173.839H29.4604L29.5729 173.727V173.389V173.277L29.7978 173.389L30.0227 173.277L30.1351 173.164H29.9102H29.7978V172.94L30.1351 173.052L30.2476 172.94V172.715L30.0227 172.602L30.1351 172.152L29.7978 171.928L29.6853 171.59L29.5729 171.478L29.2356 171.59L29.1231 171.703L29.0107 171.928L28.8982 172.377L28.7858 173.052L28.8982 173.389L28.1111 173.277L27.7738 172.94V172.715L27.6613 172.265L27.0991 171.703L27.2116 171.478L27.0991 170.916L26.7618 170.803L26.6493 170.691H26.5369L26.4244 171.14L26.312 171.59L25.9747 172.152L25.4124 171.928L24.9627 171.815L24.7378 171.928L24.6253 172.377L24.4004 172.49L24.288 172.265L24.1756 172.04L23.8382 171.928H23.0511L22.8262 171.703V171.365L22.264 171.253L22.1516 171.14H21.9267L21.3644 171.59L21.4769 171.028L21.5893 170.691L21.8142 170.466L21.9267 170.128L21.8142 169.904V169.791L21.9267 169.566L21.7018 169.341L21.1396 169.454V169.229L20.9147 169.341L20.5773 169.454L20.3524 169.904H19.5653L19.4529 169.679L19.5653 169.566L19.6778 169.229L19.7902 169.004L19.6778 168.667L19.5653 168.442L19.1156 168.554H18.8907L18.7782 168.442L18.8907 168.217H19.1156L19.3404 167.992L19.5653 167.88L19.7902 167.992L20.24 168.104L20.3524 167.655L20.4649 167.88L20.5773 167.767L20.6898 167.655L20.8022 167.43L21.3644 167.542L21.5893 167.43L22.1516 167.092L22.4889 167.205L22.6013 167.092H22.7138H22.8262L23.0511 166.98L23.1636 166.868V166.53L23.0511 166.305L22.9387 166.08V165.856H23.1636L23.5009 165.743L23.6133 165.406L23.5009 165.068V164.844L23.7258 164.731L23.8382 164.506V164.394H23.9507L24.5129 164.619L24.7378 164.844H24.9627L25.0751 164.619L25.1876 164.506H25.6373L25.8622 164.281L26.0871 164.056L26.4244 163.832L26.5369 163.494L26.6493 163.269L26.312 163.044L25.9747 162.595H25.7498H25.3L25.0751 162.482V162.145L25.1876 161.808L25.3 161.695V161.358L24.9627 161.245V161.133V161.02V160.908V160.683L24.6253 160.458V160.121L24.4004 160.008L24.1756 160.121L24.0631 160.233H23.9507H23.8382L23.7258 159.896L23.6133 159.784V159.671L23.9507 159.446V159.334L23.8382 159.221L23.6133 159.109L23.7258 158.884V158.659L23.6133 158.434H23.3884L22.9387 158.209L23.0511 157.984H23.3884L23.5009 157.647L23.8382 157.535L23.9507 157.31V156.748L24.0631 156.185L23.8382 155.96L23.7258 156.185H23.6133V156.41L23.1636 156.298L22.7138 156.523L22.4889 156.635L22.3764 156.86H22.1516L22.0391 156.748L21.8142 156.523L21.5893 156.41L21.1396 156.298L20.6898 156.185V155.96V155.511L20.3524 155.623L20.0151 155.511L19.5653 155.173L19.3404 154.836L19.228 154.724V154.499H19.0031L18.8907 154.161L18.4409 153.936L17.8787 153.824L17.4289 154.161L17.204 153.824H17.0916L15.8547 153.487V153.037L15.7422 152.475L15.2924 152.137L15.18 151.912V151.688V151.238L15.2924 150.788L15.5173 150.676H15.7422L15.8547 150.563L15.7422 150.338L15.8547 150.113L15.6298 150.001L15.4049 149.888V149.888H15.2924L15.4049 149.776L15.2924 149.664L15.0676 149.888V149.888L14.9551 149.551L14.8427 149.326H14.7302H14.6178L14.2804 149.214L14.168 149.101L14.0556 148.989V148.764V148.652L14.168 148.202L14.0556 147.977L13.8307 147.864L13.7182 147.752L13.6058 147.415L13.3809 147.19L12.9311 147.415L12.5938 147.19H12.144L12.0316 146.965L11.5818 146.74L11.4693 146.515V146.178L11.6942 146.065L11.8067 145.84L11.6942 145.616H11.4693L11.3569 145.503V144.716V144.379H11.5818L11.6942 144.266L11.9191 143.816L12.2564 143.592L12.144 143.367V143.367L11.9191 143.254L11.5818 143.142L11.2444 143.367L11.0196 143.254L10.7947 143.142L10.4573 142.692L10.5698 142.242L11.8067 140.893L12.0316 140.331L11.6942 139.881V139.319L11.4693 139.094L11.6942 138.981L11.4693 138.532V138.194V137.744L11.0196 137.52H10.2324L10.0076 137.632L9.78267 137.407V137.295V136.62L10.4573 136.283V136.058L10.2324 135.833L10.12 135.271V135.046L10.0076 134.596L10.2324 134.259L10.0076 133.584L9.78267 133.247L9.55778 133.134H8.99555L8.88311 132.909V132.797L9.22044 132.347L9.55778 132.235V132.01V131.672L10.0076 131.56H10.3449L10.5698 131.672L11.0196 131.448L11.132 131.223L11.0196 130.998L11.2444 130.773V130.548L11.4693 130.323L11.5818 130.211L11.8067 130.098H11.9191H12.0316L12.144 130.211H12.5938L12.7062 130.098H12.8187L13.2684 129.986H13.6058L13.9431 130.211L14.3929 130.323H14.7302L15.0676 130.098V129.986L14.6178 129.536V129.311L14.5053 129.086L14.6178 128.974L14.5053 128.861L14.8427 128.749L14.9551 128.412V128.299H15.0676H15.4049V128.412L15.7422 128.636V128.861L16.0796 129.086L16.3044 129.311L16.5293 129.199L16.8667 129.086L17.204 128.749L17.5413 128.524L17.6538 128.187V126.837L17.5413 126.388L17.8787 126.163L18.1036 126.05H18.216L18.3284 126.275L18.6658 126.612L19.0031 126.5L19.3404 126.275L19.6778 126.5L19.7902 126.725L20.0151 126.5L20.24 126.05L20.4649 125.376L20.5773 125.038V124.813H20.0151H19.4529L19.3404 124.251L19.5653 124.026H20.0151L20.4649 123.801V123.464L20.1276 123.239L19.6778 122.902V122.452L19.4529 122.115L18.8907 121.665L19.1156 121.44L19.0031 121.215L18.6658 121.103H17.9911L17.7662 120.765L17.8787 120.653L18.216 120.54L18.5533 120.203V120.091V119.753L18.4409 119.528L18.1036 119.191L17.8787 119.079L17.6538 118.854L17.4289 118.516L17.5413 118.292L17.6538 118.179V117.954L17.7662 117.842V117.392H18.1036V117.504V117.729V117.842L18.216 117.954V117.954L18.3284 118.067H18.4409H18.5533V117.842V117.729V117.504V117.28L18.6658 117.055L19.0031 116.83L19.1156 116.605V116.38L18.8907 116.155H18.3284L18.216 116.043L18.3284 115.818L18.6658 115.593L18.7782 115.48V115.256L18.6658 115.143V114.693L19.1156 114.356L19.228 114.581L19.6778 114.693L20.0151 114.581L20.4649 114.356L20.8022 114.019V113.456L20.5773 113.232H20.24L20.0151 113.456L19.7902 113.344L19.3404 113.119L19.1156 113.232L18.8907 113.456L18.7782 113.794L18.5533 113.681V113.344V112.894L18.4409 112.444L18.6658 112.22H19.0031L19.4529 112.669L19.5653 112.894H19.7902L19.9027 112.782L20.1276 112.669V112.22L20.0151 111.995L19.7902 111.882L19.5653 111.657V111.432L19.9027 111.208L20.8022 110.645V110.533L20.5773 110.308H20.24L20.0151 110.533L19.7902 110.42L19.5653 110.645L19.3404 110.533L19.228 110.42L18.8907 110.196L18.6658 110.083L18.5533 110.308L18.3284 110.196L18.216 109.746V109.408V109.071L18.6658 108.734V108.284L18.8907 107.384L17.8787 106.597V106.372L17.3164 106.26V106.035V105.923L17.6538 105.698L18.216 105.473L18.4409 105.023L18.7782 104.461L18.5533 104.348L18.7782 104.124L18.216 103.449L17.9911 103.336L17.7662 103.112L17.4289 102.774V102.662H17.6538L17.7662 102.549L17.8787 102.1L17.5413 101.65L16.9791 101.875L16.8667 101.762V101.425L16.4169 101.312L15.7422 100.975V100.525L15.6298 99.8507L15.18 99.9631H14.8427L14.168 99.8507L14.3929 99.2885L13.9431 99.0636L13.7182 98.9511L13.6058 99.176H13.4933L13.2684 99.0636L13.0436 98.7262L12.9311 98.5013L12.8187 98.2764V97.8267V97.6018H12.3689H12.0316L11.8067 97.3769L11.6942 96.9271V96.5898L11.3569 96.3649L10.3449 95.3529L9.89511 94.9031L9.67022 94.5658L9.44533 93.7787L9.33289 93.6662L9.44533 93.3289L9.67022 93.104H9.78267L9.89511 93.2164L10.12 92.9916V92.8791L10.2324 92.7667V92.6542H10.3449H10.4573L10.5698 92.5418H10.6822H10.9071L11.0196 92.4293H11.2444H11.3569V92.3169L11.4693 92.2044V92.2044L11.5818 91.9796L11.4693 91.7547L11.5818 91.5298L11.4693 91.4173V91.3049V91.3049L11.2444 91.08L11.132 90.9676L11.0196 90.8551L10.7947 90.7427V90.7427L10.3449 90.4053L10.4573 90.2929V90.1804L10.5698 89.8431V89.7307V89.7307V89.2809L10.6822 88.9436L10.7947 88.8311V88.7187V88.4938V88.4938H11.0196V88.4938L11.132 88.3813V88.2689L11.0196 87.9316L10.9071 87.7067L10.6822 87.4818L10.7947 87.2569V86.9196L10.9071 86.8071L11.0196 86.6947H10.9071H10.7947L10.6822 86.8071V86.8071L10.4573 86.6947H10.3449H10.2324L9.89511 86.8071L9.67022 86.9196L9.44533 87.1444L9.33289 87.032L9.22044 86.9196L9.108 86.6947L9.22044 86.4698V86.3573V86.2449L9.108 86.1324L8.99555 86.02L8.77067 85.7951L8.54578 85.5702V85.5702H7.98355L7.75867 85.4578L7.64622 85.3453L7.75867 85.2329V85.008H7.87111V84.7831V84.6707H7.64622V84.5582H7.42133H7.30889L7.084 84.4458H6.97155V84.4458V84.2209L6.85911 83.7711H6.74667L6.63422 83.5462L6.18444 83.3213L6.52178 83.0964L6.29689 82.984L5.84711 83.0964L5.50978 82.984L5.39733 82.7591L5.17244 82.4218V82.3093V82.0844L5.28489 81.6347L6.072 81.7471V81.6347V81.4098H6.18444L6.29689 81.2973V81.1849L6.18444 81.0724V80.96V80.8476V80.6227V80.6227L5.84711 80.1729V79.948L5.95956 79.8356L5.84711 79.4982H5.73467L5.62222 79.3858V79.1609L5.39733 79.0485H5.17244L4.72267 78.8236V78.7111L4.83511 78.5987L4.72267 78.4862V78.1489L4.94756 77.924H5.06L5.28489 77.8116H5.50978L5.95956 78.0364L6.072 78.2613L6.18444 78.3738L6.40933 78.2613L6.52178 77.8116L6.40933 77.5867L6.52178 77.4742L6.63422 77.3618V77.0244L6.74667 76.7996V76.5747L6.63422 76.2373L6.29689 76.0124L6.18444 75.7876L6.072 75.6751L5.50978 75.4502L5.28489 75.5627L5.06 75.3378L4.94756 75.1129L5.06 74.888L4.94756 74.5507L4.83511 74.2133L4.94756 73.7636H5.06L5.17244 73.4262L5.28489 72.7516L5.06 72.6391L4.94756 72.3018L4.83511 71.852V71.6271V71.1773L4.72267 70.9524V70.6151L4.38533 70.5027V70.6151H4.16044L3.71067 70.5027V70.2778L3.93556 70.0529V69.7156H3.82311V69.1533L3.71067 68.816V68.2538L3.48578 68.0289H3.036H2.81111L2.47378 67.5791L2.24889 67.3542V67.1293L2.47378 66.5671H2.69867L2.92356 66.3422V66.0049V66.0049V65.2178L2.36133 64.8804V64.4307L2.69867 64.2058V63.5311V63.4187L2.81111 62.9689L2.69867 62.6316L2.58622 62.4067V62.2942L2.69867 62.1818V62.0693L2.58622 61.732L2.24889 61.2822L2.13644 61.0573L2.24889 60.8324L2.47378 60.6076L2.69867 60.4951L3.036 60.2702L2.92356 60.1578V59.5956V59.3707V59.2582L2.81111 59.0333L2.69867 58.9209H2.58622L2.47378 58.5836V58.4711V58.3587H2.58622V58.2462L2.81111 57.9089V57.7964V57.684L2.92356 57.4591L3.036 57.1218L3.14844 56.8969L3.37333 56.672V56.4471L3.48578 56.2222L3.37333 55.8849H3.26089L3.37333 55.5476L3.48578 55.4351V55.2102V54.9853L3.26089 54.8729L3.036 54.7604H2.92356L2.69867 54.8729L2.47378 54.7604H2.24889L2.024 54.5356L1.91156 54.1982L2.024 53.9733V53.636L1.79911 53.4111V53.2987L2.024 52.9613H2.58622L2.92356 52.7364L3.14844 52.624L3.37333 52.3991L3.14844 52.2867V52.1742L3.036 52.3991L2.69867 52.2867L2.36133 51.8369L2.24889 51.3871V50.8249L2.69867 50.4876L2.92356 50.1502V50.0378V49.7004L2.81111 49.4756L2.58622 49.3631L2.24889 49.2507L2.024 49.1382L1.79911 49.0258V48.2387L2.13644 47.7889L2.24889 47.564L2.13644 47.2267L2.024 47.1142L1.68667 46.8893L1.34933 46.3271H0.899556V46.2147V45.8773L0.562222 45.6524L0.674667 45.3151V45.0902L0.899556 44.9778L0.787111 44.7529L1.012 44.4156V44.4156L1.12444 44.1907L1.34933 44.0782H1.57422L1.79911 43.9658V43.8533L2.024 43.6284H1.91156L1.79911 43.516L1.68667 43.2911V43.1787H1.57422L1.46178 43.0662H1.34933L1.23689 42.9538H1.012L0.787111 42.7289L0.674667 42.504L0.562222 42.3916L0.337333 42.2791H0.224889H0.112444L0 42.1667L0.112444 41.9418L0.224889 41.8293L0.449778 41.7169L0.674667 41.8293L1.012 41.7169H1.12444L1.23689 41.6044L1.12444 41.492V41.3796L1.23689 41.2671L1.34933 40.9298V40.9298L1.12444 40.8173H1.012L0.899556 40.7049V40.7049V40.5924V40.3676L1.012 40.2551V40.0302V39.8053H1.12444L1.34933 39.5804V39.5804H1.46178V39.5804L1.57422 39.6929L1.91156 39.5804L2.13644 39.3556L2.24889 39.2431V39.0182V39.0182L2.36133 38.9058L2.47378 38.7933L2.58622 38.6809V38.456L2.47378 38.1187V38.0062H2.69867V37.8938L2.81111 37.7813L2.69867 37.5564V37.444V37.3316L2.92356 37.2191V37.1067V36.9942L3.14844 36.7693L3.26089 36.6569V36.6569V36.432L3.14844 36.2071L2.92356 35.7573H2.81111L2.69867 35.6449L2.47378 35.5324L2.24889 35.3076V34.9702V34.8578L2.36133 34.5204V34.0707L2.24889 33.9582L1.91156 33.8458L1.68667 33.5084L1.91156 32.8338H2.13644L2.47378 32.7213L2.92356 32.4964V32.384L3.036 31.9342L3.26089 31.7093H3.48578H3.59822L3.71067 31.5969L3.82311 31.372L4.048 31.1471L3.93556 30.8098L4.048 30.6973L4.27289 30.5849V30.1351V29.6853V29.4604V29.0107V28.7858L4.38533 28.4484L4.61022 28.336H4.72267L4.94756 28.1111L5.06 27.9987L5.17244 27.7738L5.28489 27.6613V27.4364V27.0991L5.06 26.9867L4.94756 26.8742L4.61022 26.1996V25.7498V25.5249L4.72267 25.4124H5.06L5.28489 25.3L5.39733 25.1876H5.62222V25.1876L5.73467 25.0751L5.84711 24.9627L5.95956 24.8502L6.072 24.7378V24.6253L6.18444 24.4004V24.4004H6.29689L6.52178 24.0631L6.63422 23.7258L6.85911 23.3884L6.74667 23.276L7.30889 22.8262V22.6013V22.1516L7.53378 22.0391L7.87111 21.9267L8.20844 21.5893V21.4769L8.65822 21.252V20.8022V20.5773L8.77067 20.3524V19.9027L8.88311 19.6778V19.4529L8.65822 19.0031L8.54578 18.7782H8.77067H8.99555L9.108 18.6658V18.6658L9.33289 18.4409L9.55778 18.216L10.3449 18.1036H10.7947L11.132 18.216L11.2444 17.9911L11.3569 17.8787L11.6942 17.5413L12.144 17.204L12.3689 16.9791H12.4813L12.5938 16.7542L12.7062 16.6418L13.0436 16.3044L13.3809 16.4169L13.9431 16.3044H14.2804L14.8427 15.8547L15.18 15.6298L14.7302 15.4049L14.2804 15.2924V15.18L14.3929 15.0676H14.6178L14.9551 14.5053L15.18 14.2804L14.9551 14.168L15.0676 13.6058V13.2684L15.18 13.156L15.2924 12.9311L15.4049 12.5938L15.6298 12.4813V12.7062H15.7422V12.4813H16.3044L16.5293 12.5938L16.7542 12.2564L17.0916 11.9191L17.204 11.6942H17.4289L17.6538 11.3569L17.7662 11.0196L18.216 10.3449L18.5533 9.89511V9.55778L18.7782 9.44533L19.0031 8.99556L19.3404 8.54578L19.6778 8.20844L19.7902 7.98356L19.9027 7.53378L20.0151 7.30889L20.24 6.74667V6.52178H20.4649L20.9147 6.072L21.5893 5.62222L21.9267 5.39733L22.1516 5.17244L22.3764 4.94756V4.61022L22.1516 4.38533L22.0391 4.048V3.82311L22.3764 3.37333L22.4889 3.036L22.6013 2.69867L22.8262 2.47378L23.1636 2.24889V1.91156L22.6013 1.79911L22.4889 1.46178H22.3764ZM147.415 267.393L147.527 267.505L147.752 267.618H148.089L148.202 267.393L148.089 267.168L147.864 266.943L147.415 267.168V267.393ZM150.788 268.18L150.9 268.405V268.63V269.08L151.463 269.304V268.63L151.35 268.068L150.788 268.18Z" fill="url(#paint0_linear_32_181)"/>
<defs>
<linearGradient id="paint0_linear_32_181" x1="168.104" y1="0" x2="168.104" y2="327.438" gradientUnits="userSpaceOnUse">
<stop stop-color="#313030"/>
<stop offset="1" stop-color="#111111"/>
</linearGradient>
</defs>
</svg>
